<svg width="480" height="480" viewBox="0 0 480 480" fill="none" xmlns="http://www.w3.org/2000/svg">
<ellipse cx="239.921" cy="240" rx="221.61" ry="240" fill="url(#paint0_linear_7_2)" fill-opacity="0.6"/>
<path d="M279.992 176.689C334.927 213.462 380.466 253.985 409.692 289.734C424.31 307.616 434.79 324.235 440.348 338.536C445.921 352.872 446.436 364.562 441.661 372.927C436.887 381.292 427.002 386.021 412.669 387.033C398.372 388.043 379.961 385.322 358.655 379.156C316.061 366.831 262.23 340.836 207.295 304.063C152.359 267.289 106.82 226.767 77.5945 191.017C62.9758 173.135 52.4964 156.517 46.9378 142.216C41.3654 127.88 40.8504 116.189 45.6246 107.824C50.3988 99.4592 60.2846 94.7309 74.617 93.7187C88.9139 92.7089 107.325 95.4297 128.631 101.595C171.225 113.921 225.056 139.916 279.992 176.689Z" stroke="#B080FF" stroke-width="3"/>
<path d="M207.463 174.361C264.474 141.506 319.741 119.33 362.979 110.009C384.607 105.346 403.14 103.919 417.346 105.926C431.585 107.938 441.173 113.347 445.443 122.036C449.712 130.725 448.498 142.36 442.084 156.273C435.685 170.154 424.238 186.004 408.584 202.826C377.29 236.456 329.432 273.709 272.42 306.563C215.408 339.418 160.142 361.594 116.904 370.915C95.2762 375.578 76.7425 377.005 62.5368 374.998C48.298 372.986 38.7094 367.577 34.4399 358.888C30.1704 350.199 31.3847 338.564 37.7987 324.651C44.1977 310.77 55.645 294.92 71.2984 278.098C102.592 244.468 150.451 207.215 207.463 174.361Z" stroke="#B080FF" stroke-width="3"/>
<defs>
<linearGradient id="paint0_linear_7_2" x1="18.3104" y1="240" x2="461.531" y2="240" gradientUnits="userSpaceOnUse">
<stop stop-color="#FDFBFB"/>
<stop offset="1" stop-color="#EBEDEE"/>
</linearGradient>
</defs>
</svg>
