<svg width="53" height="53" viewBox="0 0 53 53" fill="none" xmlns="http://www.w3.org/2000/svg">
<circle cx="26.7066" cy="26.5418" r="23" transform="rotate(-8.03694 26.7066 26.5418)" fill="#192844"/>
<path d="M18.6468 18.3194C18.4667 18.1736 18.2591 18.0657 18.0364 18.0019C17.8137 17.9381 17.5804 17.9199 17.3505 17.9482C17.1206 17.9765 16.8988 18.0509 16.6982 18.1668C16.4977 18.2828 16.3225 18.4379 16.1832 18.623C16.0439 18.8081 15.9433 19.0194 15.8875 19.2442C15.8316 19.469 15.8216 19.7027 15.858 19.9315C15.8944 20.1603 15.9766 20.3794 16.0995 20.5757C16.2224 20.772 16.3837 20.9416 16.5736 21.0743L21.9927 25.1545C22.6565 25.6543 23.4122 26.0183 24.2167 26.2259C25.0212 26.4335 25.8588 26.4806 26.6815 26.3644C27.5042 26.2483 28.2959 25.9712 29.0115 25.5489C29.7271 25.1267 30.3524 24.5676 30.8519 23.9036L34.9296 18.4836C35.1955 18.1177 35.3069 17.6619 35.24 17.2146C35.1731 16.7673 34.9332 16.3641 34.5719 16.092C34.2106 15.8198 33.7569 15.7005 33.3085 15.7596C32.86 15.8187 32.4528 16.0516 32.1744 16.4081L28.0945 21.8296C27.8675 22.1313 27.5833 22.3854 27.258 22.5773C26.9328 22.7692 26.573 22.8951 26.1991 22.9479C25.8252 23.0007 25.4445 22.9793 25.0789 22.885C24.7132 22.7907 24.3698 22.6252 24.0681 22.3981L18.6477 18.3181L18.6468 18.3194ZM21.2386 36.6753C20.9574 37.0227 20.5523 37.2475 20.1087 37.3021C19.6651 37.3568 19.2176 37.2372 18.8605 36.9684C18.5033 36.6996 18.2645 36.3027 18.1942 35.8613C18.1239 35.4199 18.2277 34.9685 18.4837 34.6021L22.5613 29.181C23.0607 28.517 23.6861 27.9579 24.4017 27.5356C25.1172 27.1134 25.909 26.8363 26.7317 26.7201C27.5544 26.604 28.3919 26.651 29.1964 26.8586C30.0009 27.0662 30.7566 27.4303 31.4204 27.9301L36.8394 32.0091C37.1962 32.2872 37.4295 32.6942 37.489 33.1426C37.5486 33.591 37.4296 34.0448 37.1578 34.4063C36.886 34.7679 36.4831 35.0082 36.0358 35.0755C35.5886 35.1428 35.1328 35.0318 34.7666 34.7663L29.3451 30.6864C29.0434 30.4593 28.6999 30.2939 28.3343 30.1996C27.9686 30.1052 27.588 30.0839 27.2141 30.1366C26.8402 30.1894 26.4803 30.3154 26.1551 30.5073C25.8299 30.6991 25.5457 30.9532 25.3186 31.255L21.2399 36.6763L21.2386 36.6753Z" fill="white"/>
</svg>
