<svg width="130" height="59" viewBox="0 0 130 59" fill="none" xmlns="http://www.w3.org/2000/svg">
<g id="Vector 4" filter="url(#filter0_dd_311_1016)">
<path d="M9.1084 30.0662C13.2793 24.7921 19.5357 12.1343 23.7066 15.2988C27.0433 17.8303 29.9629 28.3082 31.0057 33.2307C31.7008 38.1532 33.7167 47.9981 36.2193 47.9981C38.7218 47.9981 44.9087 39.5596 47.6893 35.3403C50.1223 30.7694 55.614 22.0496 58.1165 23.7373C60.6191 25.425 66.1108 34.2855 68.5438 38.5048C69.7603 40.6144 70.6293 42.724 72.7147 40.6144C74.8415 38.463 81.4041 28.6598 84.1847 23.7373C87.1923 18.413 87.981 7.91502 94.612 7.91504C98.2929 7.91505 107.316 19.2375 113.058 26.8433C114.584 28.8654 116.961 30.0662 119.494 30.0662H121.723" stroke="#B080FF"/>
</g>
<defs>
<filter id="filter0_dd_311_1016" x="0.716309" y="0.415039" width="129.006" height="58.083" filterUnits="userSpaceOnUse" color-interpolation-filters="sRGB">
<feFlood flood-opacity="0" result="BackgroundImageFix"/>
<feColorMatrix in="SourceAlpha" type="matrix" values="0 0 0 0 0 0 0 0 0 0 0 0 0 0 0 0 0 0 127 0" result="hardAlpha"/>
<feOffset dy="1"/>
<feGaussianBlur stdDeviation="4"/>
<feComposite in2="hardAlpha" operator="out"/>
<feColorMatrix type="matrix" values="0 0 0 0 0.690196 0 0 0 0 0.501961 0 0 0 0 1 0 0 0 1 0"/>
<feBlend mode="normal" in2="BackgroundImageFix" result="effect1_dropShadow_311_1016"/>
<feColorMatrix in="SourceAlpha" type="matrix" values="0 0 0 0 0 0 0 0 0 0 0 0 0 0 0 0 0 0 127 0" result="hardAlpha"/>
<feOffset dy="4"/>
<feGaussianBlur stdDeviation="3"/>
<feComposite in2="hardAlpha" operator="out"/>
<feColorMatrix type="matrix" values="0 0 0 0 0.690196 0 0 0 0 0.501961 0 0 0 0 1 0 0 0 1 0"/>
<feBlend mode="normal" in2="effect1_dropShadow_311_1016" result="effect2_dropShadow_311_1016"/>
<feBlend mode="normal" in="SourceGraphic" in2="effect2_dropShadow_311_1016" result="shape"/>
</filter>
</defs>
</svg>
