<svg width="77" height="14" viewBox="0 0 77 14" fill="none" xmlns="http://www.w3.org/2000/svg">
<path d="M26.499 9.889H23.76L23.353 11H21.813L25.058 3.201H25.168L28.424 11H26.928L26.499 9.889ZM26.092 8.822L25.289 6.732L25.102 6.116L24.926 6.732L24.156 8.822H26.092ZM29.6272 5.522H30.9362V5.698L30.8262 6.468C30.8702 6.26267 30.9692 6.0775 31.1232 5.9125C31.2809 5.7475 31.4734 5.61733 31.7007 5.522C31.928 5.42667 32.1645 5.379 32.4102 5.379C33.1142 5.379 33.6385 5.6265 33.9832 6.1215C34.3279 6.61283 34.5002 7.30033 34.5002 8.184C34.5002 8.811 34.4085 9.34817 34.2252 9.7955C34.0419 10.2392 33.7852 10.5765 33.4552 10.8075C33.1252 11.0385 32.7402 11.154 32.3002 11.154C31.9189 11.154 31.6017 11.0367 31.3487 10.802C31.0957 10.5637 30.9215 10.2667 30.8262 9.911L30.9582 10.945V13.398H29.6272V5.522ZM31.9812 10.065C32.1682 10.065 32.3424 10.0027 32.5037 9.878C32.6687 9.75333 32.8025 9.55533 32.9052 9.284C33.0079 9.009 33.0592 8.66067 33.0592 8.239C33.0592 7.84667 33.0115 7.52033 32.9162 7.26C32.8209 6.99967 32.6925 6.809 32.5312 6.688C32.3735 6.56333 32.1975 6.501 32.0032 6.501C31.7832 6.501 31.5944 6.57983 31.4367 6.7375C31.279 6.89517 31.1599 7.11333 31.0792 7.392C30.9985 7.667 30.9582 7.97867 30.9582 8.327C30.9582 8.67167 30.9985 8.976 31.0792 9.24C31.1635 9.50033 31.2827 9.70383 31.4367 9.8505C31.5907 9.9935 31.7722 10.065 31.9812 10.065ZM38.554 11.143C37.9636 11.143 37.476 11.0183 37.091 10.769C36.706 10.516 36.4236 10.1787 36.244 9.757C36.068 9.33533 35.98 8.85867 35.98 8.327C35.98 7.78433 36.079 7.29117 36.277 6.8475C36.4786 6.40017 36.772 6.04633 37.157 5.786C37.542 5.522 38.0003 5.39 38.532 5.39C39.324 5.39 39.8905 5.61917 40.2315 6.0775C40.5725 6.53217 40.743 7.21233 40.743 8.118C40.743 8.294 40.7356 8.492 40.721 8.712H37.421C37.443 9.15567 37.5658 9.4985 37.7895 9.7405C38.0168 9.97883 38.3486 10.098 38.785 10.098C39.0123 10.098 39.2561 10.0485 39.5165 9.9495C39.7768 9.84683 39.9693 9.724 40.094 9.581L40.534 10.626C40.017 10.9707 39.357 11.143 38.554 11.143ZM39.346 7.854C39.346 7.315 39.2781 6.94467 39.1425 6.743C39.0105 6.53767 38.818 6.435 38.565 6.435C38.2093 6.435 37.9325 6.567 37.7345 6.831C37.5401 7.095 37.432 7.436 37.41 7.854H39.346ZM43.0371 8.976L43.4441 8.305L43.0261 7.601L41.9041 5.522H43.4661L44.1261 6.908L44.4011 7.546L44.6871 6.908L45.3361 5.522H46.7991L45.6991 7.557L45.3031 8.25L45.6991 8.91L46.8871 11H45.3361L44.5441 9.526L44.3021 9.031L44.1041 9.526L43.4221 11H41.9041L43.0371 8.976ZM53.8898 3.333V11.154H53.7798L50.1058 6.963L49.7648 6.523L49.8198 7.59V11H48.4668V3.201H48.5878L52.2068 7.425L52.5918 7.9255L52.5368 6.875V3.333H53.8898ZM58.4012 11.143C57.8109 11.143 57.3232 11.0183 56.9382 10.769C56.5532 10.516 56.2709 10.1787 56.0912 9.757C55.9152 9.33533 55.8272 8.85867 55.8272 8.327C55.8272 7.78433 55.9262 7.29117 56.1242 6.8475C56.3259 6.40017 56.6192 6.04633 57.0042 5.786C57.3892 5.522 57.8476 5.39 58.3792 5.39C59.1712 5.39 59.7377 5.61917 60.0787 6.0775C60.4197 6.53217 60.5902 7.21233 60.5902 8.118C60.5902 8.294 60.5829 8.492 60.5682 8.712H57.2682C57.2902 9.15567 57.4131 9.4985 57.6367 9.7405C57.8641 9.97883 58.1959 10.098 58.6322 10.098C58.8596 10.098 59.1034 10.0485 59.3637 9.9495C59.6241 9.84683 59.8166 9.724 59.9412 9.581L60.3812 10.626C59.8642 10.9707 59.2042 11.143 58.4012 11.143ZM59.1932 7.854C59.1932 7.315 59.1254 6.94467 58.9897 6.743C58.8577 6.53767 58.6652 6.435 58.4122 6.435C58.0566 6.435 57.7797 6.567 57.5817 6.831C57.3874 7.095 57.2792 7.436 57.2572 7.854H59.1932ZM62.8843 8.976L63.2913 8.305L62.8733 7.601L61.7513 5.522H63.3133L63.9733 6.908L64.2483 7.546L64.5343 6.908L65.1833 5.522H66.6463L65.5463 7.557L65.1503 8.25L65.5463 8.91L66.7343 11H65.1833L64.3913 9.526L64.1493 9.031L63.9513 9.526L63.2693 11H61.7513L62.8843 8.976ZM68.16 3.168H69.7V4.631H68.16V3.168ZM68.215 5.522H69.645V11H68.215V5.522ZM72.937 11.154C72.6107 11.154 72.3357 11.0807 72.112 10.934C71.8884 10.7873 71.7197 10.5893 71.606 10.34C71.496 10.0907 71.441 9.812 71.441 9.504C71.441 9.23633 71.529 8.9705 71.705 8.7065C71.8847 8.43883 72.2019 8.2115 72.6565 8.0245C73.1112 7.8375 73.7254 7.744 74.499 7.744V7.491C74.499 7.19033 74.4257 6.9575 74.279 6.7925C74.136 6.6275 73.883 6.545 73.52 6.545C73.234 6.545 72.9535 6.5945 72.6785 6.6935C72.4072 6.78883 72.2074 6.908 72.079 7.051L71.639 5.995C71.8884 5.82633 72.1982 5.68333 72.5685 5.566C72.9389 5.44867 73.333 5.39 73.751 5.39C74.2754 5.39 74.6897 5.47067 74.994 5.632C75.302 5.79333 75.5184 6.02067 75.643 6.314C75.7677 6.60733 75.83 6.97033 75.83 7.403V11H74.653L74.554 10.219C74.3597 10.5343 74.1287 10.769 73.861 10.923C73.597 11.077 73.289 11.154 72.937 11.154ZM73.52 10.098C73.6887 10.098 73.8665 10.0302 74.0535 9.8945C74.2405 9.75883 74.389 9.58833 74.499 9.383V8.602C74.4477 8.59467 74.3597 8.591 74.235 8.591C73.8647 8.591 73.5329 8.65333 73.2395 8.778C72.9499 8.899 72.805 9.097 72.805 9.372C72.805 9.63233 72.8619 9.81933 72.9755 9.933C73.0929 10.043 73.2744 10.098 73.52 10.098Z" fill="url(#paint0_linear_1_47)"/>
<path d="M20.3 0H16.45L13.475 9.23125L15.2687 14L20.3 0Z" fill="url(#paint1_linear_1_47)"/>
<path d="M9.49375 0C9.3625 0.30625 8.9075 1.51375 7.6125 5.11875L10.85 14H14.6125L9.49375 0Z" fill="url(#paint2_linear_1_47)"/>
<path d="M8.575 0H5.1625L0 13.9562H3.675L8.575 0Z" fill="url(#paint3_linear_1_47)"/>
<path d="M6 8H8.5L9 10H5.5L6 8Z" fill="url(#paint4_linear_1_47)"/>
<defs>
<linearGradient id="paint0_linear_1_47" x1="22" y1="7" x2="77" y2="7" gradientUnits="userSpaceOnUse">
<stop stop-color="#FBC2EB"/>
<stop offset="1" stop-color="#A6C1EE"/>
</linearGradient>
<linearGradient id="paint1_linear_1_47" x1="13.475" y1="7" x2="20.3" y2="7" gradientUnits="userSpaceOnUse">
<stop stop-color="#FBC2EB"/>
<stop offset="1" stop-color="#A6C1EE"/>
</linearGradient>
<linearGradient id="paint2_linear_1_47" x1="7.6125" y1="7" x2="14.6125" y2="7" gradientUnits="userSpaceOnUse">
<stop stop-color="#FBC2EB"/>
<stop offset="1" stop-color="#A6C1EE"/>
</linearGradient>
<linearGradient id="paint3_linear_1_47" x1="0" y1="6.97812" x2="8.575" y2="6.97812" gradientUnits="userSpaceOnUse">
<stop stop-color="#FBC2EB"/>
<stop offset="1" stop-color="#A6C1EE"/>
</linearGradient>
<linearGradient id="paint4_linear_1_47" x1="5" y1="9" x2="10" y2="9" gradientUnits="userSpaceOnUse">
<stop stop-color="#FBC2EB"/>
<stop offset="1" stop-color="#A6C1EE"/>
</linearGradient>
</defs>
</svg>
