<svg width="50" height="51" viewBox="0 0 50 51" fill="none" xmlns="http://www.w3.org/2000/svg">
<circle cx="24.5976" cy="25.5312" r="24.5458" fill="#00A478"/>
<path d="M15.019 14.1562H32.9794V18.4308H15.019V14.1562ZM26.6933 26.2974V35.7266H21.3052V26.2974H26.6933Z" fill="white"/>
<path d="M23.9991 20.8926C17.4256 20.8926 12.1094 22.2037 12.1094 23.8022C12.1094 25.4006 17.4436 26.7117 23.9991 26.7117C30.5547 26.7117 35.8889 25.4006 35.8889 23.8022C35.8889 22.2037 30.5547 20.8926 23.9991 20.8926ZM23.9991 25.3827C17.9285 25.3827 13.0074 24.4846 13.0074 23.3711C13.0074 22.2576 17.9285 21.3595 23.9991 21.3595C30.0697 21.3595 34.9909 22.2576 34.9909 23.3711C34.9909 24.4846 30.0697 25.3827 23.9991 25.3827Z" fill="white"/>
<path d="M23.9992 24.7174C24.9332 24.7174 25.8312 24.6995 26.6933 24.6456V17.2998H21.3052V24.6456C22.1673 24.6815 23.0653 24.7174 23.9992 24.7174Z" fill="white"/>
</svg>
