<svg width="46" height="47" viewBox="0 0 46 47" fill="none" xmlns="http://www.w3.org/2000/svg">
<circle cx="23.1433" cy="23.6834" r="22.7498" fill="#B080FF"/>
<path d="M26.7351 31.4653C25.3117 31.4666 23.9154 31.0763 22.699 30.3371C21.4825 29.598 20.4929 28.5385 19.8383 27.2745H26.7351L27.9324 24.8798H19.048C18.9882 24.4847 18.9523 24.0896 18.9523 23.6825C18.9523 23.2754 18.9882 22.8802 19.048 22.4851H26.7351L27.9324 20.0904H19.8383C20.494 18.8274 21.484 17.7687 22.7001 17.0297C23.9163 16.2907 25.312 15.8998 26.7351 15.8996C28.6628 15.8996 30.4349 16.6061 31.7999 17.7795L33.9192 15.6602C31.9477 13.8851 29.388 12.9039 26.7351 12.9063C22.0414 12.9063 18.0662 15.9116 16.5815 20.0904H12.3668L11.1694 22.4851H16.0307C15.9337 23.2804 15.9337 24.0845 16.0307 24.8798H12.3668L11.1694 27.2745H16.5815C18.0662 31.4533 22.0414 34.4587 26.7351 34.4587C29.501 34.4587 32.0154 33.417 33.9192 31.7048L31.7879 29.5854C30.4349 30.7588 28.6748 31.4653 26.7351 31.4653Z" fill="white"/>
</svg>
