<svg width="62" height="62" viewBox="0 0 62 62" fill="none" xmlns="http://www.w3.org/2000/svg">
<g id="noun-trading-5908295 1">
<path id="Vector" d="M54.4944 10.7906H22.166C21.5219 9.37569 20.5361 8.1396 19.2957 7.19135C18.0553 6.2431 16.5984 5.61183 15.0535 5.35325C13.5086 5.09466 11.9232 5.21671 10.4372 5.70861C8.95118 6.20052 7.61019 7.04716 6.53257 8.17386C5.45494 9.30055 4.67379 10.6727 4.25803 12.1691C3.84227 13.6656 3.80469 15.2404 4.14859 16.7547C4.49249 18.269 5.20731 19.6761 6.22999 20.852C7.25266 22.0279 8.55175 22.9364 10.0127 23.4973V44.5792C10.0138 45.5223 10.3926 46.4265 11.0659 47.0933C11.7391 47.7601 12.6519 48.1351 13.6039 48.1361H25.6497L23.7283 51.1033H18.6801C18.3063 51.1035 17.948 51.2505 17.6836 51.5122C17.4192 51.7738 17.2703 52.1287 17.2697 52.4989V55.3833C17.2703 55.7536 17.4192 56.1084 17.6836 56.3701C17.948 56.6317 18.3063 56.7788 18.6801 56.779H49.4183C49.7918 56.7786 50.1499 56.6314 50.414 56.3698C50.6782 56.1081 50.8267 55.7534 50.8271 55.3833V52.4989C50.8267 52.1289 50.6782 51.7741 50.414 51.5125C50.1499 51.2508 49.7918 51.1037 49.4183 51.1033H44.3685L42.4472 48.1361H54.4944C55.4462 48.1349 56.3587 47.7598 57.0317 47.093C57.7047 46.4261 58.0832 45.5221 58.0842 44.5792V14.3475C58.0832 13.4046 57.7047 12.5005 57.0317 11.8337C56.3587 11.1669 55.4462 10.7918 54.4944 10.7906ZM5.50698 14.6859C5.50728 13.1259 5.97453 11.6009 6.84967 10.3039C7.7248 9.00684 8.96851 7.996 10.4235 7.39915C11.8786 6.8023 13.4796 6.64626 15.0241 6.95074C16.5687 7.25522 17.9874 8.00656 19.1009 9.10976C20.2145 10.213 20.9728 11.6185 21.28 13.1486C21.5872 14.6787 21.4295 16.2647 20.8269 17.706C20.2243 19.1474 19.2038 20.3793 17.8944 21.2461C16.585 22.1129 15.0456 22.5757 13.4707 22.5758C11.3592 22.5736 9.3347 21.7417 7.84166 20.2625C6.34862 18.7833 5.50897 16.7777 5.50698 14.6859ZM13.4707 24.1489C14.9263 24.1549 16.3638 23.8301 17.6727 23.1993C18.9816 22.5685 20.127 21.6486 21.0206 20.5104C21.9142 19.3723 22.5323 18.0461 22.8273 16.6341C23.1223 15.2221 23.0863 13.7619 22.7222 12.3659H54.4944C55.0247 12.3665 55.5331 12.5754 55.9079 12.947C56.2828 13.3185 56.4936 13.8222 56.494 14.3475V41.4644H11.6036V23.9647C12.2184 24.0867 12.8438 24.1484 13.4707 24.1489ZM49.2362 52.6793V55.2029H18.8599V52.6793H49.2362ZM42.4697 51.0876L42.481 51.1033H25.6173L27.5386 48.1361H40.5582L42.4697 51.0876ZM54.4944 46.5608H13.6039C13.0736 46.5602 12.5652 46.3513 12.1901 45.9798C11.8151 45.6083 11.6042 45.1046 11.6036 44.5792V43.0397H56.494V44.5792C56.4936 45.1045 56.2828 45.6082 55.9079 45.9797C55.5331 46.3512 55.0247 46.5602 54.4944 46.5608ZM13.4707 20.5167C13.2598 20.5167 13.0574 20.4337 12.9083 20.2859C12.7591 20.1381 12.6753 19.9377 12.6753 19.7287V19.499C12.0735 19.3294 11.5437 18.9706 11.1658 18.4767C10.7879 17.9828 10.5823 17.3805 10.5801 16.7607C10.5865 16.556 10.673 16.3618 10.8214 16.2192C10.9698 16.0767 11.1685 15.9969 11.3752 15.9969C11.5819 15.9969 11.7805 16.0767 11.929 16.2192C12.0774 16.3618 12.1639 16.556 12.1703 16.7607C12.17 17.0154 12.2459 17.2645 12.3885 17.4764C12.5311 17.6883 12.734 17.8535 12.9714 17.9512C13.2088 18.0489 13.4701 18.0747 13.7223 18.0252C13.9745 17.9758 14.2063 17.8534 14.3882 17.6734C14.5702 17.4935 14.6941 17.2642 14.7445 17.0144C14.7949 16.7647 14.7693 16.5057 14.6711 16.2704C14.5729 16.035 14.4064 15.8338 14.1928 15.6922C13.9791 15.5505 13.7278 15.4748 13.4707 15.4747C12.7741 15.4771 12.1002 15.2295 11.5737 14.7777C11.0471 14.3258 10.7036 13.7004 10.6065 13.0171C10.5095 12.3337 10.6656 11.6387 11.0459 11.0605C11.4262 10.4823 12.005 10.0602 12.6753 9.87209V9.64396C12.6753 9.43496 12.7591 9.23453 12.9083 9.08675C13.0574 8.93896 13.2598 8.85594 13.4707 8.85594C13.6817 8.85594 13.884 8.93896 14.0332 9.08675C14.1824 9.23453 14.2662 9.43496 14.2662 9.64396V9.87283C14.8676 10.0427 15.3969 10.4017 15.7745 10.8956C16.152 11.3895 16.3572 11.9916 16.3591 12.6111C16.3624 12.7166 16.3443 12.8217 16.3058 12.9201C16.2673 13.0185 16.2093 13.1082 16.1351 13.184C16.0609 13.2597 15.9722 13.3199 15.8741 13.3611C15.776 13.4022 15.6705 13.4234 15.564 13.4234C15.4575 13.4234 15.3521 13.4022 15.254 13.3611C15.1559 13.3199 15.0671 13.2597 14.993 13.184C14.9188 13.1082 14.8608 13.0185 14.8223 12.9201C14.7838 12.8217 14.7657 12.7166 14.7689 12.6111C14.7688 12.3565 14.6924 12.1076 14.5494 11.8959C14.4065 11.6842 14.2033 11.5193 13.9657 11.422C13.7281 11.3247 13.4668 11.2994 13.2147 11.3493C12.9625 11.3992 12.731 11.522 12.5494 11.7023C12.3678 11.8825 12.2442 12.1121 12.1943 12.3619C12.1444 12.6117 12.1703 12.8706 12.269 13.1058C12.3676 13.341 12.5344 13.5419 12.7483 13.6832C12.9622 13.8245 13.2136 13.8997 13.4707 13.8994C14.1667 13.8976 14.8398 14.1455 15.3657 14.5971C15.8915 15.0487 16.2346 15.6735 16.3316 16.3563C16.4286 17.039 16.2729 17.7334 15.8932 18.3112C15.5136 18.889 14.9356 19.3112 14.2662 19.4998V19.7294C14.266 19.9383 14.1821 20.1385 14.033 20.2861C13.8838 20.4338 13.6816 20.5167 13.4707 20.5167ZM18.9751 39.1592H24.3184C24.5292 39.1592 24.7314 39.0763 24.8806 38.9287C25.0297 38.7811 25.1136 38.5808 25.1138 38.372V28.4819C25.1138 28.2729 25.03 28.0724 24.8809 27.9246C24.7317 27.7769 24.5293 27.6938 24.3184 27.6938H18.9751C18.8706 27.6938 18.7672 27.7142 18.6708 27.7538C18.5743 27.7934 18.4867 27.8515 18.4129 27.9247C18.3391 27.9979 18.2805 28.0847 18.2406 28.1804C18.2007 28.276 18.1803 28.3784 18.1804 28.4819V38.372C18.1804 38.4754 18.2009 38.5777 18.2409 38.6733C18.2808 38.7688 18.3393 38.8556 18.4131 38.9287C18.4869 39.0018 18.5745 39.0598 18.671 39.0993C18.7674 39.1389 18.8707 39.1592 18.9751 39.1592ZM19.7705 29.2691H23.5214V37.584H19.7705V29.2691ZM27.2444 39.1592H32.5809C32.6853 39.1593 32.7887 39.1391 32.8853 39.0995C32.9818 39.06 33.0695 39.002 33.1433 38.9289C33.2172 38.8558 33.2758 38.769 33.3158 38.6734C33.3558 38.5779 33.3764 38.4754 33.3764 38.372V18.2145C33.3764 18.111 33.3558 18.0085 33.3158 17.9129C33.2758 17.8173 33.2172 17.7305 33.1434 17.6573C33.0695 17.5841 32.9818 17.5261 32.8853 17.4865C32.7888 17.4469 32.6854 17.4265 32.5809 17.4265H27.2444C27.0335 17.4267 26.8313 17.5098 26.6821 17.6575C26.533 17.8052 26.4491 18.0056 26.4489 18.2145V38.372C26.4491 38.5808 26.533 38.7811 26.6822 38.9287C26.8313 39.0763 27.0335 39.1592 27.2444 39.1592ZM28.0391 19.0025H31.7892V37.584H28.0391V19.0025ZM35.5159 39.1592H40.8592C41.07 39.1592 41.2721 39.0763 41.4212 38.9287C41.5702 38.781 41.654 38.5808 41.654 38.372V25.452C41.6541 25.3481 41.6334 25.2451 41.5931 25.149C41.5529 25.053 41.4938 24.9658 41.4194 24.8925C41.3449 24.8192 41.2566 24.7612 41.1594 24.7218C41.0623 24.6825 40.9582 24.6626 40.8532 24.6633H35.5159C35.305 24.6635 35.1028 24.7466 34.9537 24.8943C34.8045 25.042 34.7207 25.2424 34.7205 25.4513V38.3712C34.7205 38.5802 34.8043 38.7807 34.9535 38.9284C35.1026 39.0762 35.305 39.1592 35.5159 39.1592ZM36.3114 26.2401H40.0615V37.584H36.3077L36.3114 26.2401ZM43.7845 39.1592H49.1278C49.3386 39.1592 49.5408 39.0763 49.69 38.9287C49.8392 38.7811 49.9231 38.5808 49.9233 38.372V20.9916C49.9233 20.7826 49.8395 20.5821 49.6903 20.4344C49.5411 20.2866 49.3388 20.2036 49.1278 20.2036H43.7845C43.6801 20.2036 43.5767 20.2239 43.4802 20.2636C43.3837 20.3032 43.2961 20.3612 43.2223 20.4344C43.1485 20.5076 43.09 20.5945 43.0501 20.6901C43.0102 20.7857 42.9897 20.8881 42.9898 20.9916V38.372C42.9898 38.5801 43.073 38.7798 43.2212 38.9273C43.3694 39.0749 43.5706 39.1583 43.7807 39.1592H43.7845ZM44.58 21.7789H48.3293V37.584H44.5762L44.58 21.7789Z" fill="white" stroke="white" stroke-width="0.5"/>
</g>
</svg>
