<svg width="64" height="66" viewBox="0 0 64 66" fill="none" xmlns="http://www.w3.org/2000/svg">
<path d="M59.8119 59.0558L60.837 60.0913H58.9779V10.3066H52.9126V24.912H48.151V36.419H43.3893V60.0913H40.3062V34.9809H35.5447V10.0853H29.4791V24.912H24.7174V60.0913H22.2862V36.3084H17.5248V24.912H11.4592V42.0712H6.69755V60.0913H3.91688V3.80026L4.94195 4.83579L5.86388 3.90445L3.26495 1.27832L0.666016 3.90445L1.58795 4.83579L2.61302 3.80026V61.4085C4.89655 61.4085 9.29942 61.4085 11.4593 61.4085C11.0223 61.4085 48.2988 61.4085 60.837 61.4085L59.8119 62.444L60.7338 63.3754L63.3327 60.7499L60.7337 58.1245L59.8119 59.0558ZM8.00148 60.0913V43.3884H11.4593V60.0913H8.00148ZM12.7631 60.0913V42.0712V26.2292H16.2209V36.3084V60.0913H12.7631ZM17.5249 60.0913V37.6256H20.9823V60.0913H17.5249ZM26.0213 60.0913V26.2292H29.4791V60.0913H26.0213ZM30.7829 60.0913V24.912V11.4025H34.2407V34.9809V60.0913H30.7829ZM35.5447 60.0913V36.2981H39.0022V60.0913H35.5447ZM44.6931 60.0913V37.7362H48.1509V60.0913H44.6931ZM49.4548 60.0913V36.419V26.2292H52.9125V60.0913H49.4548ZM54.2164 60.0913V24.912V11.6238H57.6739V60.0913H54.2164Z" fill="#1A1A1A" stroke="#1A1A1A" stroke-width="0.7"/>
</svg>
