<svg width="61" height="61" viewBox="0 0 61 61" fill="none" xmlns="http://www.w3.org/2000/svg">
<path d="M4.74695 3.64113C4.44373 3.67445 4.16399 3.82014 3.96287 4.04949C3.76175 4.27884 3.65383 4.57521 3.66039 4.88019V56.1202C3.65591 56.3055 3.69373 56.4895 3.77098 56.658C3.84823 56.8266 3.96288 56.9753 4.10621 57.0929C4.24955 57.2105 4.4178 57.2939 4.59819 57.3368C4.77857 57.3796 4.96636 57.3808 5.14727 57.3402H28.0604H56.1204C56.2821 57.3425 56.4426 57.3126 56.5926 57.2523C56.7426 57.192 56.8791 57.1025 56.9943 56.989C57.1094 56.8755 57.2008 56.7402 57.2632 56.5911C57.3256 56.4419 57.3578 56.2819 57.3578 56.1202C57.3578 55.9585 57.3256 55.7984 57.2632 55.6493C57.2008 55.5001 57.1094 55.3649 56.9943 55.2514C56.8791 55.1378 56.7426 55.0483 56.5926 54.9881C56.4426 54.9278 56.2821 54.8979 56.1204 54.9002H28.0604H6.10039V4.88019C6.10413 4.70651 6.07074 4.53404 6.00246 4.37431C5.93418 4.21458 5.83257 4.07127 5.70444 3.95397C5.57631 3.83667 5.42461 3.74808 5.25949 3.69413C5.09436 3.64017 4.91962 3.6221 4.74695 3.64113ZM41.976 15.2502C41.8158 15.2577 41.6586 15.2966 41.5134 15.3649C41.3682 15.4331 41.2379 15.5293 41.1299 15.6479C41.0219 15.7665 40.9384 15.9052 40.884 16.0561C40.8296 16.207 40.8055 16.3672 40.813 16.5274C40.8205 16.6876 40.8595 16.8448 40.9277 16.99C40.996 17.1351 41.0922 17.2654 41.2108 17.3734C41.3294 17.4814 41.4682 17.5649 41.6191 17.6193C41.77 17.6736 41.9302 17.6977 42.0904 17.6902H44.6257L35.0182 27.2977L24.9723 24.5146C24.9348 24.5 24.8966 24.4873 24.8579 24.4764L24.7435 24.4383C24.6264 24.4011 24.5042 24.3818 24.3813 24.3811C24.1498 24.3881 23.925 24.4608 23.7332 24.5908L11.5332 32.5208C11.3908 32.6045 11.2668 32.7162 11.1688 32.8492C11.0708 32.9822 11.0008 33.1337 10.9631 33.2945C10.9254 33.4553 10.9208 33.6221 10.9495 33.7848C10.9781 33.9475 11.0396 34.1027 11.13 34.2409C11.2204 34.3791 11.338 34.4976 11.4756 34.589C11.6132 34.6805 11.7679 34.743 11.9303 34.7729C12.0928 34.8028 12.2596 34.7994 12.4207 34.7629C12.5819 34.7264 12.7339 34.6575 12.8676 34.5605L24.6101 26.9355L34.7513 29.7568C34.9891 29.8902 35.2647 29.9403 35.5342 29.8988C35.8037 29.8573 36.0516 29.7268 36.2382 29.528L46.3604 19.4058V21.9602C46.3581 22.1219 46.388 22.2824 46.4483 22.4324C46.5085 22.5824 46.598 22.7189 46.7116 22.8341C46.8251 22.9492 46.9603 23.0406 47.1095 23.103C47.2586 23.1654 47.4187 23.1976 47.5804 23.1976C47.7421 23.1976 47.9021 23.1654 48.0513 23.103C48.2005 23.0406 48.3357 22.9492 48.4492 22.8341C48.5627 22.7189 48.6522 22.5824 48.7125 22.4324C48.7728 22.2824 48.8027 22.1219 48.8004 21.9602V16.4702C48.8004 16.1466 48.6718 15.8363 48.443 15.6076C48.2142 15.3788 47.9039 15.2502 47.5804 15.2502H42.0904C42.0523 15.2484 42.0141 15.2484 41.976 15.2502ZM43.7679 28.0602C43.5438 28.0909 43.3326 28.1833 43.1579 28.3271L37.0579 33.2071C36.915 33.3215 36.7997 33.4665 36.7205 33.6315C36.6413 33.7965 36.6003 33.9772 36.6004 34.1602V48.8002C36.6004 49.1237 36.729 49.434 36.9578 49.6628C37.1865 49.8916 37.4968 50.0202 37.8204 50.0202H43.9204C44.2439 50.0202 44.5542 49.8916 44.783 49.6628C45.0118 49.434 45.1404 49.1237 45.1404 48.8002V29.2802C45.1417 29.1063 45.1059 28.9341 45.0353 28.7752C44.9647 28.6163 44.8609 28.4743 44.7309 28.3588C44.6009 28.2433 44.4478 28.1569 44.2817 28.1054C44.1156 28.0539 43.9404 28.0385 43.7679 28.0602ZM42.7004 31.8155V47.5802H39.0404V34.7511L42.7004 31.8155ZM22.4179 32.3302C22.2488 32.3534 22.0864 32.4119 21.9413 32.5018L15.8413 36.1618C15.6606 36.2705 15.5112 36.4243 15.4076 36.608C15.304 36.7918 15.2499 36.9993 15.2504 37.2102V48.8002C15.2504 49.1237 15.379 49.434 15.6078 49.6628C15.8365 49.8916 16.1468 50.0202 16.4704 50.0202H22.5704C22.8939 50.0202 23.2042 49.8916 23.433 49.6628C23.6618 49.434 23.7904 49.1237 23.7904 48.8002V33.5502C23.7917 33.3763 23.7559 33.2041 23.6853 33.0452C23.6147 32.8863 23.5109 32.7444 23.3809 32.6288C23.2509 32.5133 23.0978 32.4269 22.9317 32.3754C22.7656 32.3239 22.5904 32.3085 22.4179 32.3302ZM27.317 32.3302C27.017 32.3632 26.74 32.5062 26.5393 32.7315C26.3387 32.9568 26.2286 33.2485 26.2304 33.5502V48.8002C26.2304 49.1237 26.359 49.434 26.5878 49.6628C26.8165 49.8916 27.1268 50.0202 27.4504 50.0202H33.5504C33.8739 50.0202 34.1842 49.8916 34.413 49.6628C34.6418 49.434 34.7704 49.1237 34.7704 48.8002V34.7702C34.7718 34.4886 34.6758 34.2151 34.4986 33.9962C34.3214 33.7773 34.074 33.6265 33.7982 33.5693L27.6982 32.3493C27.5729 32.3229 27.4443 32.3165 27.317 32.3302ZM28.6704 35.018L32.3304 35.7614V47.5802H28.6704V35.018ZM21.3504 35.6852V47.5802H17.6904V37.8774L21.3504 35.6852Z" fill="#1A1A1A"/>
</svg>
