<svg width="71" height="62" viewBox="0 0 71 62" fill="none" xmlns="http://www.w3.org/2000/svg">
<path d="M64.7438 41.4314C70.3498 36.2407 68.4639 26.8686 61.3861 24.0426C61.3861 20.7551 61.3861 12.5653 61.3861 9.37884C61.3861 7.78558 60.0622 6.49512 58.4277 6.49512H5.91732C4.28284 6.49512 2.95898 7.78558 2.95898 9.37884C2.95898 11.7219 2.95898 42.1451 2.95898 45.4254C2.95898 47.0186 4.28284 48.3091 5.91732 48.3091H43.2737V51.5388C43.2737 51.9137 43.392 52.476 43.9837 53.06C45.4924 54.5523 49.5379 55.5184 54.1973 55.5184C59.6037 55.5184 65.0692 54.163 65.0914 51.5605V50.7386C66.8664 50.0826 68.0423 49.1526 68.0497 47.9558V44.3512C68.0497 43.1616 66.8886 42.1523 64.7512 41.4386L64.7438 41.4314ZM66.5631 44.3367C65.7422 46.2833 60.2619 46.8528 57.1113 46.86C53.8275 46.86 50.7952 46.3409 49.0054 45.4902C46.6018 44.3728 47.8073 43.4356 50.8766 42.5272C54.4414 45.0937 59.8551 45.0577 63.3755 42.5272C65.6978 43.1328 66.5631 43.933 66.5631 44.3367ZM66.5631 33.8544C66.5927 41.9577 56.2608 46.0958 50.455 40.3067C44.5605 34.6258 48.8427 24.5833 57.1409 24.6409C62.3475 24.6409 66.5779 28.7791 66.5631 33.8544ZM4.43815 9.37163C4.43815 8.57861 5.10378 7.92977 5.91732 7.92977H58.4277C59.2413 7.92977 59.9069 8.57861 59.9069 9.37163V13.6972H4.43815V9.37163ZM4.43815 45.4181V15.1391H59.9069V23.5595C49.109 20.8488 41.5874 33.804 49.5231 41.4314C46.942 42.3398 46.0397 43.3346 46.232 45.1514C44.7898 45.6849 44.0133 46.2905 43.6287 46.8672H5.91732C5.10378 46.8672 4.43815 46.2184 4.43815 45.4254V45.4181ZM46.232 46.7086C46.2838 47.7323 45.9658 48.4749 46.942 49.4481C44.9969 48.7416 43.5991 47.8477 46.232 46.7086ZM63.6048 51.546C63.5974 53.0888 57.9914 54.0765 54.1529 54.0693C49.2939 54.0693 46.0175 53.0095 45.0339 52.0363C44.9081 51.9137 44.7528 51.7263 44.7528 51.5388V50.0393C47.2674 51.5316 51.6901 52.0435 55.6321 51.8705C58.265 52.0074 61.3047 51.7767 63.6048 51.1856V51.546ZM64.2335 49.5274C59.759 51.0414 50.174 50.6449 47.9848 48.4316C47.8591 48.3091 47.7038 48.1216 47.7038 47.9342V46.4347C52.0377 48.9363 62.2144 48.9579 66.5558 46.4347V47.9486C66.5558 48.583 65.6017 49.1165 64.2261 49.5346L64.2335 49.5274Z" fill="#1A1A1A" stroke="#1A1A1A" stroke-width="0.4"/>
<path d="M57.1387 26.0835C50.1423 26.0403 46.5331 34.504 51.5031 39.291C56.4287 44.1717 65.104 40.6896 65.0818 33.8479C65.1854 29.6738 61.4135 25.997 57.1387 26.0835ZM63.6027 33.8479C63.647 39.3991 56.5249 42.254 52.5533 38.2745C48.5078 34.3742 51.4439 27.4893 57.1387 27.5254C60.6221 27.4533 63.6914 30.4524 63.6027 33.8479Z" fill="#1A1A1A" stroke="#1A1A1A" stroke-width="0.4"/>
<path d="M57.1474 29.5004C56.6815 29.5004 56.3561 29.9113 56.4079 30.3511C55.5499 30.6467 54.9287 31.4397 54.9213 32.3769C54.9657 33.8043 56.1934 34.0999 57.0957 34.619C57.7983 34.9794 57.8722 35.0587 57.8648 35.2678C57.8648 35.6643 57.532 35.9887 57.1253 35.9887C56.7259 35.9887 56.3783 35.6499 56.3857 35.2678C56.3857 34.8713 56.0529 34.5469 55.6461 34.5469C55.2393 34.5469 54.9065 34.8713 54.9065 35.2678C54.8917 36.169 55.513 37.0197 56.3783 37.3008C56.2821 38.4255 57.9536 38.4255 57.8575 37.3008C58.7154 37.0053 59.3366 36.2122 59.344 35.275C59.344 34.1432 58.4787 33.7034 57.7761 33.3429C57.3693 33.1267 56.2673 32.6508 56.3931 32.3841C56.4153 31.4397 57.8574 31.4397 57.8722 32.3841C57.8722 32.7806 58.2051 33.105 58.6118 33.105C59.0186 33.105 59.3514 32.7806 59.3514 32.3841C59.3514 31.4469 58.7376 30.6539 57.8796 30.3511C57.9314 29.9113 57.6134 29.4932 57.1401 29.4932L57.1474 29.5004Z" fill="#1A1A1A" stroke="#1A1A1A" stroke-width="0.4"/>
<path d="M42.6441 34.6842H44.4191C44.8259 34.6842 45.1587 34.3598 45.1587 33.9633V26.6098C45.1587 26.2133 44.8259 25.8889 44.4191 25.8889H42.6441V22.8537C42.6441 22.4572 42.3113 22.1328 41.9046 22.1328C41.4978 22.1328 41.165 22.4572 41.165 22.8537V25.8889H39.39C38.9832 25.8889 38.6504 26.2133 38.6504 26.6098V33.9633C38.6504 34.3598 38.9832 34.6842 39.39 34.6842H41.165V41.187C41.165 41.5835 41.4978 41.9079 41.9046 41.9079C42.3113 41.9079 42.6441 41.5835 42.6441 41.187V34.6842ZM40.1296 27.3307C41.0245 27.3307 42.7847 27.3307 43.6796 27.3307V33.2423H40.1296V27.3307Z" fill="#1A1A1A" stroke="#1A1A1A" stroke-width="0.4"/>
<path d="M17.5578 35.0811H15.7828V27.7493C15.7828 27.3527 15.45 27.0283 15.0432 27.0283C14.6365 27.0283 14.3036 27.3527 14.3036 27.7493V35.0811H12.5286C12.1219 35.0811 11.7891 35.4055 11.7891 35.802V40.0916C11.7891 40.4881 12.1219 40.8125 12.5286 40.8125H14.3036V44.5397C14.3036 44.9362 14.6365 45.2606 15.0432 45.2606C15.45 45.2606 15.7828 44.9362 15.7828 44.5397V40.8125H17.5578C17.9646 40.8125 18.2974 40.4881 18.2974 40.0916V35.802C18.2974 35.4055 17.9646 35.0811 17.5578 35.0811ZM16.8182 39.3706C15.9233 39.3706 14.1557 39.3706 13.2682 39.3706V36.523H16.8182V39.3706Z" fill="#1A1A1A" stroke="#1A1A1A" stroke-width="0.4"/>
<path d="M35.3896 20.979H33.6146V19.8616C33.6146 19.465 33.2818 19.1406 32.875 19.1406C32.4682 19.1406 32.1354 19.465 32.1354 19.8616V20.979H30.3604C29.9537 20.979 29.6208 21.3034 29.6208 21.6999V26.6023C29.6208 26.9988 29.9537 27.3232 30.3604 27.3232H32.1354V33.963C32.1354 34.3595 32.4682 34.6839 32.875 34.6839C33.2818 34.6839 33.6146 34.3595 33.6146 33.963V27.3232H35.3896C35.7964 27.3232 36.1292 26.9988 36.1292 26.6023V21.6999C36.1292 21.3034 35.7964 20.979 35.3896 20.979ZM34.65 25.8813H31.1V22.4209H34.65V25.8813Z" fill="#1A1A1A" stroke="#1A1A1A" stroke-width="0.4"/>
<path d="M26.4777 24.0434H24.7027V18.0237C24.7027 17.6272 24.3699 17.3027 23.9632 17.3027C23.5564 17.3027 23.2236 17.6272 23.2236 18.0237V24.0434H21.4486C21.0418 24.0434 20.709 24.3678 20.709 24.7644V35.8018C20.709 36.1983 21.0418 36.5227 21.4486 36.5227H23.2236V39.3488C23.2236 39.7453 23.5564 40.0697 23.9632 40.0697C24.3699 40.0697 24.7027 39.7453 24.7027 39.3488V36.5227H26.4777C26.8845 36.5227 27.2173 36.1983 27.2173 35.8018V24.7644C27.2173 24.3678 26.8845 24.0434 26.4777 24.0434ZM25.7382 35.0809C24.8507 35.0809 23.0757 35.0809 22.1882 35.0809V25.4853H25.7382V35.0809Z" fill="#1A1A1A" stroke="#1A1A1A" stroke-width="0.4"/>
<path d="M8.87594 9.73242C7.41896 9.75405 7.41896 11.8736 8.87594 11.8952C10.3329 11.8736 10.3329 9.75405 8.87594 9.73242Z" fill="#1A1A1A" stroke="#1A1A1A" stroke-width="0.4"/>
<path d="M14.0537 9.73242C12.5967 9.75405 12.5967 11.8736 14.0537 11.8952C15.5107 11.8736 15.5107 9.75405 14.0537 9.73242Z" fill="#1A1A1A" stroke="#1A1A1A" stroke-width="0.4"/>
<path d="M19.2295 9.73242C17.7725 9.75405 17.7725 11.8736 19.2295 11.8952C20.6864 11.8736 20.6864 9.75405 19.2295 9.73242Z" fill="#1A1A1A" stroke="#1A1A1A" stroke-width="0.4"/>
</svg>
