<svg width="52" height="55" viewBox="0 0 52 55" fill="none" xmlns="http://www.w3.org/2000/svg">
<g id="noun-calculator-6303212 1">
<g id="Group">
<path id="Vector" d="M32.2791 31.0125H28.1273C26.908 31.0125 25.9161 30.1134 25.9161 29.0083V25.2452C25.9161 24.14 26.908 23.2409 28.1273 23.2409H32.2791C33.4984 23.2409 34.4903 24.14 34.4903 25.2452V29.0083C34.4903 30.1134 33.4984 31.0125 32.2791 31.0125ZM28.1273 24.8523C27.8883 24.8523 27.6938 25.0285 27.6938 25.2452V29.0083C27.6938 29.2249 27.8883 29.4012 28.1273 29.4012H32.2791C32.5181 29.4012 32.7125 29.2249 32.7125 29.0083V25.2452C32.7125 25.0285 32.5181 24.8523 32.2791 24.8523H28.1273ZM12.65 41.0571H8.89114C7.67183 41.0571 6.67994 40.1581 6.67994 39.0529V35.2898C6.67994 34.1847 7.67183 33.2856 8.89114 33.2856H12.65C13.8693 33.2856 14.8613 34.1847 14.8613 35.2898V39.0529C14.8613 40.1581 13.8693 41.0571 12.65 41.0571ZM8.89114 34.8969C8.65214 34.8969 8.4577 35.0731 8.4577 35.2898V39.0529C8.4577 39.2696 8.65214 39.4458 8.89114 39.4458H12.65C12.8891 39.4458 13.0836 39.2696 13.0836 39.0529V35.2898C13.0836 35.0731 12.8891 34.8969 12.65 34.8969H8.89114ZM22.803 41.0571H19.0441C17.8247 41.0571 16.8328 40.1581 16.8328 39.0529V35.2898C16.8328 34.1847 17.8247 33.2856 19.0441 33.2856H22.803C24.0224 33.2856 25.0142 34.1847 25.0142 35.2898V39.0529C25.0142 40.1581 24.0224 41.0571 22.803 41.0571ZM19.0441 34.8969C18.805 34.8969 18.6106 35.0731 18.6106 35.2898V39.0529C18.6106 39.2696 18.805 39.4458 19.0441 39.4458H22.803C23.042 39.4458 23.2365 39.2696 23.2365 39.0529V35.2898C23.2365 35.0731 23.042 34.8969 22.803 34.8969H19.0441ZM32.9559 41.0571H29.197C27.9776 41.0571 26.9858 40.1581 26.9858 39.0529V35.2898C26.9858 34.1847 27.9776 33.2856 29.197 33.2856H32.9559C34.1753 33.2856 35.1672 34.1847 35.1672 35.2898V39.0529C35.1672 40.1581 34.1753 41.0571 32.9559 41.0571ZM29.197 34.8969C28.958 34.8969 28.7635 35.0731 28.7635 35.2898V39.0529C28.7635 39.2696 28.958 39.4458 29.197 39.4458H32.9559C33.195 39.4458 33.3894 39.2696 33.3894 39.0529V35.2898C33.3894 35.0731 33.195 34.8969 32.9559 34.8969H29.197ZM43.1089 51.1017H39.35C38.1307 51.1017 37.1387 50.2026 37.1387 49.0975V35.2898C37.1387 34.1847 38.1307 33.2856 39.35 33.2856H43.1089C44.3282 33.2856 45.3201 34.1847 45.3201 35.2898V49.0975C45.3201 50.2026 44.3282 51.1017 43.1089 51.1017ZM39.35 34.8969C39.1109 34.8969 38.9164 35.0731 38.9164 35.2898V49.0975C38.9164 49.3141 39.1109 49.4904 39.35 49.4904H43.1089C43.3479 49.4904 43.5423 49.3141 43.5423 49.0975V35.2898C43.5423 35.0731 43.3479 34.8969 43.1089 34.8969H39.35ZM12.65 51.1017H8.89114C7.67183 51.1017 6.67994 50.2026 6.67994 49.0975V45.3343C6.67994 44.2292 7.67183 43.3301 8.89114 43.3301H12.65C13.8693 43.3301 14.8613 44.2292 14.8613 45.3343V49.0975C14.8613 50.2026 13.8693 51.1017 12.65 51.1017ZM8.89114 44.9415C8.65214 44.9415 8.4577 45.1177 8.4577 45.3343V49.0975C8.4577 49.3141 8.65214 49.4904 8.89114 49.4904H12.65C12.8891 49.4904 13.0836 49.3141 13.0836 49.0975V45.3343C13.0836 45.1177 12.8891 44.9415 12.65 44.9415H8.89114ZM22.803 51.1017H19.0441C17.8247 51.1017 16.8328 50.2026 16.8328 49.0975V45.3343C16.8328 44.2292 17.8247 43.3301 19.0441 43.3301H22.803C24.0224 43.3301 25.0142 44.2292 25.0142 45.3343V49.0975C25.0142 50.2026 24.0224 51.1017 22.803 51.1017ZM19.0441 44.9415C18.805 44.9415 18.6106 45.1177 18.6106 45.3343V49.0975C18.6106 49.3141 18.805 49.4904 19.0441 49.4904H22.803C23.042 49.4904 23.2365 49.3141 23.2365 49.0975V45.3343C23.2365 45.1177 23.042 44.9415 22.803 44.9415H19.0441ZM32.9559 51.1017H29.197C27.9776 51.1017 26.9858 50.2026 26.9858 49.0975V45.3343C26.9858 44.2292 27.9776 43.3301 29.197 43.3301H32.9559C34.1753 43.3301 35.1672 44.2292 35.1672 45.3343V49.0975C35.1672 50.2026 34.1753 51.1017 32.9559 51.1017ZM29.197 44.9415C28.958 44.9415 28.7635 45.1177 28.7635 45.3343V49.0975C28.7635 49.3141 28.958 49.4904 29.197 49.4904H32.9559C33.195 49.4904 33.3894 49.3141 33.3894 49.0975V45.3343C33.3894 45.1177 33.195 44.9415 32.9559 44.9415H29.197ZM21.4494 31.0125H8.89114C7.67183 31.0125 6.67994 30.1134 6.67994 29.0083V25.2452C6.67994 24.14 7.67183 23.2409 8.89114 23.2409H21.4494C22.6687 23.2409 23.6606 24.14 23.6606 25.2452V29.0083C23.6606 30.1134 22.6687 31.0125 21.4494 31.0125ZM8.89114 24.8523C8.65214 24.8523 8.4577 25.0285 8.4577 25.2452V29.0083C8.4577 29.2249 8.65214 29.4012 8.89114 29.4012H21.4494C21.6884 29.4012 21.8828 29.2249 21.8828 29.0083V25.2452C21.8828 25.0285 21.6884 24.8523 21.4494 24.8523H8.89114ZM43.1089 31.0125H38.957C37.7377 31.0125 36.7458 30.1134 36.7458 29.0083V25.2452C36.7458 24.14 37.7377 23.2409 38.957 23.2409H43.1089C44.3282 23.2409 45.3201 24.14 45.3201 25.2452V29.0083C45.3201 30.1134 44.3282 31.0125 43.1089 31.0125ZM38.957 24.8523C38.718 24.8523 38.5236 25.0285 38.5236 25.2452V29.0083C38.5236 29.2249 38.718 29.4012 38.957 29.4012H43.1089C43.3479 29.4012 43.5423 29.2249 43.5423 29.0083V25.2452C43.5423 25.0285 43.3479 24.8523 43.1089 24.8523H38.957ZM21.7429 8.54004H7.56882C7.07785 8.54004 6.67994 8.17933 6.67994 7.73438V3.99669C6.67994 3.55174 7.07785 3.19103 7.56882 3.19103H21.7429C22.2338 3.19103 22.6317 3.55174 22.6317 3.99669V7.73438C22.6317 8.17933 22.2338 8.54004 21.7429 8.54004ZM8.4577 6.92871H20.854V4.80236H8.4577V6.92871ZM45.4027 55H6.5973C4.61376 55 3 53.5374 3 51.7395V3.26047C3 1.46263 4.61376 0 6.5973 0H45.4027C47.3862 0 49 1.46263 49 3.26047V51.7395C49 53.5374 47.3862 55 45.4027 55ZM6.5973 1.61133C5.59396 1.61133 4.77776 2.35111 4.77776 3.26047V51.7395C4.77776 52.6489 5.59396 53.3887 6.5973 53.3887H45.4027C46.406 53.3887 47.2222 52.6489 47.2222 51.7395V3.26047C47.2222 2.35111 46.406 1.61133 45.4027 1.61133H6.5973ZM44.4312 20.954H7.56882C7.07785 20.954 6.67994 20.5933 6.67994 20.1483V10.9254C6.67994 10.4805 7.07785 10.1197 7.56882 10.1197H44.4312C44.9221 10.1197 45.3201 10.4805 45.3201 10.9254V20.1483C45.3201 20.5933 44.9221 20.954 44.4312 20.954ZM8.4577 19.3427H43.5423V11.7311H8.4577V19.3427ZM44.4312 5.844H36.2514C35.0771 5.844 35.0752 7.45533 36.2514 7.45533H44.4312C45.6055 7.45533 45.6074 5.844 44.4312 5.844Z" fill="#1A1A1A"/>
</g>
</g>
</svg>
