<svg width="52" height="52" viewBox="0 0 52 52" fill="none" xmlns="http://www.w3.org/2000/svg">
<path id="Vector" d="M50.2412 0.815796H42.1608C42.037 0.815792 41.9144 0.84018 41.8 0.887567C41.6856 0.934955 41.5816 1.00441 41.494 1.09198C41.4065 1.17954 41.337 1.2835 41.2896 1.39791C41.2422 1.51231 41.2178 1.63494 41.2178 1.75877V3.50926H37.7169V1.75877C37.7169 1.63494 37.6925 1.51231 37.6451 1.39791C37.5977 1.2835 37.5283 1.17954 37.4407 1.09198C37.3531 1.00441 37.2492 0.934955 37.1348 0.887567C37.0204 0.84018 36.8977 0.815792 36.7739 0.815796H28.6935C28.5696 0.815792 28.447 0.84018 28.3326 0.887567C28.2182 0.934955 28.1142 1.00441 28.0267 1.09198C27.9391 1.17954 27.8697 1.2835 27.8223 1.39791C27.7749 1.51231 27.7505 1.63494 27.7505 1.75877V3.50926H24.2495V1.75877C24.2495 1.63494 24.2251 1.51231 24.1777 1.39791C24.1304 1.2835 24.0609 1.17954 23.9733 1.09198C23.8858 1.00441 23.7818 0.934955 23.6674 0.887567C23.553 0.84018 23.4304 0.815792 23.3065 0.815796H15.2261C15.1023 0.815792 14.9797 0.84018 14.8653 0.887567C14.7508 0.934955 14.6469 1.00441 14.5593 1.09198C14.4718 1.17954 14.4023 1.2835 14.3549 1.39791C14.3075 1.51231 14.2831 1.63494 14.2831 1.75877V3.50926H10.7822V1.75877C10.7822 1.63494 10.7578 1.51231 10.7104 1.39791C10.663 1.2835 10.5935 1.17954 10.506 1.09198C10.4184 1.00441 10.3145 0.934955 10.2001 0.887567C10.0856 0.84018 9.96302 0.815792 9.83919 0.815796H1.75877C1.63494 0.815792 1.51231 0.84018 1.39791 0.887567C1.2835 0.934955 1.17954 1.00441 1.09198 1.09198C1.00441 1.17954 0.934955 1.2835 0.887567 1.39791C0.84018 1.51231 0.815792 1.63494 0.815796 1.75877V47.5478C0.815792 47.6716 0.84018 47.7942 0.887567 47.9086C0.934955 48.0231 1.00441 48.127 1.09198 48.2146C1.17954 48.3021 1.2835 48.3716 1.39791 48.419C1.51231 48.4664 1.63494 48.4908 1.75877 48.4908H8.89621V50.2412C8.89621 50.3651 8.9206 50.4877 8.96799 50.6021C9.01537 50.7165 9.08483 50.8205 9.17239 50.908C9.25996 50.9956 9.36391 51.0651 9.47832 51.1124C9.59273 51.1598 9.71535 51.1842 9.83919 51.1842H15.2261C15.35 51.1842 15.4726 51.1598 15.587 51.1124C15.7014 51.0651 15.8054 50.9956 15.8929 50.908C15.9805 50.8205 16.0499 50.7165 16.0973 50.6021C16.1447 50.4877 16.1691 50.3651 16.1691 50.2412V48.4908H22.3636V50.2412C22.3636 50.3651 22.3879 50.4877 22.4353 50.6021C22.4827 50.7165 22.5522 50.8205 22.6397 50.908C22.7273 50.9956 22.8313 51.0651 22.9457 51.1124C23.0601 51.1598 23.1827 51.1842 23.3065 51.1842H28.6935C28.8173 51.1842 28.9399 51.1598 29.0543 51.1124C29.1688 51.0651 29.2727 50.9956 29.3603 50.908C29.4478 50.8205 29.5173 50.7165 29.5647 50.6021C29.6121 50.4877 29.6365 50.3651 29.6365 50.2412V48.4908H35.8309V50.2412C35.8309 50.3651 35.8553 50.4877 35.9027 50.6021C35.9501 50.7165 36.0195 50.8205 36.1071 50.908C36.1947 50.9956 36.2986 51.0651 36.413 51.1124C36.5274 51.1598 36.6501 51.1842 36.7739 51.1842H42.1608C42.2847 51.1842 42.4073 51.1598 42.5217 51.1124C42.6361 51.0651 42.7401 50.9956 42.8276 50.908C42.9152 50.8205 42.9846 50.7165 43.032 50.6021C43.0794 50.4877 43.1038 50.3651 43.1038 50.2412V48.4908H50.2412C50.3651 48.4908 50.4877 48.4664 50.6021 48.419C50.7165 48.3716 50.8205 48.3021 50.908 48.2146C50.9956 48.127 51.0651 48.0231 51.1124 47.9086C51.1598 47.7942 51.1842 47.6716 51.1842 47.5478V1.75877C51.1842 1.63494 51.1598 1.51231 51.1124 1.39791C51.0651 1.2835 50.9956 1.17954 50.908 1.09198C50.8205 1.00441 50.7165 0.934955 50.6021 0.887567C50.4877 0.84018 50.3651 0.815792 50.2412 0.815796ZM2.70175 46.6048V2.70175H8.89621V46.6048H2.70175ZM14.2831 49.2983H10.7822V5.39521H14.2831V49.2983ZM16.1691 46.6048V2.70175H22.3636V46.6048H16.1691ZM27.7505 49.2983H24.2495V5.39521H27.7505V49.2983ZM29.6365 46.6048V2.70175H35.8309V46.6048H29.6365ZM41.2178 49.2983H37.7169V5.39521H41.2178V49.2983ZM49.2983 46.6048H43.1038V2.70175H49.2983V46.6048Z" fill="#1A1A1A"/>
</svg>
