<svg width="61" height="56" viewBox="0 0 61 56" fill="none" xmlns="http://www.w3.org/2000/svg">
<g id="Group">
<path id="Vector" d="M22.2136 13.25H18.2053C17.806 13.25 17.4829 13.5734 17.4829 13.9724C17.4829 14.3713 17.806 14.6947 18.2053 14.6947H22.2136C22.6129 14.6947 22.936 14.3713 22.936 13.9724C22.936 13.5734 22.6129 13.25 22.2136 13.25Z" fill="white"/>
<path id="Vector_2" d="M22.2136 16.6118H18.2053C17.806 16.6118 17.4829 16.9353 17.4829 17.3342C17.4829 17.7331 17.806 18.0566 18.2053 18.0566H22.2136C22.6129 18.0566 22.936 17.7331 22.936 17.3342C22.936 16.9353 22.6129 16.6118 22.2136 16.6118Z" fill="white"/>
<path id="Vector_3" d="M35.7824 7.49707H30.4485C28.7468 7.49707 27.2555 8.39805 26.4148 9.745C25.5743 8.39805 24.0831 7.49707 22.3818 7.49707H17.048C14.9705 7.49707 13.2803 9.18695 13.2803 11.2641V23.088V25.0854C13.2803 27.1629 14.9705 28.8528 17.048 28.8528H26.4148H35.7824C37.8592 28.8528 39.5494 27.1629 39.5494 25.0854V23.088V11.2641C39.5494 9.18695 37.8592 7.49707 35.7824 7.49707ZM25.6925 27.4081H17.048C15.7669 27.4081 14.725 26.3661 14.725 25.0854V23.8103H25.6925V27.4081ZM25.6925 22.3656H14.725V11.2641C14.725 9.98374 15.7669 8.94181 17.048 8.94181H22.3818C24.2075 8.94181 25.6925 10.4271 25.6925 12.2524V22.3656ZM38.1047 25.0854C38.1047 26.3661 37.0627 27.4081 35.7824 27.4081H27.1372V23.8103H38.1047V25.0854ZM38.1047 22.3656H27.1372V12.2524C27.1372 10.4271 28.6229 8.94181 30.4485 8.94181H35.7824C37.0627 8.94181 38.1047 9.98374 38.1047 11.2641V22.3656Z" fill="white" stroke="white" stroke-width="0.5"/>
<path id="Vector_4" d="M34.6252 13.25H30.6169C30.2176 13.25 29.8945 13.5734 29.8945 13.9724C29.8945 14.3713 30.2176 14.6947 30.6169 14.6947H34.6252C35.0245 14.6947 35.3476 14.3713 35.3476 13.9724C35.3476 13.5734 35.0245 13.25 34.6252 13.25Z" fill="white"/>
<path id="Vector_5" d="M34.6252 16.6118H30.6169C30.2176 16.6118 29.8945 16.9353 29.8945 17.3342C29.8945 17.7331 30.2176 18.0566 30.6169 18.0566H34.6252C35.0245 18.0566 35.3476 17.7331 35.3476 17.3342C35.3476 16.9353 35.0245 16.6118 34.6252 16.6118Z" fill="white"/>
<path id="Vector_6" d="M56.4454 2.7516H56.017C55.8232 1.75508 54.9459 1 53.8938 1H46.2694C45.2174 1 44.34 1.75508 44.1463 2.7516H4.78891C2.6994 2.7516 1 4.45136 1 6.54052V32.8753V40.2513C1 42.3408 2.6994 44.0402 4.78891 44.0402H21.6517V49.1885H18.6642C15.6908 49.1885 13.2711 51.6082 13.2711 54.5823C13.2711 54.9816 13.5942 55.3047 13.9935 55.3047H47.2408C47.6401 55.3047 47.9632 54.9816 47.9632 54.5823C47.9632 51.6082 45.5435 49.1885 42.5701 49.1885H39.5826V44.0402H56.4454C58.5349 44.0402 60.2343 42.3408 60.2343 40.2513V32.8753V6.54052C60.2343 4.45136 58.5349 2.7516 56.4454 2.7516ZM45.5492 3.47397V3.16499C45.5492 2.76783 45.8723 2.44474 46.2694 2.44474H53.8938C54.291 2.44474 54.6141 2.76783 54.6141 3.16499V3.47397V12.2934C54.6141 12.468 54.5005 12.5614 54.4511 12.5935C54.3904 12.6337 54.2642 12.6898 54.1104 12.6235L50.368 11.0081C50.2763 10.9686 50.179 10.9488 50.0816 10.9488C49.9843 10.9488 49.8869 10.9686 49.7952 11.0081L46.0536 12.6232C45.8962 12.6909 45.7721 12.6337 45.7121 12.5935C45.6627 12.5614 45.5492 12.468 45.5492 12.2934V3.47397ZM42.5701 50.6333C44.5009 50.6333 46.1121 52.0265 46.4521 53.8599H14.7822C15.1222 52.0265 16.7334 50.6333 18.6642 50.6333H22.3741H38.8602H42.5701ZM23.0965 49.1885V44.0402H38.1378V49.1885H23.0965ZM58.7896 40.2513C58.7896 41.5437 57.7377 42.5955 56.4454 42.5955H38.8602H22.3741H4.78891C3.49655 42.5955 2.44474 41.5437 2.44474 40.2513V33.5976H58.7896V40.2513ZM58.7896 32.1529H2.44474V6.54052C2.44474 5.2478 3.49655 4.19634 4.78891 4.19634H44.1044V12.2934C44.1044 12.9022 44.4085 13.4655 44.9178 13.8005C45.4271 14.1353 46.0648 14.1906 46.6257 13.9497L50.0816 12.4581L53.5383 13.9501C53.6672 14.0056 53.8007 14.0415 53.9356 14.0658C53.9794 14.0737 54.0229 14.0746 54.067 14.0792C54.1295 14.0858 54.1916 14.0982 54.2543 14.0982C54.2771 14.0982 54.299 14.0892 54.3218 14.0884C54.4328 14.0842 54.541 14.0652 54.6495 14.0406C54.6997 14.0292 54.75 14.0243 54.7992 14.0086C54.9545 13.959 55.1053 13.8928 55.2454 13.8005C55.7548 13.4655 56.0588 12.9022 56.0588 12.2934V4.19634H56.4454C57.7377 4.19634 58.7896 5.2478 58.7896 6.54052V32.1529Z" fill="white" stroke="white" stroke-width="0.5"/>
<path id="Vector_7" d="M10.6151 28.5414H7.40112C6.65971 28.5414 6.05656 27.9383 6.05656 27.1969V21.922C6.05656 21.523 5.73346 21.1996 5.33419 21.1996C4.93491 21.1996 4.61182 21.523 4.61182 21.922V27.1969C4.61182 28.7347 5.86327 29.9862 7.40112 29.9862H10.6151C11.0144 29.9862 11.3375 29.6631 11.3375 29.2638C11.3375 28.8649 11.0144 28.5414 10.6151 28.5414Z" fill="white"/>
<path id="Vector_8" d="M5.33419 18.0564C5.73346 18.0564 6.05656 17.7329 6.05656 17.334V15.6533C6.05656 15.2544 5.73346 14.9309 5.33419 14.9309C4.93491 14.9309 4.61182 15.2544 4.61182 15.6533V17.334C4.61182 17.7329 4.93491 18.0564 5.33419 18.0564Z" fill="white"/>
<path id="Vector_9" d="M27.8761 40.1243H33.3573C34.4754 40.1243 35.3848 39.2143 35.3848 38.0962C35.3848 36.978 34.4754 36.0687 33.3573 36.0687H27.8761C26.7579 36.0687 25.8486 36.978 25.8486 38.0962C25.8486 39.2143 26.7579 40.1243 27.8761 40.1243ZM27.8761 37.5135H33.3573C33.6783 37.5135 33.94 37.7752 33.94 38.0962C33.94 38.4178 33.6783 38.6796 33.3573 38.6796H27.8761C27.5551 38.6796 27.2934 38.4178 27.2934 38.0962C27.2934 37.7752 27.5551 37.5135 27.8761 37.5135Z" fill="white"/>
</g>
</svg>
