<svg width="52" height="52" viewBox="0 0 52 52" fill="none" xmlns="http://www.w3.org/2000/svg">
<g id="Group">
<path id="Vector" d="M30.2978 6.5H28.647V8.125H30.2978V6.5Z" fill="black"/>
<path id="Vector_2" d="M11.8973 42.4879L10.73 43.637L12.3805 45.2617L13.5478 44.1127L11.8973 42.4879Z" fill="black"/>
<path id="Vector_3" d="M44.0878 33.5506L41.6116 31.1131C41.4531 30.9563 41.2253 30.8612 41.0115 30.875C40.787 30.8799 40.5741 30.9741 40.4214 31.1366L40.3322 31.3601L39.6191 30.5386V28.4375C39.6191 28.2222 39.5324 28.015 39.3773 27.8631L34.6667 23.2262V17.875C34.6667 17.6597 34.5801 17.4525 34.4249 17.3006L33.0159 15.9137V14.625C33.0159 14.625 33.8413 14.261 33.8413 13.8125V10.5625V-0.238037H32.1905V9.51196H20.635V-0.238037H18.9842V10.5625V13.8125C18.9842 14.261 18.9842 14.625 19.8096 14.625V15.9137L16.7498 18.9256C16.5947 19.0775 16.508 19.2847 16.508 19.5V21.6012L12.6228 25.4256C12.4677 25.5775 12.381 25.7847 12.381 26V30.5386L11.4351 31.3511L11.133 31.1131C10.8103 30.7954 10.2581 30.7954 9.93535 31.1131L7.4443 33.5506L0.00830078 40.8631L1.17129 42.012L8.01465 35.2739L16.7507 43.875L9.90481 50.6131L11.0719 51.762L18.5005 44.4495L20.9767 42.012C21.2994 41.6943 21.2994 41.1808 20.9767 40.8631L20.7348 40.625L21.6048 39.7687C21.7476 39.7938 21.8937 39.8125 22.0439 39.8125C22.37 39.8125 22.6795 39.7467 22.9651 39.6338C23.2507 40.6697 24.204 41.4375 25.3455 41.4375C26.2246 41.4375 26.9938 40.8615 27.4329 40.1798C27.7936 40.3813 28.2039 40.387 28.6471 40.387H29.9562L30.7717 41.3083L30.5174 41.639C30.217 41.96 30.2269 42.4856 30.5406 42.7944L33.0168 45.2465L39.6199 51.7538L40.787 50.609L34.7451 44.6623L37.6728 41.5407L43.529 35.2958L51.1747 42.8245L52.3418 41.6756L44.0878 33.5506ZM32.1905 11.137V12.762H20.635V11.137H32.1905ZM17.9169 42.7262L9.17929 34.125L10.4884 32.8364L10.7302 33.0745L18.9842 41.1995L19.226 41.4375L17.9169 42.7262ZM12.4809 32.5L13.6686 31.4495C13.8238 31.2975 14.0318 31.0903 14.0318 30.875V26.3364L16.508 23.8989V25.1875C16.508 25.4028 16.5947 25.61 16.7498 25.762L19.8096 28.7739V37.375C19.8096 37.9617 19.9086 38.4922 20.2602 38.9139L19.628 39.4762L12.4809 32.5ZM28.0635 38.1875V25.762H26.4127V38.1875V39C26.4127 39.4477 26.0421 39.8125 25.5874 39.8125C25.1326 39.8125 24.762 39.4477 24.762 39V37.375V25.762H23.1112V37.375C23.1112 37.8227 22.7406 38.1875 22.2858 38.1875C21.831 38.1875 21.4604 37.8227 21.4604 37.375V24.137H19.8096V26.4761L18.1588 24.8512V22.75V21.125V19.8364L21.2185 16.8245C21.3737 16.6725 21.4604 16.4653 21.4604 16.25V14.387H31.3651V16.25C31.3651 16.4653 31.4518 16.6725 31.607 16.8245L33.0159 18.2114V34.125C33.0159 34.5727 32.6453 34.9375 32.1905 34.9375C31.7357 34.9375 31.3651 34.5727 31.3651 34.125V25.762H29.7143V34.125V38.1875C29.7143 38.6352 29.3437 39 28.8889 39C28.4341 39 28.0635 38.6352 28.0635 38.1875ZM30.8814 39.2381C30.879 39.2356 30.997 39.2356 30.9954 39.2332C31.1505 38.9155 31.3651 38.5637 31.3651 38.1875V36.413C31.3651 36.504 31.9 36.5625 32.1905 36.5625C33.5557 36.5625 34.6667 35.4689 34.6667 34.125V25.5239L37.9683 28.7739V30.875C37.9683 31.0903 37.9345 31.2975 38.0888 31.4495L39.1222 32.5268L35.4863 36.4309L31.9058 40.2326L30.8814 39.2381ZM32.3597 42.129C32.4307 42.0875 32.5025 42.0453 32.5587 41.9843L36.6906 37.5099L41.0512 32.86L42.3586 34.1478L39.4309 37.2702L33.5747 43.5151L32.2673 42.2273L32.3597 42.129Z" fill="black"/>
<path id="Vector_4" d="M43.7453 38.4257L42.0947 40.0504L43.262 41.1995L44.9125 39.5747L43.7453 38.4257Z" fill="black"/>
<path id="Vector_5" d="M26.1708 47.9375C23.4139 47.9375 20.7388 47.4118 18.2189 46.3743L17.5825 47.8741C20.3047 48.9946 23.1944 49.5625 26.1708 49.5625C28.5116 49.5625 30.8186 49.2066 33.0273 48.5046L32.5206 46.9576C30.476 47.6076 28.3391 47.9375 26.1708 47.9375Z" fill="black"/>
<path id="Vector_6" d="M46.8057 27.625C46.8057 29.5287 46.5391 31.4121 46.0125 33.2232L47.5998 33.6709C48.1685 31.7144 48.4573 29.6799 48.4573 27.6259C48.4573 19.1425 43.4109 11.3377 35.601 7.74316L34.9019 9.21541C42.1323 12.5434 46.8057 19.7698 46.8057 27.625Z" fill="black"/>
<path id="Vector_7" d="M6.29294 33.0939C5.79027 31.3227 5.53605 29.4824 5.53605 27.625C5.53605 19.7697 10.2094 12.5434 17.4407 9.21456L16.7416 7.74231C8.93173 11.3368 3.88525 19.1417 3.88525 27.625C3.88525 29.6302 4.16011 31.6168 4.7024 33.5302L6.29294 33.0939Z" fill="black"/>
</g>
</svg>
