<svg width="67" height="59" viewBox="0 0 67 59" fill="none" xmlns="http://www.w3.org/2000/svg">
<path d="M60.689 13.0703H45.9425V10.9653H43.9974C43.6859 6.75893 40.529 3.44043 36.6861 3.44043H30.3137C26.4818 3.44043 23.3305 6.7396 23.0036 10.9287H21.0568V13.0682H26.7997V10.9287H24.9269C25.2461 7.92127 27.538 5.57994 30.3137 5.57994H36.6861C39.4728 5.57994 41.7732 7.94007 42.0774 10.9653H40.1997V13.0703H6.31036C4.41383 13.0703 2.87109 14.7951 2.87109 16.9147C2.87109 25.6921 2.87109 45.1379 2.87109 54.1556C2.87109 56.2752 4.41383 58 6.31036 58H60.689C62.5855 58 64.1282 56.2752 64.1282 54.1556C64.1282 40.914 64.1282 29.8591 64.1282 16.9147C64.1282 14.7951 62.5855 13.0703 60.689 13.0703ZM62.214 16.9147V26.8747C55.0077 31.404 47.6106 34.1677 40.1997 35.1171V28.0469H34.4568V15.2098H60.689C61.5297 15.2098 62.214 15.9745 62.214 16.9147ZM31.5854 41.9537H35.414C35.3673 44.2095 35.5333 44.6413 35.2284 45.3228C34.8822 45.8895 34.7013 47.3004 33.4997 47.3004C32.3011 47.3004 32.1101 45.8772 31.7709 45.3217C31.4668 44.6445 31.6329 44.2505 31.5854 41.9537ZM29.6711 39.8121V39.8142H28.714V35.2228V30.1864H38.2854C38.2854 30.467 38.2854 39.9223 38.2854 39.8142H37.3282V39.8121H29.6711ZM6.31036 15.2098H32.5425V28.0469H26.7997V34.9452C19.6316 33.8655 12.2356 31.1511 4.78538 26.8508V16.9147C4.78538 15.9745 5.46959 15.2098 6.31036 15.2098ZM62.214 54.1556C62.214 55.0958 61.5297 55.8605 60.689 55.8605H6.31036C5.46959 55.8605 4.78538 55.0958 4.78538 54.1556V29.2639C12.2224 33.4374 19.6174 36.0784 26.7997 37.1231V41.9537H29.6711C29.7424 43.9533 29.4646 44.9535 30.059 46.2797C30.3226 46.6601 30.9132 49.4399 33.4997 49.4399C36.0976 49.4399 36.6603 46.6843 36.9408 46.2797C37.5348 44.9495 37.2569 43.953 37.3282 41.9537H40.1997V37.2934C47.6157 36.3772 55.0097 33.7038 62.214 29.3329V54.1556Z" fill="#1A1A1A"/>
<path d="M8.6135 36.6025H6.69922V46.2303H8.6135V36.6025Z" fill="#1A1A1A"/>
<path d="M8.6135 50.5098H6.69922V53.719H8.6135V50.5098Z" fill="#1A1A1A"/>
<path d="M60.2991 36.6025H58.3848V46.2303H60.2991V36.6025Z" fill="#1A1A1A"/>
<path d="M60.2991 50.5098H58.3848V53.719H60.2991V50.5098Z" fill="#1A1A1A"/>
</svg>
