<svg width="450" height="275" viewBox="0 0 450 275" fill="none" xmlns="http://www.w3.org/2000/svg">
<line y1="1.3158" x2="450" y2="1.3158" stroke="#F2F2F2"/>
<line y1="70" x2="450" y2="70" stroke="#F2F2F2"/>
<line y1="136.316" x2="450" y2="136.316" stroke="#F2F2F2"/>
<line y1="208.553" x2="450" y2="208.553" stroke="#F2F2F2"/>
<line y1="273.684" x2="450" y2="273.684" stroke="#F2F2F2"/>
<path d="M33 265C35.7493 253.217 39.0451 241.756 40.4257 237.242C40.4753 237.08 40.5642 236.938 40.6866 236.821L52.1032 225.843C52.6888 225.28 53.6658 225.613 53.7854 226.417L59.7251 266.297C59.8877 267.389 61.439 267.451 61.6883 266.375L68.5 237L77 210L88.5531 166.676C88.7516 165.932 89.6817 165.682 90.2264 166.226L96.51 172.51C96.8047 172.805 97.2514 172.886 97.6309 172.713L102.171 170.649C102.384 170.553 102.556 170.385 102.657 170.175L110.445 154.114C110.481 154.038 110.508 153.958 110.525 153.876L117.457 119.712C117.485 119.572 117.543 119.44 117.626 119.325L123.763 110.829C123.915 110.618 124.143 110.475 124.399 110.43L131.578 109.163C132.097 109.071 132.598 109.398 132.723 109.909L138.813 134.738C138.923 135.185 139.324 135.5 139.784 135.5H144.826C145.234 135.5 145.6 135.747 145.753 136.124L152.413 152.551C152.687 153.228 153.57 153.392 154.069 152.86L167.138 138.92C167.578 138.45 168.342 138.513 168.699 139.049L173.56 146.34C173.818 146.726 174.308 146.885 174.743 146.721L185.797 142.576C185.931 142.526 186.052 142.448 186.153 142.347L194.356 134.144C194.882 133.618 195.777 133.83 196.012 134.535L201.951 152.352C202.194 153.083 203.139 153.276 203.649 152.698L209.019 146.612C209.488 146.08 210.346 146.192 210.663 146.826L215.211 155.922C215.558 156.617 216.531 156.667 216.949 156.012L237.543 123.716C237.807 123.303 238.33 123.142 238.781 123.335L244.285 125.693C244.705 125.874 245.195 125.745 245.473 125.382L251.262 117.811C251.415 117.611 251.638 117.476 251.886 117.433L265.465 115.092C265.799 115.035 266.081 114.812 266.214 114.501L272.371 100.135C272.744 99.2649 274.005 99.3525 274.254 100.266L279.387 119.086C279.459 119.35 279.637 119.574 279.878 119.703L285.734 122.857C285.907 122.95 286.049 123.093 286.142 123.267L293.057 136.232C293.445 136.959 294.498 136.931 294.846 136.183L307.313 109.401C307.432 109.145 307.653 108.952 307.922 108.868L315.03 106.647C315.326 106.554 315.563 106.329 315.67 106.038L322.441 87.6591C322.48 87.5538 322.536 87.4558 322.608 87.3691L328.899 79.7297C329.236 79.3203 329.835 79.2453 330.262 79.559L336.075 83.822C336.564 84.1805 337.257 84.025 337.546 83.4919L343.216 73.0237C343.391 72.701 343.729 72.5 344.096 72.5H351.417C351.777 72.5 352.11 72.3059 352.287 71.9921L358.436 61.1139C358.478 61.0383 358.511 60.9575 358.533 60.8734L364.893 36.4115C364.961 36.1486 365.134 35.9247 365.371 35.7916L372.797 31.6144C372.93 31.5391 373.045 31.4341 373.132 31.3075L378.494 23.4704C378.935 22.8262 379.911 22.9129 380.231 23.6248L392.573 51.0501C392.806 51.5683 393.423 51.7883 393.932 51.5342L399.422 48.789C399.774 48.6131 400.196 48.6597 400.501 48.9082L413.5 59.5" stroke="#69B1EA" stroke-width="2"/>
<circle cx="413.5" cy="59" r="3.5" fill="#69B1EA"/>
</svg>
