<svg width="62" height="62" viewBox="0 0 62 62" fill="none" xmlns="http://www.w3.org/2000/svg">
<g id="noun-shares-5527769 1">
<g id="Group">
<g id="Group_2">
<g id="Group_3">
<path id="Vector" fill-rule="evenodd" clip-rule="evenodd" d="M57.665 46.3288H4.44127C2.9265 46.3288 1.68713 45.0877 1.68713 43.5709V7.95967C1.68713 6.44283 2.9265 5.20178 4.44127 5.20178H57.665C59.2142 5.20178 60.4536 6.44283 60.4536 7.95967V25.7653V43.5709C60.4536 45.0877 59.2142 46.3288 57.665 46.3288ZM4.44127 6.58073C3.68388 6.58073 3.0642 7.20125 3.0642 7.95967V43.5709C3.0642 44.3293 3.68388 44.9498 4.44127 44.9498H57.665C58.4568 44.9498 59.0765 44.3293 59.0765 43.5709V7.95967C59.0765 7.20125 58.4568 6.58073 57.665 6.58073H4.44127Z" fill="#1A1A1A" stroke="#1A1A1A" stroke-width="0.8"/>
</g>
<g id="Group_4">
<path id="Vector_2" fill-rule="evenodd" clip-rule="evenodd" d="M37.1467 53.3613H24.9941C24.6154 53.3613 24.3055 53.051 24.3055 52.6718V45.6392C24.3055 45.26 24.6154 44.9497 24.9941 44.9497H37.1467C37.5254 44.9497 37.8352 45.26 37.8352 45.6392V52.6718C37.8352 53.051 37.5254 53.3613 37.1467 53.3613ZM25.6826 51.9823H36.4582V46.3287H25.6826V51.9823Z" fill="#1A1A1A" stroke="#1A1A1A" stroke-width="0.8"/>
</g>
<g id="Group_5">
<path id="Vector_3" fill-rule="evenodd" clip-rule="evenodd" d="M44.514 56.6708H17.6268C17.2481 56.6708 16.9382 56.3606 16.9382 55.9814V52.6719C16.9382 52.2927 17.2481 51.9824 17.6268 51.9824H44.514C44.8927 51.9824 45.2026 52.2927 45.2026 52.6719V55.9814C45.2026 56.3606 44.8927 56.6708 44.514 56.6708ZM18.3153 55.2919H43.8255V53.3614H18.3153V55.2919Z" fill="#1A1A1A" stroke="#1A1A1A" stroke-width="0.8"/>
</g>
<g id="Group_6">
<path id="Vector_4" fill-rule="evenodd" clip-rule="evenodd" d="M59.765 40.8819H2.37567C1.99697 40.8819 1.68713 40.5716 1.68713 40.1924C1.68713 39.8132 1.99697 39.5029 2.37567 39.5029H59.765C60.1437 39.5029 60.4536 39.8132 60.4536 40.1924C60.4536 40.5716 60.1437 40.8819 59.765 40.8819Z" fill="#1A1A1A" stroke="#1A1A1A" stroke-width="0.8"/>
</g>
<g id="Group_7">
<path id="Vector_5" fill-rule="evenodd" clip-rule="evenodd" d="M35.322 27.2303C33.0154 27.2303 31.1219 25.3343 31.1219 23.0246C31.1219 20.7148 33.0154 18.8533 35.322 18.8533C37.6286 18.8533 39.4876 20.7148 39.4876 23.0246C39.4876 25.3343 37.6286 27.2303 35.322 27.2303ZM35.322 20.2322C33.7728 20.2322 32.499 21.4733 32.499 23.0246C32.499 24.5759 33.7728 25.8514 35.322 25.8514C36.8712 25.8514 38.1106 24.5759 38.1106 23.0246C38.1106 21.4733 36.8712 20.2322 35.322 20.2322Z" fill="#1A1A1A" stroke="#1A1A1A" stroke-width="0.8"/>
</g>
<g id="Group_8">
<path id="Vector_6" fill-rule="evenodd" clip-rule="evenodd" d="M50.642 19.5773C48.3354 19.5773 46.4763 17.6812 46.4763 15.3715C46.4763 13.0618 48.3354 11.2002 50.642 11.2002C52.9485 11.2002 54.842 13.0618 54.842 15.3715C54.842 17.6812 52.9485 19.5773 50.642 19.5773ZM50.642 12.5791C49.0928 12.5791 47.8534 13.8547 47.8534 15.3715C47.8534 16.9228 49.0928 18.1983 50.642 18.1983C52.1912 18.1983 53.4649 16.9228 53.4649 15.3715C53.4649 13.8547 52.1912 12.5791 50.642 12.5791Z" fill="#1A1A1A" stroke="#1A1A1A" stroke-width="0.8"/>
</g>
<g id="Group_9">
<path id="Vector_7" fill-rule="evenodd" clip-rule="evenodd" d="M50.642 34.8491C48.3354 34.8491 46.4763 32.9875 46.4763 30.6778C46.4763 28.368 48.3354 26.5065 50.642 26.5065C52.9485 26.5065 54.842 28.368 54.842 30.6778C54.842 32.9875 52.9485 34.8491 50.642 34.8491ZM50.642 27.8854C49.0928 27.8854 47.8534 29.1265 47.8534 30.6778C47.8534 32.2291 49.0928 33.4701 50.642 33.4701C52.1912 33.4701 53.4649 32.2291 53.4649 30.6778C53.4649 29.1265 52.1912 27.8854 50.642 27.8854Z" fill="#1A1A1A" stroke="#1A1A1A" stroke-width="0.8"/>
</g>
<g id="Group_10">
<path id="Vector_8" fill-rule="evenodd" clip-rule="evenodd" d="M38.3172 21.9215C38.0762 21.9215 37.8696 21.818 37.7319 21.6112C37.5254 21.3009 37.5942 20.8528 37.9385 20.6459L46.7861 14.8199C47.096 14.6131 47.5435 14.682 47.7501 14.9923C47.9567 15.337 47.8534 15.7507 47.5435 15.9575L38.6614 21.818C38.5582 21.887 38.4204 21.9215 38.3172 21.9215Z" fill="#1A1A1A" stroke="#1A1A1A" stroke-width="0.8"/>
</g>
<g id="Group_11">
<path id="Vector_9" fill-rule="evenodd" clip-rule="evenodd" d="M47.1648 31.3672C47.0271 31.3672 46.8894 31.3327 46.7861 31.2638L37.9385 25.4033C37.5942 25.1964 37.5254 24.7827 37.7319 24.4725C37.9385 24.1277 38.3516 24.0588 38.6614 24.2656L47.5435 30.0917C47.8534 30.2985 47.9567 30.7467 47.7501 31.0569C47.6124 31.2638 47.3714 31.3672 47.1648 31.3672Z" fill="#1A1A1A" stroke="#1A1A1A" stroke-width="0.8"/>
</g>
<g id="Group_12">
<path id="Vector_10" fill-rule="evenodd" clip-rule="evenodd" d="M28.0236 14.1304H25.3039C24.9252 14.1304 24.6154 13.8546 24.6154 13.4409C24.6154 13.0617 24.9252 12.7515 25.3039 12.7515H28.0236C28.4023 12.7515 28.7121 13.0617 28.7121 13.4409C28.7121 13.8546 28.4023 14.1304 28.0236 14.1304ZM22.3088 14.1304H7.98724C7.60855 14.1304 7.29871 13.8546 7.29871 13.4409C7.29871 13.0617 7.60855 12.7515 7.98724 12.7515H22.3088C22.6875 12.7515 22.9973 13.0617 22.9973 13.4409C22.9973 13.8546 22.6875 14.1304 22.3088 14.1304Z" fill="#1A1A1A" stroke="#1A1A1A" stroke-width="0.8"/>
</g>
<g id="Group_13">
<path id="Vector_11" fill-rule="evenodd" clip-rule="evenodd" d="M28.0236 20.5425H18.694C18.3153 20.5425 18.0054 20.2323 18.0054 19.853C18.0054 19.4738 18.3153 19.1636 18.694 19.1636H28.0236C28.4023 19.1636 28.7121 19.4738 28.7121 19.853C28.7121 20.2323 28.4023 20.5425 28.0236 20.5425ZM15.4234 20.5425H7.98724C7.60855 20.5425 7.29871 20.2323 7.29871 19.853C7.29871 19.4738 7.60855 19.1636 7.98724 19.1636H15.4234C15.8021 19.1636 16.1119 19.4738 16.1119 19.853C16.1119 20.2323 15.8021 20.5425 15.4234 20.5425Z" fill="#1A1A1A" stroke="#1A1A1A" stroke-width="0.8"/>
</g>
<g id="Group_14">
<path id="Vector_12" fill-rule="evenodd" clip-rule="evenodd" d="M28.0236 26.9202H13.7709C13.3922 26.9202 13.0824 26.6099 13.0824 26.2307C13.0824 25.8515 13.3922 25.5413 13.7709 25.5413H28.0236C28.4023 25.5413 28.7121 25.8515 28.7121 26.2307C28.7121 26.6099 28.4023 26.9202 28.0236 26.9202ZM10.2594 26.9202H7.98724C7.60855 26.9202 7.29871 26.6099 7.29871 26.2307C7.29871 25.8515 7.60855 25.5413 7.98724 25.5413H10.2594C10.6381 25.5413 10.9479 25.8515 10.9479 26.2307C10.9479 26.6099 10.6381 26.9202 10.2594 26.9202Z" fill="#1A1A1A" stroke="#1A1A1A" stroke-width="0.8"/>
</g>
<g id="Group_15">
<path id="Vector_13" fill-rule="evenodd" clip-rule="evenodd" d="M26.2334 33.2978H23.9612C23.5826 33.2978 23.2727 32.9875 23.2727 32.6083C23.2727 32.2291 23.5826 31.9188 23.9612 31.9188H26.2334C26.6121 31.9188 26.9219 32.2291 26.9219 32.6083C26.9219 32.9875 26.6121 33.2978 26.2334 33.2978ZM20.8973 33.2978H7.98724C7.60855 33.2978 7.29871 32.9875 7.29871 32.6083C7.29871 32.2291 7.60855 31.9188 7.98724 31.9188H20.8973C21.276 31.9188 21.5858 32.2291 21.5858 32.6083C21.5858 32.9875 21.276 33.2978 20.8973 33.2978Z" fill="#1A1A1A" stroke="#1A1A1A" stroke-width="0.8"/>
</g>
<g id="Group_16">
<path id="Vector_14" fill-rule="evenodd" clip-rule="evenodd" d="M33.6351 43.6053H28.5056C28.1269 43.6053 27.817 43.295 27.817 42.9158C27.817 42.5366 28.1269 42.2263 28.5056 42.2263H33.6351C34.0138 42.2263 34.3237 42.5366 34.3237 42.9158C34.3237 43.295 34.0138 43.6053 33.6351 43.6053Z" fill="#1A1A1A" stroke="#1A1A1A" stroke-width="0.8"/>
</g>
</g>
</g>
</g>
</svg>
