<svg width="369" height="369" viewBox="0 0 369 369" fill="none" xmlns="http://www.w3.org/2000/svg">
<path d="M39.7223 211.357C34.8201 171.046 45.7993 131.95 67.8326 100.95L46.9648 84.6078L6.03345 89.5854L4.52508 77.1819L41.7354 72.6568L37.2103 35.4465L49.6138 33.9381L54.5914 74.8695L75.4592 91.2121C100.275 62.3912 134.98 42.4372 175.911 37.4596C261.495 27.0519 339.401 88.0644 349.809 173.648C360.216 259.232 299.204 337.138 213.62 347.546C128.036 357.954 50.1301 296.941 39.7223 211.357ZM308.147 281.298C330.406 252.158 342.232 214.848 337.405 175.157C332.578 135.466 312.155 102.077 283.56 79.1214C254.421 56.8619 217.11 45.0363 177.419 49.8631C140.209 54.3882 108.454 72.7247 85.8176 98.7633L115.728 122.188C132.297 103.181 155.277 90.3164 182.565 86.998C240.861 79.9087 293.726 121.31 300.815 179.606C307.904 237.902 266.503 290.767 208.207 297.857C149.911 304.946 97.0456 263.545 89.9563 205.249C86.7133 178.581 93.6194 152.567 108.101 131.926L78.191 108.502C57.7166 136.795 48.1454 171.943 52.6705 209.153C57.4973 248.845 77.9206 282.233 106.515 305.189C135.11 328.144 172.421 339.969 212.112 335.143C251.803 330.316 285.192 309.892 308.147 281.298ZM244.379 186.469C247.698 213.757 228.087 238.798 200.799 242.117C173.511 245.435 148.47 225.824 145.152 198.536C143.794 187.373 146.233 176.378 151.999 166.866L117.22 139.628C104.992 158.107 98.8737 180.249 101.74 203.816C104.832 229.243 118.241 251.527 137.022 266.235C155.803 280.944 180.651 288.621 206.078 285.529C231.505 282.437 253.79 269.028 268.498 250.247C283.207 231.466 290.884 206.617 287.791 181.19C284.699 155.763 271.29 133.479 252.509 118.77C233.729 104.062 208.88 96.3847 183.453 99.4769C159.886 102.343 139.856 113.589 124.846 129.89L159.626 157.127C167.479 149.25 177.569 144.247 188.732 142.889C216.02 139.571 241.061 159.182 244.379 186.469ZM161.737 174.492C158.15 181.222 156.575 188.966 157.555 197.028C158.837 207.571 164.31 216.346 171.886 221.718C178.917 227.785 188.748 230.995 199.291 229.713C209.834 228.431 218.608 222.959 223.98 215.382C229.973 207.731 233.183 197.9 231.976 187.978C230.694 177.435 225.221 168.66 217.645 163.288C209.994 157.296 200.163 154.086 190.24 155.292C182.178 156.273 175.038 159.659 169.364 164.754L198.579 187.634L190.952 197.372L161.737 174.492Z" fill="#112B4F" stroke="#112B4F"/>
</svg>
