<svg width="75" height="34" viewBox="0 0 75 34" fill="none" xmlns="http://www.w3.org/2000/svg">
<g id="5">
<g id="Group">
<path id="Vector" d="M42.1441 13.4997L41.9218 14.9042H44.3166L44.0239 16.7521H41.6299L41.1077 20.0485H38.9248L40.2558 11.6514H45.0778L44.7833 13.4997H42.1441Z" fill="#0267BB"/>
<path id="Vector_2" d="M47.1904 20.0485H45.0078L46.3378 11.6514H48.5206L47.1904 20.0485Z" fill="#0267BB"/>
<path id="Vector_3" d="M52.0361 13.5007L51.8135 14.9052H54.275L53.9831 16.753H51.5213L51.2912 18.2001H53.8868L53.5943 20.0495H48.8154L50.1464 11.6523H54.9233L54.6311 13.5007H52.0361Z" fill="#0267BB"/>
<path id="Vector_4" d="M58.0692 13.4997H58.5816C59.9843 13.4997 60.8418 14.3466 60.6027 15.8501C60.3453 17.4857 59.1179 18.1992 57.8152 18.1992H57.3254L58.0692 13.4997ZM54.8496 20.0485H57.9461C60.2723 20.0485 62.5006 18.2116 62.8756 15.8501C63.2499 13.4896 61.6134 11.6514 59.2745 11.6514H56.1793L54.8496 20.0485Z" fill="#0267BB"/>
<path id="Vector_5" d="M30.0709 26.0927C30.6633 26.0927 30.9399 26.5638 30.8594 27.1222C30.7781 27.6987 30.3701 28.1428 29.7806 28.1428C29.1874 28.1428 28.9074 27.6987 28.9898 27.1222C29.0692 26.5638 29.4803 26.0927 30.0709 26.0927ZM27.2588 29.3957H28.7134L28.7856 28.8898H28.8012C29.0007 29.3427 29.4681 29.5468 29.9468 29.5468C31.1698 29.5468 32.1766 28.4283 32.3647 27.1131C32.5501 25.8073 31.8704 24.6892 30.6553 24.6892C30.1839 24.6892 29.6676 24.884 29.2998 25.285L29.7652 22.0254H28.3098L27.2588 29.3957Z" fill="#0267BB"/>
<path id="Vector_6" d="M32.4849 24.8447H34.1623L34.9243 27.1795L36.3286 24.8447H37.9824L33.7258 31.672H32.0938L33.906 28.7783L32.4849 24.8447Z" fill="#0267BB"/>
<path id="Vector_7" d="M45.6504 29.3955L47.8927 22H49.8932L47.652 29.3955H45.6504Z" fill="#0267BB"/>
<path id="Vector_8" d="M44.7567 22.001L42.9562 25.138C42.4988 25.9605 42.23 26.3734 42.1025 26.8934H42.0742C42.1056 26.2345 42.016 25.4265 42.0059 24.97L41.809 22.001H38.439L38.4053 22.2004C39.2706 22.2004 39.782 22.6367 39.9225 23.5262L40.5788 29.3964H42.6539L46.8471 22.001H44.7567Z" fill="#0267BB"/>
<path id="Vector_9" d="M60.317 29.3923L60.2606 28.2925L57.7625 28.2896L57.2506 29.3923H55.0781L59.0171 22.0127H61.6848L62.3499 29.3923H60.317ZM60.0871 25.0287C60.0632 24.4838 60.0466 23.7421 60.0824 23.2938H60.0546C59.9321 23.6616 59.409 24.7628 59.1761 25.3048L58.4341 26.9259H60.1884L60.0871 25.0287Z" fill="#0267BB"/>
<path id="Vector_10" d="M51.9967 29.6096C50.5831 29.6096 49.6461 29.1603 48.9766 28.7601L49.9284 27.3028C50.5299 27.6384 51.0036 28.0282 52.0887 28.0282C52.439 28.0282 52.7751 27.936 52.9652 27.6064C53.2457 27.1247 52.9016 26.866 52.1198 26.4248L51.7329 26.1718C50.5733 25.3799 50.0725 24.6299 50.6197 23.3171C50.968 22.4751 51.8884 21.8398 53.408 21.8398C54.4549 21.8398 55.4374 22.2923 56.0098 22.7358L54.9122 24.0206C54.3546 23.5677 53.8926 23.3399 53.362 23.3399C52.9397 23.3399 52.6182 23.503 52.5089 23.7235C52.3014 24.1365 52.5759 24.4182 53.1852 24.7948L53.6443 25.0878C55.0504 25.9747 55.3849 26.9047 55.0322 27.7765C54.4276 29.2743 53.2381 29.6096 51.9967 29.6096Z" fill="#0267BB"/>
<path id="Vector_11" d="M24.8097 13.5007L24.5879 14.9052H27.0487L26.757 16.753H24.2955L24.0656 18.2001H26.662L26.368 20.0495H21.5898L22.9203 11.6523H27.6982L27.4058 13.5007H24.8097Z" fill="#0267BB"/>
<path id="Vector_12" d="M30.8785 13.3221H31.0904C31.8034 13.3221 32.5846 13.4556 32.4396 14.3687C32.2958 15.2824 31.472 15.4156 30.7596 15.4156H30.5474L30.8785 13.3221ZM32.5191 16.6074C33.7449 16.3957 34.5498 15.3933 34.7324 14.2357C35.0162 12.4427 33.8828 11.6514 32.2238 11.6514H28.9598L27.6309 20.0488H29.815L30.3251 16.8193H30.3474L31.8961 20.0488H34.6139L32.5191 16.6074Z" fill="#0267BB"/>
<path id="Vector_13" d="M37.3072 20.0495H35.123L36.4538 11.6523H38.6367L37.3072 20.0495Z" fill="#0267BB"/>
<path id="Vector_14" d="M25.3817 3.28125L21.9458 8.75048L17.2744 16.661L17.0012 13.7122L16.7869 10.5066H12.4962L12.4531 10.7596C13.5546 10.7596 14.2062 11.3138 14.3874 12.4485L15.2211 19.9229L15.2263 19.9063L15.2375 20.0159H18.1875L23.4596 9.35197L26.6564 3.28125H25.3817Z" fill="#0267BB"/>
<path id="Vector_15" d="M18.0142 12.2843H18.263L21.3665 7.027L21.3678 6.78027H14.3076V7.03141L17.7101 8.47956L18.0142 12.2843Z" fill="#F9B10B"/>
</g>
</g>
</svg>
