<svg width="75" height="34" viewBox="0 0 75 34" fill="none" xmlns="http://www.w3.org/2000/svg">
<g id="6">
<g id="g4158">
<path id="polygon9" d="M34.3552 25.4663H30.2607L32.8217 9.38477H36.916L34.3552 25.4663Z" fill="#0267BB"/>
<path id="path11" d="M49.1984 9.77743C48.3908 9.45204 47.1098 9.09277 45.5259 9.09277C41.4825 9.09277 38.6351 11.2825 38.6177 14.4131C38.5841 16.7229 40.6563 18.0058 42.2061 18.7759C43.7902 19.5629 44.3287 20.0765 44.3287 20.778C44.3126 21.8554 43.0487 22.352 41.8698 22.352C40.2351 22.352 39.3592 22.0959 38.0281 21.4966L37.489 21.2396L36.916 24.8496C37.8763 25.2939 39.6456 25.6882 41.4825 25.7054C45.7787 25.7054 48.5757 23.5496 48.6088 20.2134C48.6252 18.3828 47.531 16.98 45.1719 15.8338C43.7399 15.098 42.8629 14.6018 42.8629 13.849C42.8796 13.1645 43.6046 12.4635 45.2212 12.4635C46.5523 12.4292 47.5303 12.7541 48.2712 13.0793L48.6415 13.25L49.1984 9.77743Z" fill="#0267BB"/>
<path id="path13" d="M54.6405 19.7692C54.9777 18.8453 56.2752 15.2697 56.2752 15.2697C56.2582 15.304 56.6117 14.3288 56.8139 13.7301L57.1001 15.1157C57.1001 15.1157 57.8754 18.9651 58.0438 19.7692C57.4039 19.7692 55.4493 19.7692 54.6405 19.7692ZM59.6947 9.38477H56.5276C55.5509 9.38477 54.8089 9.67536 54.3875 10.7191L48.3057 25.466H52.6019C52.6019 25.466 53.3092 23.4812 53.4612 23.0537C53.9325 23.0537 58.1119 23.0537 58.7182 23.0537C58.8358 23.6183 59.2068 25.466 59.2068 25.466H62.9979L59.6947 9.38477Z" fill="#0267BB"/>
<path id="path15" d="M26.8414 9.38477L22.8315 20.3508L22.3933 18.1268C21.652 15.5605 19.327 12.7723 16.7324 11.386L20.4053 25.4492H24.7351L31.1709 9.38477H26.8414Z" fill="#0267BB"/>
<path id="path17" d="M19.1082 9.38477H12.5205L12.4531 9.7097C17.5919 11.0442 20.9952 14.261 22.3935 18.1274L20.9614 10.7366C20.7256 9.70947 20.0011 9.41865 19.1082 9.38477Z" fill="#FAA61A"/>
</g>
</g>
</svg>
