<svg width="75" height="34" viewBox="0 0 75 34" fill="none" xmlns="http://www.w3.org/2000/svg">
<g id="7" clip-path="url(#clip0_619_374)">
<g id="Group">
<g id="Group_2">
<path id="Vector" d="M24.4475 33V30.9754C24.4475 30.1994 23.9529 29.6932 23.105 29.6932C22.681 29.6932 22.2217 29.8282 21.9037 30.2669C21.6564 29.8957 21.3031 29.6932 20.7732 29.6932C20.4199 29.6932 20.0666 29.7945 19.7839 30.1656V29.7607H19.042V33H19.7839V31.2116C19.7839 30.638 20.1019 30.3681 20.5965 30.3681C21.0911 30.3681 21.3385 30.6718 21.3385 31.2116V33H22.0804V31.2116C22.0804 30.638 22.4337 30.3681 22.893 30.3681C23.3876 30.3681 23.6349 30.6718 23.6349 31.2116V33H24.4475ZM35.4352 29.7607H34.234V28.7822H33.492V29.7607H32.8208V30.4018H33.492V31.8865C33.492 32.6288 33.81 33.0675 34.6579 33.0675C34.9759 33.0675 35.3292 32.9662 35.5765 32.8313L35.3645 32.2239C35.1525 32.3589 34.9052 32.3926 34.7286 32.3926C34.3753 32.3926 34.234 32.1902 34.234 31.8527V30.4018H35.4352V29.7607ZM41.724 29.6932C41.3 29.6932 41.0173 29.8957 40.8407 30.1656V29.7607H40.0988V33H40.8407V31.1779C40.8407 30.638 41.088 30.3343 41.5473 30.3343C41.6886 30.3343 41.8653 30.3681 42.0066 30.4018L42.2186 29.727C42.0773 29.6932 41.8653 29.6932 41.724 29.6932ZM32.2201 30.0307C31.8668 29.7945 31.3722 29.6932 30.8423 29.6932C29.9943 29.6932 29.4291 30.0981 29.4291 30.7392C29.4291 31.2791 29.853 31.5828 30.595 31.684L30.9483 31.7178C31.3369 31.7853 31.5489 31.8865 31.5489 32.0552C31.5489 32.2914 31.2662 32.4601 30.7716 32.4601C30.277 32.4601 29.8884 32.2914 29.641 32.1227L29.2877 32.6626C29.6764 32.9325 30.2063 33.0675 30.7363 33.0675C31.7255 33.0675 32.2908 32.6288 32.2908 32.0215C32.2908 31.4478 31.8315 31.1442 31.1249 31.0429L30.7716 31.0092C30.4536 30.9754 30.2063 30.908 30.2063 30.7055C30.2063 30.4693 30.4536 30.3343 30.8423 30.3343C31.2662 30.3343 31.6902 30.5031 31.9022 30.6043L32.2201 30.0307ZM51.9344 29.6932C51.5104 29.6932 51.2278 29.8957 51.0511 30.1656V29.7607H50.3092V33H51.0511V31.1779C51.0511 30.638 51.2984 30.3343 51.7577 30.3343C51.8991 30.3343 52.0757 30.3681 52.217 30.4018L52.429 29.727C52.2877 29.6932 52.0757 29.6932 51.9344 29.6932ZM42.4659 31.3803C42.4659 32.3589 43.1725 33.0675 44.2677 33.0675C44.7624 33.0675 45.1157 32.9662 45.469 32.6963L45.1157 32.1227C44.833 32.3251 44.5504 32.4264 44.2324 32.4264C43.6318 32.4264 43.2078 32.0215 43.2078 31.3803C43.2078 30.773 43.6318 30.3681 44.2324 30.3343C44.5504 30.3343 44.833 30.4356 45.1157 30.638L45.469 30.0644C45.1157 29.7945 44.7624 29.6932 44.2677 29.6932C43.1725 29.6932 42.4659 30.4018 42.4659 31.3803ZM49.3199 31.3803V29.7607H48.578V30.1656C48.3307 29.862 47.9774 29.6932 47.5181 29.6932C46.5642 29.6932 45.8223 30.4018 45.8223 31.3803C45.8223 32.3589 46.5642 33.0675 47.5181 33.0675C48.0127 33.0675 48.366 32.8988 48.578 32.5951V33H49.3199V31.3803ZM46.5995 31.3803C46.5995 30.8067 46.9882 30.3343 47.6241 30.3343C48.2247 30.3343 48.6487 30.773 48.6487 31.3803C48.6487 31.954 48.2247 32.4264 47.6241 32.4264C46.9882 32.3926 46.5995 31.954 46.5995 31.3803ZM37.7316 29.6932C36.7424 29.6932 36.0358 30.3681 36.0358 31.3803C36.0358 32.3926 36.7424 33.0675 37.767 33.0675C38.2616 33.0675 38.7562 32.9325 39.1449 32.6288L38.7916 32.1227C38.5089 32.3251 38.1556 32.4601 37.8023 32.4601C37.343 32.4601 36.8837 32.2577 36.7777 31.684H39.2862V31.4141C39.3215 30.3681 38.6856 29.6932 37.7316 29.6932ZM37.7316 30.3006C38.1909 30.3006 38.5089 30.5705 38.5796 31.0767H36.8131C36.8837 30.638 37.2017 30.3006 37.7316 30.3006ZM56.1387 31.3803V28.4785H55.3967V30.1656C55.1494 29.862 54.7961 29.6932 54.3368 29.6932C53.3829 29.6932 52.641 30.4018 52.641 31.3803C52.641 32.3589 53.3829 33.0675 54.3368 33.0675C54.8315 33.0675 55.1847 32.8988 55.3967 32.5951V33H56.1387V31.3803ZM53.4182 31.3803C53.4182 30.8067 53.8069 30.3343 54.4428 30.3343C55.0434 30.3343 55.4674 30.773 55.4674 31.3803C55.4674 31.954 55.0434 32.4264 54.4428 32.4264C53.8069 32.3926 53.4182 31.954 53.4182 31.3803ZM28.6165 31.3803V29.7607H27.8745V30.1656C27.6272 29.862 27.2739 29.6932 26.8146 29.6932C25.8607 29.6932 25.1188 30.4018 25.1188 31.3803C25.1188 32.3589 25.8607 33.0675 26.8146 33.0675C27.3093 33.0675 27.6626 32.8988 27.8745 32.5951V33H28.6165V31.3803ZM25.8607 31.3803C25.8607 30.8067 26.2493 30.3343 26.8853 30.3343C27.4859 30.3343 27.9099 30.773 27.9099 31.3803C27.9099 31.954 27.4859 32.4264 26.8853 32.4264C26.2493 32.3926 25.8607 31.954 25.8607 31.3803Z" fill="#EAEAEA"/>
<path id="Vector_2" d="M43.1026 5.16309H31.9736V24.2612H43.1026V5.16309Z" fill="#FF5F00"/>
<path id="Vector_3" d="M32.6799 14.7117C32.6799 10.8313 34.5878 7.38961 37.5202 5.16262C35.365 3.54298 32.6446 2.56445 29.6769 2.56445C22.6462 2.56445 16.958 7.99697 16.958 14.7117C16.958 21.4264 22.6462 26.8589 29.6769 26.8589C32.6446 26.8589 35.365 25.8804 37.5202 24.2608C34.5878 22.0675 32.6799 18.5921 32.6799 14.7117Z" fill="#EB001B"/>
<path id="Vector_4" d="M58.1178 14.7117C58.1178 21.4264 52.4297 26.8589 45.399 26.8589C42.4312 26.8589 39.7108 25.8804 37.5557 24.2608C40.5234 22.0338 42.3959 18.5921 42.3959 14.7117C42.3959 10.8313 40.4881 7.38961 37.5557 5.16262C39.7108 3.54298 42.4312 2.56445 45.399 2.56445C52.4297 2.56445 58.1178 8.03071 58.1178 14.7117Z" fill="#F79E1B"/>
</g>
</g>
</g>
<defs>
<clipPath id="clip0_619_374">
<rect width="74.7196" height="33.2087" fill="white" transform="translate(0 0.791016)"/>
</clipPath>
</defs>
</svg>
