<svg width="58" height="58" viewBox="0 0 58 58" fill="none" xmlns="http://www.w3.org/2000/svg">
<path id="Vector" fill-rule="evenodd" clip-rule="evenodd" d="M33.8709 1.93894C33.7798 1.55144 33.4601 1.25887 33.0668 1.20269C30.3698 0.807438 27.6302 0.807438 24.9332 1.20269C24.5399 1.25887 24.2202 1.55144 24.1291 1.93894L23.11 6.26925C20.9981 6.81563 18.9715 7.65456 17.0902 8.76087C17.0921 8.76087 13.3082 6.42038 13.3082 6.42038C12.9711 6.21113 12.539 6.2305 12.2213 6.46687C10.0338 8.09631 8.09631 10.0338 6.46687 12.2213C6.2305 12.539 6.21113 12.9711 6.42038 13.3082L8.76087 17.0921C7.65456 18.9715 6.81563 20.9981 6.26731 23.11C6.26925 23.11 1.93894 24.1291 1.93894 24.1291C1.55144 24.2202 1.25887 24.5399 1.20269 24.9332C0.807438 27.6302 0.807438 30.3698 1.20269 33.0668C1.25887 33.4601 1.55144 33.7798 1.93894 33.8709L6.26925 34.89C6.81563 37.0019 7.65456 39.0285 8.76087 40.9098C8.76087 40.9079 6.42038 44.6918 6.42038 44.6918C6.21113 45.0289 6.2305 45.461 6.46687 45.7788C8.09631 47.9662 10.0338 49.9037 12.2213 51.5331C12.539 51.7695 12.9711 51.7889 13.3082 51.5796L17.0921 49.2391C18.9715 50.3454 20.9981 51.1844 23.11 51.7327C23.11 51.7308 24.1291 56.0611 24.1291 56.0611C24.2202 56.4486 24.5399 56.7411 24.9332 56.7973C27.6302 57.1926 30.3698 57.1926 33.0668 56.7973C33.4601 56.7411 33.7798 56.4486 33.8709 56.0611L34.89 51.7308C37.0019 51.1844 39.0285 50.3454 40.9098 49.2391C40.9079 49.2391 44.6918 51.5796 44.6918 51.5796C45.0289 51.7889 45.461 51.7695 45.7788 51.5331C47.9662 49.9037 49.9037 47.9662 51.5331 45.7788C51.7695 45.461 51.7889 45.0289 51.5796 44.6918L49.2391 40.9079C50.3454 39.0285 51.1844 37.0019 51.7327 34.89C51.7308 34.89 56.0611 33.8709 56.0611 33.8709C56.4486 33.7798 56.7411 33.4601 56.7973 33.0668C57.1926 30.3698 57.1926 27.6302 56.7973 24.9332C56.7411 24.5399 56.4486 24.2202 56.0611 24.1291L51.7308 23.11C51.1844 20.9981 50.3454 18.9715 49.2391 17.0902C49.2391 17.0921 51.5796 13.3082 51.5796 13.3082C51.7889 12.9711 51.7695 12.539 51.5331 12.2213C49.9037 10.0338 47.9662 8.09631 45.7788 6.46687C45.461 6.2305 45.0289 6.21113 44.6918 6.42038L40.9079 8.76087C39.0285 7.65456 37.0019 6.81563 34.89 6.26731C34.89 6.26925 33.8709 1.93894 33.8709 1.93894ZM32.1368 3.03363L33.1404 7.29031C33.2257 7.64875 33.5066 7.92775 33.8651 8.01106C36.1784 8.54775 38.3872 9.46225 40.4003 10.7197C40.7141 10.9134 41.1094 10.9154 41.4233 10.7216L45.1432 8.41987C46.794 9.71606 48.2839 11.2041 49.5801 12.8568L47.2784 16.5768C47.0846 16.8906 47.0866 17.2859 47.2803 17.5998C48.5378 19.6128 49.4523 21.8216 49.9889 24.1349C50.0723 24.4934 50.3512 24.7743 50.7097 24.8596L54.9664 25.8632C55.2183 27.946 55.2183 30.054 54.9683 32.1368L50.7097 33.1404C50.3512 33.2257 50.0723 33.5066 49.9889 33.8651C49.4523 36.1784 48.5378 38.3872 47.2803 40.4003C47.0866 40.7141 47.0846 41.1094 47.2784 41.4233L49.5801 45.1432C48.2839 46.794 46.7959 48.2839 45.1432 49.5801L41.4233 47.2784C41.1094 47.0846 40.7141 47.0866 40.4003 47.2803C38.3872 48.5378 36.1784 49.4523 33.8651 49.9889C33.5066 50.0723 33.2257 50.3512 33.1404 50.7097L32.1368 54.9664C30.054 55.2183 27.946 55.2183 25.8632 54.9683L24.8596 50.7097C24.7743 50.3512 24.4934 50.0723 24.1349 49.9889C21.8216 49.4523 19.6128 48.5378 17.5998 47.2803C17.2859 47.0866 16.8906 47.0846 16.5768 47.2784L12.8568 49.5801C11.206 48.2839 9.71606 46.7959 8.41987 45.1432L10.7216 41.4233C10.9154 41.1094 10.9134 40.7141 10.7197 40.4003C9.46225 38.3872 8.54775 36.1784 8.01106 33.8651C7.92775 33.5066 7.64875 33.2257 7.29031 33.1404L3.03363 32.1368C2.78175 30.054 2.78175 27.946 3.03169 25.8632L7.29031 24.8596C7.64875 24.7743 7.92775 24.4934 8.01106 24.1349C8.54775 21.8216 9.46225 19.6128 10.7197 17.5998C10.9134 17.2859 10.9154 16.8906 10.7216 16.5768L8.41987 12.8568C9.71606 11.206 11.2041 9.71606 12.8568 8.41987L16.5768 10.7216C16.8906 10.9154 17.2859 10.9134 17.5998 10.7197C19.6128 9.46225 21.8216 8.54775 24.1349 8.01106C24.4934 7.92775 24.7743 7.64875 24.8596 7.29031L25.8632 3.03169C27.946 2.78175 30.054 2.78175 32.1368 3.03169V3.03363ZM29 11.485C19.3338 11.485 11.485 19.3338 11.485 29C11.485 38.6662 19.3338 46.515 29 46.515C38.6662 46.515 46.515 38.6662 46.515 29C46.515 19.3338 38.6662 11.485 29 11.485ZM29 13.4225C37.5967 13.4225 44.5775 20.4033 44.5775 29C44.5775 37.5967 37.5967 44.5775 29 44.5775C20.4033 44.5775 13.4225 37.5967 13.4225 29C13.4225 20.4033 20.4033 13.4225 29 13.4225ZM30.7747 19.0025C30.4299 18.9657 30.0792 18.9482 29.7266 18.9482C29.372 18.9482 29.0213 18.9657 28.6764 19.0025V16.8887C28.6764 16.3539 28.2424 15.9199 27.7077 15.9199C27.1729 15.9199 26.7389 16.3539 26.7389 16.8887V19.3997C22.6469 20.6746 19.6729 24.4914 19.6729 29C19.6729 33.1288 22.1684 36.6783 25.7295 38.2244V41.1113C25.7295 41.6461 26.1635 42.0801 26.6982 42.0801C27.233 42.0801 27.667 41.6461 27.667 41.1113V38.8406C28.3316 38.9801 29.0194 39.0518 29.7266 39.0518C29.7382 39.0518 29.7518 39.0518 29.7653 39.0518V41.1113C29.7653 41.6461 30.1993 42.0801 30.7341 42.0801C31.2688 42.0801 31.7028 41.6461 31.7028 41.1113V38.858C33.495 38.4996 35.1167 37.6645 36.4284 36.4904C36.8256 36.1339 36.8604 35.5197 36.502 35.1225C36.1455 34.7234 35.5332 34.6904 35.1341 35.0469C33.6984 36.3315 31.8036 37.1143 29.7266 37.1143C25.2471 37.1143 21.6104 33.4795 21.6104 29C21.6104 24.5205 25.2471 20.8857 29.7266 20.8857C31.8036 20.8857 33.6984 21.6685 35.1341 22.9531C35.5332 23.3096 36.1455 23.2766 36.502 22.8775C36.8604 22.4803 36.8256 21.8661 36.4284 21.5096C35.3666 20.5602 34.1053 19.8337 32.7122 19.3997V16.8887C32.7122 16.3539 32.2783 15.9199 31.7435 15.9199C31.2087 15.9199 30.7747 16.3539 30.7747 16.8887V19.0025Z" fill="#1A1A1A" stroke="black" stroke-width="0.5"/>
</svg>
