<svg width="16" height="17" viewBox="0 0 16 17" fill="none" xmlns="http://www.w3.org/2000/svg">
<g id="octicon:x-24">
<path id="Vector" d="M3.88939 4.31386C3.98314 4.22023 4.11022 4.16763 4.24272 4.16763C4.37522 4.16763 4.50231 4.22023 4.59606 4.31386L8.07606 7.79386L11.5561 4.31386C11.6172 4.24804 11.6949 4.19993 11.7811 4.17459C11.8672 4.14924 11.9586 4.14761 12.0457 4.16986C12.1327 4.19211 12.2121 4.23742 12.2755 4.30101C12.3389 4.3646 12.384 4.44412 12.4061 4.53119C12.4283 4.61811 12.4268 4.70943 12.4016 4.79553C12.3763 4.88164 12.3284 4.95937 12.2627 5.02053L8.78272 8.50053L12.2627 11.9805C12.3285 12.0416 12.3767 12.1194 12.402 12.2055C12.4273 12.2917 12.429 12.3831 12.4067 12.4701C12.3845 12.5571 12.3392 12.6366 12.2756 12.7C12.212 12.7634 12.1325 12.8085 12.0454 12.8305C11.9585 12.8528 11.8672 12.8513 11.781 12.826C11.6949 12.8008 11.6172 12.7528 11.5561 12.6872L8.07606 9.20719L4.59606 12.6872C4.50122 12.7755 4.37585 12.8235 4.2463 12.8213C4.11676 12.8191 3.99313 12.7667 3.90139 12.6752C3.8099 12.5835 3.75752 12.4598 3.75529 12.3303C3.75305 12.2007 3.80112 12.0754 3.88939 11.9805L7.36939 8.50053L3.88939 5.02053C3.79576 4.92678 3.74316 4.79969 3.74316 4.66719C3.74316 4.53469 3.79576 4.40761 3.88939 4.31386Z" fill="#252533" stroke="#252533"/>
</g>
</svg>
