<svg width="26" height="26" viewBox="0 0 26 26" fill="none" xmlns="http://www.w3.org/2000/svg">
<g id="Group 975">
<rect id="Rectangle 1049" x="0.151855" y="0.954102" width="25" height="25" rx="4" fill="#27F1A6"/>
<path id="Vector" d="M17.0269 17.8708V19.7041H3.90186V17.8708C3.90186 17.8708 3.90186 14.2041 10.4644 14.2041C17.0269 14.2041 17.0269 17.8708 17.0269 17.8708ZM13.7456 9.16247C13.7456 8.52793 13.5532 7.90763 13.1926 7.38002C12.8321 6.85242 12.3196 6.4412 11.72 6.19837C11.1205 5.95554 10.4607 5.892 9.82421 6.0158C9.18772 6.13959 8.60305 6.44515 8.14416 6.89385C7.68527 7.34254 7.37276 7.91421 7.24615 8.53656C7.11955 9.15891 7.18453 9.804 7.43288 10.3902C7.68123 10.9765 8.10179 11.4776 8.64139 11.8301C9.18099 12.1826 9.81539 12.3708 10.4644 12.3708C11.3346 12.3708 12.1692 12.0328 12.7845 11.4311C13.3999 10.8294 13.7456 10.0134 13.7456 9.16247ZM16.9706 14.2041C17.5469 14.6402 18.0185 15.1945 18.3522 15.828C18.6858 16.4615 18.8735 17.1588 18.9019 17.8708V19.7041H22.6519V17.8708C22.6519 17.8708 22.6519 14.5433 16.9706 14.2041ZM16.0894 5.95415C15.4441 5.95064 14.813 6.13928 14.28 6.49498C14.8495 7.27299 15.1557 8.20574 15.1557 9.16247C15.1557 10.1192 14.8495 11.052 14.28 11.83C14.813 12.1857 15.4441 12.3743 16.0894 12.3708C16.9596 12.3708 17.7942 12.0328 18.4096 11.4311C19.0249 10.8294 19.3706 10.0134 19.3706 9.16247C19.3706 8.31157 19.0249 7.49552 18.4096 6.89385C17.7942 6.29217 16.9596 5.95415 16.0894 5.95415Z" fill="white"/>
</g>
</svg>
