<svg width="78" height="78" viewBox="0 0 78 78" fill="none" xmlns="http://www.w3.org/2000/svg">
<path id="Vector" d="M47.7405 33.3939C46.5341 38.2193 39.0237 35.7677 36.6889 35.1061L38.8291 26.6228C41.2418 27.3233 48.9857 28.3351 47.7405 33.3939ZM35.6382 39.4645L33.3033 48.8428C36.183 49.5822 45.0943 52.4229 46.4174 47.1306C47.8183 41.6048 38.5178 40.165 35.6382 39.4645ZM76.7704 48.4147C71.5559 69.2727 50.4645 81.9587 29.6065 76.7442C8.74855 71.5297 -3.92577 50.4383 1.27705 29.5803C2.51312 24.623 4.71367 19.9578 7.75301 15.851C10.7924 11.7443 14.6109 8.27654 18.9907 5.6458C23.3704 3.01507 28.2255 1.27291 33.2786 0.518815C38.3318 -0.235278 43.4839 0.0134714 48.4409 1.25086C69.26 6.46535 81.946 27.5568 76.7704 48.4147ZM47.6237 23.6265L49.3749 16.6219L45.0943 15.6491L43.3821 22.3812C42.2536 22.1088 41.1251 21.8364 39.9577 21.6029L41.6699 14.7151L37.4282 13.7034L35.6771 20.669C34.7432 20.4355 33.8092 20.2409 32.9531 20.0075L27.0771 18.5287L25.9097 23.0817C25.9097 23.0817 29.1006 23.821 29.0228 23.8599C30.7739 24.288 31.0852 25.3776 31.0074 26.3504L26.221 45.5351C26.0264 46.0799 25.4038 46.7803 24.2753 46.5858C24.3142 46.6247 21.1621 45.8075 21.1621 45.8075L19.0608 50.6718L24.5866 52.0727C25.6373 52.3451 26.649 52.6175 27.6608 52.851L25.8708 59.9333L30.1513 61.0229L31.9024 53.9795C33.0699 54.2908 34.1984 54.5632 35.288 54.8745L33.5368 61.8401L37.8174 62.9297L39.6074 55.8473C46.8065 57.2093 52.3323 56.6645 54.5894 50.0881C56.5351 44.8346 54.5894 41.7215 50.6979 39.7369C53.4998 38.9975 55.6011 37.2464 56.1848 33.4328C56.9631 28.2572 52.9939 25.4943 47.6237 23.6265Z" fill="#FF9B2E"/>
</svg>
