<svg width="502" height="437" viewBox="0 0 502 437" fill="none" xmlns="http://www.w3.org/2000/svg">
<circle cx="250.5" cy="218.5" r="218.5" fill="url(#paint0_linear_1_2)" fill-opacity="0.6"/>
<path d="M304.743 163.698C358.907 197.177 403.807 234.069 432.621 266.615C447.034 282.895 457.364 298.022 462.841 311.034C468.337 324.09 468.821 334.685 464.152 342.238C459.484 349.791 449.791 354.095 435.656 355.017C421.567 355.936 403.418 353.46 382.411 347.847C340.416 336.626 287.341 312.96 233.177 279.481C179.012 246.002 134.113 209.11 105.299 176.564C90.8852 160.284 80.5558 145.157 75.0781 132.144C69.5823 119.089 69.0988 108.494 73.7673 100.941C78.4359 93.3882 88.1284 89.0836 102.264 88.1618C116.353 87.243 134.501 89.7187 155.508 95.3319C197.503 106.553 250.578 130.219 304.743 163.698Z" stroke="#B080FF" stroke-width="3"/>
<path d="M233.339 161.587C289.552 131.675 344.045 111.485 386.676 102.999C408.002 98.7534 426.273 97.4545 440.273 99.281C454.319 101.114 463.713 106.035 467.885 113.874C472.056 121.712 470.889 132.253 464.562 144.927C458.256 157.559 446.971 171.987 431.536 187.303C400.681 217.92 353.493 251.837 297.281 281.749C241.068 311.661 186.575 331.851 143.944 340.337C122.618 344.582 104.347 345.881 90.3473 344.055C76.301 342.222 66.9066 337.301 62.7355 329.462C58.5643 321.624 59.7308 311.082 66.058 298.409C72.3644 285.777 83.6489 271.348 99.0836 256.033C129.939 225.415 177.127 191.499 233.339 161.587Z" stroke="#B080FF" stroke-width="3"/>
<path d="M269.74 211.394C268.534 216.219 261.024 213.768 258.689 213.106L260.829 204.623C263.242 205.323 270.986 206.335 269.74 211.394ZM257.638 217.465L255.303 226.843C258.183 227.582 267.094 230.423 268.417 225.131C269.818 219.605 260.518 218.165 257.638 217.465ZM298.77 226.415C293.556 247.273 272.464 259.959 251.607 254.744C230.749 249.53 218.074 228.438 223.277 207.58C224.513 202.623 226.714 197.958 229.753 193.851C232.792 189.744 236.611 186.277 240.991 183.646C245.37 181.015 250.225 179.273 255.279 178.519C260.332 177.765 265.484 178.013 270.441 179.251C291.26 184.465 303.946 205.557 298.77 226.415ZM269.624 201.626L271.375 194.622L267.094 193.649L265.382 200.381C264.254 200.109 263.125 199.836 261.958 199.603L263.67 192.715L259.428 191.703L257.677 198.669C256.743 198.436 255.809 198.241 254.953 198.007L249.077 196.529L247.91 201.082C247.91 201.082 251.101 201.821 251.023 201.86C252.774 202.288 253.085 203.378 253.007 204.35L248.221 223.535C248.026 224.08 247.404 224.78 246.275 224.586C246.314 224.625 243.162 223.808 243.162 223.808L241.061 228.672L246.587 230.073C247.637 230.345 248.649 230.617 249.661 230.851L247.871 237.933L252.151 239.023L253.902 231.979C255.07 232.291 256.198 232.563 257.288 232.874L255.537 239.84L259.817 240.93L261.607 233.847C268.807 235.209 274.332 234.665 276.589 228.088C278.535 222.835 276.589 219.722 272.698 217.737C275.5 216.998 277.601 215.246 278.185 211.433C278.963 206.257 274.994 203.494 269.624 201.626Z" fill="#FF9B2E"/>
<circle cx="91.5976" cy="338.531" r="24.5458" fill="#00A478"/>
<path d="M82.0187 327.156H99.979V331.431H82.0187V327.156ZM93.6929 339.297V348.727H88.3048V339.297H93.6929Z" fill="white"/>
<path d="M90.999 333.893C84.4255 333.893 79.1093 335.204 79.1093 336.802C79.1093 338.401 84.4435 339.712 90.999 339.712C97.5545 339.712 102.889 338.401 102.889 336.802C102.889 335.204 97.5545 333.893 90.999 333.893ZM90.999 338.383C84.9284 338.383 80.0073 337.485 80.0073 336.371C80.0073 335.258 84.9284 334.36 90.999 334.36C97.0696 334.36 101.991 335.258 101.991 336.371C101.991 337.485 97.0696 338.383 90.999 338.383Z" fill="white"/>
<path d="M90.9989 337.717C91.9328 337.717 92.8308 337.699 93.6929 337.645V330.3H88.3048V337.645C89.1669 337.681 90.065 337.717 90.9989 337.717Z" fill="white"/>
<circle cx="23.9471" cy="216.997" r="23.9471" fill="#192844"/>
<g clip-path="url(#clip0_1_2)">
<path d="M16.8348 207.347C16.6704 207.171 16.4721 207.029 16.2518 206.931C16.0315 206.833 15.7937 206.78 15.5525 206.776C15.3114 206.772 15.0718 206.816 14.8482 206.906C14.6246 206.997 14.4214 207.131 14.2509 207.302C14.0803 207.472 13.9459 207.675 13.8555 207.899C13.7652 208.123 13.7208 208.362 13.7251 208.603C13.7293 208.845 13.7821 209.082 13.8803 209.303C13.9785 209.523 14.12 209.721 14.2964 209.886L19.2894 214.881C19.901 215.493 20.6271 215.978 21.4263 216.309C22.2255 216.641 23.0821 216.811 23.9471 216.811C24.8122 216.811 25.6688 216.641 26.468 216.309C27.2672 215.978 27.9933 215.493 28.6049 214.881L33.5978 209.887C33.9252 209.548 34.1064 209.095 34.1025 208.624C34.0987 208.153 33.91 207.702 33.5772 207.369C33.2443 207.036 32.7939 206.847 32.323 206.843C31.8521 206.838 31.3983 207.019 31.0594 207.346L26.0641 212.341C25.7861 212.619 25.4561 212.84 25.0928 212.991C24.7296 213.141 24.3403 213.218 23.9471 213.218C23.554 213.218 23.1647 213.141 22.8014 212.991C22.4382 212.84 22.1082 212.619 21.8302 212.341L16.836 207.346L16.8348 207.347ZM16.8348 226.649C16.4944 226.966 16.0441 227.139 15.5788 227.13C15.1135 227.122 14.6695 226.934 14.3405 226.605C14.0114 226.276 13.8229 225.832 13.8147 225.366C13.8065 224.901 13.9792 224.451 14.2964 224.11L19.2894 219.115C19.901 218.503 20.6271 218.018 21.4263 217.687C22.2255 217.355 23.0821 217.185 23.9471 217.185C24.8122 217.185 25.6688 217.355 26.468 217.687C27.2672 218.018 27.9933 218.503 28.6049 219.115L33.5978 224.109C33.9252 224.448 34.1064 224.901 34.1025 225.372C34.0987 225.843 33.91 226.294 33.5772 226.627C33.2443 226.96 32.7939 227.149 32.323 227.153C31.8521 227.158 31.3983 226.977 31.0594 226.65L26.0641 221.654C25.7861 221.376 25.4561 221.156 25.0928 221.005C24.7296 220.855 24.3403 220.777 23.9471 220.777C23.554 220.777 23.1647 220.855 22.8014 221.005C22.4382 221.156 22.1082 221.376 21.8302 221.654L16.836 226.65L16.8348 226.649Z" fill="white"/>
</g>
<circle cx="457.39" cy="126" r="23.9471" fill="#192844"/>
<path d="M450.278 116.35C450.114 116.174 449.915 116.032 449.695 115.934C449.475 115.836 449.237 115.783 448.996 115.779C448.754 115.775 448.515 115.819 448.291 115.909C448.068 116 447.865 116.134 447.694 116.305C447.523 116.475 447.389 116.678 447.299 116.902C447.208 117.126 447.164 117.365 447.168 117.606C447.172 117.847 447.225 118.085 447.323 118.306C447.422 118.526 447.563 118.724 447.74 118.889L452.733 123.884C453.344 124.496 454.07 124.981 454.869 125.312C455.669 125.643 456.525 125.814 457.39 125.814C458.255 125.814 459.112 125.643 459.911 125.312C460.71 124.981 461.436 124.496 462.048 123.884L467.041 118.89C467.368 118.551 467.55 118.098 467.546 117.627C467.542 117.156 467.353 116.705 467.02 116.372C466.687 116.039 466.237 115.85 465.766 115.845C465.295 115.841 464.841 116.022 464.503 116.349L459.507 121.344C459.229 121.622 458.899 121.843 458.536 121.993C458.173 122.144 457.783 122.221 457.39 122.221C456.997 122.221 456.608 122.144 456.245 121.993C455.881 121.843 455.551 121.622 455.273 121.344L450.279 116.349L450.278 116.35ZM450.278 135.652C449.937 135.969 449.487 136.142 449.022 136.133C448.557 136.125 448.113 135.937 447.784 135.608C447.454 135.279 447.266 134.835 447.258 134.369C447.25 133.904 447.422 133.454 447.74 133.113L452.733 128.118C453.344 127.506 454.07 127.021 454.869 126.689C455.669 126.358 456.525 126.188 457.39 126.188C458.255 126.188 459.112 126.358 459.911 126.689C460.71 127.021 461.436 127.506 462.048 128.118L467.041 133.112C467.368 133.451 467.55 133.904 467.546 134.375C467.542 134.846 467.353 135.297 467.02 135.63C466.687 135.963 466.237 136.152 465.766 136.156C465.295 136.161 464.841 135.98 464.503 135.653L459.507 130.657C459.229 130.379 458.899 130.159 458.536 130.008C458.173 129.858 457.783 129.78 457.39 129.78C456.997 129.78 456.608 129.858 456.245 130.008C455.881 130.159 455.551 130.379 455.273 130.657L450.279 135.653L450.278 135.652Z" fill="white"/>
<circle cx="419.075" cy="346.313" r="22.7498" fill="#0589FF"/>
<path d="M419.075 334.041L411.591 346.613L419.075 351.104L426.558 346.613L419.075 334.041ZM411.591 348.11L419.075 358.587L426.558 348.11L419.075 352.6L411.591 348.11Z" fill="white"/>
<circle cx="281.379" cy="57.7498" r="22.7498" fill="#FFEF00"/>
<path fill-rule="evenodd" clip-rule="evenodd" d="M278.357 51.5729C277.566 52.1663 277.208 52.8775 277.208 53.5413C277.208 54.2066 277.566 54.9178 278.357 55.5127C279.15 56.1075 280.311 56.5184 281.655 56.5184C282.036 56.5184 282.401 56.6698 282.671 56.9393C282.94 57.2087 283.092 57.5742 283.092 57.9553C283.092 58.3363 282.94 58.7018 282.671 58.9713C282.401 59.2407 282.036 59.3921 281.655 59.3921C279.75 59.3921 277.969 58.8145 276.633 57.8116C275.297 56.8087 274.334 55.3144 274.334 53.5428C274.334 51.7697 275.297 50.2754 276.633 49.2725C277.969 48.2711 279.751 47.6935 281.655 47.6935C284.605 47.6935 287.393 49.1059 288.503 51.4579C288.583 51.6287 288.629 51.8136 288.638 52.0022C288.647 52.1908 288.619 52.3792 288.555 52.5569C288.491 52.7346 288.393 52.8979 288.266 53.0376C288.139 53.1773 287.986 53.2906 287.815 53.3711C287.644 53.4516 287.459 53.4976 287.271 53.5066C287.082 53.5156 286.894 53.4874 286.716 53.4235C286.539 53.3597 286.375 53.2615 286.236 53.1345C286.096 53.0076 285.983 52.8543 285.902 52.6836C285.399 51.6102 283.83 50.5671 281.656 50.5671C280.313 50.5671 279.15 50.978 278.357 51.5729Z" fill="black"/>
<path fill-rule="evenodd" clip-rule="evenodd" d="M284.478 64.3358C285.27 63.7424 285.626 63.0311 285.626 62.3673C285.626 61.7021 285.27 60.9894 284.477 60.396C283.685 59.8011 282.523 59.3902 281.181 59.3902C280.8 59.3902 280.434 59.2388 280.165 58.9694C279.895 58.6999 279.744 58.3345 279.744 57.9534C279.744 57.5723 279.895 57.2068 280.165 56.9374C280.434 56.6679 280.8 56.5166 281.181 56.5166C283.086 56.5166 284.866 57.0942 286.202 58.0971C287.539 59.1 288.5 60.5943 288.5 62.3659C288.5 64.1375 287.539 65.6332 286.201 66.6347C284.865 67.6376 283.086 68.2152 281.181 68.2152C278.231 68.2152 275.44 66.8028 274.333 64.4493C274.17 64.1046 274.151 63.7095 274.28 63.3508C274.409 62.9922 274.675 62.6994 275.019 62.5369C275.364 62.3743 275.759 62.3554 276.118 62.4842C276.477 62.613 276.769 62.879 276.932 63.2237C277.438 64.2984 279.007 65.3416 281.181 65.3416C282.524 65.3416 283.685 64.9306 284.478 64.3358ZM281.379 44.8193C281.76 44.8193 282.125 44.9707 282.395 45.2402C282.664 45.5096 282.816 45.8751 282.816 46.2562V47.693C282.816 48.0741 282.664 48.4395 282.395 48.709C282.125 48.9784 281.76 49.1298 281.379 49.1298C280.998 49.1298 280.632 48.9784 280.363 48.709C280.093 48.4395 279.942 48.0741 279.942 47.693V46.2562C279.942 45.8751 280.093 45.5096 280.363 45.2402C280.632 44.9707 280.998 44.8193 281.379 44.8193Z" fill="black"/>
<path fill-rule="evenodd" clip-rule="evenodd" d="M281.379 66.3722C281.76 66.3722 282.125 66.5236 282.395 66.793C282.664 67.0625 282.816 67.428 282.816 67.809V69.2458C282.816 69.6269 282.664 69.9924 282.395 70.2618C282.125 70.5313 281.76 70.6827 281.379 70.6827C280.998 70.6827 280.632 70.5313 280.363 70.2618C280.093 69.9924 279.942 69.6269 279.942 69.2458V67.809C279.942 67.428 280.093 67.0625 280.363 66.793C280.632 66.5236 280.998 66.3722 281.379 66.3722Z" fill="black"/>
<circle cx="116.143" cy="87.6834" r="22.7498" fill="#B080FF"/>
<path d="M119.735 95.4653C118.312 95.4666 116.916 95.0763 115.699 94.3371C114.483 93.598 113.493 92.5385 112.838 91.2745H119.735L120.933 88.8798H112.048C111.988 88.4847 111.952 88.0896 111.952 87.6825C111.952 87.2754 111.988 86.8802 112.048 86.4851H119.735L120.933 84.0904H112.838C113.494 82.8274 114.484 81.7687 115.7 81.0297C116.916 80.2907 118.312 79.8998 119.735 79.8996C121.663 79.8996 123.435 80.6061 124.8 81.7795L126.919 79.6602C124.948 77.8851 122.388 76.9039 119.735 76.9063C115.042 76.9063 111.066 79.9116 109.582 84.0904H105.367L104.17 86.4851H109.031C108.934 87.2804 108.934 88.0845 109.031 88.8798H105.367L104.17 91.2745H109.582C111.066 95.4533 115.042 98.4587 119.735 98.4587C122.501 98.4587 125.016 97.417 126.919 95.7048L124.788 93.5854C123.435 94.7588 121.675 95.4653 119.735 95.4653Z" fill="white"/>
<defs>
<linearGradient id="paint0_linear_1_2" x1="32" y1="218.5" x2="469" y2="218.5" gradientUnits="userSpaceOnUse">
<stop stop-color="#FDFBFB"/>
<stop offset="1" stop-color="#EBEDEE"/>
</linearGradient>
<clipPath id="clip0_1_2">
<rect width="28.7366" height="28.7366" fill="white" transform="translate(9.57887 202.629)"/>
</clipPath>
</defs>
</svg>
