<svg width="410" height="409" viewBox="0 0 410 409" fill="none" xmlns="http://www.w3.org/2000/svg">
<path d="M198.934 67.6924C201.981 77.8961 216.458 82.0137 230.446 85.9968C236.647 87.7608 245.142 90.1794 246.817 92.1617C248.407 94.0464 249.194 95.6805 248.924 96.5254C247.807 100.021 235.596 103.201 228.293 105.1C221.594 106.84 215.258 108.488 211.132 110.912C209.694 111.757 208.573 112.741 207.582 113.609C204.461 116.352 200.572 119.751 179.824 118.734C155.727 117.508 150.629 127.313 148.912 135.966C148.843 136.309 148.791 136.625 148.726 136.894C143.753 143.129 144.772 147.818 145.456 150.942C146.014 153.49 146.27 154.656 143.623 157.817C143.07 158.481 142.614 159.052 142.218 159.558C141.189 160.864 137.127 162.238 130.035 163.68L122.703 165.184C113.037 167.194 107.213 173.573 102.961 178.233C101.863 179.44 100.444 180.991 99.4904 181.766C99.0624 180.234 99.1043 176.822 99.1369 174.445C99.2253 167.658 99.3322 159.214 93.936 152.826C88.3723 146.244 79.1569 143.969 71.0253 141.968C64.1359 140.269 57.6232 138.663 54.846 135.079C51.5152 130.78 53.269 125.892 56.1067 119.453C57.4325 116.441 58.5768 113.836 58.5303 111.292C58.4419 107.068 58.5954 106.562 59.7677 102.625C60.6004 99.8399 61.8471 95.6294 63.6753 87.9187C67.1782 73.0913 67.7783 72.3486 69.3786 70.3663C70.1508 69.4007 71.0951 68.2309 72.4163 66.1465C78.8126 56.1193 82.0504 55.9197 82.0504 55.9197C82.0504 55.9197 82.2876 56.0218 82.683 56.5417C85.7487 60.5944 89.0376 61.2861 91.4426 61.1654C98.6438 60.7708 103.752 52.2105 108.697 43.9334C110.05 41.6633 111.818 38.7062 112.944 37.2857C123.122 38.1863 145.302 27.7645 151.713 22.8019C163.133 13.9724 184.472 5.95057 204.321 9.19086C209.397 10.0218 212.513 10.1982 214.574 10.3143C216.432 10.4195 219.086 12.0737 222.538 15.2768L223.287 15.9732C228.009 20.3462 235.591 22.3516 243.616 24.4778C254.436 27.342 262.098 29.7328 262.098 34.4539C262.098 43.8498 233.256 46.1385 220.938 47.1133C209.815 47.9954 206.522 48.3528 204.493 50.6925C199.246 56.7367 197.376 62.456 198.939 67.6878L198.934 67.6924Z" fill="#0A2D5A" fill-opacity="0.52"/>
<path d="M205.545 0C205.633 0.0139267 205.726 0.0185685 205.815 0.0371375C210.411 0.789181 213.118 0.942374 215.1 1.05379C221.226 1.40196 222.245 2.34433 228.865 8.48138L229.614 9.17771C232.628 11.977 239.425 13.7735 245.993 15.5144C257.902 18.6665 271.393 22.2363 271.393 34.4687C271.393 52.4434 241.467 54.8156 221.668 56.3847C217.672 56.7004 212.792 57.0903 210.913 57.5081C209.015 59.8339 207.178 62.8096 207.848 65.0518C209.438 70.3764 223.055 74.2527 232.996 77.0798C242.732 79.8512 250.422 82.0424 253.925 86.1925C257.804 90.7884 259.102 95.2124 257.781 99.3487C255.116 107.723 242.672 110.959 230.637 114.092C224.846 115.601 218.859 117.161 215.839 118.93C215.165 119.32 214.532 119.881 213.723 120.592C208.341 125.327 202.023 129.17 179.355 128.015C160.151 127.067 158.881 133.511 158.035 137.782C157.723 139.374 157.393 141.017 156.244 142.392C153.755 145.372 154.002 146.5 154.541 148.974C155.248 152.224 156.323 157.131 150.764 163.778C150.28 164.359 149.885 164.865 149.531 165.306C145.879 169.948 144.554 170.217 131.886 172.789L124.602 174.284C117.884 175.681 113.614 180.36 109.836 184.492C106.92 187.691 103.44 191.506 99.1323 191.506C97.9553 191.506 96.7179 191.219 95.4107 190.559C89.661 187.653 89.7447 180.885 89.8284 174.335C89.9029 168.815 89.9773 162.562 86.8187 158.82C83.2041 154.545 75.8774 152.734 68.7925 150.989C60.6563 148.984 52.241 146.908 47.4867 140.762C40.5228 131.77 44.9421 121.724 47.5844 115.726C48.2543 114.208 49.1661 112.129 49.2219 111.423C49.1149 106.038 49.4685 104.608 50.8454 99.9846C51.6455 97.3014 52.855 93.2441 54.6135 85.7933C58.4466 69.5872 59.3352 68.0135 62.117 64.555C62.7404 63.7844 63.494 62.8513 64.522 61.2405C70.6486 51.6264 76.2495 46.8774 81.6783 46.6545C83.9066 46.5663 87.2792 47.2302 90.0983 50.944C90.7263 51.7703 91.0891 51.9235 91.0891 51.9235C93.3267 51.5335 98.495 42.8804 100.7 39.1805C105.208 31.6369 108.45 26.1869 113.865 28.0949C117.786 28.963 138.436 21.3265 146.014 15.4633C152.601 10.3661 161.687 5.65889 171.916 2.62751C74.5795 18.3276 0 102.737 0 204.235C0 316.866 91.8195 408.494 204.684 408.494C317.549 408.494 409.368 316.866 409.368 204.235C409.368 91.6054 318.014 0.468867 205.545 0ZM78.3289 184.079C79.6315 182.928 81.3341 182.473 82.9808 182.839C86.0371 183.513 87.228 186.219 88.7353 189.65C91.0938 195.011 93.55 199.839 97.6762 199.974C105.547 200.234 109.701 201.148 114.763 203.743C116.349 204.551 118.424 206.246 119.298 209.699C120.773 215.549 117.879 223.334 115.349 226.992C111.837 232.08 105.701 233.027 100.672 233.027C98.9183 233.027 97.2948 232.911 95.9736 232.818C94.9549 232.748 94.1175 232.66 93.55 232.702C89.8145 233.106 80.4781 232.14 74.0678 214.407C70.9324 205.754 73.3653 188.461 78.3336 184.079H78.3289ZM199.842 399.832C198.53 400.649 197.162 401.039 195.739 401.039C188.393 401.039 179.415 390.724 167.394 375.855C164.338 372.076 161.454 368.506 159.97 367.127C155.365 362.833 155.22 362.773 151.62 361.301C149.54 360.452 146.4 359.166 141.181 356.636C138.827 355.498 137.259 354.653 136.087 354.022C134.471 353.149 131.783 352.634 128.021 352.476C120.88 352.179 114.805 349.937 109.446 347.955C105.296 346.423 101.384 344.974 98.1368 344.826C78.4592 343.916 74.7702 329.831 72.6815 315.482C71.5557 307.753 74.3562 301.908 78.2359 293.812C80.6316 288.822 83.6042 282.615 86.4698 274.199C88.5073 268.224 90.0192 263.224 91.2845 259.037C95.6247 244.702 97.8018 237.506 109.139 234.559C113.642 233.398 116.4 236.323 118.401 238.467C121.066 241.313 125.09 245.616 136.859 247.218C166.645 251.275 175.335 260.657 183.741 269.728L184.5 270.545C191.71 278.302 191.389 287.411 190.952 300.014C190.57 310.896 190.096 324.437 193.636 343.656C195.659 354.626 198.455 363.887 200.707 371.333C204.833 384.986 207.81 394.851 199.837 399.827L199.842 399.832ZM283.93 116.553C292.019 110.81 301.183 104.297 304.007 94.0843C305.459 88.8293 307.398 82.6041 309.264 76.6342C310.366 73.0921 311.446 69.6429 312.371 66.5466C315.679 55.4655 316.888 51.4221 321.712 49.4492C330.96 45.6565 344.06 55.874 350.038 67.3961C353.294 73.6863 355.239 77.6369 356.923 81.0582C359.137 85.5426 360.881 89.0846 364.603 95.9087C367.883 101.916 371.195 105.681 374.4 109.32C378.661 114.162 382.685 118.735 385.234 127.021C388.202 136.668 383.513 147.479 377.559 153.914C375.586 156.044 374.358 157.632 373.26 159.043C370.478 162.627 368.283 165.459 358.928 172.046C350.871 177.724 337.515 181.451 327.118 181.451C324.29 181.451 321.68 181.173 319.456 180.588C310.529 178.234 308.557 171.424 306.97 165.956C305.97 162.492 305.021 159.224 302.602 156.286C298.304 151.077 291.703 150.019 285.32 148.993C278.282 147.865 270.309 146.583 268.727 138.283C266.885 128.646 275.551 122.5 283.93 116.553ZM389.058 224.429C384.225 228.124 379.224 231.95 378.75 235.167C377.991 240.338 379.429 243.968 381.41 248.991C383.55 254.4 386.207 261.131 386.146 271.246C386.104 277.926 379.019 286.064 369.013 296.834C365.715 300.381 361.198 305.241 360.57 306.769C354.653 321.466 339.055 345.053 326.341 349.264C324.778 349.779 323.364 349.988 322.103 349.988C319.703 349.988 317.851 349.241 316.567 348.461C311.781 345.541 310.543 338.169 308.766 325.389C307.631 317.191 306.073 305.961 302.933 302.874C294.62 294.699 290.824 290.967 280.715 282.179C274.663 276.919 270.593 267.124 268.625 253.072L268.55 252.552C267.127 243.746 269.644 239.34 271.667 235.798C273.314 232.911 274.402 231.007 273.686 226.133C272.7 219.43 273.579 216.621 274.83 213.645C275.561 211.904 276.193 210.405 275.654 205.085C274.882 197.435 275.9 183.48 284.618 179.678C290.051 177.306 294.606 180.221 299.448 183.308C302.598 185.323 306.166 187.602 311.092 189.571C320.782 193.442 332.533 194.589 342.53 192.639C354.536 190.299 361.468 184.984 367.036 180.713C371.344 177.413 375.065 174.558 379.736 174.326C385.779 173.996 392.528 177.849 398.101 184.548C403.888 191.506 406.442 199.412 404.93 205.707C402.981 213.799 395.589 219.448 389.067 224.439L389.058 224.429Z" fill="#0A2D5A" fill-opacity="0.52"/>
<path d="M184.49 345.337C180.764 325.125 181.28 310.427 181.657 299.695C182.09 287.295 182.099 281.608 177.684 276.864L176.917 276.033C169.288 267.802 162.086 260.027 135.612 256.42C120.559 254.372 114.958 248.384 111.609 244.809C111.311 244.484 110.934 244.09 110.632 243.788C105.487 245.334 104.356 247.994 100.197 261.73C98.9088 265.997 97.3644 271.094 95.2896 277.189C92.2472 286.125 89.1398 292.611 86.637 297.824C83.2365 304.926 81.1757 309.216 81.8921 314.151C84.2971 330.654 87.7256 335.05 98.5692 335.551C103.258 335.769 107.831 337.459 112.678 339.247C117.619 341.076 122.736 342.96 127.955 343.179C135.552 343.494 136.329 343.587 140.52 345.852C141.609 346.442 143.06 347.227 145.247 348.285C150.201 350.685 153.066 351.855 155.15 352.709C159.802 354.612 160.835 355.22 166.324 360.341C168.283 362.165 171.083 365.638 174.637 370.025C179.54 376.092 190.747 389.954 195.273 391.56C196.455 389.415 193.994 381.273 191.803 374.022C189.491 366.357 186.611 356.822 184.495 345.342L184.49 345.337Z" fill="#0A2D5A" fill-opacity="0.52"/>
<path d="M92.5452 223.475C92.9267 223.433 93.3314 223.414 93.764 223.414C94.606 223.414 95.5457 223.479 96.6389 223.558C100.142 223.804 105.971 224.222 107.692 221.729C109.911 218.517 110.897 212.983 110.19 211.72C107.11 210.263 104.529 209.497 97.3693 209.255C89.6378 209 85.2092 203.272 82.4692 198.128C81.7807 202.482 81.5667 207.802 82.8134 211.256C86.4605 221.344 90.5635 223.679 92.5452 223.475Z" fill="#0A2D5A" fill-opacity="0.52"/>
<path d="M380.196 183.587C378.414 183.679 375.763 185.713 372.693 188.066C366.687 192.671 358.458 198.985 344.297 201.742C332.621 204.022 318.907 202.689 307.622 198.182C301.881 195.888 297.746 193.247 294.419 191.121C291.74 189.413 289.209 187.792 288.335 188.173C285.851 189.255 284.176 197.017 284.902 204.142C285.618 211.231 284.641 214.262 283.399 217.224C282.701 218.891 282.194 220.098 282.883 224.773C284.069 232.813 281.669 237.009 279.743 240.384C278.054 243.346 276.831 245.486 277.728 251.071L277.831 251.776C279.989 267.212 284.385 273.056 286.814 275.169C297.145 284.147 301.253 288.19 309.454 296.254C314.841 301.555 316.432 313.022 317.972 324.107C318.781 329.943 320 338.712 321.535 340.596C321.949 340.778 322.582 340.722 323.401 340.443C332.072 337.574 346.098 317.775 351.931 303.301C353.117 300.357 356.429 296.709 362.184 290.516C367.296 285.01 376.814 274.769 376.833 271.181C376.889 262.862 374.786 257.542 372.748 252.394C370.618 247.004 368.413 241.438 369.539 233.816C370.562 226.871 377.079 221.885 383.392 217.057C388.946 212.809 394.691 208.413 395.868 203.525C396.664 200.224 394.678 194.974 390.928 190.466C387.434 186.27 382.843 183.452 380.196 183.587Z" fill="#0A2D5A" fill-opacity="0.52"/>
<path d="M286.8 139.829C293.745 140.944 303.254 142.471 309.785 150.386C313.428 154.805 314.804 159.559 315.912 163.38C317.465 168.746 318.186 170.654 321.833 171.615C329.602 173.667 345.619 170.06 353.564 164.461C361.775 158.677 363.417 156.56 365.901 153.357C367.115 151.793 368.492 150.019 370.72 147.615C374.865 143.135 378.126 135.559 376.335 129.742C374.372 123.359 371.297 119.868 367.404 115.444C364.026 111.609 360.203 107.264 356.43 100.347C352.611 93.3514 350.829 89.7304 348.573 85.1532C346.907 81.769 344.986 77.8741 341.762 71.6582C337.394 63.2278 329.37 57.9032 326.025 57.9032C325.723 57.9032 325.453 57.9496 325.229 58.0378C324.392 58.7713 322.987 63.4739 321.359 68.9239C320.34 72.3266 319.256 75.813 318.14 79.3875C316.307 85.2599 314.4 91.3784 312.972 96.5499C309.269 109.947 298.206 117.807 289.321 124.116C281.743 129.496 277.194 133.019 277.864 136.552C278.171 138.168 280.478 138.813 286.8 139.829Z" fill="#0A2D5A" fill-opacity="0.52"/>
</svg>
