<svg width="106" height="105" viewBox="0 0 106 105" fill="none" xmlns="http://www.w3.org/2000/svg">
<circle cx="53.1998" cy="52.5" r="52.5" fill="#298FE6"/>
<g clip-path="url(#clip0_94_10268)">
<path fill-rule="evenodd" clip-rule="evenodd" d="M57.7959 60.5432C57.9999 60.7336 58.2819 60.8512 58.5932 60.8512C58.9045 60.8512 59.1865 60.7336 59.3905 60.5432C59.5945 60.3528 59.7205 60.0896 59.7205 59.799C59.7205 59.5084 59.5945 59.2452 59.3905 59.0548C59.1865 58.8644 58.9045 58.7468 58.5932 58.7468C58.2819 58.7468 57.9999 58.8644 57.7959 59.0548C57.5919 59.2452 57.4659 59.5084 57.4659 59.799C57.4659 60.0896 57.5919 60.3528 57.7959 60.5432ZM58.5932 62.5486C57.7799 62.5486 57.0432 62.2406 56.5099 61.7435C55.9766 61.2457 55.6473 60.5581 55.6473 59.799C55.6473 59.0399 55.9773 58.3524 56.5099 57.8546C57.0432 57.3568 57.7799 57.0494 58.5932 57.0494C59.4065 57.0494 60.1432 57.3574 60.6765 57.8546C61.2098 58.3524 61.5391 59.0399 61.5391 59.799C61.5391 60.5581 61.2091 61.2457 60.6765 61.7435C60.1432 62.2412 59.4065 62.5486 58.5932 62.5486ZM55.3359 46.4349C54.528 46.8705 53.5633 47.5089 52.7993 48.3016C52.3687 48.749 52.014 49.2393 51.8154 49.7588C51.6307 50.2398 51.5794 50.7519 51.7287 51.2839C51.9127 51.9397 52.4013 52.6522 53.3107 53.4156C54.136 54.1088 54.666 54.815 54.9586 55.5188C55.4633 56.7315 55.2586 57.8801 54.6313 58.9142C54.0586 59.8575 53.13 60.6869 52.0914 61.3608C50.4954 62.3956 48.5841 63.09 47.3328 63.2542C46.8368 63.3183 46.3788 62.9948 46.3102 62.5318C46.2415 62.0689 46.5882 61.6414 47.0841 61.5773C48.0981 61.4442 49.6867 60.8556 51.054 59.9689C51.894 59.4244 52.6293 58.7786 53.054 58.0792C53.424 57.47 53.55 56.8074 53.268 56.1285C53.0773 55.67 52.702 55.184 52.096 54.6756C50.9041 53.6751 50.2461 52.6758 49.9747 51.7083C49.7234 50.8148 49.8041 49.9704 50.1041 49.1889C50.3887 48.446 50.872 47.769 51.4507 47.1685C52.1387 46.4542 52.984 45.8407 53.7866 45.356L52.4073 45.1096C51.9154 45.0219 51.592 44.5782 51.6867 44.1184C51.7814 43.6586 52.256 43.358 52.7487 43.4458L56.7279 44.1564C57.2199 44.2441 57.5432 44.6877 57.4486 45.1476L56.6866 48.8647C56.5926 49.3239 56.1173 49.6251 55.6246 49.5373C55.1326 49.4496 54.8093 49.006 54.904 48.5461L55.3366 46.4349H55.3359ZM48.1561 30.4849H43.7635C43.5129 30.4849 43.2922 30.5652 43.1382 30.6952C43.0082 30.8047 42.9276 30.9516 42.9276 31.1077V36.3095C42.9276 36.4663 43.0082 36.6125 43.1382 36.722C43.2922 36.8515 43.5129 36.9324 43.7635 36.9324H61.5318C61.7825 36.9324 62.0031 36.8521 62.1571 36.722C62.2871 36.6125 62.3678 36.4657 62.3678 36.3095V31.1077C62.3678 30.9509 62.2871 30.8047 62.1571 30.6952C62.0031 30.5658 61.7825 30.4849 61.5318 30.4849H57.1392C56.6373 30.4849 56.2299 30.1047 56.2299 29.6362C56.2299 28.8379 55.8426 28.1124 55.2159 27.5841C54.566 27.0359 53.658 26.6968 52.6473 26.6968C51.6367 26.6968 50.7287 27.0359 50.0787 27.5841C49.4528 28.1124 49.0648 28.8379 49.0648 29.6362C49.0648 30.1047 48.6581 30.4849 48.1561 30.4849ZM41.1096 35.108H37.495C36.8364 35.108 36.2377 35.3588 35.8051 35.7632C35.3724 36.1676 35.1031 36.7258 35.1031 37.3405V75.5904C35.1031 76.2052 35.3717 76.7639 35.8051 77.1677C36.2384 77.5716 36.8364 77.8229 37.495 77.8229H67.7997C68.4583 77.8229 69.057 77.5722 69.4896 77.1677C69.9229 76.7633 70.1916 76.2052 70.1916 75.5904V67.9632L70.5183 67.7274C70.6436 67.6496 70.7496 67.5413 70.8223 67.4076L71.7776 65.656V75.591C71.7776 76.6108 71.3296 77.5392 70.6083 78.2124C69.8869 78.8857 68.8923 79.3038 67.7997 79.3038H37.4957C36.4031 79.3038 35.4084 78.8857 34.6871 78.2124C33.9658 77.5392 33.5178 76.6108 33.5178 75.591V37.3405C33.5178 36.3207 33.9658 35.3924 34.6871 34.7191C35.4084 34.0459 36.4031 33.6277 37.4957 33.6277H41.1096V35.1074V35.108ZM64.1244 36.8048H67.8003C67.957 36.8048 68.1003 36.8652 68.205 36.9628C68.3096 37.0605 68.3743 37.1943 68.3743 37.3405V52.5252L62.4331 63.4222C62.3604 63.556 62.3291 63.6997 62.3351 63.8397V63.8466L62.0738 72.0848C62.0598 72.5515 62.4544 72.9404 62.9544 72.9534C63.1718 72.959 63.3731 72.8924 63.5331 72.7773L68.3743 69.278V75.591C68.3743 75.7372 68.3096 75.871 68.205 75.9687C68.1003 76.0664 67.957 76.1268 67.8003 76.1268H37.4957C37.339 76.1268 37.1957 76.0664 37.091 75.9687C36.9864 75.871 36.9217 75.7372 36.9217 75.591V37.3405C36.9217 37.1943 36.9864 37.0605 37.091 36.9628C37.1957 36.8652 37.339 36.8048 37.4957 36.8048H41.1716C41.2856 37.2578 41.5529 37.6616 41.9249 37.9752C42.4036 38.379 43.0556 38.6298 43.7642 38.6298H61.5325C62.2418 38.6298 62.8931 38.379 63.3718 37.9752C63.7431 37.6616 64.0097 37.2578 64.1244 36.8048ZM64.1857 33.6277V35.1074H67.8003C68.459 35.1074 69.0576 35.3581 69.4903 35.7626C69.9236 36.167 70.1923 36.7252 70.1923 37.3399V49.1901L71.7776 46.2819V37.3399C71.7776 36.3201 71.3296 35.3917 70.6083 34.7185C69.8869 34.0452 68.8923 33.6271 67.7997 33.6271H64.1851L64.1857 33.6277ZM43.7635 28.7875H47.3375C47.5435 27.8348 48.0888 26.9849 48.8641 26.3316C49.8394 25.509 51.178 25 52.6473 25C54.1166 25 55.4553 25.509 56.4306 26.3316C57.2059 26.9855 57.7519 27.8355 57.9572 28.7875H61.5311C62.2405 28.7875 62.8918 29.0382 63.3704 29.442C63.8731 29.8658 64.1851 30.455 64.1851 31.1077V31.9309H67.7997C69.3943 31.9309 70.8436 32.5395 71.8936 33.5195C72.9435 34.4995 73.5955 35.8522 73.5955 37.3405V42.9474L73.8848 42.4166C74.3748 41.5175 75.2135 40.8872 76.1701 40.5966C77.1268 40.306 78.2014 40.3546 79.1647 40.8125L80.5554 41.4733C81.5187 41.9307 82.194 42.7134 82.5053 43.6063C82.8166 44.4992 82.7646 45.5022 82.274 46.4013L73.5949 62.3203V75.5904C73.5949 77.0788 72.9429 78.4315 71.8929 79.4115C70.8429 80.3915 69.3936 81 67.799 81H37.4957C35.9011 81 34.4518 80.3915 33.4018 79.4115C32.3518 78.4315 31.6998 77.0788 31.6998 75.5904V37.3405C31.6998 35.8522 32.3518 34.4995 33.4018 33.5195C34.4518 32.5395 35.9011 31.9309 37.4957 31.9309H41.1096V31.1077C41.1096 30.455 41.4216 29.8658 41.9243 29.442C42.4029 29.0382 43.0549 28.7875 43.7635 28.7875ZM75.7721 46.9333L73.9369 46.0616L73.5149 46.8356C73.5042 46.8574 73.4929 46.8786 73.4802 46.8991L70.1109 53.0784C70.1003 53.1002 70.0889 53.1213 70.0763 53.1425L64.4644 63.4353L66.2357 64.2765L75.7715 46.9327L75.7721 46.9333ZM79.0881 48.5082L77.3861 47.6999L67.8503 65.0437L69.6163 65.8825L71.8602 61.7665C71.8709 61.7447 71.8822 61.7242 71.8942 61.7036L79.0881 48.5088V48.5082ZM74.7608 44.5502L79.912 46.9968L80.656 45.6323C80.9193 45.1488 80.948 44.6093 80.7807 44.1296C80.6134 43.6505 80.2507 43.2299 79.7327 42.9841L78.3421 42.3233C77.8241 42.0775 77.2461 42.0508 76.7321 42.2069C76.2188 42.3631 75.7681 42.7016 75.5048 43.1851L74.7608 44.5502ZM48.4488 48.6507L47.6515 47.9065L48.4488 47.1623C48.8034 46.8313 48.8034 46.2937 48.4488 45.9627C48.0941 45.6316 47.5181 45.6316 47.1635 45.9627L46.3662 46.7068L45.5688 45.9627C45.2142 45.6316 44.6382 45.6316 44.2835 45.9627C43.9289 46.2937 43.9289 46.8313 44.2835 47.1623L45.0809 47.9065L44.2835 48.6507C43.9289 48.9817 43.9289 49.5193 44.2835 49.8503C44.6382 50.1813 45.2142 50.1813 45.5688 49.8503L46.3662 49.1061L47.1635 49.8503C47.5181 50.1813 48.0941 50.1813 48.4488 49.8503C48.8034 49.5193 48.8034 48.9817 48.4488 48.6507ZM41.7516 67.7516H56.5573C57.0592 67.7516 57.4666 67.3715 57.4666 66.9029C57.4666 66.4344 57.0592 66.0542 56.5573 66.0542H41.7516C41.2496 66.0542 40.8423 66.4344 40.8423 66.9029C40.8423 67.3715 41.2496 67.7516 41.7516 67.7516ZM41.7516 72.9553H56.5573C57.0592 72.9553 57.4666 72.5751 57.4666 72.1066C57.4666 71.638 57.0592 71.2579 56.5573 71.2579H41.7516C41.2496 71.2579 40.8423 71.638 40.8423 72.1066C40.8423 72.5751 41.2496 72.9553 41.7516 72.9553ZM63.9417 70.3413L68.3263 67.1717L64.1064 65.1676L63.9417 70.3413Z" fill="#F8F8F8"/>
</g>
<defs>
<clipPath id="clip0_94_10268">
<rect width="59" height="59" fill="white" transform="translate(23.6998 23)"/>
</clipPath>
</defs>
</svg>
