<svg width="106" height="105" viewBox="0 0 106 105" fill="none" xmlns="http://www.w3.org/2000/svg">
<circle cx="52.8994" cy="52.5" r="52.5" fill="#F1E4D9"/>
<g clip-path="url(#clip0_95_10374)">
<path d="M75.032 26.6875H30.7668C28.9921 26.6875 27.5479 28.158 27.5479 29.965V75.035C27.5479 76.842 28.9921 78.3125 30.7668 78.3125H75.0331C76.8078 78.3125 78.252 76.842 78.252 75.035V29.965C78.251 28.158 76.8078 26.6875 75.032 26.6875ZM30.7668 28.8725H75.0331C75.6243 28.8725 76.1061 29.3619 76.1061 29.965V33.9275H29.6938V29.965C29.6938 29.3619 30.1745 28.8725 30.7668 28.8725ZM75.032 76.1275H30.7668C30.1756 76.1275 29.6938 75.6381 29.6938 75.035V36.1125H76.1061V75.035C76.105 75.6381 75.6243 76.1275 75.032 76.1275Z" fill="black"/>
<path d="M49.6443 32.4936H56.1541C56.7464 32.4936 57.2271 32.0052 57.2271 31.4011C57.2271 30.7969 56.7464 30.3086 56.1541 30.3086H49.6443C49.052 30.3086 48.5713 30.7969 48.5713 31.4011C48.5713 32.0052 49.052 32.4936 49.6443 32.4936Z" fill="black"/>
<path d="M39.9081 51.4084H37.819V48.2478C37.819 47.6436 37.3383 47.1553 36.746 47.1553C36.1537 47.1553 35.673 47.6436 35.673 48.2478V51.4084H33.585C32.9927 51.4084 32.512 51.8967 32.512 52.5009V62.8796C32.512 63.4838 32.9927 63.9721 33.585 63.9721H35.673V67.1338C35.673 67.738 36.1537 68.2263 36.746 68.2263C37.3383 68.2263 37.819 67.738 37.819 67.1338V63.9721H39.9081C40.5004 63.9721 40.9811 63.4838 40.9811 62.8796V52.5009C40.9811 51.8967 40.5004 51.4084 39.9081 51.4084ZM38.8351 61.7871H34.6579V53.5934H38.8351V61.7871Z" fill="black"/>
<path d="M72.2145 40.6016H65.8914C65.2991 40.6016 64.8184 41.0899 64.8184 41.6941V56.3259C64.8184 56.9301 65.2991 57.4184 65.8914 57.4184H67.9805V60.5801C67.9805 61.1843 68.4612 61.6726 69.0535 61.6726C69.6457 61.6726 70.1264 61.1843 70.1264 60.5801V57.4184H72.2145C72.8068 57.4184 73.2875 56.9301 73.2875 56.3259V41.6941C73.2875 41.091 72.8068 40.6016 72.2145 40.6016ZM71.1415 55.2334H66.9643V42.7866H71.1415V55.2334Z" fill="black"/>
<path d="M61.4839 51.5253H59.3959V48.2478C59.3959 47.6436 58.9152 47.1553 58.3229 47.1553C57.7306 47.1553 57.2499 47.6436 57.2499 48.2478V51.5253H55.1608C54.5685 51.5253 54.0878 52.0136 54.0878 52.6178V67.2496C54.0878 67.8538 54.5685 68.3421 55.1608 68.3421H57.2499V71.5038C57.2499 72.108 57.7306 72.5963 58.3229 72.5963C58.9152 72.5963 59.3959 72.108 59.3959 71.5038V68.3421H61.4839C62.0762 68.3421 62.5569 67.8538 62.5569 67.2496V52.6178C62.5569 52.0147 62.0762 51.5253 61.4839 51.5253ZM60.4109 66.1571H56.2338V53.7103H60.4109V66.1571Z" fill="black"/>
<path d="M50.6949 43.2219H48.6069V40.0613C48.6069 39.4571 48.1262 38.9688 47.5339 38.9688C46.9416 38.9688 46.4609 39.4571 46.4609 40.0613V43.2219H44.3729C43.7806 43.2219 43.2999 43.7102 43.2999 44.3144V50.7525C43.2999 51.3566 43.7806 51.845 44.3729 51.845H46.4609V58.2831C46.4609 58.8872 46.9416 59.3756 47.5339 59.3756C48.1262 59.3756 48.6069 58.8872 48.6069 58.2831V51.845H50.6949C51.2872 51.845 51.7679 51.3566 51.7679 50.7525V44.3133C51.7679 43.7102 51.2883 43.2219 50.6949 43.2219ZM49.6219 49.66H45.4448V45.4058H49.6219V49.66Z" fill="black"/>
</g>
<defs>
<clipPath id="clip0_95_10374">
<rect width="59" height="59" fill="white" transform="translate(23.3994 23)"/>
</clipPath>
</defs>
</svg>
