<svg width="106" height="105" viewBox="0 0 106 105" fill="none" xmlns="http://www.w3.org/2000/svg">
<circle cx="52.9996" cy="52.5" r="52.5" fill="#D2D2D2"/>
<path d="M50.1712 54.6212C49.9864 54.5053 49.8726 54.4259 49.8298 54.3829L48.9021 56.2254C49.8594 56.8639 51.0658 57.2306 52.2007 57.3308V58.8411H53.1412V57.3493C53.4619 57.3304 53.7755 57.2845 54.0819 57.2112C54.4942 57.1125 54.8634 56.9535 55.1901 56.7344C55.5163 56.5153 55.7719 56.2277 55.9567 55.871C56.1415 55.5147 56.2337 55.0787 56.2337 54.5632C56.2337 53.9963 56.1197 53.5411 55.8924 53.1974C55.6646 52.8541 55.3362 52.5726 54.9067 52.3535C54.4771 52.1345 53.9703 51.9476 53.3862 51.793C53.2494 51.7531 53.1224 51.7154 52.9997 51.6789V49.9395C53.8751 50.0588 54.9516 50.6485 55.0356 50.7881L55.9631 49.0357C55.6967 48.881 55.3876 48.7264 55.0356 48.5718C54.6832 48.4171 54.3096 48.2884 53.9145 48.1852C53.6655 48.1203 53.4072 48.0782 53.1413 48.0542V46.7549H52.2008V48.0542C51.7669 48.0978 51.3587 48.2033 50.9767 48.372C50.4613 48.5997 50.051 48.9348 49.7462 49.377C49.4411 49.8195 49.2887 50.3626 49.2887 51.0069C49.2887 51.8706 49.585 52.4944 50.3647 52.9526C51.0099 53.3322 51.712 53.5192 52.3554 53.7155V55.4205C51.6352 55.3296 50.7303 54.9723 50.1712 54.6212ZM52.9996 53.9175C53.2776 54.0112 53.5053 54.1145 53.6759 54.2283C53.8693 54.3571 53.9659 54.5376 53.9659 54.7695C53.9659 54.9843 53.8757 55.1518 53.6955 55.2719C53.5409 55.3751 53.3057 55.4312 52.9997 55.446V53.9175H52.9996ZM51.6981 51.1616C51.5519 51.0414 51.479 50.8782 51.479 50.672C51.479 50.1668 51.8562 49.9696 52.3551 49.923V51.4813C52.1323 51.4103 51.8793 51.311 51.6981 51.1616Z" fill="black"/>
<path d="M78.3098 59.594C77.6725 59.3948 76.9946 59.7495 76.7954 60.3866C73.4656 71.0289 63.7293 78.1792 52.5678 78.1792C39.6249 78.1792 28.915 68.4407 27.3774 55.9066L28.3935 56.9227C28.6295 57.1586 28.9388 57.2767 29.2481 57.2767C29.5574 57.2767 29.8668 57.1586 30.1027 56.9227C30.5747 56.4507 30.5747 55.6854 30.1027 55.2133L26.8328 51.9434C26.3597 51.4703 25.5907 51.4763 25.1234 51.9434L21.8536 55.2133C21.3816 55.6853 21.3816 56.4506 21.8536 56.9227C22.3256 57.3945 23.0909 57.3945 23.563 56.9227L24.9063 55.5793C26.2715 69.4121 37.9401 80.5964 52.5678 80.5964C65.1788 80.5964 75.6158 72.2516 79.1024 61.1084C79.3017 60.4712 78.9468 59.7933 78.3098 59.594Z" fill="black"/>
<path d="M83.2818 48.6738C82.8097 48.2019 82.0447 48.2019 81.5725 48.6738L80.2291 50.0171C78.864 36.1842 67.1954 25 52.5676 25C40.6023 25 30.0084 32.6169 26.2064 43.9536C25.9941 44.5864 26.3351 45.2715 26.9679 45.4838C27.6007 45.6961 28.2859 45.3551 28.4982 44.7222C31.9696 34.3715 41.6423 27.4172 52.5676 27.4172C65.5104 27.4172 76.2206 37.1557 77.7581 49.6898L76.742 48.6738C76.2699 48.2019 75.5048 48.2019 75.0326 48.6738C74.5607 49.1457 74.5607 49.911 75.0326 50.3831C75.7492 51.0993 78.2408 53.5924 78.3181 53.6672C78.7853 54.1184 79.5389 54.1252 80.0118 53.653L83.2817 50.3831C83.7538 49.911 83.7538 49.1457 83.2818 48.6738Z" fill="black"/>
<path d="M39.0103 66.5728C46.553 73.9971 58.5959 73.9836 66.1248 66.573C66.2157 66.5027 66.273 66.4455 66.3433 66.3545C69.7809 62.862 71.9056 58.0735 71.9056 52.7975C71.9056 47.5215 69.781 42.7331 66.3433 39.2405C66.2731 39.1497 66.2159 39.0925 66.1248 39.022C58.582 31.5977 46.5391 31.6115 39.0103 39.0223C38.9197 39.0924 38.8626 39.1494 38.7924 39.2402C31.3677 46.783 31.3816 58.8261 38.7924 66.3549C38.8625 66.4455 38.9196 66.5026 39.0103 66.5728ZM39.7842 41.7234L42.3556 44.2948C40.6745 46.3104 39.5783 48.8293 39.3283 51.5889H35.6906C35.9571 47.831 37.4555 44.408 39.7842 41.7234ZM69.4448 51.5889H65.8069C65.557 48.8293 64.4608 46.3104 62.7797 44.2948L65.3511 41.7234C67.6799 44.408 69.1783 47.8311 69.4448 51.5889ZM65.3511 63.8717L62.7797 61.3003C64.4608 59.2847 65.557 56.7658 65.8069 54.0062H69.4447C69.1783 57.764 67.6799 61.1871 65.3511 63.8717ZM52.5677 41.9199C58.5656 41.9199 63.4453 46.7996 63.4453 52.7975C63.4453 58.7954 58.5656 63.6751 52.5677 63.6751C46.5698 63.6751 41.6901 58.7954 41.6901 52.7975C41.6901 46.7996 46.5698 41.9199 52.5677 41.9199ZM44.0649 63.0097C46.0805 64.6907 48.5994 65.787 51.3591 66.0369V69.6746C47.6012 69.4081 44.1782 67.9098 41.4936 65.581L44.0649 63.0097ZM53.7763 66.0369C56.536 65.787 59.0549 64.6907 61.0705 63.0097L63.6418 65.581C60.9572 67.9098 57.5342 69.4081 53.7763 69.6746V66.0369ZM61.0705 42.5854C59.0549 40.9043 56.536 39.8081 53.7763 39.5582V35.9205C57.5342 36.187 60.9572 37.6853 63.6418 40.0141L61.0705 42.5854ZM51.3591 39.5582C48.5994 39.8081 46.0805 40.9043 44.0649 42.5854L41.4936 40.0141C44.1782 37.6853 47.6011 36.187 51.3591 35.9205V39.5582ZM39.3283 54.0062C39.5783 56.7658 40.6745 59.2847 42.3556 61.3003L39.7842 63.8717C37.4555 61.1871 35.9571 57.764 35.6906 54.0062H39.3283Z" fill="black"/>
</svg>
