<svg width="64" height="66" viewBox="0 0 64 66" fill="none" xmlns="http://www.w3.org/2000/svg">
<g clip-path="url(#clip0_73_8022)">
<path d="M57 59.7542H7C6.20435 59.7542 5.44129 59.4282 4.87868 58.848C4.31607 58.2678 4 57.4809 4 56.6604V26.7542C4 25.9336 4.31607 25.1467 4.87868 24.5665C5.44129 23.9863 6.20435 23.6604 7 23.6604H16C16.2652 23.6604 16.5196 23.769 16.7071 23.9624C16.8946 24.1558 17 24.4181 17 24.6917C17 24.9652 16.8946 25.2275 16.7071 25.4209C16.5196 25.6143 16.2652 25.7229 16 25.7229H7C6.73478 25.7229 6.48043 25.8315 6.29289 26.0249C6.10536 26.2183 6 26.4806 6 26.7542V56.6604C6 56.9339 6.10536 57.1962 6.29289 57.3896C6.48043 57.583 6.73478 57.6917 7 57.6917H57C57.2652 57.6917 57.5196 57.583 57.7071 57.3896C57.8946 57.1962 58 56.9339 58 56.6604V26.7542C58 26.4806 57.8946 26.2183 57.7071 26.0249C57.5196 25.8315 57.2652 25.7229 57 25.7229H48C47.7348 25.7229 47.4804 25.6143 47.2929 25.4209C47.1054 25.2275 47 24.9652 47 24.6917C47 24.4181 47.1054 24.1558 47.2929 23.9624C47.4804 23.769 47.7348 23.6604 48 23.6604H57C57.7957 23.6604 58.5587 23.9863 59.1213 24.5665C59.6839 25.1467 60 25.9336 60 26.7542V56.6604C60 57.4809 59.6839 58.2678 59.1213 58.848C58.5587 59.4282 57.7957 59.7542 57 59.7542Z" fill="white"/>
<path d="M27.1301 49.9572C26.7797 49.9503 26.4363 49.8547 26.1301 49.6788C25.787 49.4782 25.5016 49.1873 25.3031 48.8358C25.1046 48.4844 25 48.0849 25.0001 47.6782V35.7363C24.997 35.3326 25.097 34.9352 25.2901 34.584C25.4832 34.2328 25.7626 33.9402 26.1001 33.7357C26.4175 33.5455 26.778 33.4453 27.1451 33.4453C27.5121 33.4453 27.8727 33.5455 28.1901 33.7357L37.9301 39.7169C38.2569 39.9234 38.5269 40.213 38.7142 40.5578C38.9015 40.9027 38.9998 41.2913 38.9998 41.6866C38.9998 42.0819 38.9015 42.4705 38.7142 42.8154C38.5269 43.1603 38.2569 43.4498 37.9301 43.6563L28.1901 49.6375C27.8699 49.8379 27.5044 49.9482 27.1301 49.9572ZM27.1301 35.5197C27.1064 35.5223 27.0834 35.5297 27.0625 35.5415C27.0416 35.5533 27.0232 35.5692 27.0083 35.5884C26.9934 35.6076 26.9824 35.6296 26.9758 35.6532C26.9692 35.6769 26.9673 35.7016 26.9701 35.726V47.6782C26.9672 47.7176 26.974 47.7571 26.9897 47.7931C27.0054 47.8291 27.0296 47.8605 27.0601 47.8844L36.8801 41.9135C36.9093 41.8884 36.9326 41.8568 36.9482 41.8211C36.9638 41.7853 36.9713 41.7464 36.9701 41.7072C36.9701 41.7072 36.9701 41.5526 36.8801 41.5113L27.1301 35.5197Z" fill="white"/>
<path d="M32 32.1063C27.7814 32.1068 23.5974 31.3207 19.65 29.786C19.4586 29.7123 19.2937 29.5798 19.1775 29.4065C19.0613 29.2332 18.9993 29.0274 19 28.8167V19.8138C19 19.5403 19.1054 19.278 19.2929 19.0846C19.4804 18.8912 19.7348 18.7826 20 18.7826C20.2652 18.7826 20.5196 18.8912 20.7071 19.0846C20.8946 19.278 21 19.5403 21 19.8138V28.0638C28.1175 30.6589 35.8825 30.6589 43 28.0638V19.8138C43 19.5403 43.1054 19.278 43.2929 19.0846C43.4804 18.8912 43.7348 18.7826 44 18.7826C44.2652 18.7826 44.5196 18.8912 44.7071 19.0846C44.8946 19.278 45 19.5403 45 19.8138V28.8167C45.0007 29.0274 44.9387 29.2332 44.8225 29.4065C44.7063 29.5798 44.5414 29.7123 44.35 29.786C40.4026 31.3207 36.2186 32.1068 32 32.1063Z" fill="white"/>
<path d="M32.0001 27.7853C31.8283 27.7848 31.6596 27.7386 31.5101 27.6513L11.0001 15.7919C10.8462 15.702 10.7182 15.5715 10.6291 15.4139C10.5401 15.2563 10.4932 15.0771 10.4932 14.8947C10.4932 14.7123 10.5401 14.5331 10.6291 14.3755C10.7182 14.2179 10.8462 14.0875 11.0001 13.9975L31.5101 2.13816C31.6621 2.04765 31.8346 2 32.0101 2C32.1856 2 32.3581 2.04765 32.5101 2.13816L53.0001 13.9975C53.154 14.0875 53.282 14.2179 53.3711 14.3755C53.4601 14.5331 53.5071 14.7123 53.5071 14.8947C53.5071 15.0771 53.4601 15.2563 53.3711 15.4139C53.282 15.5715 53.154 15.702 53.0001 15.7919L32.4901 27.6513C32.3407 27.7386 32.1719 27.7848 32.0001 27.7853ZM13.5401 14.8947L32.0001 25.5682L50.4601 14.8947L32.0001 4.22129L13.5401 14.8947Z" fill="white"/>
<path d="M52.51 20.9895C52.2448 20.9895 51.9904 20.8808 51.8029 20.6874C51.6154 20.494 51.51 20.2317 51.51 19.9582V15.926H32C31.7348 15.926 31.4804 15.8174 31.2929 15.624C31.1054 15.4306 31 15.1683 31 14.8948C31 14.6213 31.1054 14.359 31.2929 14.1656C31.4804 13.9722 31.7348 13.8635 32 13.8635H52.51C52.7752 13.8635 53.0296 13.9722 53.2171 14.1656C53.4046 14.359 53.51 14.6213 53.51 14.8948V19.9582C53.51 20.2317 53.4046 20.494 53.2171 20.6874C53.0296 20.8808 52.7752 20.9895 52.51 20.9895Z" fill="white"/>
<path d="M55.0002 53.5667H49.4302C49.165 53.5667 48.9106 53.458 48.7231 53.2646C48.5355 53.0712 48.4302 52.8089 48.4302 52.5354C48.4302 52.2619 48.5355 51.9996 48.7231 51.8062C48.9106 51.6128 49.165 51.5042 49.4302 51.5042H55.0002C55.2654 51.5042 55.5197 51.6128 55.7073 51.8062C55.8948 51.9996 56.0002 52.2619 56.0002 52.5354C56.0002 52.8089 55.8948 53.0712 55.7073 53.2646C55.5197 53.458 55.2654 53.5667 55.0002 53.5667Z" fill="white"/>
<path d="M44.57 53.5667H9C8.73478 53.5667 8.48043 53.458 8.29289 53.2646C8.10536 53.0712 8 52.8089 8 52.5354C8 52.2619 8.10536 51.9996 8.29289 51.8062C8.48043 51.6128 8.73478 51.5042 9 51.5042H44.57C44.8352 51.5042 45.0896 51.6128 45.2771 51.8062C45.4646 51.9996 45.57 52.2619 45.57 52.5354C45.57 52.8089 45.4646 53.0712 45.2771 53.2646C45.0896 53.458 44.8352 53.5667 44.57 53.5667Z" fill="white"/>
<path d="M46.9998 56.0728C46.3214 56.0728 45.6583 55.8653 45.0942 55.4767C44.5302 55.088 44.0905 54.5356 43.8309 53.8892C43.5713 53.2429 43.5034 52.5317 43.6357 51.8455C43.7681 51.1594 44.0948 50.5291 44.5744 50.0344C45.0541 49.5397 45.6653 49.2029 46.3307 49.0664C46.996 48.9299 47.6857 48.9999 48.3124 49.2677C48.9392 49.5354 49.4749 49.9888 49.8518 50.5704C50.2287 51.1521 50.4298 51.836 50.4298 52.5356C50.4272 53.4729 50.065 54.371 49.4223 55.0338C48.7796 55.6965 47.9087 56.0701 46.9998 56.0728ZM46.9998 51.0609C46.717 51.0609 46.4405 51.1474 46.2054 51.3094C45.9702 51.4715 45.7869 51.7018 45.6787 51.9713C45.5704 52.2407 45.5421 52.5372 45.5973 52.8233C45.6525 53.1094 45.7887 53.3721 45.9887 53.5784C46.1887 53.7846 46.4435 53.9251 46.7208 53.982C46.9982 54.0389 47.2858 54.0097 47.5471 53.898C47.8084 53.7864 48.0317 53.5974 48.1888 53.3549C48.346 53.1124 48.4298 52.8273 48.4298 52.5356C48.4298 52.1445 48.2792 51.7694 48.011 51.4928C47.7428 51.2163 47.3791 51.0609 46.9998 51.0609Z" fill="white"/>
</g>
<defs>
<clipPath id="clip0_73_8022">
<rect width="64" height="66" fill="white"/>
</clipPath>
</defs>
</svg>
