<svg width="68" height="68" viewBox="0 0 68 68" fill="none" xmlns="http://www.w3.org/2000/svg">
<g id="noun-savings-6196987 1">
<g id="Vector">
<path fill-rule="evenodd" clip-rule="evenodd" d="M43.1651 24.3052H46.565C48.14 24.3052 49.4261 25.5676 49.4261 27.1134V31.5317H55.6344C57.5027 31.5317 59.0288 33.0297 59.0288 34.8635V41.0531H61.273C61.6745 41.0531 62 41.3726 62 41.7667V54.3446C62 54.7387 61.6745 55.0582 61.273 55.0582H59.0288V57.6681C59.0288 59.502 57.5027 61 55.6344 61C40.3765 61 25.1189 61 9.86106 61C8.28622 61 7 59.7376 7 58.1918V27.1134C7 25.5675 8.28609 24.3052 9.86106 24.3052H18.6516V6.71362C18.6516 6.31946 18.977 6 19.3786 6H39.4392C39.8407 6 40.1662 6.31946 40.1662 6.71362V8.90609H42.4381C42.8397 8.90609 43.1651 9.22555 43.1651 9.6197V24.3052ZM32.4077 16.9377C31.2173 16.9377 30.2519 17.8854 30.2519 19.0538C30.2519 20.9322 32.5767 21.8802 33.932 20.5501C35.2873 19.2198 34.3213 16.9377 32.4077 16.9377ZM32.904 18.5667C32.4636 18.1343 31.706 18.4413 31.706 19.0538C31.706 19.6662 32.4636 19.9733 32.904 19.541C33.178 19.2721 33.178 18.8356 32.904 18.5667ZM49.2086 17.4012L47.6825 15.9032C47.3987 15.6245 46.9383 15.6245 46.6545 15.9032L45.1283 17.4012C44.8446 17.6798 44.8446 18.1317 45.1283 18.4103C45.4122 18.6889 45.8726 18.6889 46.1563 18.4103L46.4656 18.1069C46.664 19.46 47.2743 20.7034 48.1714 21.6975C51.3857 25.2592 57.1072 24.607 59.4646 20.5635C59.6638 20.2218 59.543 19.7861 59.1949 19.5906C58.8468 19.3951 58.403 19.5136 58.2038 19.8553C57.717 20.6899 57.0129 21.3853 56.1681 21.8664C52.8758 23.7413 48.6902 21.8367 47.9535 18.1875L48.1805 18.4103C48.4643 18.6889 48.9247 18.6889 49.2085 18.4103C49.4925 18.1317 49.4925 17.6799 49.2086 17.4012ZM60.6617 15.9032L60.3234 16.2353C60.1301 14.8297 59.4997 13.5485 58.5646 12.538C55.3451 9.05927 49.596 9.7252 47.2732 13.8284C47.0787 14.1716 47.2046 14.6048 47.5543 14.7957C47.9041 14.9866 48.3453 14.863 48.5397 14.5198C49.0215 13.6683 49.7282 12.9572 50.5804 12.4645C53.8364 10.5824 58.0751 12.4038 58.825 16.0872L58.6375 15.9032C58.3536 15.6245 57.8934 15.6245 57.6095 15.9032C57.3258 16.1818 57.3258 16.6337 57.6095 16.9123L59.1357 18.4103C59.4196 18.6889 59.8799 18.6889 60.1637 18.4103L61.6898 16.9123C61.9736 16.6336 61.9736 16.1818 61.6898 15.9032C61.4058 15.6247 60.9455 15.6247 60.6617 15.9032ZM38.5536 45.094C36.8874 45.094 35.5362 46.4202 35.5362 48.0557C35.5362 50.6851 38.7906 52.0116 40.6871 50.1499C42.5838 48.2882 41.2324 45.094 38.5536 45.094ZM39.6591 46.9705C38.6773 46.0068 36.9902 46.6922 36.9902 48.0557C36.9902 49.4192 38.6773 50.1046 39.6591 49.1409C40.2696 48.5417 40.2696 47.5697 39.6591 46.9705ZM31.703 23.7594V24.2877C31.3003 24.3303 30.9383 24.5096 30.6664 24.7766C29.5726 25.8502 30.362 27.6765 31.8896 27.6765H32.844C33.2079 27.6765 33.2079 28.2205 32.844 28.2205H30.9299C30.5284 28.2205 30.2029 28.5399 30.2029 28.9341C30.2029 29.3283 30.5284 29.6477 30.9299 29.6477H31.7031V30.1662C31.7031 30.5603 32.0286 30.8798 32.4301 30.8798C32.8317 30.8798 33.1571 30.5603 33.1571 30.1662V29.6198C33.5089 29.5563 33.8241 29.3877 34.0672 29.1491C35.161 28.0753 34.3715 26.2492 32.844 26.2492H31.8896C31.5257 26.2492 31.5257 25.7052 31.8896 25.7052H33.5632C33.9647 25.7052 34.2902 25.3858 34.2902 24.9916C34.2902 24.5975 33.9647 24.278 33.5632 24.278H33.1571V23.7595C33.1571 23.3654 32.8317 23.0459 32.4301 23.0459C32.0286 23.0458 31.703 23.3653 31.703 23.7594ZM26.4676 31.5317V17.2304C26.4676 16.8363 26.7931 16.5168 27.1946 16.5168C28.4399 16.5168 29.4491 15.5263 29.4491 14.304C29.4491 13.9098 29.7746 13.5904 30.1761 13.5904H34.6394C35.041 13.5904 35.3664 13.9098 35.3664 14.304C35.3664 15.5263 36.3755 16.5168 37.6209 16.5168C38.0225 16.5168 38.3479 16.8363 38.3479 17.2304V31.5317H41.7111V10.3333H23.1044V31.5317H26.4676ZM36.8938 31.5317V17.8741C35.4288 17.5882 34.2749 16.4557 33.9836 15.0176H30.8318C30.5405 16.4557 29.3866 17.5881 27.9216 17.8741V31.5317H36.8938ZM38.712 8.90609V7.42735H20.1056V31.5317H21.6505V9.6197C21.6505 9.22555 21.976 8.90609 22.3775 8.90609H38.712ZM43.1651 31.5317H47.972V27.1134C47.972 26.3554 47.3375 25.7325 46.565 25.7325H43.1651V31.5317ZM57.5746 41.0532V34.8637C57.5746 33.8175 56.7 32.959 55.6342 32.959C42.54 32.959 29.4458 32.959 16.3518 32.959C15.9502 32.959 15.6247 32.6396 15.6247 32.2454C15.6247 31.8512 15.9502 31.5318 16.3518 31.5318H18.6516V25.7326H9.86094C9.0886 25.7326 8.45404 26.3554 8.45404 27.1135V58.1919C8.45404 58.95 9.0886 59.5729 9.86094 59.5729H55.6342C56.7 59.5729 57.5746 58.7144 57.5746 57.6682V55.0583H38.4926C34.5676 55.0583 31.3586 51.9085 31.3586 48.0557C31.3586 44.203 34.5676 41.0532 38.4926 41.0532H57.5746ZM60.5458 42.4805C53.1947 42.4805 45.8436 42.4805 38.4925 42.4805C35.3699 42.4805 32.8125 44.9907 32.8125 48.0558C32.8125 51.1208 35.3699 53.6311 38.4925 53.6311C45.8436 53.6311 53.1947 53.6311 60.5458 53.6311V42.4805Z" fill="white"/>
<path d="M53.7866 17.8887H52.8705C51.3783 17.8887 50.6079 16.1048 51.6759 15.0564C51.9357 14.8014 52.2795 14.6285 52.6623 14.582V14.1005C52.6623 13.7065 52.9878 13.3869 53.3893 13.3869C53.7909 13.3869 54.1163 13.7063 54.1163 14.1005V14.5693H54.4768C54.8784 14.5693 55.2038 14.8888 55.2038 15.283C55.2038 15.6771 54.8784 15.9966 54.4768 15.9966H52.8705C52.5597 15.9966 52.5598 16.4614 52.8705 16.4614H53.7866C55.2786 16.4614 56.0495 18.2451 54.9812 19.2937C54.7493 19.5215 54.4503 19.6837 54.1163 19.7489V20.2496C54.1163 20.6438 53.7909 20.9632 53.3893 20.9632C52.9878 20.9632 52.6623 20.6438 52.6623 20.2496V19.7808H51.9495C51.5479 19.7808 51.2224 19.4613 51.2224 19.0672C51.2224 18.673 51.5479 18.3535 51.9495 18.3535M43.1651 24.3052H46.565C48.14 24.3052 49.4261 25.5676 49.4261 27.1134V31.5317H55.6344C57.5027 31.5317 59.0288 33.0297 59.0288 34.8635V41.0531H61.273C61.6745 41.0531 62 41.3726 62 41.7667V54.3446C62 54.7387 61.6745 55.0582 61.273 55.0582H59.0288V57.6681C59.0288 59.502 57.5027 61 55.6344 61C40.3766 61 25.1189 61 9.86106 61C8.28622 61 7 59.7376 7 58.1918V27.1134C7 25.5675 8.28609 24.3052 9.86106 24.3052H18.6516V6.71362C18.6516 6.31946 18.977 6 19.3786 6H39.4392C39.8407 6 40.1662 6.31946 40.1662 6.71362V8.90609H42.4381C42.8397 8.90609 43.1651 9.22555 43.1651 9.6197V24.3052ZM32.4077 16.9377C31.2173 16.9377 30.2519 17.8854 30.2519 19.0538C30.2519 20.9322 32.5767 21.8802 33.932 20.5501C35.2873 19.2198 34.3213 16.9377 32.4077 16.9377ZM32.904 18.5667C32.4636 18.1343 31.706 18.4413 31.706 19.0538C31.706 19.6662 32.4636 19.9733 32.904 19.541C33.178 19.2721 33.178 18.8356 32.904 18.5667ZM49.2086 17.4012L47.6825 15.9032C47.3987 15.6246 46.9383 15.6246 46.6545 15.9032L45.1283 17.4012C44.8446 17.6798 44.8446 18.1317 45.1283 18.4103C45.4122 18.6889 45.8726 18.6889 46.1563 18.4103L46.4656 18.1069C46.664 19.46 47.2743 20.7034 48.1714 21.6975C51.3857 25.2592 57.1072 24.607 59.4646 20.5635C59.6639 20.2218 59.543 19.7861 59.1949 19.5906C58.8468 19.3951 58.403 19.5136 58.2038 19.8553C57.717 20.6899 57.0129 21.3853 56.1681 21.8664C52.8758 23.7413 48.6902 21.8367 47.9535 18.1875L48.1805 18.4103C48.4643 18.6889 48.9247 18.6889 49.2085 18.4103C49.4925 18.1317 49.4925 17.6799 49.2086 17.4012ZM60.6617 15.9032L60.3234 16.2353C60.1301 14.8297 59.4997 13.5485 58.5646 12.538C55.3451 9.05927 49.596 9.7252 47.2732 13.8284C47.0787 14.1716 47.2046 14.6048 47.5543 14.7957C47.9041 14.9866 48.3453 14.863 48.5397 14.5198C49.0215 13.6683 49.7282 12.9572 50.5804 12.4645C53.8364 10.5824 58.0751 12.4038 58.825 16.0872L58.6375 15.9032C58.3536 15.6246 57.8934 15.6246 57.6095 15.9032C57.3258 16.1818 57.3258 16.6337 57.6095 16.9123L59.1357 18.4103C59.4196 18.6889 59.8799 18.6889 60.1637 18.4103L61.6898 16.9123C61.9736 16.6336 61.9736 16.1818 61.6898 15.9032C61.4058 15.6247 60.9455 15.6247 60.6617 15.9032ZM38.5536 45.094C36.8873 45.094 35.5362 46.4202 35.5362 48.0557C35.5362 50.6851 38.7906 52.0116 40.6871 50.1499C42.5838 48.2882 41.2324 45.094 38.5536 45.094ZM39.6591 46.9705C38.6773 46.0068 36.9902 46.6922 36.9902 48.0557C36.9902 49.4192 38.6773 50.1046 39.6591 49.1409C40.2696 48.5417 40.2696 47.5697 39.6591 46.9705ZM31.703 23.7594V24.2877C31.3003 24.3303 30.9383 24.5096 30.6664 24.7766C29.5726 25.8502 30.362 27.6765 31.8896 27.6765H32.844C33.2079 27.6765 33.2079 28.2205 32.844 28.2205H30.9299C30.5284 28.2205 30.2029 28.5399 30.2029 28.9341C30.2029 29.3283 30.5284 29.6477 30.9299 29.6477H31.7031V30.1662C31.7031 30.5603 32.0286 30.8798 32.4301 30.8798C32.8317 30.8798 33.1571 30.5603 33.1571 30.1662V29.6198C33.5089 29.5563 33.8241 29.3877 34.0672 29.1491C35.161 28.0753 34.3715 26.2492 32.844 26.2492H31.8896C31.5257 26.2492 31.5257 25.7052 31.8896 25.7052H33.5632C33.9647 25.7052 34.2902 25.3858 34.2902 24.9916C34.2902 24.5975 33.9647 24.278 33.5632 24.278H33.1571V23.7595C33.1571 23.3654 32.8317 23.0459 32.4301 23.0459C32.0286 23.0458 31.703 23.3653 31.703 23.7594ZM26.4676 31.5317V17.2304C26.4676 16.8363 26.7931 16.5168 27.1946 16.5168C28.4399 16.5168 29.4491 15.5263 29.4491 14.304C29.4491 13.9098 29.7746 13.5904 30.1761 13.5904H34.6394C35.041 13.5904 35.3664 13.9098 35.3664 14.304C35.3664 15.5263 36.3755 16.5168 37.6209 16.5168C38.0225 16.5168 38.3479 16.8363 38.3479 17.2304V31.5317H41.7111V10.3333H23.1044V31.5317H26.4676ZM36.8938 31.5317V17.8741C35.4288 17.5882 34.2749 16.4557 33.9836 15.0176H30.8318C30.5405 16.4557 29.3866 17.5881 27.9216 17.8741V31.5317H36.8938ZM38.712 8.90609V7.42735H20.1056V31.5317H21.6505V9.6197C21.6505 9.22555 21.976 8.90609 22.3775 8.90609H38.712ZM43.1651 31.5317H47.972V27.1134C47.972 26.3554 47.3375 25.7325 46.565 25.7325H43.1651V31.5317ZM57.5746 41.0532V34.8637C57.5746 33.8175 56.7 32.959 55.6342 32.959C42.54 32.959 29.4458 32.959 16.3518 32.959C15.9502 32.959 15.6247 32.6396 15.6247 32.2454C15.6247 31.8512 15.9502 31.5318 16.3518 31.5318H18.6516V25.7326H9.86094C9.0886 25.7326 8.45404 26.3554 8.45404 27.1135V58.1919C8.45404 58.95 9.0886 59.5729 9.86094 59.5729H55.6342C56.7 59.5729 57.5746 58.7144 57.5746 57.6682V55.0583H38.4926C34.5676 55.0583 31.3586 51.9085 31.3586 48.0557C31.3586 44.203 34.5676 41.0532 38.4926 41.0532H57.5746ZM60.5458 42.4805C53.1947 42.4805 45.8436 42.4805 38.4925 42.4805C35.3699 42.4805 32.8125 44.9907 32.8125 48.0558C32.8125 51.1208 35.3699 53.6311 38.4925 53.6311C45.8436 53.6311 53.1947 53.6311 60.5458 53.6311V42.4805Z" stroke="white" stroke-width="0.4"/>
</g>
</g>
</svg>
