<svg width="62" height="62" viewBox="0 0 62 62" fill="none" xmlns="http://www.w3.org/2000/svg">
<g clip-path="url(#clip0_61_6458)">
<path d="M7.16024 55.5416H12.2146C12.6077 55.5416 12.9166 55.2412 12.9166 54.8587V38.1412C12.9166 37.7588 12.6077 37.4583 12.2146 37.4583H7.16024C6.76713 37.4583 6.45825 37.7588 6.45825 38.1412V54.8587C6.45825 55.2412 6.76713 55.5416 7.16024 55.5416ZM7.86224 38.8241H11.5126V54.1758H7.86224V38.8241Z" fill="white" stroke="white" stroke-width="0.7"/>
<path d="M16.0616 42.625C15.7471 42.625 15.5 42.9244 15.5 43.3055V54.8611C15.5 55.2422 15.7471 55.5417 16.0616 55.5417H20.1051C20.4196 55.5417 20.6667 55.2422 20.6667 54.8611V43.3055C20.6667 42.9244 20.4196 42.625 20.1051 42.625H16.0616ZM19.5547 54.1806H16.6344V43.9861H19.5547V54.1806Z" fill="white" stroke="white" stroke-width="0.7"/>
<path d="M23.952 32.2917C23.5589 32.2917 23.25 32.5972 23.25 32.9861V54.8472C23.25 55.2361 23.5589 55.5417 23.952 55.5417H29.0063C29.3995 55.5417 29.7083 55.2361 29.7083 54.8472V32.9861C29.7083 32.5972 29.3995 32.2917 29.0063 32.2917H23.952ZM28.3043 54.1528H24.654V33.6806H28.3043V54.1528Z" fill="white" stroke="white" stroke-width="0.7"/>
<path d="M32.8533 41.3333C32.5388 41.3333 32.2917 41.6462 32.2917 42.0444V54.8305C32.2917 55.2287 32.5388 55.5416 32.8533 55.5416H36.8968C37.2113 55.5416 37.4584 55.2287 37.4584 54.8305V42.0444C37.4584 41.6462 37.2113 41.3333 36.8968 41.3333H32.8533ZM36.3352 54.1194H33.4149V42.7556H36.3352V54.1194Z" fill="white" stroke="white" stroke-width="0.7"/>
<path d="M40.7437 34.875C40.3506 34.875 40.0417 35.1886 40.0417 35.5876V54.829C40.0417 55.2281 40.3506 55.5417 40.7437 55.5417H45.7981C46.1912 55.5417 46.5001 55.2281 46.5001 54.829V35.5876C46.5001 35.1886 46.1912 34.875 45.7981 34.875H40.7437ZM45.1101 54.1164H41.4598V36.3003H45.1101V54.1164Z" fill="white" stroke="white" stroke-width="0.7"/>
<path d="M54.8396 24.5417H49.7852C49.3921 24.5417 49.0833 24.8439 49.0833 25.2284V54.8549C49.0833 55.2395 49.3921 55.5417 49.7852 55.5417H54.8396C55.2327 55.5417 55.5416 55.2395 55.5416 54.8549V25.2284C55.5416 24.8439 55.2327 24.5417 54.8396 24.5417ZM54.1376 54.1682H50.4872V25.9152H54.1376V54.1682Z" fill="white" stroke="white" stroke-width="0.7"/>
<path d="M51.1498 8.23593C52.6035 8.23593 53.7917 7.05853 53.7917 5.61796C53.7917 4.17739 52.6035 3 51.1498 3C49.696 3 48.5079 4.17739 48.5079 5.61796C48.5079 6.31055 48.7874 6.94772 49.2348 7.41868L43.4338 16.9763C43.1822 16.8932 42.9166 16.8378 42.637 16.8378C41.1833 16.8378 39.9951 18.0152 39.9951 19.4558C39.9951 19.7328 40.051 19.9821 40.1209 20.2315L36.0253 22.4893C35.55 21.9906 34.8791 21.6859 34.1243 21.6859C33.6909 21.6859 33.2856 21.7967 32.9221 21.9906L27.834 16.4361C28.0996 16.0344 28.2534 15.5496 28.2534 15.0371C28.2534 13.5965 27.0652 12.4191 25.6115 12.4191C24.1578 12.4191 22.9696 13.5965 22.9696 15.0371C22.9696 15.6327 23.1793 16.1868 23.5287 16.6162L18.0772 23.7913C17.7697 23.6667 17.4482 23.5974 17.1127 23.5974C16.3858 23.5974 15.7289 23.8883 15.2536 24.3592L11.144 22.0322C11.1999 21.8244 11.2418 21.6028 11.2418 21.3811C11.2418 19.9406 10.0537 18.7632 8.59996 18.7632C7.14622 18.7632 6 19.9406 6 21.3811C6 22.8217 7.18815 23.9991 8.64189 23.9991C9.36876 23.9991 10.0257 23.7082 10.501 23.2373L14.6106 25.5643C14.5407 25.7721 14.4988 25.9937 14.4988 26.2154C14.4988 27.6559 15.6869 28.8333 17.1407 28.8333C18.5944 28.8333 19.7826 27.6559 19.7826 26.2154C19.7826 25.6198 19.5729 25.0657 19.2234 24.6363L24.675 17.4611C24.9825 17.5858 25.304 17.655 25.6395 17.655C26.0728 17.655 26.4642 17.5442 26.8276 17.3642L31.9157 22.9325C31.6641 23.3342 31.5103 23.8052 31.5103 24.3038C31.5103 25.7444 32.6985 26.9218 34.1522 26.9218C35.6059 26.9218 36.7941 25.7444 36.7941 24.3038C36.7941 24.0961 36.7661 23.9021 36.7242 23.7221L40.9177 21.4227C41.379 21.8382 41.994 22.0876 42.665 22.0876C44.1187 22.0876 45.3069 20.9102 45.3069 19.4696C45.3069 18.8047 45.0553 18.2091 44.6359 17.752L50.4648 8.13896C50.6745 8.19437 50.8982 8.23593 51.1498 8.23593ZM8.62791 22.6139C7.94298 22.6139 7.38385 22.0599 7.38385 21.3811C7.38385 20.7024 7.94298 20.1483 8.62791 20.1483C9.31285 20.1483 9.87198 20.7024 9.87198 21.3811C9.87198 22.0599 9.31285 22.6139 8.62791 22.6139ZM17.1267 27.4482C16.4418 27.4482 15.8826 26.8941 15.8826 26.2154C15.8826 25.5366 16.4418 24.9826 17.1267 24.9826C17.8116 24.9826 18.3708 25.5366 18.3708 26.2154C18.3708 26.8941 17.8116 27.4482 17.1267 27.4482ZM24.3954 15.0371C24.3954 14.3584 24.9545 13.8043 25.6395 13.8043C26.3244 13.8043 26.8835 14.3584 26.8835 15.0371C26.8835 15.7158 26.3244 16.2699 25.6395 16.2699C24.9545 16.256 24.3954 15.7158 24.3954 15.0371ZM34.1382 25.5228C33.4533 25.5228 32.8942 24.9687 32.8942 24.29C32.8942 23.6113 33.4533 23.0572 34.1382 23.0572C34.8232 23.0572 35.3823 23.6113 35.3823 24.29C35.3823 24.9687 34.8232 25.5228 34.1382 25.5228ZM51.1498 4.39902C51.8347 4.39902 52.3938 4.95308 52.3938 5.63181C52.3938 6.31055 51.8347 6.86461 51.1498 6.86461C50.4648 6.86461 49.9057 6.31055 49.9057 5.63181C49.9057 4.95308 50.4648 4.39902 51.1498 4.39902ZM42.651 20.6886C41.9661 20.6886 41.4069 20.1345 41.4069 19.4558C41.4069 18.777 41.9661 18.223 42.651 18.223C43.3359 18.223 43.8951 18.777 43.8951 19.4558C43.8811 20.1345 43.3219 20.6886 42.651 20.6886Z" fill="white" stroke="white" stroke-width="0.7"/>
</g>
<defs>
<clipPath id="clip0_61_6458">
<rect width="62" height="62" fill="white"/>
</clipPath>
</defs>
</svg>
