<svg width="64" height="64" viewBox="0 0 64 64" fill="none" xmlns="http://www.w3.org/2000/svg">
<path d="M43.6947 22.2482H44.5911V27.7769C44.5911 28.4025 45.0964 28.9095 45.7201 28.9095C46.3438 28.9095 46.8492 28.4025 46.8492 27.7769V22.2482H47.7455C48.3692 22.2482 48.8746 21.7412 48.8746 21.1156V11.9228C48.8746 11.2972 48.3692 10.7902 47.7455 10.7902H46.8492V5.26148C46.8492 4.63586 46.3438 4.12891 45.7201 4.12891C45.0964 4.12891 44.5911 4.63586 44.5911 5.26148V10.7902H43.6947C43.0711 10.7902 42.5657 11.2972 42.5657 11.9228V21.1156C42.5657 21.7412 43.0711 22.2482 43.6947 22.2482ZM44.8238 13.0554H46.6165V19.983H44.8238V13.0554ZM34.549 31.3191H35.4453V36.8478C35.4453 37.4734 35.9507 37.9804 36.5744 37.9804C37.1981 37.9804 37.7035 37.4734 37.7035 36.8478V31.3191H38.5998C39.2235 31.3191 39.7289 30.8122 39.7289 30.1865V20.9937C39.7289 20.3681 39.2235 19.8611 38.5998 19.8611H37.7035V14.3324C37.7035 13.7068 37.1981 13.1998 36.5744 13.1998C35.9507 13.1998 35.4453 13.7068 35.4453 14.3324V19.8611H34.549C33.9253 19.8611 33.4199 20.3681 33.4199 20.9937V30.1865C33.4199 30.8122 33.9253 31.3191 34.549 31.3191ZM35.6774 22.1263H37.4701V29.054H35.6774V22.1263ZM25.4026 22.2482H26.2989V27.7769C26.2989 28.4025 26.8043 28.9095 27.428 28.9095C28.0517 28.9095 28.5571 28.4025 28.5571 27.7769V22.2482H29.4534C30.0771 22.2482 30.5825 21.7412 30.5825 21.1156V11.9228C30.5825 11.2972 30.0771 10.7902 29.4534 10.7902H28.5571V5.26148C28.5571 4.63586 28.0517 4.12891 27.428 4.12891C26.8043 4.12891 26.2989 4.63586 26.2989 5.26148V10.7902H25.4026C24.7789 10.7902 24.2735 11.2972 24.2735 11.9228V21.1156C24.2735 21.7412 24.7789 22.2482 25.4026 22.2482ZM26.5317 13.0554H28.3243V19.983H26.5317V13.0554ZM15.1278 20.9937V30.1865C15.1278 30.8122 15.6332 31.3191 16.2569 31.3191H17.1532V36.8478C17.1532 37.4734 17.6586 37.9804 18.2823 37.9804C18.906 37.9804 19.4113 37.4734 19.4113 36.8478V31.3191H20.3076C20.9313 31.3191 21.4367 30.8122 21.4367 30.1865V20.9937C21.4367 20.3681 20.9313 19.8611 20.3076 19.8611H19.4113V14.3324C19.4113 13.7068 18.906 13.1998 18.2823 13.1998C17.6586 13.1998 17.1532 13.7068 17.1532 14.3324V19.8611H16.2569C15.6332 19.8611 15.1278 20.3681 15.1278 20.9937ZM17.3853 22.1263H19.1779V29.054H17.3853V22.1263ZM56.8456 9.52218H52.1853C51.5616 9.52218 51.0562 10.0291 51.0562 10.6548C51.0562 11.2804 51.5616 11.7873 52.1853 11.7873H56.8456C57.8384 11.7873 58.646 12.5981 58.646 13.5939V41.551H5.3558V14.6549C5.3558 13.0734 6.63854 11.7873 8.21449 11.7873H14.5035C15.1272 11.7873 15.6325 11.2804 15.6325 10.6548C15.6325 10.0291 15.1272 9.52218 14.5035 9.52218H8.21449C5.39309 9.52218 3.09766 11.8247 3.09766 14.6549V46.6405C3.09766 49.4706 5.39309 51.7732 8.21449 51.7732H24.0704C24.2639 53.5062 24.1437 55.5798 23.7367 57.605H17.3757C16.752 57.605 16.2466 58.112 16.2466 58.7376C16.2466 59.3633 16.752 59.8702 17.3757 59.8702H24.6368L24.6426 59.8708C24.6452 59.8708 24.6478 59.8708 24.6503 59.8702H39.3032C39.3058 59.8702 39.3083 59.8708 39.3109 59.8708L39.3161 59.8702H46.6267C47.2504 59.8702 47.7558 59.3633 47.7558 58.7376C47.7558 58.112 47.2504 57.605 46.6267 57.605H40.2034C39.7604 55.5605 39.617 53.4862 39.806 51.7732H55.7873C58.6087 51.7732 60.9041 49.4706 60.9041 46.6405V13.5939C60.9041 11.3488 59.0832 9.52218 56.8456 9.52218ZM37.8989 57.605H26.0347C26.3986 55.5927 26.5085 53.5462 26.3407 51.7732H37.5356C37.3736 53.5314 37.5035 55.5779 37.8989 57.605ZM55.7873 49.508H8.21449C6.6379 49.508 5.3558 48.2213 5.3558 46.6405V43.8161H58.646V46.6405C58.646 48.2213 57.3639 49.508 55.7873 49.508Z" fill="#1A1A1A"/>
</svg>
