<svg width="55" height="55" viewBox="0 0 55 55" fill="none" xmlns="http://www.w3.org/2000/svg">
<g id="Group">
<path id="Vector" d="M50.6273 47.8668V7.3754C50.6273 6.6432 50.3364 5.94099 49.8187 5.42324C49.301 4.90549 48.5987 4.61463 47.8665 4.61463H37.7437V1.85385C37.7437 1.60978 37.6467 1.37571 37.4742 1.20313C37.3016 1.03055 37.0675 0.933594 36.8234 0.933594C36.5794 0.933594 36.3453 1.03055 36.1727 1.20313C36.0001 1.37571 35.9032 1.60978 35.9032 1.85385V4.61463H13.817V1.85385C13.817 1.60978 13.72 1.37571 13.5474 1.20313C13.3749 1.03055 13.1408 0.933594 12.8967 0.933594C12.6526 0.933594 12.4186 1.03055 12.246 1.20313C12.0734 1.37571 11.9765 1.60978 11.9765 1.85385V4.61463H3.69413C2.96192 4.61463 2.25971 4.90549 1.74196 5.42324C1.22422 5.94099 0.93335 6.6432 0.93335 7.3754V47.8668C0.93335 48.599 1.22422 49.3012 1.74196 49.8189C2.25971 50.3367 2.96192 50.6276 3.69413 50.6276H47.8665C48.5987 50.6276 49.301 50.3367 49.8187 49.8189C50.3364 49.3012 50.6273 48.599 50.6273 47.8668ZM3.69413 6.45515H11.9765V8.46131C11.3624 8.67839 10.8449 9.10555 10.5154 9.66729C10.1859 10.229 10.0656 10.8892 10.1757 11.531C10.2858 12.1729 10.6193 12.7552 11.1172 13.175C11.6152 13.5947 12.2455 13.825 12.8967 13.825C13.548 13.825 14.1783 13.5947 14.6762 13.175C15.1741 12.7552 15.5076 12.1729 15.6177 11.531C15.7279 10.8892 15.6075 10.229 15.278 9.66729C14.9485 9.10555 14.431 8.67839 13.817 8.46131V6.45515H35.9032V8.46131C35.2892 8.67839 34.7717 9.10555 34.4421 9.66729C34.1126 10.229 33.9923 10.8892 34.1024 11.531C34.2126 12.1729 34.546 12.7552 35.044 13.175C35.5419 13.5947 36.1722 13.825 36.8234 13.825C37.4747 13.825 38.105 13.5947 38.6029 13.175C39.1008 12.7552 39.4343 12.1729 39.5445 11.531C39.6546 10.8892 39.5342 10.229 39.2047 9.66729C38.8752 9.10555 38.3577 8.67839 37.7437 8.46131V6.45515H47.8665C48.1106 6.45515 48.3447 6.5521 48.5173 6.72468C48.6898 6.89727 48.7868 7.13134 48.7868 7.3754V15.6577H2.77387V7.3754C2.77387 7.13134 2.87082 6.89727 3.0434 6.72468C3.21599 6.5521 3.45006 6.45515 3.69413 6.45515ZM2.77387 47.8668V17.4982H48.7868V47.8668C48.7868 48.1109 48.6898 48.3449 48.5173 48.5175C48.3447 48.6901 48.1106 48.787 47.8665 48.787H3.69413C3.45006 48.787 3.21599 48.6901 3.0434 48.5175C2.87082 48.3449 2.77387 48.1109 2.77387 47.8668Z" fill="#1A1A1A"/>
<path id="Vector_2" d="M23.9399 20.2588H18.4183C18.1742 20.2588 17.9402 20.3557 17.7676 20.5283C17.595 20.7009 17.498 20.935 17.498 21.179V26.7006C17.498 26.9447 17.595 27.1787 17.7676 27.3513C17.9402 27.5239 18.1742 27.6209 18.4183 27.6209H23.9399C24.1839 27.6209 24.418 27.5239 24.5906 27.3513C24.7632 27.1787 24.8601 26.9447 24.8601 26.7006V21.179C24.8601 20.935 24.7632 20.7009 24.5906 20.5283C24.418 20.3557 24.1839 20.2588 23.9399 20.2588ZM23.0196 25.7803H19.3386V22.0993H23.0196V25.7803Z" fill="#1A1A1A"/>
<path id="Vector_3" d="M33.1424 20.2588H27.6208C27.3768 20.2588 27.1427 20.3557 26.9701 20.5283C26.7975 20.7009 26.7006 20.935 26.7006 21.179V26.7006C26.7006 26.9447 26.7975 27.1787 26.9701 27.3513C27.1427 27.5239 27.3768 27.6209 27.6208 27.6209H33.1424C33.3864 27.6209 33.6205 27.5239 33.7931 27.3513C33.9657 27.1787 34.0626 26.9447 34.0626 26.7006V21.179C34.0626 20.935 33.9657 20.7009 33.7931 20.5283C33.6205 20.3557 33.3864 20.2588 33.1424 20.2588ZM32.2221 25.7803H28.5411V22.0993H32.2221V25.7803Z" fill="#1A1A1A"/>
<path id="Vector_4" d="M42.345 20.2588H36.8235C36.5794 20.2588 36.3453 20.3557 36.1727 20.5283C36.0002 20.7009 35.9032 20.935 35.9032 21.179V26.7006C35.9032 26.9447 36.0002 27.1787 36.1727 27.3513C36.3453 27.5239 36.5794 27.6209 36.8235 27.6209H42.345C42.5891 27.6209 42.8231 27.5239 42.9957 27.3513C43.1683 27.1787 43.2653 26.9447 43.2653 26.7006V21.179C43.2653 20.935 43.1683 20.7009 42.9957 20.5283C42.8231 20.3557 42.5891 20.2588 42.345 20.2588ZM41.4247 25.7803H37.7437V22.0993H41.4247V25.7803Z" fill="#1A1A1A"/>
<path id="Vector_5" d="M14.7372 29.4619H9.21567C8.9716 29.4619 8.73753 29.5589 8.56495 29.7315C8.39237 29.904 8.29541 30.1381 8.29541 30.3822V35.9037C8.29541 36.1478 8.39237 36.3819 8.56495 36.5544C8.73753 36.727 8.9716 36.824 9.21567 36.824H14.7372C14.9813 36.824 15.2154 36.727 15.3879 36.5544C15.5605 36.3819 15.6575 36.1478 15.6575 35.9037V30.3822C15.6575 30.1381 15.5605 29.904 15.3879 29.7315C15.2154 29.5589 14.9813 29.4619 14.7372 29.4619ZM13.817 34.9835H10.1359V31.3024H13.817V34.9835Z" fill="#1A1A1A"/>
<path id="Vector_6" d="M23.9399 29.4619H18.4183C18.1742 29.4619 17.9402 29.5589 17.7676 29.7315C17.595 29.904 17.498 30.1381 17.498 30.3822V35.9037C17.498 36.1478 17.595 36.3819 17.7676 36.5544C17.9402 36.727 18.1742 36.824 18.4183 36.824H23.9399C24.1839 36.824 24.418 36.727 24.5906 36.5544C24.7632 36.3819 24.8601 36.1478 24.8601 35.9037V30.3822C24.8601 30.1381 24.7632 29.904 24.5906 29.7315C24.418 29.5589 24.1839 29.4619 23.9399 29.4619ZM23.0196 34.9835H19.3386V31.3024H23.0196V34.9835Z" fill="#1A1A1A"/>
<path id="Vector_7" d="M33.1424 29.4619H27.6208C27.3768 29.4619 27.1427 29.5589 26.9701 29.7315C26.7975 29.904 26.7006 30.1381 26.7006 30.3822V35.9037C26.7006 36.1478 26.7975 36.3819 26.9701 36.5544C27.1427 36.727 27.3768 36.824 27.6208 36.824H33.1424C33.3864 36.824 33.6205 36.727 33.7931 36.5544C33.9657 36.3819 34.0626 36.1478 34.0626 35.9037V30.3822C34.0626 30.1381 33.9657 29.904 33.7931 29.7315C33.6205 29.5589 33.3864 29.4619 33.1424 29.4619ZM32.2221 34.9835H28.5411V31.3024H32.2221V34.9835Z" fill="#1A1A1A"/>
<path id="Vector_8" d="M42.345 29.4619H36.8235C36.5794 29.4619 36.3453 29.5589 36.1727 29.7315C36.0002 29.904 35.9032 30.1381 35.9032 30.3822V35.9037C35.9032 36.1478 36.0002 36.3819 36.1727 36.5544C36.3453 36.727 36.5794 36.824 36.8235 36.824H42.345C42.5891 36.824 42.8231 36.727 42.9957 36.5544C43.1683 36.3819 43.2653 36.1478 43.2653 35.9037V30.3822C43.2653 30.1381 43.1683 29.904 42.9957 29.7315C42.8231 29.5589 42.5891 29.4619 42.345 29.4619ZM41.4247 34.9835H37.7437V31.3024H41.4247V34.9835Z" fill="#1A1A1A"/>
<path id="Vector_9" d="M14.7372 38.6641H9.21567C8.9716 38.6641 8.73753 38.761 8.56495 38.9336C8.39237 39.1062 8.29541 39.3403 8.29541 39.5843V45.1059C8.29541 45.3499 8.39237 45.584 8.56495 45.7566C8.73753 45.9292 8.9716 46.0261 9.21567 46.0261H14.7372C14.9813 46.0261 15.2154 45.9292 15.3879 45.7566C15.5605 45.584 15.6575 45.3499 15.6575 45.1059V39.5843C15.6575 39.3403 15.5605 39.1062 15.3879 38.9336C15.2154 38.761 14.9813 38.6641 14.7372 38.6641ZM13.817 44.1856H10.1359V40.5046H13.817V44.1856Z" fill="#1A1A1A"/>
<path id="Vector_10" d="M23.9399 38.6641H18.4183C18.1742 38.6641 17.9402 38.761 17.7676 38.9336C17.595 39.1062 17.498 39.3403 17.498 39.5843V45.1059C17.498 45.3499 17.595 45.584 17.7676 45.7566C17.9402 45.9292 18.1742 46.0261 18.4183 46.0261H23.9399C24.1839 46.0261 24.418 45.9292 24.5906 45.7566C24.7632 45.584 24.8601 45.3499 24.8601 45.1059V39.5843C24.8601 39.3403 24.7632 39.1062 24.5906 38.9336C24.418 38.761 24.1839 38.6641 23.9399 38.6641ZM23.0196 44.1856H19.3386V40.5046H23.0196V44.1856Z" fill="#1A1A1A"/>
<path id="Vector_11" d="M33.1424 38.6641H27.6208C27.3768 38.6641 27.1427 38.761 26.9701 38.9336C26.7975 39.1062 26.7006 39.3403 26.7006 39.5843V45.1059C26.7006 45.3499 26.7975 45.584 26.9701 45.7566C27.1427 45.9292 27.3768 46.0261 27.6208 46.0261H33.1424C33.3864 46.0261 33.6205 45.9292 33.7931 45.7566C33.9657 45.584 34.0626 45.3499 34.0626 45.1059V39.5843C34.0626 39.3403 33.9657 39.1062 33.7931 38.9336C33.6205 38.761 33.3864 38.6641 33.1424 38.6641ZM32.2221 44.1856H28.5411V40.5046H32.2221V44.1856Z" fill="#1A1A1A"/>
<path id="Vector_12" d="M53.3881 8.2959C53.144 8.2959 52.9099 8.39285 52.7374 8.56544C52.5648 8.73802 52.4678 8.97209 52.4678 9.21616V49.7075C52.4678 50.4397 52.177 51.1419 51.6592 51.6597C51.1415 52.1774 50.4393 52.4683 49.7071 52.4683H5.53464C5.29057 52.4683 5.0565 52.5653 4.88392 52.7378C4.71134 52.9104 4.61438 53.1445 4.61438 53.3886C4.61438 53.6326 4.71134 53.8667 4.88392 54.0393C5.0565 54.2119 5.29057 54.3088 5.53464 54.3088H49.7071C50.9274 54.3088 52.0977 53.8241 52.9607 52.9611C53.8236 52.0982 54.3083 50.9279 54.3083 49.7075V9.21616C54.3083 8.97209 54.2114 8.73802 54.0388 8.56544C53.8662 8.39285 53.6322 8.2959 53.3881 8.2959Z" fill="#1A1A1A"/>
</g>
</svg>
