<svg width="64" height="64" viewBox="0 0 64 64" fill="none" xmlns="http://www.w3.org/2000/svg">
<g id="noun-trading-forex-4621478 1">
<path id="Vector" d="M43.6939 22.2483H44.5902V27.777C44.5902 28.4027 45.0956 28.9096 45.7193 28.9096C46.343 28.9096 46.8484 28.4027 46.8484 27.777V22.2483H47.7447C48.3684 22.2483 48.8737 21.7414 48.8737 21.1157V11.9229C48.8737 11.2973 48.3684 10.7903 47.7447 10.7903H46.8484V5.2616C46.8484 4.63598 46.343 4.12903 45.7193 4.12903C45.0956 4.12903 44.5902 4.63598 44.5902 5.2616V10.7903H43.6939C43.0702 10.7903 42.5648 11.2973 42.5648 11.9229V21.1157C42.5648 21.7414 43.0702 22.2483 43.6939 22.2483ZM44.823 13.0555H46.6156V19.9832H44.823V13.0555ZM34.5482 31.3192H35.4445V36.8479C35.4445 37.4736 35.9498 37.9805 36.5735 37.9805C37.1972 37.9805 37.7026 37.4736 37.7026 36.8479V31.3192H38.5989C39.2226 31.3192 39.728 30.8123 39.728 30.1867V20.9938C39.728 20.3682 39.2226 19.8613 38.5989 19.8613H37.7026V14.3325C37.7026 13.7069 37.1972 13.2 36.5735 13.2C35.9498 13.2 35.4445 13.7069 35.4445 14.3325V19.8613H34.5482C33.9245 19.8613 33.4191 20.3682 33.4191 20.9938V30.1867C33.4191 30.8123 33.9245 31.3192 34.5482 31.3192ZM35.6766 22.1264H37.4692V29.0541H35.6766V22.1264ZM25.4018 22.2483H26.2981V27.777C26.2981 28.4027 26.8035 28.9096 27.4272 28.9096C28.0508 28.9096 28.5562 28.4027 28.5562 27.777V22.2483H29.4525C30.0762 22.2483 30.5816 21.7414 30.5816 21.1157V11.9229C30.5816 11.2973 30.0762 10.7903 29.4525 10.7903H28.5562V5.2616C28.5562 4.63598 28.0508 4.12903 27.4272 4.12903C26.8035 4.12903 26.2981 4.63598 26.2981 5.2616V10.7903H25.4018C24.7781 10.7903 24.2727 11.2973 24.2727 11.9229V21.1157C24.2727 21.7414 24.7781 22.2483 25.4018 22.2483ZM26.5308 13.0555H28.3235V19.9832H26.5308V13.0555ZM15.127 20.9938V30.1867C15.127 30.8123 15.6323 31.3192 16.256 31.3192H17.1523V36.8479C17.1523 37.4736 17.6577 37.9805 18.2814 37.9805C18.9051 37.9805 19.4105 37.4736 19.4105 36.8479V31.3192H20.3068C20.9305 31.3192 21.4359 30.8123 21.4359 30.1867V20.9938C21.4359 20.3682 20.9305 19.8613 20.3068 19.8613H19.4105V14.3325C19.4105 13.7069 18.9051 13.2 18.2814 13.2C17.6577 13.2 17.1523 13.7069 17.1523 14.3325V19.8613H16.256C15.6323 19.8613 15.127 20.3682 15.127 20.9938ZM17.3845 22.1264H19.1771V29.0541H17.3845V22.1264ZM56.8448 9.52231H52.1844C51.5608 9.52231 51.0554 10.0293 51.0554 10.6549C51.0554 11.2805 51.5608 11.7875 52.1844 11.7875H56.8448C57.8375 11.7875 58.6451 12.5982 58.6451 13.594V41.5511H5.35495V14.655C5.35495 13.0735 6.63769 11.7875 8.21363 11.7875H14.5026C15.1263 11.7875 15.6317 11.2805 15.6317 10.6549C15.6317 10.0293 15.1263 9.52231 14.5026 9.52231H8.21363C5.39224 9.52231 3.0968 11.8249 3.0968 14.655V46.6406C3.0968 49.4707 5.39224 51.7733 8.21363 51.7733H24.0695C24.263 53.5064 24.1428 55.5799 23.7358 57.6052H17.3748C16.7511 57.6052 16.2457 58.1121 16.2457 58.7377C16.2457 59.3634 16.7511 59.8703 17.3748 59.8703H24.636L24.6418 59.871C24.6443 59.871 24.6469 59.871 24.6495 59.8703H39.3023C39.3049 59.8703 39.3075 59.871 39.3101 59.871L39.3152 59.8703H46.6259C47.2496 59.8703 47.755 59.3634 47.755 58.7377C47.755 58.1121 47.2496 57.6052 46.6259 57.6052H40.2025C39.7595 55.5606 39.6161 53.4864 39.8052 51.7733H55.7864C58.6078 51.7733 60.9033 49.4707 60.9033 46.6406V13.594C60.9033 11.3489 59.0823 9.52231 56.8448 9.52231ZM37.8981 57.6052H26.0338C26.3977 55.5928 26.5077 53.5463 26.3399 51.7733H37.5348C37.3728 53.5315 37.5026 55.578 37.8981 57.6052ZM55.7864 49.5082H8.21363C6.63705 49.5082 5.35495 48.2214 5.35495 46.6406V43.8163H58.6451V46.6406C58.6451 48.2214 57.363 49.5082 55.7864 49.5082Z" fill="#1A1A1A"/>
</g>
</svg>
