<svg width="62" height="62" viewBox="0 0 62 62" fill="none" xmlns="http://www.w3.org/2000/svg">
<g id="noun-process-capability-5716638 1">
<path id="Vector" d="M15.6457 23.6272C15.5351 23.4644 15.4935 23.2645 15.53 23.0711C15.5665 22.8778 15.6781 22.7068 15.8404 22.5955L26.6532 15.2175C26.7551 15.1481 26.8728 15.1051 26.9955 15.0924C27.1183 15.0797 27.2422 15.0978 27.3562 15.145L37.6836 19.4341L49.3985 8.67588L47.3444 8.37456C47.2432 8.36604 47.1448 8.33688 47.0553 8.28889C46.9657 8.2409 46.887 8.17508 46.8239 8.09549C46.7608 8.01591 46.7146 7.92424 46.6883 7.82614C46.6619 7.72804 46.6559 7.62559 46.6707 7.52509C46.6855 7.42459 46.7206 7.32818 46.7741 7.24179C46.8275 7.15541 46.8981 7.08088 46.9814 7.0228C47.0647 6.96472 47.1591 6.92432 47.2586 6.90409C47.3582 6.88385 47.4608 6.88422 47.5602 6.90516L51.1525 7.43216H51.158C51.1655 7.43216 51.1729 7.43526 51.1804 7.4365C51.1878 7.43774 51.2114 7.44208 51.2269 7.4458L51.2566 7.45386C51.2696 7.4582 51.2833 7.4613 51.2963 7.46626C51.3093 7.47122 51.318 7.47494 51.3285 7.47928L51.3626 7.49292C51.3744 7.4985 51.385 7.5047 51.3967 7.5109L51.4265 7.5264C51.4389 7.53384 51.4513 7.54252 51.4631 7.55058L51.486 7.56608C51.5255 7.59463 51.562 7.62703 51.5951 7.6628L51.6057 7.67582C51.6175 7.68884 51.6292 7.70248 51.6398 7.71674C51.6503 7.731 51.6522 7.7341 51.6584 7.7434C51.6646 7.7527 51.6733 7.76448 51.6801 7.77564C51.6869 7.7868 51.6925 7.79672 51.6981 7.80726L51.7148 7.83826L51.7297 7.87174L51.7433 7.90398L51.7545 7.93684C51.7582 7.94924 51.7619 7.96102 51.765 7.97342C51.7681 7.98582 51.77 7.99388 51.7725 8.00442C51.7749 8.01496 51.778 8.03046 51.7805 8.04348L51.7842 8.07448C51.7842 8.08812 51.7873 8.10114 51.7886 8.11478C51.7898 8.12842 51.7886 8.13648 51.7886 8.14764C51.7886 8.1588 51.7886 8.17306 51.7886 8.18546C51.7886 8.19786 51.7886 8.21088 51.7886 8.22328C51.7886 8.23568 51.7886 8.24002 51.7886 8.24808L51.3248 12.3457C51.304 12.5267 51.2174 12.6939 51.0816 12.8154C50.9457 12.9369 50.7699 13.0042 50.5876 13.0047C50.5595 13.0048 50.5313 13.0034 50.5033 13.0004C50.3082 12.9781 50.1298 12.8795 50.007 12.7262C49.8842 12.5729 49.8271 12.3773 49.848 12.182L50.0885 10.0591L38.3389 20.8471C38.2346 20.9427 38.1051 21.0065 37.9657 21.0311C37.8264 21.0557 37.6829 21.04 37.5521 20.986L27.156 16.6708L16.678 23.8225C16.5151 23.933 16.3152 23.9745 16.1218 23.9379C15.9284 23.9013 15.7569 23.7896 15.6457 23.6272ZM58.9 49.0732V56.0991C58.9 56.2964 58.8216 56.4856 58.6821 56.6251C58.5425 56.7647 58.3533 56.8431 58.156 56.8431H37.6575C37.4602 56.8431 37.271 56.7647 37.1315 56.6251C36.9919 56.4856 36.9135 56.2964 36.9135 56.0991V50.8855H26.5149C26.5228 50.9557 26.5269 51.0263 26.5273 51.0969C26.5283 51.3419 26.4806 51.5847 26.387 51.8112C26.2935 52.0377 26.1559 52.2433 25.9823 52.4163L24.4528 53.9464C24.1024 54.2957 23.6278 54.4918 23.1331 54.4918C22.6384 54.4918 22.1638 54.2957 21.8134 53.9464L21.408 53.5409C20.6496 53.9688 19.8423 54.3033 19.0036 54.5373V55.1108C19.0029 55.6055 18.8061 56.0798 18.4563 56.4297C18.1064 56.7795 17.6321 56.9763 17.1374 56.977H14.9742C14.4795 56.9763 14.0052 56.7795 13.6553 56.4297C13.3055 56.0798 13.1087 55.6055 13.108 55.1108V54.5379C12.2696 54.3038 11.4625 53.9693 10.7043 53.5416L10.2988 53.947C9.94825 54.296 9.47375 54.4919 8.97913 54.4919C8.4845 54.4919 8.01 54.296 7.65946 53.947L6.12992 52.4163C5.78084 52.0659 5.58484 51.5915 5.58484 51.0969C5.58484 50.6023 5.78084 50.1279 6.12992 49.7775L6.53478 49.3721C6.10738 48.6136 5.77306 47.8063 5.53906 46.9677H4.96618C4.47138 46.9672 3.99699 46.7704 3.64712 46.4206C3.29724 46.0707 3.10047 45.5963 3.09998 45.1015V42.9383C3.10047 42.4435 3.29724 41.9691 3.64712 41.6193C3.99699 41.2694 4.47138 41.0726 4.96618 41.0721H5.53906C5.77323 40.2335 6.10776 39.4262 6.5354 38.6678L6.12992 38.2629C5.78095 37.9123 5.58504 37.4379 5.58504 36.9432C5.58504 36.4486 5.78095 35.9741 6.12992 35.6236L7.65946 34.0928C7.86141 33.8909 8.10736 33.7385 8.37804 33.6476V6.37196C8.37147 6.27042 8.3858 6.16862 8.42014 6.07284C8.45449 5.97707 8.50811 5.88935 8.57769 5.81512C8.64728 5.74089 8.73135 5.68172 8.82471 5.64127C8.91807 5.60083 9.01874 5.57996 9.12049 5.57996C9.22223 5.57996 9.3229 5.60083 9.41626 5.64127C9.50962 5.68172 9.59369 5.74089 9.66328 5.81512C9.73286 5.88935 9.78649 5.97707 9.82083 6.07284C9.85517 6.16862 9.8695 6.27042 9.86294 6.37196V33.7698C10.0227 33.8561 10.1689 33.9653 10.2969 34.094L10.7024 34.4989C11.4607 34.0715 12.2678 33.7372 13.1062 33.5032V32.9303C13.1066 32.562 13.2158 32.2021 13.4201 31.8956C13.6244 31.5892 13.9146 31.35 14.2544 31.2079V28.054C14.2544 27.8567 14.3328 27.6674 14.4723 27.5279C14.6118 27.3884 14.8011 27.31 14.9984 27.31H21.3658C21.5631 27.31 21.7524 27.3884 21.8919 27.5279C22.0314 27.6674 22.1098 27.8567 22.1098 28.054V33.8541C22.4178 33.6522 22.7786 33.5458 23.1469 33.5481C23.5151 33.5504 23.8745 33.6614 24.18 33.8671V22.6997C24.18 22.602 24.1992 22.5052 24.2366 22.4149C24.274 22.3247 24.3288 22.2427 24.3979 22.1736C24.467 22.1045 24.549 22.0497 24.6393 22.0123C24.7295 21.9749 24.8263 21.9557 24.924 21.9557H31.287C31.4844 21.9557 31.6736 22.034 31.8131 22.1736C31.9527 22.3131 32.031 22.5023 32.031 22.6997V49.4006H34.1V25.5814C34.1 25.3841 34.1784 25.1949 34.3179 25.0553C34.4574 24.9158 34.6467 24.8374 34.844 24.8374H41.2083C41.4056 24.8374 41.5948 24.9158 41.7344 25.0553C41.8739 25.1949 41.9523 25.3841 41.9523 25.5814V42.8968C42.3695 42.8115 42.7943 42.7685 43.2202 42.7684H44.02V39.5692C43.0603 38.5697 42.5244 37.2377 42.5244 35.852C42.5244 34.4664 43.0603 33.1344 44.02 32.1348V18.7372C44.02 18.5399 44.0984 18.3507 44.2379 18.2111C44.3774 18.0716 44.5667 17.9932 44.764 17.9932H51.1314C51.3287 17.9932 51.5179 18.0716 51.6575 18.2111C51.797 18.3507 51.8754 18.5399 51.8754 18.7372V32.2173C52.7872 33.2084 53.2933 34.5059 53.2933 35.8526C53.2933 37.1994 52.7872 38.4969 51.8754 39.488V42.7691H52.5995C54.2703 42.7718 55.8718 43.437 57.0529 44.6188C58.2339 45.8006 58.8982 47.4024 58.9 49.0732ZM45.508 19.48V31.038C46.2669 30.6583 47.1051 30.4639 47.9538 30.4709C48.8024 30.4779 49.6373 30.6861 50.3899 31.0783V19.48H45.508ZM44.0101 35.853C44.0101 36.6238 44.2386 37.3773 44.6669 38.0182C45.0951 38.6591 45.7038 39.1586 46.4159 39.4536C47.1281 39.7486 47.9117 39.8258 48.6677 39.6754C49.4237 39.525 50.1181 39.1538 50.6632 38.6088C51.2082 38.0637 51.5794 37.3693 51.7298 36.6133C51.8802 35.8573 51.803 35.0737 51.508 34.3615C51.2131 33.6494 50.7135 33.0407 50.0726 32.6125C49.4317 32.1842 48.6782 31.9556 47.9074 31.9556C46.8741 31.9568 45.8835 32.3678 45.1528 33.0984C44.4222 33.829 44.0112 34.8197 44.0101 35.853ZM45.508 42.7691H50.3874V40.6276C49.6349 41.0191 48.8004 41.2266 47.9521 41.2331C47.104 41.2396 46.2663 41.0448 45.508 40.6648V42.7691ZM43.2214 44.2571C42.6354 44.2566 42.0544 44.3638 41.5071 44.5733L41.4792 44.5844C40.574 44.9365 39.7961 45.5535 39.2472 46.3548C38.6983 47.1561 38.404 48.1044 38.4028 49.0757V55.3588H41.2845V51.9878C41.278 51.8863 41.2923 51.7845 41.3266 51.6887C41.361 51.5929 41.4146 51.5052 41.4842 51.431C41.5538 51.3568 41.6379 51.2976 41.7312 51.2572C41.8246 51.2167 41.9252 51.1958 42.027 51.1958C42.1287 51.1958 42.2294 51.2167 42.3228 51.2572C42.4161 51.2976 42.5002 51.3568 42.5698 51.431C42.6394 51.5052 42.693 51.5929 42.7273 51.6887C42.7617 51.7845 42.776 51.8863 42.7694 51.9878V55.3588H53.0478V51.9878C53.0412 51.8863 53.0556 51.7845 53.0899 51.6887C53.1242 51.5929 53.1779 51.5052 53.2475 51.431C53.317 51.3568 53.4011 51.2976 53.4945 51.2572C53.5878 51.2167 53.6885 51.1958 53.7902 51.1958C53.892 51.1958 53.9927 51.2167 54.086 51.2572C54.1794 51.2976 54.2635 51.3568 54.333 51.431C54.4026 51.5052 54.4562 51.5929 54.4906 51.6887C54.5249 51.7845 54.5393 51.8863 54.5327 51.9878V55.3588H57.4151V49.0732C57.4136 47.7957 56.9054 46.5709 56.0021 45.6676C55.0987 44.7642 53.874 44.2561 52.5964 44.2546L43.2214 44.2571ZM25.663 23.4424V35.3043L25.9823 35.6236C26.3313 35.9741 26.5272 36.4486 26.5272 36.9432C26.5272 37.4379 26.3313 37.9123 25.9823 38.2629L25.5768 38.6678C26.0046 39.4262 26.3391 40.2335 26.5732 41.0721H27.1461C27.6409 41.0726 28.1152 41.2694 28.4651 41.6193C28.815 41.9691 29.0118 42.4435 29.0123 42.9383V45.1015C29.0118 45.5963 28.815 46.0707 28.4651 46.4206C28.1152 46.7704 27.6409 46.9672 27.1461 46.9677H26.5732C26.3391 47.8064 26.0046 48.6137 25.5768 49.3721L25.6054 49.4006H30.5443V23.4424H25.663ZM15.743 28.7967V31.0641H17.1393C17.6341 31.0646 18.1084 31.2613 18.4583 31.6112C18.8082 31.9611 19.005 32.4355 19.0055 32.9303V33.5032C19.5604 33.6581 20.1019 33.8573 20.6249 34.099V28.7967H15.743ZM25.043 51.0969C25.0433 51.047 25.0337 50.9975 25.0148 50.9513C24.9958 50.9051 24.9679 50.8631 24.9327 50.8278L24.118 50.0125C23.9986 49.8928 23.9236 49.7361 23.9052 49.568C23.8869 49.4 23.9262 49.2307 24.0169 49.0881C24.6088 48.1618 25.0327 47.1384 25.2693 46.065C25.3061 45.9001 25.3979 45.7526 25.5296 45.6467C25.6613 45.5409 25.8251 45.4831 25.9941 45.4828H27.1467C27.2473 45.4813 27.3434 45.4407 27.4145 45.3695C27.4856 45.2983 27.5261 45.2021 27.5274 45.1015V42.9383C27.5261 42.8378 27.4855 42.7417 27.4144 42.6706C27.3433 42.5994 27.2472 42.5589 27.1467 42.5576H25.9935C25.8244 42.5573 25.6605 42.4994 25.5288 42.3934C25.3971 42.2875 25.3053 42.1399 25.2687 41.9748C25.0319 40.9016 24.6079 39.8785 24.0163 38.9523C23.9254 38.8097 23.8858 38.6403 23.9041 38.4722C23.9223 38.304 23.9973 38.1471 24.1167 38.0273L24.932 37.2126C25.0028 37.1408 25.0425 37.044 25.0425 36.9432C25.0425 36.8424 25.0028 36.7456 24.932 36.6738L23.4025 35.1468C23.3307 35.076 23.2339 35.0363 23.1331 35.0363C23.0323 35.0363 22.9355 35.076 22.8637 35.1468L22.0484 35.959C21.9287 36.0783 21.772 36.1534 21.6039 36.1717C21.4359 36.1901 21.2666 36.1507 21.124 36.06C20.1977 35.4682 19.1743 35.0442 18.1009 34.8076C17.9359 34.7709 17.7883 34.679 17.6825 34.5471C17.5766 34.4153 17.5189 34.2513 17.5187 34.0822V32.9303C17.5174 32.8295 17.4768 32.7333 17.4056 32.6621C17.3344 32.5908 17.2381 32.5503 17.1374 32.549H14.9742C14.8736 32.5504 14.7775 32.5911 14.7064 32.6623C14.6353 32.7335 14.5948 32.8297 14.5935 32.9303V34.0822C14.5934 34.2513 14.5356 34.4153 14.4298 34.5471C14.324 34.679 14.1764 34.7709 14.0114 34.8076C12.9378 35.044 11.9144 35.468 10.9882 36.06C10.8456 36.1507 10.6763 36.1901 10.5083 36.1717C10.3403 36.1534 10.1835 36.0783 10.0638 35.959L9.24852 35.1468C9.17648 35.0765 9.0798 35.0371 8.97913 35.0371C8.87845 35.0371 8.78177 35.0765 8.70974 35.1468L7.1802 36.6763C7.10943 36.7481 7.06976 36.8449 7.06976 36.9457C7.06976 37.0465 7.10943 37.1433 7.1802 37.2151L7.99798 38.0273C8.11738 38.1471 8.19239 38.304 8.21065 38.4722C8.22891 38.6403 8.18932 38.8097 8.09842 38.9523C7.50657 39.8784 7.08262 40.9016 6.84602 41.9748C6.80937 42.14 6.71754 42.2877 6.58567 42.3936C6.4538 42.4996 6.28977 42.5574 6.12062 42.5576H4.96618C4.86555 42.5589 4.76941 42.5994 4.69819 42.6705C4.62698 42.7416 4.58632 42.8377 4.58488 42.9383V45.1015C4.58632 45.2022 4.62695 45.2983 4.69815 45.3695C4.76935 45.4407 4.8655 45.4814 4.96618 45.4828H6.11814C6.2872 45.483 6.45117 45.5407 6.58303 45.6466C6.71488 45.7524 6.80676 45.9 6.84354 46.065C7.08029 47.1384 7.50423 48.1617 8.09594 49.0881C8.1866 49.2307 8.22599 49.4 8.20763 49.568C8.18926 49.7361 8.11422 49.8928 7.99488 50.0125L7.1802 50.8278C7.10947 50.8995 7.06981 50.9962 7.06981 51.0969C7.06981 51.1976 7.10947 51.2943 7.1802 51.366L8.70974 52.8961C8.78154 52.9669 8.87831 53.0066 8.97913 53.0066C9.07994 53.0066 9.17671 52.9669 9.24852 52.8961L10.0638 52.0808C10.1835 51.9615 10.3403 51.8865 10.5083 51.8681C10.6763 51.8497 10.8456 51.8891 10.9882 51.9798C11.9147 52.5719 12.9383 52.9961 14.012 53.2328C14.1769 53.2695 14.3244 53.3613 14.4302 53.4931C14.536 53.6248 14.5938 53.7886 14.5942 53.9576V55.1108C14.5954 55.2113 14.636 55.3074 14.7071 55.3785C14.7782 55.4496 14.8743 55.4902 14.9748 55.4915H17.138C17.2387 55.4903 17.3349 55.4499 17.4062 55.3787C17.4774 55.3076 17.518 55.2114 17.5193 55.1108V53.9576C17.5196 53.7886 17.5775 53.6248 17.6833 53.4931C17.7891 53.3613 17.9366 53.2695 18.1015 53.2328C19.175 52.9961 20.1984 52.5719 21.1246 51.9798C21.2673 51.8891 21.4365 51.8497 21.6046 51.8681C21.7726 51.8865 21.9293 51.9615 22.049 52.0808L22.8643 52.8961C22.9365 52.9662 23.0331 53.0053 23.1337 53.0053C23.2343 53.0053 23.3309 52.9662 23.4031 52.8961L24.9327 51.3666C24.9678 51.3311 24.9956 51.289 25.0144 51.2427C25.0333 51.1964 25.0434 51.1469 25.043 51.0969ZM36.9148 49.4006V49.0732C36.9159 47.8903 37.2494 46.7315 37.8773 45.729C38.5052 44.7264 39.4023 43.9206 40.4661 43.4033V26.3242H35.5843V49.4006H36.9148ZM22.9474 44.0202C22.9496 44.9979 22.7433 45.9647 22.3423 46.8563C21.9412 47.7479 21.3546 48.5437 20.6217 49.1907C19.8887 49.8376 19.0262 50.3208 18.0917 50.6081C17.1572 50.8953 16.1722 50.9799 15.2024 50.8563C15.0955 50.8874 14.983 50.8937 14.8734 50.8749C14.7637 50.8561 14.6598 50.8127 14.5694 50.7478C13.3009 50.4674 12.1375 49.8341 11.2135 48.921C10.2894 48.0079 9.64227 46.8522 9.34673 45.5872C9.0512 44.3221 9.11929 42.9993 9.54315 41.7713C9.96702 40.5433 10.7294 39.4602 11.7423 38.6468C12.7553 37.8334 13.9775 37.3229 15.2681 37.1742C16.5586 37.0255 17.8649 37.2447 19.0363 37.8064C20.2077 38.3681 21.1964 39.2496 21.8884 40.349C22.5804 41.4484 22.9475 42.7211 22.9474 44.0202ZM14.2563 49.1166V38.9232C13.2017 39.2952 12.2885 39.9852 11.6425 40.898C10.9965 41.8109 10.6497 42.9016 10.6497 44.0199C10.6497 45.1382 10.9965 46.2289 11.6425 47.1418C12.2885 48.0546 13.2017 48.7446 14.2563 49.1166ZM21.4619 44.0202C21.4604 42.5869 20.8904 41.2127 19.877 40.1992C18.8635 39.1856 17.4894 38.6155 16.0561 38.6138C15.9501 38.6138 15.8459 38.6175 15.7412 38.6237V49.4161C15.8459 49.4223 15.9501 49.426 16.0561 49.426C17.4894 49.4245 18.8635 48.8545 19.8769 47.841C20.8904 46.8276 21.4604 45.4535 21.4619 44.0202Z" fill="#1A1A1A" stroke="#1A1A1A" stroke-width="0.4"/>
</g>
</svg>
