<svg width="67" height="62" viewBox="0 0 67 62" fill="none" xmlns="http://www.w3.org/2000/svg">
<g id="noun-education-6298808 1">
<path id="Vector" d="M59.1484 57.7988H14.6288C11.5472 57.7988 8.59188 56.538 6.41289 54.2937C4.23391 52.0494 3.00977 49.0054 3.00977 45.8315C3.00977 42.6575 4.23391 39.6136 6.41289 37.3693C8.59188 35.125 11.5472 33.8641 14.6288 33.8641H59.1484C59.4261 33.8641 59.6924 33.9777 59.8887 34.18C60.085 34.3822 60.1953 34.6564 60.1953 34.9424V56.7206C60.1953 57.0065 60.085 57.2808 59.8887 57.483C59.6924 57.6852 59.4261 57.7988 59.1484 57.7988ZM14.6288 36.0207C12.1025 36.0207 9.67973 37.0543 7.8934 38.8942C6.10707 40.7341 5.10352 43.2295 5.10352 45.8315C5.10352 48.4335 6.10707 50.9289 7.8934 52.7688C9.67973 54.6087 12.1025 55.6423 14.6288 55.6423H58.1016V36.0207H14.6288Z" fill="black"/>
<path id="Vector_2" d="M59.1487 53.2391H14.629C13.6771 53.2524 12.7322 53.0707 11.8491 52.7047C10.966 52.3387 10.1622 51.7956 9.48458 51.1069C8.80693 50.4183 8.26885 49.5979 7.90159 48.6933C7.53433 47.7888 7.34521 46.818 7.34521 45.8376C7.34521 44.8571 7.53433 43.8864 7.90159 42.9818C8.26885 42.0772 8.80693 41.2568 9.48458 40.5682C10.1622 39.8796 10.966 39.3365 11.8491 38.9704C12.7322 38.6044 13.6771 38.4227 14.629 38.436H59.1487C59.4263 38.436 59.6926 38.5496 59.8889 38.7518C60.0852 38.954 60.1955 39.2283 60.1955 39.5142V52.1609C60.1955 52.4469 60.0852 52.7211 59.8889 52.9233C59.6926 53.1255 59.4263 53.2391 59.1487 53.2391ZM14.629 40.5871C13.9534 40.576 13.2824 40.7034 12.655 40.962C12.0277 41.2205 11.4566 41.6051 10.975 42.0933C10.4934 42.5814 10.1109 43.1634 9.84984 43.8053C9.58876 44.4472 9.4543 45.1362 9.4543 45.8322C9.4543 46.5281 9.58876 47.2171 9.84984 47.859C10.1109 48.5009 10.4934 49.0829 10.975 49.5711C11.4566 50.0592 12.0277 50.4438 12.655 50.7024C13.2824 50.961 13.9534 51.0884 14.629 51.0772H58.1018V40.5871H14.629Z" fill="black"/>
<path id="Vector_3" d="M59.1487 46.9043H22.3955C22.1179 46.9043 21.8516 46.7907 21.6553 46.5885C21.4589 46.3863 21.3486 46.112 21.3486 45.8261C21.3486 45.5401 21.4589 45.2658 21.6553 45.0636C21.8516 44.8614 22.1179 44.7478 22.3955 44.7478H59.1487C59.4263 44.7478 59.6926 44.8614 59.8889 45.0636C60.0853 45.2658 60.1955 45.5401 60.1955 45.8261C60.1955 46.112 60.0853 46.3863 59.8889 46.5885C59.6926 46.7907 59.4263 46.9043 59.1487 46.9043Z" fill="black"/>
<g id="296822248">
<path id="Vector_4" d="M33.8167 23.1961C33.7149 23.1962 33.6135 23.1812 33.5158 23.1517L5.01982 14.3274C4.80445 14.2606 4.61569 14.1241 4.48152 13.9382C4.34735 13.7522 4.2749 13.5267 4.2749 13.295C4.2749 13.0633 4.34735 12.8378 4.48152 12.6518C4.61569 12.4659 4.80445 12.3294 5.01982 12.2626L33.5158 3.43835C33.7121 3.37765 33.9214 3.37765 34.1177 3.43835L62.6137 12.2653C62.829 12.3321 63.0178 12.4686 63.152 12.6545C63.2861 12.8405 63.3586 13.066 63.3586 13.2977C63.3586 13.5294 63.2861 13.7549 63.152 13.9409C63.0178 14.1268 62.829 14.2633 62.6137 14.3301L34.1177 23.1517C34.02 23.1812 33.9186 23.1962 33.8167 23.1961ZM8.95346 13.295L33.8167 20.9924L58.68 13.295L33.8167 5.59622L8.95346 13.295Z" fill="black"/>
</g>
<g id="296820456">
<path id="Vector_5" d="M60.0983 26.8406C59.3286 26.8406 58.5762 26.6055 57.9362 26.1651C57.2962 25.7246 56.7973 25.0986 56.5028 24.3661C56.2082 23.6337 56.1312 22.8277 56.2813 22.0502C56.4315 21.2726 56.8021 20.5584 57.3464 19.9978C57.8907 19.4372 58.5841 19.0554 59.3391 18.9008C60.094 18.7461 60.8765 18.8255 61.5876 19.1289C62.2987 19.4322 62.9066 19.946 63.3342 20.6052C63.7618 21.2644 63.9901 22.0394 63.9901 22.8322C63.989 23.8949 63.5787 24.9139 62.849 25.6654C62.1194 26.4169 61.1301 26.8395 60.0983 26.8406ZM60.0983 20.9816C59.7426 20.9816 59.395 21.0902 59.0992 21.2938C58.8035 21.4973 58.5731 21.7867 58.437 22.1251C58.301 22.4636 58.2655 22.836 58.3349 23.1953C58.4044 23.5546 58.5758 23.8846 58.8274 24.1435C59.079 24.4024 59.3995 24.5787 59.7483 24.65C60.0972 24.7213 60.4588 24.6844 60.7873 24.5441C61.1158 24.4037 61.3965 24.1661 61.5939 23.8614C61.7913 23.5567 61.8966 23.1985 61.8963 22.8322C61.8956 22.3414 61.7059 21.8709 61.3688 21.5239C61.0318 21.177 60.5748 20.982 60.0983 20.9816Z" fill="black"/>
</g>
<path id="Vector_6" d="M60.0986 20.9816C59.821 20.9816 59.5547 20.868 59.3584 20.6658C59.1621 20.4636 59.0518 20.1893 59.0518 19.9033V13.981C59.0518 13.695 59.1621 13.4207 59.3584 13.2185C59.5547 13.0163 59.821 12.9027 60.0986 12.9027C60.3763 12.9027 60.6426 13.0163 60.8389 13.2185C61.0352 13.4207 61.1455 13.695 61.1455 13.981V19.9033C61.1455 20.1893 61.0352 20.4636 60.8389 20.6658C60.6426 20.868 60.3763 20.9816 60.0986 20.9816Z" fill="black"/>
<path id="Vector_7" d="M53.6733 36.0221C53.3957 36.0221 53.1294 35.9085 52.9331 35.7063C52.7368 35.504 52.6265 35.2298 52.6265 34.9438V15.9705C52.6265 15.6845 52.7368 15.4102 52.9331 15.208C53.1294 15.0058 53.3957 14.8922 53.6733 14.8922C53.951 14.8922 54.2173 15.0058 54.4136 15.208C54.6099 15.4102 54.7202 15.6845 54.7202 15.9705V34.9438C54.7202 35.2298 54.6099 35.504 54.4136 35.7063C54.2173 35.9085 53.951 36.0221 53.6733 36.0221Z" fill="black"/>
<path id="Vector_8" d="M13.96 36.0436C13.6823 36.0436 13.416 35.93 13.2197 35.7278C13.0234 35.5256 12.9131 35.2514 12.9131 34.9654V15.9705C12.9131 15.6845 13.0234 15.4102 13.2197 15.208C13.416 15.0058 13.6823 14.8922 13.96 14.8922C14.2376 14.8922 14.5039 15.0058 14.7002 15.208C14.8965 15.4102 15.0068 15.6845 15.0068 15.9705V34.9654C15.0068 35.2514 14.8965 35.5256 14.7002 35.7278C14.5039 35.93 14.2376 36.0436 13.96 36.0436Z" fill="black"/>
<path id="Vector_9" d="M62.8842 32.4179H57.3162C57.1653 32.418 57.0162 32.3844 56.8791 32.3196C56.7419 32.2547 56.62 32.1601 56.5217 32.0422C56.4234 31.9243 56.351 31.7859 56.3095 31.6365C56.268 31.4871 56.2583 31.3302 56.2811 31.1766L57.2167 24.893C57.2779 24.6298 57.433 24.3999 57.6512 24.249C57.8693 24.098 58.1346 24.0372 58.3944 24.0784C58.6541 24.1197 58.8893 24.26 59.0532 24.4716C59.2171 24.6832 59.2977 24.9505 59.2791 25.2205L58.5279 30.2614H61.6607L60.9096 25.2205C60.8674 24.9378 60.936 24.6494 61.1003 24.4187C61.2646 24.1881 61.5112 24.0341 61.7857 23.9907C62.0602 23.9472 62.3402 24.0179 62.5642 24.1871C62.7881 24.3564 62.9376 24.6103 62.9798 24.893L63.9154 31.1766C63.9382 31.3302 63.9286 31.4871 63.887 31.6365C63.8455 31.7859 63.7731 31.9243 63.6748 32.0422C63.5765 32.1601 63.4546 32.2547 63.3174 32.3196C63.1803 32.3844 63.0312 32.418 62.8803 32.4179H62.8842Z" fill="black"/>
</g>
</svg>
