<svg width="61" height="61" viewBox="0 0 61 61" fill="none" xmlns="http://www.w3.org/2000/svg">
<g id="Icon address">
<rect id="Rectangle 108" width="61" height="61" rx="30" fill="url(#paint0_linear_359_1441)"/>
<g id="Group 1009">
<path id="Vector" d="M30.4999 27.3162C31.5304 27.3162 32.5378 27.0199 33.3947 26.4647C34.2516 25.9095 34.9194 25.1204 35.3138 24.1971C35.7082 23.2739 35.8114 22.258 35.6103 21.2779C35.4093 20.2977 34.913 19.3974 34.1843 18.6908C33.4556 17.9842 32.5272 17.503 31.5164 17.308C30.5057 17.1131 29.458 17.2131 28.5059 17.5955C27.5538 17.978 26.74 18.6256 26.1675 19.4565C25.595 20.2874 25.2894 21.2643 25.2894 22.2636C25.2894 23.6036 25.8383 24.8888 26.8155 25.8363C27.7927 26.7839 29.118 27.3162 30.4999 27.3162ZM30.4999 18.8952C31.1869 18.8952 31.8585 19.0927 32.4298 19.4628C33.001 19.833 33.4462 20.359 33.7092 20.9745C33.9721 21.59 34.0409 22.2673 33.9068 22.9207C33.7728 23.5741 33.442 24.1743 32.9562 24.6454C32.4704 25.1165 31.8514 25.4373 31.1776 25.5673C30.5037 25.6972 29.8053 25.6305 29.1706 25.3756C28.5358 25.1206 27.9933 24.6889 27.6116 24.135C27.2299 23.581 27.0262 22.9298 27.0262 22.2636C27.0262 21.3702 27.3922 20.5134 28.0436 19.8817C28.6951 19.25 29.5786 18.8952 30.4999 18.8952Z" fill="white"/>
<path id="Vector_2" d="M34.5989 35.9307L39.0453 26.6675C39.9038 24.975 40.2266 23.0739 39.9732 21.2038C39.7198 19.3337 38.9014 17.5781 37.6211 16.158C36.7373 15.1669 35.644 14.3719 34.4152 13.827C33.1865 13.282 31.8512 13 30.5 13C29.1488 13 27.8135 13.282 26.5848 13.827C25.356 14.3719 24.2627 15.1669 23.3789 16.158C22.0912 17.5792 21.2683 19.3396 21.0147 21.2154C20.7611 23.0912 21.0883 24.9977 21.9547 26.6928L26.4011 35.9559C20.0789 36.5201 14 38.5749 14 42.0528C14 46.1538 22.5018 48.3686 30.5 48.3686C38.4982 48.3686 47 46.1538 47 42.0528C47 38.5749 40.9645 36.5201 34.5989 35.9307ZM24.6642 17.2949C25.3841 16.4759 26.2787 15.8183 27.2862 15.3673C28.2938 14.9163 29.3903 14.6827 30.5 14.6827C31.6097 14.6827 32.7062 14.9163 33.7138 15.3673C34.7213 15.8183 35.6159 16.4759 36.3358 17.2949C37.3878 18.4722 38.0552 19.9261 38.2531 21.472C38.451 23.0179 38.1706 24.586 37.4474 25.977L30.5 40.478L23.5526 25.977C22.8306 24.5857 22.5508 23.0179 22.7487 21.4722C22.9466 19.9266 23.6132 18.4727 24.6642 17.2949ZM30.5 46.6844C22.0503 46.6844 15.7368 44.2423 15.7368 42.0528C15.7368 40.2759 20.0789 38.1033 27.1826 37.5559L29.7097 42.8275C29.7788 42.9745 29.8901 43.0992 30.0302 43.1866C30.1703 43.274 30.3334 43.3205 30.5 43.3205C30.6666 43.3205 30.8297 43.274 30.9698 43.1866C31.11 43.0992 31.2212 42.9745 31.2903 42.8275L33.8174 37.5559C40.9211 38.1033 45.2632 40.2759 45.2632 42.0528C45.2632 44.2423 38.9497 46.6844 30.5 46.6844Z" fill="white"/>
</g>
</g>
<defs>
<linearGradient id="paint0_linear_359_1441" x1="0" y1="30.5" x2="61" y2="30.5" gradientUnits="userSpaceOnUse">
<stop stop-color="#FBC2EB"/>
<stop offset="1" stop-color="#A6C1EE"/>
</linearGradient>
</defs>
</svg>
