<svg width="25" height="25" viewBox="0 0 25 25" fill="none" xmlns="http://www.w3.org/2000/svg">
<circle cx="12.5585" cy="12.4482" r="12.4482" fill="#B080FF"/>
<path d="M9.33191 13.2558V16.4831H7.71826V18.0967H10.1387V19.7104H11.7524V18.0967H13.366V19.7104H14.9797V18.0556C16.5675 17.8547 17.8036 16.5105 17.8036 14.8694C17.8036 13.8044 17.2791 12.8653 16.4804 12.2771C17.0695 11.6768 17.3997 10.8695 17.4002 10.0285C17.4002 8.52937 16.3682 7.27637 14.9797 6.91572V5.1875H13.366V6.80115H11.7524V5.1875H10.1387V6.80115H7.71826V8.4148H9.33191V13.2558ZM14.5763 16.4831H10.9456V13.2558H14.5763C15.4662 13.2558 16.1899 13.9795 16.1899 14.8694C16.1899 15.7593 15.4662 16.4831 14.5763 16.4831ZM10.9456 8.4148H14.1729C15.0628 8.4148 15.7865 9.13853 15.7865 10.0285C15.7865 10.9184 15.0628 11.6421 14.1729 11.6421H10.9456V8.4148Z" fill="white"/>
</svg>
