<svg width="26" height="26" viewBox="0 0 26 26" fill="none" xmlns="http://www.w3.org/2000/svg">
<rect x="0.186523" y="0.422852" width="25" height="25" rx="4" fill="#FF9B2E"/>
<g clip-path="url(#clip0_342_529)">
<path fill-rule="evenodd" clip-rule="evenodd" d="M14.9001 12.1923V13.2549C14.9002 13.2942 14.8927 13.3331 14.878 13.3693C14.8632 13.4056 14.8415 13.4385 14.8142 13.466L14.3808 13.9083C14.3539 13.9359 14.3218 13.9577 14.2866 13.9726C14.2514 13.9875 14.2136 13.9952 14.1754 13.9951H13.4496C13.4111 13.9952 13.3729 13.9874 13.3374 13.9721C13.3019 13.9569 13.2697 13.9346 13.2427 13.9065L12.8093 13.4643C12.7823 13.4368 12.761 13.4042 12.7464 13.3683C12.7318 13.3323 12.7243 13.2938 12.7244 13.2549V12.1923H7.62763C7.27478 12.1925 6.9268 12.1083 6.6117 11.9462V14.6326C6.71772 14.6236 6.82488 14.619 6.93318 14.6188C7.9146 14.6189 8.85856 15.0034 9.57023 15.693C10.2819 16.3826 10.707 17.3247 10.7577 18.3248H21.0127V11.9462C20.6976 12.1083 20.3495 12.1926 19.9966 12.1923H14.9001ZM13.3041 12.1923H14.3202V13.1322L14.0542 13.4025H13.5699L13.305 13.1322V12.1923H13.3041ZM9.38475 6.65726H9.88445V5.19872C9.88445 5.12015 9.91504 5.0448 9.96948 4.98924C10.0239 4.93369 10.0978 4.90248 10.1748 4.90248H17.4497C17.4878 4.90245 17.5256 4.91009 17.5608 4.92497C17.5961 4.93985 17.6281 4.96166 17.6551 4.98918C17.6821 5.01669 17.7035 5.04935 17.7181 5.08531C17.7327 5.12126 17.7402 5.1598 17.7402 5.19872V6.65726H18.2399V4.92303C18.2392 4.78251 18.1842 4.64795 18.0868 4.54861C17.9895 4.44927 17.8576 4.39319 17.7199 4.39258H9.90459C9.76692 4.39324 9.63507 4.44934 9.53772 4.54868C9.44038 4.64801 9.3854 4.78255 9.38475 4.92303V6.65726ZM21.1412 7.24995H6.48269C6.33803 7.25056 6.19947 7.30945 6.09716 7.41381C5.99485 7.51817 5.93709 7.65954 5.93644 7.80715V9.87408C5.93804 10.3312 6.11671 10.7692 6.43349 11.0924C6.75027 11.4156 7.17945 11.598 7.62744 11.5996H19.9964C20.4444 11.598 20.8736 11.4156 21.1904 11.0924C21.5072 10.7692 21.6858 10.3312 21.6874 9.87408V7.80715C21.6869 7.65951 21.6292 7.51808 21.5268 7.4137C21.4245 7.30932 21.2859 7.25046 21.1412 7.24995ZM9.23047 16.1825C9.76187 16.7249 10.0925 17.4386 10.166 18.202C10.2395 18.9653 10.0514 19.731 9.63368 20.3687C9.21595 21.0064 8.59447 21.4765 7.87512 21.699C7.15577 21.9215 6.38307 21.8826 5.68868 21.589C4.99428 21.2953 4.42115 20.765 4.06695 20.0885C3.71274 19.412 3.59936 18.6311 3.74615 17.8789C3.89293 17.1266 4.29078 16.4496 4.87191 15.9631C5.45305 15.4766 6.18151 15.2108 6.93318 15.2109C7.35991 15.2104 7.78254 15.2958 8.17678 15.4625C8.57103 15.6291 8.92912 15.8736 9.23047 16.1819V16.1825ZM7.22369 20.8272V21.1023C7.22175 21.1796 7.1903 21.253 7.13605 21.307C7.0818 21.361 7.00904 21.3912 6.93327 21.3912C6.85751 21.3912 6.78475 21.361 6.7305 21.307C6.67624 21.253 6.6448 21.1796 6.64286 21.1023V20.8272C6.43387 20.7629 6.25066 20.6318 6.12025 20.4531C5.98984 20.2745 5.91914 20.0579 5.91858 19.8351V19.4914C5.91858 19.4128 5.94917 19.3375 6.00361 19.2819C6.05806 19.2263 6.1319 19.1951 6.2089 19.1951C6.2859 19.1951 6.35974 19.2263 6.41419 19.2819C6.46863 19.3375 6.49922 19.4128 6.49922 19.4914V19.8351C6.49972 19.9524 6.5456 20.0647 6.62687 20.1477C6.70815 20.2306 6.81824 20.2774 6.93318 20.2779C7.04812 20.2774 7.15821 20.2306 7.23948 20.1477C7.32076 20.0647 7.36664 19.9524 7.36714 19.8351V19.3972C7.36938 19.3245 7.35263 19.2525 7.31861 19.1885C7.28458 19.1246 7.23451 19.0711 7.17353 19.0334L6.38218 18.5173C6.2393 18.426 6.1217 18.299 6.04055 18.1482C5.95941 17.9974 5.91742 17.8279 5.91858 17.6559V17.218C5.91914 16.9952 5.98984 16.7786 6.12025 16.5999C6.25066 16.4213 6.43387 16.2902 6.64286 16.2259V15.9508C6.6448 15.8735 6.67624 15.8 6.7305 15.7461C6.78475 15.6921 6.85751 15.6619 6.93327 15.6619C7.00904 15.6619 7.0818 15.6921 7.13605 15.7461C7.1903 15.8 7.22175 15.8735 7.22369 15.9508V16.2259C7.43263 16.2903 7.61579 16.4214 7.74619 16.6C7.87658 16.7786 7.94731 16.9953 7.94797 17.218V17.5617C7.94603 17.639 7.91458 17.7124 7.86033 17.7664C7.80608 17.8204 7.73332 17.8506 7.65755 17.8506C7.58179 17.8506 7.50903 17.8204 7.45478 17.7664C7.40052 17.7124 7.36908 17.639 7.36714 17.5617V17.218C7.36714 17.1005 7.32142 16.9879 7.24003 16.9048C7.15865 16.8218 7.04827 16.7752 6.93318 16.7752C6.81809 16.7752 6.70771 16.8218 6.62632 16.9048C6.54494 16.9879 6.49922 17.1005 6.49922 17.218V17.6559C6.49706 17.7286 6.51386 17.8006 6.54791 17.8645C6.58196 17.9284 6.63204 17.982 6.69302 18.0197L7.48418 18.5358C7.62709 18.627 7.74473 18.7541 7.82591 18.9049C7.90709 19.0557 7.94911 19.2251 7.94797 19.3972V19.8351C7.94731 20.0578 7.87658 20.2745 7.74619 20.4531C7.61579 20.6317 7.43263 20.7628 7.22369 20.8272Z" fill="white"/>
</g>
<defs>
<clipPath id="clip0_342_529">
<rect width="19" height="19" fill="white" transform="translate(3.18652 3.42285)"/>
</clipPath>
</defs>
</svg>
