<svg width="49" height="48" viewBox="0 0 49 48" fill="none" xmlns="http://www.w3.org/2000/svg">
<circle cx="24.3903" cy="23.9999" r="23.9471" fill="#192844"/>
<g clip-path="url(#clip0_290_626)">
<path d="M17.278 14.35C17.1136 14.1735 16.9153 14.032 16.695 13.9338C16.4747 13.8356 16.2368 13.7829 15.9957 13.7786C15.7545 13.7743 15.515 13.8187 15.2914 13.909C15.0677 13.9994 14.8646 14.1338 14.694 14.3044C14.5235 14.4749 14.389 14.6781 14.2987 14.9017C14.2084 15.1253 14.164 15.3649 14.1682 15.606C14.1725 15.8472 14.2253 16.085 14.3235 16.3053C14.4216 16.5256 14.5631 16.7239 14.7396 16.8884L19.7326 21.8837C20.3441 22.4956 21.0703 22.9809 21.8694 23.3121C22.6686 23.6432 23.5252 23.8137 24.3903 23.8137C25.2554 23.8137 26.112 23.6432 26.9112 23.3121C27.7104 22.9809 28.4365 22.4956 29.048 21.8837L34.041 16.8896C34.3683 16.551 34.5496 16.0974 34.5457 15.6265C34.5418 15.1555 34.3532 14.705 34.0203 14.3718C33.6875 14.0387 33.2371 13.8496 32.7662 13.8452C32.2953 13.8409 31.8415 14.0218 31.5026 14.3488L26.5072 19.3441C26.2293 19.6222 25.8992 19.8427 25.536 19.9932C25.1728 20.1437 24.7835 20.2212 24.3903 20.2212C23.9971 20.2212 23.6078 20.1437 23.2446 19.9932C22.8814 19.8427 22.5513 19.6222 22.2734 19.3441L17.2792 14.3488L17.278 14.35ZM17.278 33.6514C16.9375 33.9686 16.4872 34.1413 16.0219 34.1331C15.5566 34.1249 15.1127 33.9364 14.7836 33.6073C14.4546 33.2783 14.2661 32.8343 14.2579 32.369C14.2496 31.9037 14.4224 31.4534 14.7396 31.113L19.7326 26.1176C20.3441 25.5057 21.0703 25.0204 21.8694 24.6892C22.6686 24.3581 23.5252 24.1877 24.3903 24.1877C25.2554 24.1877 26.112 24.3581 26.9112 24.6892C27.7104 25.0204 28.4365 25.5057 29.048 26.1176L34.041 31.1118C34.3683 31.4503 34.5496 31.9039 34.5457 32.3749C34.5418 32.8458 34.3532 33.2963 34.0203 33.6295C33.6875 33.9626 33.2371 34.1517 32.7662 34.1561C32.2953 34.1604 31.8415 33.9796 31.5026 33.6525L26.5072 28.6572C26.2293 28.3791 25.8992 28.1586 25.536 28.0081C25.1728 27.8576 24.7835 27.7802 24.3903 27.7802C23.9971 27.7802 23.6078 27.8576 23.2446 28.0081C22.8814 28.1586 22.5513 28.3791 22.2734 28.6572L17.2792 33.6525L17.278 33.6514Z" fill="white"/>
</g>
<defs>
<clipPath id="clip0_290_626">
<rect width="28.7366" height="28.7366" fill="white" transform="translate(10.022 9.63184)"/>
</clipPath>
</defs>
</svg>
