<svg width="47" height="46" viewBox="0 0 47 46" fill="none" xmlns="http://www.w3.org/2000/svg">
<circle cx="23.3787" cy="22.7498" r="22.7498" fill="#FFEF00"/>
<path fill-rule="evenodd" clip-rule="evenodd" d="M20.3571 16.5728C19.5654 17.1662 19.2076 17.8774 19.2076 18.5413C19.2076 19.2065 19.5654 19.9177 20.3571 20.5126C21.1502 21.1074 22.3112 21.5184 23.6546 21.5184C24.0357 21.5184 24.4012 21.6697 24.6706 21.9392C24.9401 22.2087 25.0915 22.5741 25.0915 22.9552C25.0915 23.3363 24.9401 23.7017 24.6706 23.9712C24.4012 24.2406 24.0357 24.392 23.6546 24.392C21.7494 24.392 19.9692 23.8144 18.6329 22.8115C17.2967 21.8086 16.334 20.3143 16.334 18.5427C16.334 16.7696 17.2967 15.2753 18.6329 14.2724C19.9692 13.271 21.7508 12.6934 23.6546 12.6934C26.6044 12.6934 29.3933 14.1058 30.5025 16.4578C30.583 16.6286 30.6291 16.8136 30.6381 17.0021C30.6471 17.1907 30.6189 17.3792 30.555 17.5568C30.4912 17.7345 30.393 17.8978 30.266 18.0375C30.139 18.1772 29.9858 18.2905 29.815 18.371C29.6443 18.4515 29.4593 18.4975 29.2708 18.5065C29.0822 18.5155 28.8937 18.4873 28.7161 18.4234C28.5384 18.3596 28.3751 18.2614 28.2354 18.1344C28.0957 18.0075 27.9824 17.8542 27.9019 17.6835C27.399 16.6102 25.83 15.567 23.6561 15.567C22.3126 15.567 21.1502 15.9779 20.3571 16.5728Z" fill="black"/>
<path fill-rule="evenodd" clip-rule="evenodd" d="M26.478 29.3358C27.2697 28.7424 27.626 28.0311 27.626 27.3673C27.626 26.7021 27.2697 25.9894 26.4766 25.396C25.6849 24.8011 24.5225 24.3902 23.1805 24.3902C22.7994 24.3902 22.4339 24.2388 22.1645 23.9694C21.895 23.6999 21.7436 23.3345 21.7436 22.9534C21.7436 22.5723 21.895 22.2068 22.1645 21.9374C22.4339 21.6679 22.7994 21.5166 23.1805 21.5166C25.0857 21.5166 26.8659 22.0942 28.2022 23.0971C29.5384 24.1 30.4997 25.5943 30.4997 27.3659C30.4997 29.1375 29.5384 30.6332 28.2007 31.6347C26.8645 32.6376 25.0857 33.2152 23.1805 33.2152C20.2307 33.2152 17.4403 31.8028 16.3325 29.4493C16.17 29.1046 16.1511 28.7095 16.2799 28.3508C16.4087 27.9922 16.6747 27.6994 17.0193 27.5369C17.364 27.3743 17.7592 27.3554 18.1178 27.4842C18.4764 27.613 18.7692 27.879 18.9318 28.2237C19.4375 29.2984 21.0065 30.3416 23.1805 30.3416C24.5239 30.3416 25.6849 29.9306 26.478 29.3358ZM23.3788 9.81934C23.7598 9.81934 24.1253 9.97072 24.3947 10.2402C24.6642 10.5096 24.8156 10.8751 24.8156 11.2562V12.693C24.8156 13.0741 24.6642 13.4395 24.3947 13.709C24.1253 13.9784 23.7598 14.1298 23.3788 14.1298C22.9977 14.1298 22.6322 13.9784 22.3628 13.709C22.0933 13.4395 21.9419 13.0741 21.9419 12.693V11.2562C21.9419 10.8751 22.0933 10.5096 22.3628 10.2402C22.6322 9.97072 22.9977 9.81934 23.3788 9.81934Z" fill="black"/>
<path fill-rule="evenodd" clip-rule="evenodd" d="M23.3787 31.3721C23.7598 31.3721 24.1253 31.5234 24.3947 31.7929C24.6642 32.0624 24.8156 32.4278 24.8156 32.8089V34.2457C24.8156 34.6268 24.6642 34.9923 24.3947 35.2617C24.1253 35.5312 23.7598 35.6826 23.3787 35.6826C22.9977 35.6826 22.6322 35.5312 22.3627 35.2617C22.0933 34.9923 21.9419 34.6268 21.9419 34.2457V32.8089C21.9419 32.4278 22.0933 32.0624 22.3627 31.7929C22.6322 31.5234 22.9977 31.3721 23.3787 31.3721Z" fill="black"/>
</svg>
