<svg width="480" height="228" viewBox="0 0 480 228" fill="none" xmlns="http://www.w3.org/2000/svg">
<path d="M479.5 220C479.5 224.142 476.142 227.5 472 227.5L8 227.5C3.85788 227.5 0.5 224.142 0.5 220L0.5 19.0363C0.5 14.8809 3.87857 11.5176 8.03394 11.5364L218.448 12.4885C220.21 12.4964 221.932 11.9564 223.374 10.9432L235.307 2.55766C237.839 0.77829 241.204 0.737 243.779 2.45372L256.691 11.0615C258.098 11.9996 259.753 12.4966 261.444 12.489L471.966 11.5364C476.121 11.5176 479.5 14.8809 479.5 19.0363L479.5 220Z" stroke="#B080FF"/>
</svg>
