<svg width="61" height="61" viewBox="0 0 61 61" fill="none" xmlns="http://www.w3.org/2000/svg">
<g id="Icon phone">
<rect id="Rectangle 108" width="61" height="61" rx="30" fill="url(#paint0_linear_359_1434)"/>
<path id="Vector" d="M44.3147 43.4155C45.7602 41.9331 45.7602 39.9566 44.3147 38.5122L40.3587 34.5591C39.674 33.837 38.8371 33.4569 37.9242 33.4569C37.0493 33.4569 36.2124 33.837 35.4897 34.5591L33.2074 36.8397C33.0172 36.7257 32.827 36.6497 32.6368 36.5357C32.3705 36.4216 32.1423 36.2696 31.9141 36.1556C29.7839 34.8252 27.8439 33.0387 26.0181 30.7962C25.1051 29.6558 24.4965 28.7056 24.0781 27.7173C24.6487 27.1852 25.2192 26.615 25.7518 26.0829C25.942 25.8929 26.1702 25.6648 26.3604 25.4747C27.0831 24.7526 27.5016 23.8783 27.5016 23.0041C27.5016 22.1299 27.1212 21.2936 26.3604 20.5334L24.4204 18.5569C24.1922 18.3289 23.964 18.1008 23.7738 17.8727C23.3553 17.4166 22.8989 16.9605 22.4424 16.5424C21.7577 15.8582 20.9209 15.4781 20.046 15.4781C19.1711 15.4781 18.3342 15.8582 17.6115 16.5424L15.139 19.013C14.226 19.9253 13.6935 21.0276 13.5794 22.3199C13.4272 24.4105 14.0359 26.349 14.4923 27.6413C15.6335 30.7581 17.3833 33.6849 19.9699 36.8017C23.1271 40.5647 26.8929 43.4915 31.1913 45.5821C32.827 46.3803 35.0332 47.2925 37.5058 47.4446C37.6579 47.4446 37.8101 47.4446 37.9622 47.4446C39.5979 47.4446 41.0053 46.8364 42.0704 45.6581L42.1084 45.6201C42.4888 45.164 42.9073 44.7458 43.3637 44.3277C43.7061 44.0617 44.0104 43.7576 44.3147 43.4155ZM42.0704 42.9974C41.6139 43.4535 41.1194 43.9096 40.701 44.4418C39.9783 45.24 39.1034 45.5821 38.0003 45.5821C37.8861 45.5821 37.772 45.5821 37.6579 45.5821C35.5277 45.392 33.5497 44.5938 32.0282 43.8716C27.958 41.8951 24.4204 39.1204 21.4534 35.5854C19.0189 32.6586 17.3833 29.9219 16.2801 26.9951C15.5954 25.2087 15.3672 23.8023 15.4813 22.51C15.5574 21.6737 15.8997 20.9896 16.4703 20.3814L18.9048 17.9488C19.2472 17.6067 19.6275 17.4166 20.0079 17.4166C20.4644 17.4166 20.8448 17.6827 21.1111 17.9488C21.5675 18.3669 21.9479 18.785 22.4044 19.2411C22.6326 19.4692 22.8608 19.6972 23.0891 19.9253L25.029 21.8638C25.4094 22.2439 25.5996 22.624 25.5996 23.0041C25.5996 23.3842 25.4094 23.7643 25.029 24.1444C24.8389 24.3344 24.6106 24.5625 24.4204 24.7526C23.8118 25.3607 23.2412 25.9309 22.6326 26.501L22.5946 26.539C21.9859 27.1472 22.1001 27.7553 22.2142 28.1354C22.2142 28.1735 22.2142 28.1735 22.2522 28.2115C22.7467 29.4278 23.4695 30.6061 24.5726 31.9745C26.5506 34.4071 28.6427 36.3076 30.925 37.752C31.2294 37.942 31.5337 38.0941 31.7999 38.2461C32.0662 38.3602 32.2944 38.5122 32.5227 38.6262C32.5607 38.6262 32.5607 38.6642 32.5988 38.6642C32.827 38.7783 33.0552 38.8543 33.2834 38.8543C33.854 38.8543 34.2344 38.4742 34.3485 38.3602L36.8211 35.8895C37.0493 35.6614 37.4677 35.3574 37.9242 35.3574C38.3806 35.3574 38.723 35.6614 38.9893 35.8895L42.9453 39.8425C43.8582 40.7548 43.4398 41.591 42.9072 42.1231C42.679 42.4272 42.3747 42.6933 42.0704 42.9974ZM31.1152 20.4574C31.1913 19.9253 31.6858 19.5832 32.2184 19.6972C34.5007 20.0773 36.5548 21.1416 38.1904 22.814C39.8261 24.4865 40.8912 26.539 41.3096 28.7816C41.3857 29.3138 41.0434 29.8079 40.5488 29.8839C40.5108 29.8839 40.4347 29.8839 40.3967 29.8839C39.9402 29.8839 39.5218 29.5418 39.4457 29.0857C39.1414 27.2232 38.2285 25.4747 36.8591 24.1444C35.4897 22.776 33.778 21.9018 31.9141 21.5597C31.3435 21.4837 31.0011 20.9896 31.1152 20.4574ZM45.57 28.8196C44.9994 25.4747 43.4018 22.4339 41.0053 20.0013C38.5708 17.5687 35.5277 16.0102 32.1803 15.4401C31.6478 15.3641 31.3054 14.8699 31.4196 14.3378C31.5337 13.8057 31.9901 13.4636 32.5227 13.5776C36.2124 14.1858 39.6359 15.9342 42.3367 18.6329C45.0374 21.3316 46.8252 24.7526 47.4339 28.4775C47.5099 29.0097 47.1676 29.5038 46.6731 29.5798C46.635 29.5798 46.559 29.5798 46.5209 29.5798C46.0645 29.6178 45.646 29.2757 45.57 28.8196Z" fill="white"/>
</g>
<defs>
<linearGradient id="paint0_linear_359_1434" x1="0" y1="30.5" x2="61" y2="30.5" gradientUnits="userSpaceOnUse">
<stop stop-color="#FBC2EB"/>
<stop offset="1" stop-color="#A6C1EE"/>
</linearGradient>
</defs>
</svg>
