<svg width="48" height="48" viewBox="0 0 48 48" fill="none" xmlns="http://www.w3.org/2000/svg">
<circle cx="23.9471" cy="23.9969" r="23.9471" fill="#192844"/>
<g clip-path="url(#clip0_290_620)">
<path d="M16.8351 14.347C16.6707 14.1706 16.4724 14.029 16.2521 13.9309C16.0318 13.8327 15.794 13.7799 15.5528 13.7757C15.3117 13.7714 15.0721 13.8158 14.8485 13.9061C14.6248 13.9964 14.4217 14.1309 14.2511 14.3014C14.0806 14.472 13.9461 14.6751 13.8558 14.8988C13.7655 15.1224 13.7211 15.362 13.7254 15.6031C13.7296 15.8443 13.7824 16.0821 13.8806 16.3024C13.9787 16.5227 14.1203 16.721 14.2967 16.8854L19.2897 21.8808C19.9013 22.4926 20.6274 22.978 21.4266 23.3091C22.2258 23.6403 23.0824 23.8107 23.9474 23.8107C24.8125 23.8107 25.6691 23.6403 26.4683 23.3091C27.2675 22.978 27.9936 22.4926 28.6052 21.8808L33.5981 16.8866C33.9255 16.548 34.1067 16.0944 34.1028 15.6235C34.099 15.1526 33.9103 14.702 33.5774 14.3689C33.2446 14.0357 32.7942 13.8466 32.3233 13.8423C31.8524 13.838 31.3986 14.0188 31.0597 14.3458L26.0644 19.3412C25.7864 19.6193 25.4564 19.8398 25.0931 19.9903C24.7299 20.1408 24.3406 20.2182 23.9474 20.2182C23.5543 20.2182 23.165 20.1408 22.8017 19.9903C22.4385 19.8398 22.1085 19.6193 21.8305 19.3412L16.8363 14.3458L16.8351 14.347ZM16.8351 33.6484C16.4947 33.9657 16.0443 34.1384 15.5791 34.1302C15.1138 34.122 14.6698 33.9335 14.3407 33.6044C14.0117 33.2753 13.8232 32.8314 13.815 32.3661C13.8068 31.9008 13.9795 31.4505 14.2967 31.11L19.2897 26.1147C19.9013 25.5028 20.6274 25.0174 21.4266 24.6863C22.2258 24.3552 23.0824 24.1847 23.9474 24.1847C24.8125 24.1847 25.6691 24.3552 26.4683 24.6863C27.2675 25.0174 27.9936 25.5028 28.6052 26.1147L33.5981 31.1088C33.9255 31.4474 34.1067 31.901 34.1028 32.3719C34.099 32.8428 33.9103 33.2934 33.5774 33.6266C33.2446 33.9597 32.7942 34.1488 32.3233 34.1531C31.8524 34.1574 31.3986 33.9766 31.0597 33.6496L26.0644 28.6542C25.7864 28.3762 25.4564 28.1556 25.0931 28.0052C24.7299 27.8547 24.3406 27.7772 23.9474 27.7772C23.5543 27.7772 23.165 27.8547 22.8017 28.0052C22.4385 28.1556 22.1085 28.3762 21.8305 28.6542L16.8363 33.6496L16.8351 33.6484Z" fill="white"/>
</g>
<defs>
<clipPath id="clip0_290_620">
<rect width="28.7366" height="28.7366" fill="white" transform="translate(9.5791 9.62891)"/>
</clipPath>
</defs>
</svg>
