<svg width="33" height="32" viewBox="0 0 33 32" fill="none" xmlns="http://www.w3.org/2000/svg">
<path d="M16.5527 32C7.71618 32 0.552734 24.8366 0.552734 16C0.552734 7.16344 7.71618 0 16.5527 0C25.3893 0 32.5527 7.16344 32.5527 16C32.5527 24.8366 25.3893 32 16.5527 32ZM11.8682 16.8097C11.6806 16.5551 11.3249 16.4987 11.0689 16.6873L10.608 17.027C10.3542 17.214 10.3017 17.5736 10.4875 17.8258L14.578 23.3772C14.7653 23.6314 15.0474 23.6169 15.205 23.3503L22.7171 10.6375C22.8761 10.3684 22.7872 10.0217 22.5135 9.85994L22.0205 9.56863C21.7491 9.40825 21.3999 9.49685 21.2382 9.77047L15.0506 20.2418C14.89 20.5136 14.6083 20.5284 14.4201 20.273L11.8682 16.8097Z" fill="url(#paint0_linear_290_659)"/>
<defs>
<linearGradient id="paint0_linear_290_659" x1="0.552734" y1="16" x2="32.5527" y2="16" gradientUnits="userSpaceOnUse">
<stop stop-color="#FBC2EB"/>
<stop offset="1" stop-color="#A6C1EE"/>
</linearGradient>
</defs>
</svg>
