<svg width="47" height="60" viewBox="0 0 47 60" fill="none" xmlns="http://www.w3.org/2000/svg">
<g id="Group">
<path id="Vector" d="M26.8228 12.351C27.4801 12.8456 28.4422 13.2238 29.7568 13.5147C31.0428 13.7959 31.6715 14.116 31.9668 14.339C32.1478 14.4748 32.3193 14.6687 32.3193 15.1439C32.3193 15.4154 32.2622 15.7548 31.8049 16.1233C31.3858 16.4724 30.7761 16.647 30.0045 16.647C29.1662 16.647 28.5279 16.4627 28.0993 16.0942C27.7754 15.813 27.6134 15.5221 27.5944 15.1536C27.5658 14.6202 27.1086 14.2032 26.5846 14.242C26.0607 14.2711 25.6606 14.7366 25.6892 15.2699C25.7463 16.1815 26.1369 16.967 26.8704 17.5876C27.442 18.0725 28.1564 18.3731 28.9947 18.5089V19.7502C28.9947 20.2835 29.4234 20.7199 29.9473 20.7199C30.4713 20.7199 30.8999 20.2835 30.8999 19.7502V18.5283C31.7192 18.4022 32.4241 18.1113 32.9957 17.6458C33.8054 16.9767 34.215 16.1427 34.215 15.1633C34.215 14.1644 33.8244 13.3499 33.0909 12.7971C32.4336 12.3025 31.4715 11.9243 30.1569 11.6334C28.8709 11.3522 28.2422 11.0322 27.9469 10.8091C27.7659 10.6734 27.5944 10.4794 27.5944 10.0042C27.5944 9.73271 27.6516 9.3933 28.1088 9.0248C28.5375 8.66599 29.1376 8.49144 29.9092 8.49144C30.7475 8.49144 31.3858 8.67569 31.8144 9.0442C32.1383 9.32542 32.3003 9.61634 32.3193 9.98485C32.3479 10.5182 32.7956 10.9255 33.3291 10.8964C33.853 10.8673 34.2531 10.4018 34.2245 9.86848C34.1674 8.95692 33.7768 8.17143 33.0433 7.55079C32.4717 7.06592 31.7573 6.7653 30.919 6.62953V5.38826C30.919 4.8549 30.4903 4.41852 29.9664 4.41852C29.4424 4.41852 29.0138 4.8549 29.0138 5.38826V6.61014C28.1945 6.73621 27.4896 7.02713 26.918 7.4926C26.1083 8.16173 25.6987 8.99571 25.6987 9.97515C25.6987 10.9837 26.0893 11.7983 26.8228 12.351Z" fill="white"/>
<path id="Vector_2" d="M29.9665 24.23C36.3203 24.23 41.493 19.0031 41.493 12.5737C41.493 6.14433 36.3203 0.907715 29.9665 0.907715C23.6126 0.907715 18.4399 6.13463 18.4399 12.564C18.4399 18.9934 23.6126 24.23 29.9665 24.23ZM29.9665 2.8472C35.2725 2.8472 39.5878 7.21105 39.5878 12.564C39.5878 17.9267 35.2725 22.2809 29.9665 22.2809C24.6604 22.2809 20.3451 17.917 20.3451 12.564C20.3451 7.21105 24.6604 2.8472 29.9665 2.8472Z" fill="white"/>
<path id="Vector_3" d="M8.70425 36.3616H6.15127V32.1723C6.15127 31.639 5.72259 31.2026 5.19866 31.2026C4.67473 31.2026 4.24606 31.639 4.24606 32.1723V36.3616H1.7026C1.17867 36.3616 0.75 36.798 0.75 37.3314V52.9636C0.75 53.497 1.17867 53.9334 1.7026 53.9334H4.25558V58.1227C4.25558 58.656 4.68426 59.0924 5.20819 59.0924C5.73212 59.0924 6.16079 58.656 6.16079 58.1227V53.9334H8.71377C9.2377 53.9334 9.66638 53.497 9.66638 52.9636V37.3314C9.65685 36.798 9.2377 36.3616 8.70425 36.3616ZM7.75164 51.9939H2.65521V38.3011H7.76117V51.9939H7.75164Z" fill="white"/>
<path id="Vector_4" d="M21.088 27.8077H18.5351V23.6184C18.5351 23.0851 18.1064 22.6487 17.5825 22.6487C17.0585 22.6487 16.6299 23.0851 16.6299 23.6184V27.8077H14.0769C13.5529 27.8077 13.1243 28.2441 13.1243 28.7775V44.4097C13.1243 44.9431 13.5529 45.3795 14.0769 45.3795H16.6299V49.5688C16.6299 50.1021 17.0585 50.5385 17.5825 50.5385C18.1064 50.5385 18.5351 50.1021 18.5351 49.5688V45.3795H21.088C21.612 45.3795 22.0406 44.9431 22.0406 44.4097V28.7775C22.0406 28.2344 21.612 27.8077 21.088 27.8077ZM20.1354 43.44H15.0295V29.7472H20.1354V43.44Z" fill="white"/>
<path id="Vector_5" d="M33.4721 36.3616H30.9191V32.1723C30.9191 31.639 30.4904 31.2026 29.9665 31.2026C29.4426 31.2026 29.0139 31.639 29.0139 32.1723V36.3616H26.4609C25.937 36.3616 25.5083 36.798 25.5083 37.3314V52.9636C25.5083 53.497 25.937 53.9334 26.4609 53.9334H29.0139V58.1227C29.0139 58.656 29.4426 59.0924 29.9665 59.0924C30.4904 59.0924 30.9191 58.656 30.9191 58.1227V53.9334H33.4721C33.996 53.9334 34.4247 53.497 34.4247 52.9636V37.3314C34.4247 36.798 33.996 36.3616 33.4721 36.3616ZM32.5195 51.9939H27.4135V38.3011H32.5195V51.9939Z" fill="white"/>
<path id="Vector_6" d="M45.8461 27.8077H43.3026V23.6184C43.3026 23.0851 42.874 22.6487 42.35 22.6487C41.8261 22.6487 41.3974 23.0851 41.3974 23.6184V27.8077H38.8444C38.3205 27.8077 37.8918 28.2441 37.8918 28.7775V44.4097C37.8918 44.9431 38.3205 45.3795 38.8444 45.3795H41.3974V49.5688C41.3974 50.1021 41.8261 50.5385 42.35 50.5385C42.874 50.5385 43.3026 50.1021 43.3026 49.5688V45.3795H45.8556C46.3795 45.3795 46.8082 44.9431 46.8082 44.4097V28.7775C46.7987 28.2344 46.3795 27.8077 45.8461 27.8077ZM44.8935 43.44H39.7875V29.7472H44.8935V43.44Z" fill="white"/>
</g>
</svg>
