<svg width="64" height="64" viewBox="0 0 64 64" fill="none" xmlns="http://www.w3.org/2000/svg">
<path d="M31.4959 43.4521C37.8019 43.4521 42.9326 38.3214 42.9326 32.0154C42.9326 25.7094 37.8019 20.5788 31.4959 20.5788C25.1899 20.5788 20.0593 25.7094 20.0593 32.0154C20.0593 38.3214 25.1899 43.4521 31.4959 43.4521ZM31.4959 22.2568C36.8773 22.2568 41.2553 26.6348 41.2553 32.0161C41.2553 37.3974 36.8773 41.7754 31.4959 41.7754C26.1146 41.7754 21.7366 37.3974 21.7366 32.0161C21.7366 26.6348 26.1146 22.2568 31.4959 22.2568ZM22.5586 46.8808C24.0379 47.7728 25.6299 48.4321 27.3046 48.8475L28.1473 54.0621C28.2126 54.4688 28.5639 54.7675 28.9753 54.7675H34.0173C34.4286 54.7675 34.7799 54.4688 34.8453 54.0621L35.6879 48.8475C37.3619 48.4321 38.9539 47.7728 40.4339 46.8801L44.7179 49.9728C45.0519 50.2135 45.5106 50.1768 45.8019 49.8855L49.3673 46.3201C49.6586 46.0288 49.6953 45.5694 49.4546 45.2361L46.3619 40.9521C47.2539 39.4728 47.9133 37.8808 48.3286 36.2061L53.5433 35.3634C53.9499 35.2981 54.2486 34.9468 54.2486 34.5354V29.4935C54.2486 29.0821 53.9499 28.7308 53.5433 28.6654L48.3286 27.8228C47.9133 26.1488 47.2539 24.5568 46.3619 23.0768L49.4546 18.7928C49.6953 18.4588 49.6586 17.9994 49.3673 17.7088L45.8019 14.1434C45.5113 13.8528 45.0519 13.8154 44.7179 14.0561L40.4339 17.1488C38.9539 16.2568 37.3619 15.5968 35.6879 15.1821L34.8453 9.96745C34.7799 9.56078 34.4286 9.26212 34.0173 9.26212H28.9753C28.5639 9.26212 28.2126 9.56078 28.1473 9.96745L27.3046 15.1821C25.6306 15.5975 24.0393 16.2568 22.5586 17.1488L18.2746 14.0561C17.9406 13.8154 17.4813 13.8521 17.1906 14.1434L13.6253 17.7088C13.3339 18.0001 13.2973 18.4588 13.5379 18.7928L16.6306 23.0768C15.7386 24.5561 15.0793 26.1481 14.6639 27.8228L9.44928 28.6668C9.04261 28.7321 8.74395 29.0834 8.74395 29.4948V34.5368C8.74395 34.9481 9.04261 35.2994 9.44928 35.3648L14.6639 36.2075C15.0793 37.8815 15.7386 39.4728 16.6313 40.9534L13.5386 45.2374C13.2979 45.5714 13.3346 46.0308 13.6259 46.3215L17.1913 49.8868C17.4826 50.1781 17.9419 50.2148 18.2753 49.9741L22.5586 46.8808ZM15.3166 45.6401L18.3213 41.4781C18.5239 41.1974 18.5333 40.8208 18.3446 40.5308C17.3026 38.9241 16.5726 37.1628 16.1746 35.2954C16.1026 34.9568 15.8299 34.6974 15.4879 34.6421L10.4213 33.8234V30.2101L15.4879 29.3914C15.8299 29.3361 16.1026 29.0768 16.1746 28.7381C16.5726 26.8694 17.3026 25.1081 18.3446 23.5028C18.5333 23.2121 18.5239 22.8361 18.3213 22.5555L15.3166 18.3928L17.8719 15.8375L22.0339 18.8421C22.3146 19.0448 22.6906 19.0541 22.9813 18.8654C24.5879 17.8235 26.3493 17.0934 28.2173 16.6954C28.5559 16.6234 28.8153 16.3508 28.8706 16.0088L29.6893 10.9421H33.3026L34.1213 16.0088C34.1766 16.3508 34.4359 16.6234 34.7746 16.6954C36.6426 17.0928 38.4039 17.8235 40.0106 18.8654C40.3013 19.0541 40.6773 19.0441 40.9579 18.8421L45.1199 15.8375L47.6753 18.3928L44.6706 22.5555C44.4679 22.8361 44.4586 23.2128 44.6473 23.5028C45.6893 25.1088 46.4193 26.8701 46.8173 28.7388C46.8893 29.0774 47.1619 29.3368 47.5039 29.3921L52.5706 30.2108V33.8241L47.5039 34.6428C47.1619 34.6981 46.8893 34.9574 46.8173 35.2961C46.4193 37.1648 45.6893 38.9261 44.6473 40.5321C44.4586 40.8228 44.4679 41.1988 44.6706 41.4795L47.6753 45.6414L45.1199 48.1968L40.9579 45.1921C40.6773 44.9894 40.3006 44.9801 40.0106 45.1688C38.4039 46.2108 36.6426 46.9408 34.7746 47.3388C34.4359 47.4108 34.1766 47.6835 34.1213 48.0255L33.3026 53.0921H29.6893L28.8706 48.0255C28.8153 47.6835 28.5559 47.4108 28.2173 47.3388C26.3486 46.9408 24.5866 46.2108 22.9813 45.1688C22.6906 44.9801 22.3146 44.9894 22.0339 45.1921L17.8719 48.1968L15.3166 45.6401ZM16.0566 54.6761C5.38794 47.4115 1.25194 33.6521 6.07194 21.7441L7.46594 22.5788C7.59928 22.6588 7.74795 22.6981 7.89728 22.6981C8.07328 22.6981 8.24928 22.6428 8.39728 22.5328C8.66995 22.3308 8.79328 21.9841 8.71128 21.6555L7.82461 18.1194C7.71195 17.6701 7.25661 17.3968 6.80728 17.5101L3.27128 18.3968C2.94194 18.4794 2.69528 18.7521 2.64528 19.0875C2.59528 19.4228 2.75261 19.7554 3.04394 19.9301L4.61794 20.8728C-0.652722 33.5648 3.71861 48.3041 15.1126 56.0628C15.2573 56.1615 15.4213 56.2081 15.5839 56.2081C15.8519 56.2081 16.1159 56.0795 16.2779 55.8415C16.5386 55.4588 16.4399 54.9368 16.0566 54.6761ZM6.40061 19.3414L6.59061 20.0994L5.64261 19.5315L6.40061 19.3414ZM55.7053 46.6201C55.3159 46.3695 54.7966 46.4815 54.5459 46.8708C47.6459 57.5841 34.1206 62.1194 22.1833 57.8068L22.9619 56.3388C23.1206 56.0388 23.0833 55.6728 22.8673 55.4114C22.6513 55.1501 22.2986 55.0441 21.9746 55.1441L18.4899 56.2141C18.2773 56.2794 18.0993 56.4268 17.9953 56.6235C17.8913 56.8201 17.8693 57.0501 17.9346 57.2628L19.0046 60.7475C19.1039 61.0715 19.3893 61.3041 19.7273 61.3361C19.7539 61.3388 19.7806 61.3401 19.8066 61.3401C20.1146 61.3401 20.4013 61.1701 20.5473 60.8941L21.3913 59.3028C24.6699 60.5175 28.0653 61.1021 31.4259 61.1021C41.1039 61.1021 50.4899 56.2681 55.9573 47.7801C56.2073 47.3901 56.0953 46.8708 55.7053 46.6201ZM20.0133 58.3188L19.7839 57.5721L20.5306 57.3428L20.0133 58.3188ZM8.52461 15.5381C8.67661 15.6541 8.85528 15.7101 9.03328 15.7101C9.28594 15.7101 9.53528 15.5968 9.70061 15.3801C16.9826 5.84278 29.7619 2.15345 40.9693 6.28145L40.2639 7.87278C40.1266 8.18278 40.1893 8.54545 40.4233 8.79145C40.5846 8.96078 40.8053 9.05212 41.0313 9.05212C41.1326 9.05212 41.2346 9.03345 41.3333 8.99612L44.7346 7.68412C45.1666 7.51745 45.3819 7.03212 45.2153 6.59945L43.9033 3.19812C43.7813 2.88145 43.4806 2.66945 43.1413 2.66145C42.8026 2.65212 42.4913 2.85012 42.3539 3.16012L41.6513 4.74478C35.8406 2.57545 29.6159 2.32345 23.6126 4.01945C17.5706 5.72678 12.1566 9.39945 8.36728 14.3628C8.08595 14.7308 8.15661 15.2574 8.52461 15.5381ZM43.3473 6.42012L42.6186 6.70145L43.0666 5.69145L43.3473 6.42012ZM61.0499 41.3688L59.2639 40.7168C61.0693 34.9568 61.0233 28.8588 59.1233 23.0461C57.2206 17.2248 53.4799 12.0508 48.5886 8.47878C48.2146 8.20545 47.6899 8.28745 47.4166 8.66145C47.1433 9.03545 47.2253 9.56012 47.5993 9.83345C57.0066 16.7041 61.1033 29.0934 57.6859 40.1401L56.2073 39.6001C55.8886 39.4834 55.5313 39.5708 55.3019 39.8208C55.0726 40.0708 55.0159 40.4341 55.1593 40.7421L56.6966 44.0474C56.7906 44.2494 56.9606 44.4054 57.1693 44.4814C57.2626 44.5154 57.3599 44.5321 57.4573 44.5321C57.5786 44.5321 57.6993 44.5061 57.8113 44.4541L61.1166 42.9168C61.4239 42.7734 61.6153 42.4594 61.6013 42.1208C61.5859 41.7821 61.3686 41.4848 61.0499 41.3688ZM57.8639 42.5794L57.5346 41.8708L58.5726 42.2501L57.8639 42.5794Z" fill="#1A1A1A" stroke="#1A1A1A" stroke-width="0.7"/>
</svg>
