<svg width="61" height="57" viewBox="0 0 61 57" fill="none" xmlns="http://www.w3.org/2000/svg">
<g clip-path="url(#clip0_79_9243)">
<path fill-rule="evenodd" clip-rule="evenodd" d="M56.6669 45.2011H7.37791C4.97994 45.2011 3.04688 43.2159 3.04688 40.7533V8.32867C3.04688 5.86604 4.97994 3.88086 7.37791 3.88086H56.6669C59.0649 3.88086 60.9979 5.86604 60.9979 8.32867V40.7533C60.9979 43.2159 59.0159 45.2011 56.6669 45.2011ZM7.37791 5.57287C5.86898 5.57287 4.69446 6.82931 4.69446 8.32867V40.7533C4.69446 42.2526 5.91792 43.5091 7.37791 43.5091H56.6669C58.1758 43.5091 59.3503 42.3029 59.3503 40.7533V8.32867C59.3503 6.77905 58.1269 5.57287 56.6669 5.57287H7.37791Z" fill="#1A1A1A" stroke="#1A1A1A" stroke-width="0.5"/>
<path fill-rule="evenodd" clip-rule="evenodd" d="M40.3152 52.1205C39.989 52.1205 39.6546 51.9279 39.5649 51.5928L36.8733 44.674C36.6857 44.2385 36.9222 43.7526 37.3463 43.56C37.7705 43.3673 38.2435 43.6102 38.4311 44.0458L41.1146 50.9646C41.3022 51.4002 41.0738 51.8776 40.6497 52.0703C40.5518 52.0703 40.4131 52.1205 40.3152 52.1205ZM23.7333 52.1205C23.6355 52.1205 23.5457 52.1205 23.4479 52.0703C23.0237 51.8776 22.8361 51.4002 22.9748 50.9646L25.6664 44.0458C25.854 43.6102 26.3189 43.4092 26.743 43.56C27.1672 43.7526 27.3629 44.2385 27.2161 44.674L24.5327 51.5928C24.3451 51.8776 24.0106 52.1205 23.7333 52.1205Z" fill="#1A1A1A" stroke="#1A1A1A" stroke-width="0.5"/>
<path fill-rule="evenodd" clip-rule="evenodd" d="M60.1517 38.5763H3.84826C3.37519 38.5763 3 38.1909 3 37.7051C3 37.2193 3.37519 36.834 3.84826 36.834H60.1517C60.6248 36.834 61 37.2193 61 37.7051C61 38.1909 60.6248 38.5763 60.1517 38.5763Z" fill="#1A1A1A" stroke="#1A1A1A" stroke-width="0.5"/>
<path fill-rule="evenodd" clip-rule="evenodd" d="M46.3937 52.1202H17.6588C17.1857 52.1202 16.8105 51.7349 16.8105 51.2491C16.8105 50.7632 17.1857 50.3779 17.6588 50.3779H46.3937C46.8668 50.3779 47.242 50.7632 47.242 51.2491C47.242 51.7349 46.8668 52.1202 46.3937 52.1202Z" fill="#1A1A1A" stroke="#1A1A1A" stroke-width="0.5"/>
<path fill-rule="evenodd" clip-rule="evenodd" d="M17.655 34.7061C13.1282 34.7061 8.88693 31.7493 7.42694 27.0586C5.59175 21.2957 8.6504 15.0554 14.3028 13.1707C14.4985 13.1204 14.7269 13.1204 14.9227 13.221C15.1102 13.3131 15.2489 13.5058 15.3386 13.7068L18.3075 23.0882L26.5536 28.1224C26.937 28.3653 27.0757 28.893 26.8391 29.2867C25.5178 31.6069 23.3971 33.3492 20.9013 34.1701C19.8165 34.5135 18.7317 34.7061 17.655 34.7061ZM14.0254 15.1056C9.78413 16.9903 7.52482 21.9323 8.98481 26.5728C10.5345 31.4143 15.6241 34.1198 20.3874 32.5283C22.2715 31.9001 23.8213 30.7358 24.955 29.1359L17.182 24.3949C16.9944 24.3028 16.8965 24.1101 16.8068 23.9091L14.0254 15.1056Z" fill="#1A1A1A" stroke="#1A1A1A" stroke-width="0.5"/>
<path fill-rule="evenodd" clip-rule="evenodd" d="M29.8989 28.6076C29.7603 28.6076 29.6216 28.5574 29.483 28.5071L21.0003 23.3306C20.7638 23.1882 20.617 22.9453 20.617 22.7024C20.5762 22.4595 20.6659 22.1663 20.8535 21.9736L27.974 14.9124C28.3003 14.5774 28.8223 14.5774 29.1486 14.9124C30.3231 16.1689 31.1713 17.5761 31.6444 19.1676C32.5905 22.1663 32.2561 25.4582 30.6575 28.1721C30.4699 28.4569 30.1844 28.6076 29.8989 28.6076ZM22.7376 22.4092L29.5727 26.5722C30.5596 24.4446 30.7472 21.9736 30.0458 19.7037C29.7113 18.6399 29.1975 17.618 28.4879 16.7468L22.7376 22.4092Z" fill="#1A1A1A" stroke="#1A1A1A" stroke-width="0.5"/>
<path fill-rule="evenodd" clip-rule="evenodd" d="M19.5404 22.0252C19.4915 22.0252 19.3936 22.0252 19.3528 21.9749C19.0673 21.9331 18.8308 21.6902 18.7819 21.397L15.7232 11.7643C15.5764 11.3287 15.8129 10.8512 16.2371 10.7005C20.1521 9.39376 24.3935 10.4659 27.2645 13.5065C27.4032 13.6573 27.501 13.9002 27.501 14.0929C27.501 14.3358 27.4032 14.5284 27.2645 14.6708L20.1032 21.7823C19.9645 21.9331 19.728 22.0252 19.5404 22.0252ZM17.5584 12.1077L19.9156 19.6045L25.4701 14.0929C23.2597 12.1579 20.3397 11.4292 17.5584 12.1077Z" fill="#1A1A1A" stroke="#1A1A1A" stroke-width="0.5"/>
<path fill-rule="evenodd" clip-rule="evenodd" d="M57.2338 34.2208H34.192C33.7189 34.2208 33.3438 33.8355 33.3438 33.3496C33.3438 32.8638 33.7189 32.4785 34.192 32.4785H57.2338C57.7068 32.4785 58.082 32.8638 58.082 33.3496C58.082 33.8355 57.6579 34.2208 57.2338 34.2208Z" fill="#1A1A1A" stroke="#1A1A1A" stroke-width="0.5"/>
<path fill-rule="evenodd" clip-rule="evenodd" d="M40.8363 34.22C40.3632 34.22 39.988 33.8347 39.988 33.3489V26.1871H36.7336V33.3489C36.7336 33.8347 36.3584 34.22 35.8854 34.22C35.4123 34.22 35.0371 33.8347 35.0371 33.3489V25.3663C35.0371 24.8804 35.4123 24.4951 35.8854 24.4951H40.7874C41.2604 24.4951 41.6356 24.8804 41.6356 25.3663V33.3991C41.6846 33.8347 41.3012 34.22 40.8363 34.22Z" fill="#1A1A1A" stroke="#1A1A1A" stroke-width="0.5"/>
<path fill-rule="evenodd" clip-rule="evenodd" d="M48.1858 34.2204C47.7127 34.2204 47.3375 33.8351 47.3375 33.3492V23.817H44.0831V33.3492C44.0831 33.8351 43.7079 34.2204 43.2349 34.2204C42.7699 34.2204 42.3866 33.8351 42.3866 33.3492V22.9961C42.3866 22.5103 42.7699 22.125 43.2349 22.125H48.1368C48.6099 22.125 48.9851 22.5103 48.9851 22.9961V33.3995C48.9851 33.8351 48.6099 34.2204 48.1858 34.2204Z" fill="#1A1A1A" stroke="#1A1A1A" stroke-width="0.5"/>
<path fill-rule="evenodd" clip-rule="evenodd" d="M55.4394 34.2198C54.9744 34.2198 54.5911 33.8345 54.5911 33.3487V19.7037H51.3938V33.3487C51.3938 33.8345 51.0104 34.2198 50.5455 34.2198C50.0725 34.2198 49.6973 33.8345 49.6973 33.3487V18.8829C49.6973 18.397 50.0725 18.0117 50.5455 18.0117H55.3986C55.8635 18.0117 56.2468 18.397 56.2468 18.8829V33.3487C56.2876 33.8345 55.9124 34.2198 55.4394 34.2198Z" fill="#1A1A1A" stroke="#1A1A1A" stroke-width="0.5"/>
<path fill-rule="evenodd" clip-rule="evenodd" d="M55.3974 10.6065H36.026C35.5611 10.6065 35.1777 10.2212 35.1777 9.73539C35.1777 9.24957 35.5611 8.86426 36.026 8.86426H55.3974C55.8623 8.86426 56.2457 9.24957 56.2457 9.73539C56.2457 10.2212 55.8623 10.6065 55.3974 10.6065Z" fill="#1A1A1A" stroke="#1A1A1A" stroke-width="0.5"/>
<path fill-rule="evenodd" clip-rule="evenodd" d="M55.3974 14.377H36.026C35.5611 14.377 35.1777 13.9917 35.1777 13.5059C35.1777 13.0285 35.5611 12.6348 36.026 12.6348H55.3974C55.8623 12.6348 56.2457 13.0285 56.2457 13.5059C56.2457 13.9917 55.8623 14.377 55.3974 14.377Z" fill="#1A1A1A" stroke="#1A1A1A" stroke-width="0.5"/>
</g>
<defs>
<clipPath id="clip0_79_9243">
<rect width="61" height="57" fill="white"/>
</clipPath>
</defs>
</svg>
