<svg width="61" height="61" viewBox="0 0 61 61" fill="none" xmlns="http://www.w3.org/2000/svg">
<path d="M42.4442 46.9338V54.2957C42.4442 56.9702 40.2685 59.1465 37.5934 59.1465H13.5461C10.8716 59.1465 8.69531 56.9708 8.69531 54.2957V6.70429C8.69531 4.02982 10.871 1.85352 13.5461 1.85352H37.5941C40.2685 1.85352 42.4448 4.02918 42.4448 6.70429V20.801C42.4448 21.2496 42.0814 21.6131 41.6328 21.6131C41.1842 21.6131 40.8207 21.2496 40.8207 20.801V6.70429C40.8207 4.92512 39.3732 3.47764 37.5941 3.47764H13.5461C11.7669 3.47764 10.3194 4.92512 10.3194 6.70429V54.2951C10.3194 56.0743 11.7669 57.5217 13.5461 57.5217H37.5941C39.3732 57.5217 40.8207 56.0743 40.8207 54.2951V46.9338C40.8207 46.4852 41.1842 46.1217 41.6328 46.1217C42.0814 46.1217 42.4442 46.4852 42.4442 46.9338ZM24.2942 52.6951C24.2942 53.3979 24.8673 53.971 25.5701 53.971C26.2728 53.971 26.846 53.3979 26.846 52.6951C26.846 51.9923 26.2728 51.4192 25.5701 51.4192C24.8673 51.4192 24.2942 51.9923 24.2942 52.6951ZM32.749 35.4906V31.3572H31.7736C31.325 31.3572 30.9616 30.9937 30.9616 30.5451V23.7201C30.9616 23.2715 31.325 22.908 31.7736 22.908H32.749V18.7747C32.749 18.3261 33.1125 17.9626 33.5611 17.9626C34.0097 17.9626 34.3731 18.3261 34.3731 18.7747V22.908H35.3485C35.7971 22.908 36.1606 23.2715 36.1606 23.7201V30.5451C36.1606 30.9937 35.7971 31.3572 35.3485 31.3572H34.3731V35.4906C34.3731 35.9392 34.0097 36.3026 33.5611 36.3026C33.1125 36.3026 32.749 35.9392 32.749 35.4906ZM32.5851 29.7337H33.5592C33.5598 29.7337 33.5598 29.7337 33.5604 29.7337C33.5611 29.7337 33.5611 29.7337 33.5617 29.7337H34.5358V24.5322H32.5851V29.7337ZM52.3027 23.7201V30.5451C52.3027 30.9937 51.9392 31.3572 51.4906 31.3572H50.5153V35.4906C50.5153 35.9392 50.1518 36.3026 49.7032 36.3026C49.2546 36.3026 48.8911 35.9392 48.8911 35.4906V31.3572H47.9158C47.4672 31.3572 47.1037 30.9937 47.1037 30.5451V23.7201C47.1037 23.2715 47.4672 22.908 47.9158 22.908H48.8911V18.7747C48.8911 18.3261 49.2546 17.9626 49.7032 17.9626C50.1518 17.9626 50.5153 18.3261 50.5153 18.7747V22.908H51.4906C51.9392 22.908 52.3027 23.2715 52.3027 23.7201ZM50.6792 24.5322H48.7285V29.7337H49.7026C49.7032 29.7337 49.7032 29.7337 49.7038 29.7337C49.7045 29.7337 49.7045 29.7337 49.7051 29.7337H50.6792V24.5322ZM44.2316 30.4549V37.2799C44.2316 37.7285 43.8682 38.092 43.4196 38.092H42.4442V42.2254C42.4442 42.674 42.0807 43.0374 41.6321 43.0374C41.1835 43.0374 40.8201 42.674 40.8201 42.2254V38.092H39.8447C39.3961 38.092 39.0326 37.7285 39.0326 37.2799V30.4549C39.0326 30.0063 39.3961 29.6428 39.8447 29.6428H40.8201V25.5094C40.8201 25.0608 41.1835 24.6974 41.6321 24.6974C42.0807 24.6974 42.4442 25.0608 42.4442 25.5094V29.6428H43.4196C43.8682 29.6428 44.2316 30.0063 44.2316 30.4549ZM42.6075 31.2663H40.6568V36.4678H42.6075V31.2663ZM27.2768 38.092H26.3014V42.2254C26.3014 42.674 25.938 43.0374 25.4894 43.0374C25.0408 43.0374 24.6773 42.674 24.6773 42.2254V38.092H23.7019C23.2533 38.092 22.8899 37.7285 22.8899 37.2799V30.4549C22.8899 30.0063 23.2533 29.6428 23.7019 29.6428H24.6773V25.5094C24.6773 25.0608 25.0408 24.6974 25.4894 24.6974C25.938 24.6974 26.3014 25.0608 26.3014 25.5094V29.6428H27.2768C27.7254 29.6428 28.0889 30.0063 28.0889 30.4549V37.2799C28.0882 37.7285 27.7248 38.092 27.2768 38.092ZM26.4647 31.2663H24.514V36.4678H26.4647V31.2663Z" fill="#1A1A1A" stroke="#1A1A1A" stroke-width="0.7"/>
</svg>
