<svg width="61" height="58" viewBox="0 0 61 58" fill="none" xmlns="http://www.w3.org/2000/svg">
<path fill-rule="evenodd" clip-rule="evenodd" d="M33 10.3337V6.95263C33 5.32171 31.6282 4 29.9355 4H6.06447C4.37232 4 3 5.32171 3 6.95263C3 15.0815 3 43.9185 3 52.0474C3 53.6783 4.37232 55 6.06447 55H29.9355C31.6282 55 33 53.6783 33 52.0474V38.0503C33 37.6058 32.6256 37.245 32.1642 37.245C31.7029 37.245 31.3285 37.6058 31.3285 38.0503V52.0474C31.3285 52.7887 30.705 53.3895 29.9355 53.3895H6.06447C5.29501 53.3895 4.67153 52.7887 4.67153 52.0474C4.67153 43.9185 4.67153 15.0815 4.67153 6.95263C4.67153 6.21125 5.29501 5.61053 6.06447 5.61053H29.9355C30.705 5.61053 31.3285 6.21125 31.3285 6.95263V10.3337C31.3285 10.7782 31.7029 11.1389 32.1642 11.1389C32.6256 11.1389 33 10.7782 33 10.3337Z" fill="#1A1A1A" stroke="black" stroke-width="0.3"/>
<path fill-rule="evenodd" clip-rule="evenodd" d="M19.549 5.13971V6.94689C19.549 7.42238 19.976 7.80828 20.5021 7.80828C21.0282 7.80828 21.4552 7.42238 21.4552 6.94689V5.13971C21.4552 4.66422 21.0282 4.27832 20.5021 4.27832C19.976 4.27832 19.549 4.66422 19.549 5.13971Z" fill="#1A1A1A"/>
<path fill-rule="evenodd" clip-rule="evenodd" d="M9.24219 48.2882H12.5432C13.0693 48.2882 13.4963 47.9023 13.4963 47.4268C13.4963 46.9513 13.0693 46.5654 12.5432 46.5654H9.24219C8.71606 46.5654 8.28906 46.9513 8.28906 47.4268C8.28906 47.9023 8.71606 48.2882 9.24219 48.2882Z" fill="#1A1A1A"/>
<path fill-rule="evenodd" clip-rule="evenodd" d="M28.459 48.2882H31.7606C32.2861 48.2882 32.7137 47.9023 32.7137 47.4268C32.7137 46.9513 32.2861 46.5654 31.7606 46.5654H28.459C27.9335 46.5654 27.5059 46.9513 27.5059 47.4268C27.5059 47.9023 27.9335 48.2882 28.459 48.2882Z" fill="#1A1A1A"/>
<path fill-rule="evenodd" clip-rule="evenodd" d="M18.8516 48.2882H22.1526C22.6787 48.2882 23.1057 47.9023 23.1057 47.4268C23.1057 46.9513 22.6787 46.5654 22.1526 46.5654H18.8516C18.3254 46.5654 17.8984 46.9513 17.8984 47.4268C17.8984 47.9023 18.3254 48.2882 18.8516 48.2882Z" fill="#1A1A1A"/>
<path fill-rule="evenodd" clip-rule="evenodd" d="M45.0196 47.5048L54.6207 38.8278C54.9924 38.4919 54.9924 37.9457 54.6207 37.6098C54.2484 37.2733 53.6447 37.2733 53.273 37.6098L43.6718 46.2868C43.2995 46.6228 43.2995 47.1689 43.6718 47.5048C44.0436 47.8414 44.6472 47.8414 45.0196 47.5048Z" fill="#1A1A1A"/>
<path fill-rule="evenodd" clip-rule="evenodd" d="M44.3463 34.4258C42.3282 34.4258 40.6895 35.9068 40.6895 37.7312C40.6895 39.5556 42.3282 41.0366 44.3463 41.0366C46.365 41.0366 48.0037 39.5556 48.0037 37.7312C48.0037 35.9068 46.365 34.4258 44.3463 34.4258ZM44.3463 36.1486C45.3127 36.1486 46.0975 36.8578 46.0975 37.7312C46.0975 38.6047 45.3127 39.3139 44.3463 39.3139C43.3798 39.3139 42.5957 38.6047 42.5957 37.7312C42.5957 36.8578 43.3798 36.1486 44.3463 36.1486Z" fill="#1A1A1A"/>
<path fill-rule="evenodd" clip-rule="evenodd" d="M53.9478 43.5908C51.9298 43.5908 50.291 45.0718 50.291 46.8957C50.291 48.7201 51.9298 50.2011 53.9478 50.2011C55.9666 50.2011 57.6053 48.7201 57.6053 46.8957C57.6053 45.0718 55.9666 43.5908 53.9478 43.5908ZM53.9478 45.3136C54.9143 45.3136 55.699 46.0228 55.699 46.8957C55.699 47.7691 54.9143 48.4783 53.9478 48.4783C52.9814 48.4783 52.1973 47.7691 52.1973 46.8957C52.1973 46.0228 52.9814 45.3136 53.9478 45.3136Z" fill="#1A1A1A"/>
<path fill-rule="evenodd" clip-rule="evenodd" d="M22.9883 33.7284V37.0126C22.9883 37.4881 23.4153 37.874 23.9414 37.874C24.4669 37.874 24.8945 37.4881 24.8945 37.0126V33.7284C24.8945 33.2529 24.4669 32.867 23.9414 32.867C23.4153 32.867 22.9883 33.2529 22.9883 33.7284ZM22.9883 13.5743V16.8585C22.9883 17.3339 23.4153 17.7198 23.9414 17.7198C24.4669 17.7198 24.8945 17.3339 24.8945 16.8585V13.5743C24.8945 13.0988 24.4669 12.7129 23.9414 12.7129C23.4153 12.7129 22.9883 13.0988 22.9883 13.5743Z" fill="#1A1A1A"/>
<path fill-rule="evenodd" clip-rule="evenodd" d="M48.416 25.2938V28.578C48.416 29.0535 48.843 29.4394 49.3691 29.4394C49.8953 29.4394 50.3223 29.0535 50.3223 28.578V25.2938C50.3223 24.8184 49.8953 24.4325 49.3691 24.4325C48.843 24.4325 48.416 24.8184 48.416 25.2938ZM48.416 5.13971V8.42388C48.416 8.89937 48.843 9.28527 49.3691 9.28527C49.8953 9.28527 50.3223 8.89937 50.3223 8.42388V5.13971C50.3223 4.66422 49.8953 4.27832 49.3691 4.27832C48.843 4.27832 48.416 4.66422 48.416 5.13971Z" fill="#1A1A1A"/>
<path fill-rule="evenodd" clip-rule="evenodd" d="M35.7012 26.996V33.728C35.7012 34.2035 36.1282 34.5894 36.6543 34.5894C37.1804 34.5894 37.6074 34.2035 37.6074 33.728V26.996C37.6074 26.5205 37.1804 26.1346 36.6543 26.1346C36.1282 26.1346 35.7012 26.5205 35.7012 26.996ZM35.7012 10.2891V13.5739C35.7012 14.0494 36.1282 14.4353 36.6543 14.4353C37.1804 14.4353 37.6074 14.0494 37.6074 13.5739V10.2891C37.6074 9.81364 37.1804 9.42773 36.6543 9.42773C36.1282 9.42773 35.7012 9.81364 35.7012 10.2891Z" fill="#1A1A1A"/>
<path fill-rule="evenodd" clip-rule="evenodd" d="M28.7784 18.5812C28.7784 17.8961 28.4772 17.2386 27.9409 16.7539C27.4046 16.2693 26.6777 15.9971 25.919 15.9971H21.9648C21.2062 15.9971 20.4792 16.2693 19.9429 16.7539C19.4067 17.2386 19.1055 17.8961 19.1055 18.5812C19.1055 21.8177 19.1055 28.7697 19.1055 32.0056C19.1055 32.6907 19.4067 33.3483 19.9429 33.8329C20.4792 34.3176 21.2062 34.5898 21.9648 34.5898H25.919C26.6777 34.5898 27.4046 34.3176 27.9409 33.8329C28.4772 33.3483 28.7784 32.6907 28.7784 32.0056V18.5812ZM26.8722 18.5812V32.0056C26.8722 32.2342 26.7718 32.453 26.5932 32.6149C26.4147 32.7763 26.1719 32.867 25.919 32.867H21.9648C21.7119 32.867 21.4692 32.7763 21.2907 32.6149C21.1121 32.453 21.0117 32.2342 21.0117 32.0056V18.5812C21.0117 18.3532 21.1121 18.1339 21.2907 17.9725C21.4692 17.8106 21.7119 17.7198 21.9648 17.7198H25.919C26.1719 17.7198 26.4147 17.8106 26.5932 17.9725C26.7718 18.1339 26.8722 18.3532 26.8722 18.5812Z" fill="#1A1A1A"/>
<path fill-rule="evenodd" clip-rule="evenodd" d="M54.2048 10.1467C54.2048 9.46157 53.9036 8.80404 53.3674 8.31937C52.8311 7.8347 52.1035 7.5625 51.3455 7.5625H47.3906C46.6326 7.5625 45.905 7.8347 45.3687 8.31937C44.8324 8.80404 44.5312 9.46157 44.5312 10.1467C44.5312 13.3826 44.5312 20.3346 44.5312 23.5711C44.5312 24.2562 44.8324 24.9137 45.3687 25.3984C45.905 25.883 46.6326 26.1552 47.3906 26.1552H51.3455C52.1035 26.1552 52.8311 25.883 53.3674 25.3984C53.9036 24.9137 54.2048 24.2562 54.2048 23.5711V10.1467ZM52.2986 10.1467V23.5711C52.2986 23.7991 52.1982 24.0184 52.0196 24.1798C51.8404 24.3417 51.5984 24.4325 51.3455 24.4325H47.3906C47.1377 24.4325 46.8956 24.3417 46.7171 24.1798C46.5379 24.0184 46.4375 23.7991 46.4375 23.5711V10.1467C46.4375 9.9181 46.5379 9.69931 46.7171 9.53737C46.8956 9.37601 47.1377 9.28527 47.3906 9.28527H51.3455C51.5984 9.28527 51.8404 9.37601 52.0196 9.53737C52.1982 9.69931 52.2986 9.9181 52.2986 10.1467Z" fill="#1A1A1A"/>
<path fill-rule="evenodd" clip-rule="evenodd" d="M41.4913 15.297C41.4913 13.87 40.2109 12.7129 38.6319 12.7129C37.4291 12.7129 35.8806 12.7129 34.6777 12.7129C33.0981 12.7129 31.8184 13.87 31.8184 15.297V25.2736C31.8184 26.7012 33.0981 27.8578 34.6771 27.8578C35.8806 27.8578 37.4291 27.8578 38.6319 27.8578C40.2109 27.8578 41.4913 26.7012 41.4913 25.2736V15.297ZM39.5851 15.297V25.2736C39.5851 25.7497 39.1587 26.135 38.6319 26.135H34.6777C34.151 26.135 33.7246 25.7497 33.7246 25.2736V15.297C33.7246 14.821 34.151 14.4357 34.6771 14.4357H38.6319C39.1587 14.4357 39.5851 14.821 39.5851 15.297Z" fill="#1A1A1A"/>
</svg>
