<svg width="61" height="56" viewBox="0 0 61 56" fill="none" xmlns="http://www.w3.org/2000/svg">
<g id="Group">
<path id="Vector" d="M18.205 13.75H22.2133C22.3363 13.75 22.4357 13.8494 22.4357 13.9724C22.4357 14.0953 22.3363 14.1947 22.2133 14.1947H18.205C18.0821 14.1947 17.9827 14.0953 17.9827 13.9724C17.9827 13.8494 18.0821 13.75 18.205 13.75Z" fill="#1A1A1A" stroke="#1A1A1A"/>
<path id="Vector_2" d="M18.205 17.1113H22.2133C22.3363 17.1113 22.4357 17.2108 22.4357 17.3337C22.4357 17.4566 22.3363 17.5561 22.2133 17.5561H18.205C18.0821 17.5561 17.9827 17.4566 17.9827 17.3337C17.9827 17.2108 18.0821 17.1113 18.205 17.1113Z" fill="#1A1A1A" stroke="#1A1A1A"/>
<path id="Vector_3" d="M35.7826 7.49707H30.4488C28.747 7.49707 27.2557 8.39805 26.4151 9.745C25.5746 8.39805 24.0834 7.49707 22.3821 7.49707H17.0483C14.9707 7.49707 13.2805 9.18695 13.2805 11.2641V23.088V25.0854C13.2805 27.1629 14.9707 28.8528 17.0483 28.8528H26.4151H35.7826C37.8594 28.8528 39.5496 27.1629 39.5496 25.0854V23.088V11.2641C39.5496 9.18695 37.8594 7.49707 35.7826 7.49707ZM25.6927 27.4081H17.0483C15.7672 27.4081 14.7253 26.3661 14.7253 25.0854V23.8103H25.6927V27.4081ZM25.6927 22.3656H14.7253V11.2641C14.7253 9.98374 15.7672 8.94181 17.0483 8.94181H22.3821C24.2078 8.94181 25.6927 10.4271 25.6927 12.2524V22.3656ZM38.1049 25.0854C38.1049 26.3661 37.063 27.4081 35.7826 27.4081H27.1375V23.8103H38.1049V25.0854ZM38.1049 22.3656H27.1375V12.2524C27.1375 10.4271 28.6231 8.94181 30.4488 8.94181H35.7826C37.063 8.94181 38.1049 9.98374 38.1049 11.2641V22.3656Z" fill="#1A1A1A" stroke="#1A1A1A" stroke-width="0.5"/>
<path id="Vector_4" d="M30.617 13.75H34.6253C34.7483 13.75 34.8477 13.8494 34.8477 13.9724C34.8477 14.0953 34.7483 14.1947 34.6253 14.1947H30.617C30.494 14.1947 30.3947 14.0953 30.3947 13.9724C30.3947 13.8494 30.494 13.75 30.617 13.75Z" fill="#1A1A1A" stroke="#1A1A1A"/>
<path id="Vector_5" d="M30.617 17.1113H34.6253C34.7483 17.1113 34.8477 17.2108 34.8477 17.3337C34.8477 17.4566 34.7483 17.5561 34.6253 17.5561H30.617C30.494 17.5561 30.3947 17.4566 30.3947 17.3337C30.3947 17.2108 30.494 17.1113 30.617 17.1113Z" fill="#1A1A1A" stroke="#1A1A1A"/>
<path id="Vector_6" d="M56.4454 2.7516H56.017C55.8232 1.75508 54.9459 1 53.8938 1H46.2694C45.2174 1 44.34 1.75508 44.1463 2.7516H4.78891C2.6994 2.7516 1 4.45136 1 6.54052V32.8753V40.2513C1 42.3408 2.6994 44.0402 4.78891 44.0402H21.6517V49.1885H18.6642C15.6908 49.1885 13.2711 51.6082 13.2711 54.5823C13.2711 54.9816 13.5942 55.3047 13.9935 55.3047H47.2408C47.6401 55.3047 47.9632 54.9816 47.9632 54.5823C47.9632 51.6082 45.5435 49.1885 42.5701 49.1885H39.5826V44.0402H56.4454C58.5349 44.0402 60.2343 42.3408 60.2343 40.2513V32.8753V6.54052C60.2343 4.45136 58.5349 2.7516 56.4454 2.7516ZM45.5492 3.47397V3.16499C45.5492 2.76783 45.8723 2.44474 46.2694 2.44474H53.8938C54.291 2.44474 54.6141 2.76783 54.6141 3.16499V3.47397V12.2934C54.6141 12.468 54.5005 12.5614 54.4511 12.5935C54.3904 12.6337 54.2642 12.6898 54.1104 12.6235L50.368 11.0081C50.2763 10.9686 50.179 10.9488 50.0816 10.9488C49.9843 10.9488 49.8869 10.9686 49.7952 11.0081L46.0536 12.6232C45.8962 12.6909 45.7721 12.6337 45.7121 12.5935C45.6627 12.5614 45.5492 12.468 45.5492 12.2934V3.47397ZM42.5701 50.6333C44.5009 50.6333 46.1121 52.0265 46.4521 53.8599H14.7822C15.1222 52.0265 16.7334 50.6333 18.6642 50.6333H22.3741H38.8602H42.5701ZM23.0965 49.1885V44.0402H38.1378V49.1885H23.0965ZM58.7896 40.2513C58.7896 41.5437 57.7377 42.5955 56.4454 42.5955H38.8602H22.3741H4.78891C3.49655 42.5955 2.44474 41.5437 2.44474 40.2513V33.5976H58.7896V40.2513ZM58.7896 32.1529H2.44474V6.54052C2.44474 5.2478 3.49655 4.19634 4.78891 4.19634H44.1044V12.2934C44.1044 12.9022 44.4085 13.4655 44.9178 13.8005C45.4271 14.1353 46.0648 14.1906 46.6257 13.9497L50.0816 12.4581L53.5383 13.9501C53.6672 14.0056 53.8007 14.0415 53.9356 14.0658C53.9794 14.0737 54.0229 14.0746 54.067 14.0792C54.1295 14.0858 54.1916 14.0982 54.2543 14.0982C54.2771 14.0982 54.299 14.0892 54.3218 14.0884C54.4328 14.0842 54.541 14.0652 54.6495 14.0406C54.6997 14.0292 54.75 14.0243 54.7992 14.0086C54.9545 13.959 55.1053 13.8928 55.2454 13.8005C55.7548 13.4655 56.0588 12.9022 56.0588 12.2934V4.19634H56.4454C57.7377 4.19634 58.7896 5.2478 58.7896 6.54052V32.1529Z" fill="#1A1A1A" stroke="#1A1A1A" stroke-width="0.5"/>
<path id="Vector_7" d="M7.40124 29.0411H10.6152C10.7382 29.0411 10.8376 29.1405 10.8376 29.2634C10.8376 29.3866 10.7384 29.4858 10.6152 29.4858H7.40124C6.13953 29.4858 5.11194 28.4582 5.11194 27.1965V21.9216C5.11194 21.7986 5.21133 21.6992 5.33431 21.6992C5.45728 21.6992 5.55668 21.7986 5.55668 21.9216V27.1965C5.55668 28.2141 6.38369 29.0411 7.40124 29.0411Z" fill="#1A1A1A" stroke="#1A1A1A"/>
<path id="Vector_8" d="M5.55668 17.3337C5.55668 17.4567 5.45728 17.5561 5.33431 17.5561C5.21133 17.5561 5.11194 17.4567 5.11194 17.3337V15.653C5.11194 15.5301 5.21133 15.4307 5.33431 15.4307C5.45728 15.4307 5.55668 15.5301 5.55668 15.653V17.3337Z" fill="#1A1A1A" stroke="#1A1A1A"/>
<path id="Vector_9" d="M33.3576 39.6239H27.8763C27.0346 39.6239 26.3489 38.938 26.3489 38.0958C26.3489 37.2538 27.0343 36.5684 27.8763 36.5684H33.3576C34.1995 36.5684 34.885 37.2538 34.885 38.0958C34.885 38.938 34.1993 39.6239 33.3576 39.6239ZM33.3576 37.0131H27.8763C27.2792 37.0131 26.7936 37.4987 26.7936 38.0958C26.7936 38.6932 27.2788 39.1792 27.8763 39.1792H33.3576C33.9551 39.1792 34.4403 38.6932 34.4403 38.0958C34.4403 37.4987 33.9547 37.0131 33.3576 37.0131Z" fill="#1A1A1A" stroke="#1A1A1A"/>
</g>
</svg>
