<svg width="66" height="59" viewBox="0 0 66 59" fill="none" xmlns="http://www.w3.org/2000/svg">
<g id="noun-wifi-signals-1973130 1">
<g id="Group">
<g id="Group_2">
<path id="Vector" d="M56.4 2.3433C56 1.99624 55.4 1.99624 55 2.3433C54.6 2.69036 54.6 3.21095 55 3.55801C60.1 7.98301 63 13.9698 63 20.3036C63 26.6374 60.2 32.5374 55 37.0492C54.6 37.3962 54.6 37.9168 55 38.2639C55.4 38.6109 56 38.6109 56.4 38.2639C62 33.4051 65 27.0712 65 20.3036C65 13.5359 62 7.11536 56.4 2.3433Z" fill="black"/>
</g>
<g id="Group_3">
<path id="Vector_2" d="M52.1004 5.2935C51.7004 4.94644 51.1004 4.94644 50.7004 5.2935C50.3004 5.64056 50.3004 6.16114 50.7004 6.5082C54.9004 10.1523 57.2004 15.0111 57.2004 20.217C57.2004 25.4229 54.9004 30.2817 50.7004 33.9258C50.3004 34.2729 50.3004 34.7935 50.7004 35.1406C51.1004 35.4876 51.7004 35.4876 52.1004 35.1406C56.7004 31.1494 59.2004 25.8567 59.2004 20.217C59.2004 14.5773 56.7004 9.28467 52.1004 5.2935Z" fill="black"/>
</g>
<g id="Group_4">
<path id="Vector_3" d="M47.7996 9.02397C47.3996 8.67691 46.7996 8.67691 46.3996 9.02397C45.9996 9.37102 45.9996 9.89161 46.3996 10.2387C49.4996 12.9284 51.1996 16.4857 51.1996 20.2166C51.1996 24.0343 49.4996 27.5916 46.3996 30.1946C45.9996 30.5416 45.9996 31.0622 46.3996 31.4093C46.7996 31.7563 47.3996 31.7563 47.7996 31.4093C51.2996 28.3725 53.1996 24.3813 53.1996 20.1298C53.1996 16.0519 51.2996 12.0607 47.7996 9.02397Z" fill="black"/>
</g>
<g id="Group_5">
<path id="Vector_4" d="M43.5 12.7554C43.1 12.4084 42.5 12.4084 42.1 12.7554C41.7 13.1025 41.7 13.6231 42.1 13.9701C44 15.6186 45.1 17.8745 45.1 20.3039C45.1 22.7334 44 24.9025 42.1 26.6378C41.7 26.9848 41.7 27.5054 42.1 27.8525C42.5 28.1995 43.1 28.1995 43.5 27.8525C45.8 25.8569 47.1 23.1672 47.1 20.3039C47.1 17.4407 45.8 14.751 43.5 12.7554Z" fill="black"/>
</g>
<g id="Group_6">
<path id="Vector_5" d="M3 20.3036C3 13.9698 5.8 8.06977 11 3.55801C11.4 3.21095 11.4 2.69036 11 2.3433C10.6 1.99624 10 1.99624 9.6 2.3433C4 7.11536 1 13.4492 1 20.3036C1 27.0712 4 33.4918 9.6 38.2639C10 38.6109 10.6 38.6109 11 38.2639C11.4 37.9168 11.4 37.3962 11 37.0492C5.8 32.5374 3 26.6374 3 20.3036Z" fill="black"/>
</g>
<g id="Group_7">
<path id="Vector_6" d="M8.79999 20.3039C8.79999 15.0981 11.1 10.2392 15.3 6.59512C15.7 6.24806 15.7 5.72747 15.3 5.38041C14.9 5.03335 14.3 5.03335 13.9 5.38041C9.29999 9.37159 6.79999 14.6642 6.79999 20.3039C6.79999 25.9436 9.29999 31.2363 13.9 35.2275C14.3 35.5745 14.9 35.5745 15.3 35.2275C15.7 34.8804 15.7 34.3598 15.3 34.0128C11.1 30.3686 8.79999 25.5098 8.79999 20.3039Z" fill="black"/>
</g>
<g id="Group_8">
<path id="Vector_7" d="M14.8 20.3035C14.8 16.4859 16.5 12.9285 19.6 10.3256C20 9.97853 20 9.45794 19.6 9.11088C19.2 8.76382 18.6 8.76382 18.2 9.11088C14.7 12.1476 12.8 16.1388 12.8 20.3903C12.8 24.6418 14.7 28.6329 18.2 31.6697C18.6 32.0168 19.2 32.0168 19.6 31.6697C20 31.3226 20 30.8021 19.6 30.455C16.5 27.5918 14.8 24.0344 14.8 20.3035Z" fill="black"/>
</g>
<g id="Group_9">
<path id="Vector_8" d="M23.9004 12.7554C23.5004 12.4084 22.9004 12.4084 22.5004 12.7554C17.7004 16.9201 17.7004 23.6878 22.5004 27.7657C22.9004 28.1128 23.5004 28.1128 23.9004 27.7657C24.3004 27.4186 24.3004 26.8981 23.9004 26.551C19.9004 23.0804 19.9004 17.4407 23.9004 13.9701C24.3004 13.6231 24.3004 13.1025 23.9004 12.7554Z" fill="black"/>
</g>
<g id="Group_10">
<path id="Vector_9" d="M38.7105 14.5361C38.7105 11.5164 36.0909 9 32.9474 9C29.804 9 27.1844 11.5164 27.1844 14.5361C27.1844 17.1532 29.0705 19.3676 31.69 19.8709L24.0409 53.7921C23.9361 54.0941 24.0409 54.3961 24.2505 54.5974C24.4601 54.7987 24.7744 55 25.0887 55H40.9109C41.2252 55 41.5396 54.8993 41.7491 54.5974C41.9587 54.3961 42.0635 54.0941 41.9587 53.7921L34.3096 19.8709C36.7196 19.267 38.7105 17.1532 38.7105 14.5361ZM29.28 14.5361C29.28 12.6236 30.9566 11.0131 32.9474 11.0131C34.9383 11.0131 36.6148 12.6236 36.6148 14.5361C36.6148 16.4486 34.9383 18.0591 32.9474 18.0591C30.9566 17.9584 29.28 16.4486 29.28 14.5361ZM26.3461 52.9869L32.9474 23.7965L39.5487 53.0875H26.3461V52.9869Z" fill="black"/>
</g>
</g>
</g>
</svg>
