<svg width="62" height="62" viewBox="0 0 62 62" fill="none" xmlns="http://www.w3.org/2000/svg">
<g id="noun-renewable-energies-3846211 1">
<path id="Vector" d="M35.4612 59H21.5048C19.2526 58.9888 17.0959 58.0837 15.5033 56.4817C13.9108 54.8796 13.0112 52.71 13 50.4444V42.6417C13 42.4715 13.0672 42.3083 13.1868 42.1879C13.3064 42.0676 13.4687 42 13.6379 42C13.807 42 13.9693 42.0676 14.0889 42.1879C14.2085 42.3083 14.2757 42.4715 14.2757 42.6417V50.4102C14.278 52.3473 15.0439 54.2044 16.4055 55.5741C17.7671 56.9439 19.6132 57.7144 21.5388 57.7167H35.4612C37.3868 57.7144 39.2329 56.9439 40.5945 55.5741C41.9561 54.2044 42.722 52.3473 42.7243 50.4102V42.8983C42.7243 42.7282 42.7915 42.5649 42.9111 42.4446C43.0307 42.3243 43.193 42.2567 43.3621 42.2567C43.5313 42.2567 43.6936 42.3243 43.8132 42.4446C43.9328 42.5649 44 42.7282 44 42.8983V50.4102C43.9955 52.6869 43.0944 54.8692 41.4941 56.4791C39.8937 58.089 37.7244 58.9955 35.4612 59Z" fill="#1A1A1A" stroke="#1A1A1A" stroke-width="0.5"/>
<path id="Vector_2" d="M15.3415 43H12.6585C12.005 43.002 11.3576 42.8719 10.7536 42.6172C10.1497 42.3626 9.60113 41.9884 9.1397 41.5163L8.46269 40.8256C7.53112 39.8719 7.00557 38.582 7 37.2357V32.6395C7.00216 32.4706 7.0689 32.3092 7.186 32.1898C7.30309 32.0703 7.46128 32.0022 7.62687 32H20.3731C20.5387 32.0022 20.6969 32.0703 20.814 32.1898C20.9311 32.3092 20.9978 32.4706 21 32.6395V37.2357C20.9944 38.582 20.4689 39.8719 19.5373 40.8256L18.8603 41.5163C18.3989 41.9884 17.8503 42.3626 17.2464 42.6172C16.6424 42.8719 15.995 43.002 15.3415 43ZM8.25373 33.2791V37.2357C8.2581 38.2431 8.6515 39.2082 9.34866 39.9217L10.0257 40.6124C10.7259 41.3213 11.672 41.7196 12.6585 41.7209H15.3415C15.8304 41.7231 16.3149 41.6262 16.7668 41.4359C17.2188 41.2456 17.6292 40.9657 17.9743 40.6124L18.6513 39.9217C19.3485 39.2082 19.7419 38.2431 19.7463 37.2357V33.2791H8.25373Z" fill="#1A1A1A" stroke="#1A1A1A" stroke-width="0.5"/>
<path id="Vector_3" d="M20.8502 33H7.14978C6.57962 33 6.03282 32.842 5.62966 32.5607C5.22649 32.2794 5 31.8978 5 31.5C5 31.1022 5.22649 30.7206 5.62966 30.4393C6.03282 30.158 6.57962 30 7.14978 30H20.8502C21.4204 30 21.9672 30.158 22.3703 30.4393C22.7735 30.7206 23 31.1022 23 31.5C23 31.8978 22.7735 32.2794 22.3703 32.5607C21.9672 32.842 21.4204 33 20.8502 33ZM7.14978 30.9221C6.93013 30.9221 6.71947 30.983 6.56416 31.0914C6.40884 31.1998 6.32159 31.3467 6.32159 31.5C6.32159 31.6533 6.40884 31.8002 6.56416 31.9086C6.71947 32.017 6.93013 32.0779 7.14978 32.0779H20.8502C21.0699 32.0779 21.2805 32.017 21.4358 31.9086C21.5912 31.8002 21.6784 31.6533 21.6784 31.5C21.6784 31.3467 21.5912 31.1998 21.4358 31.0914C21.2805 30.983 21.0699 30.9221 20.8502 30.9221H7.14978Z" fill="#1A1A1A" stroke="#1A1A1A" stroke-width="0.5"/>
<path id="Vector_4" d="M10.4851 32.9999H8.51487C8.37832 32.9999 8.24736 32.9222 8.1508 32.7838C8.05424 32.6454 8 32.4576 8 32.2619V25.0095C8.02574 24.4644 8.19496 23.9536 8.47343 23.5806C8.7519 23.2075 9.11882 23 9.49998 23C9.88113 23 10.2481 23.2075 10.5265 23.5806C10.805 23.9536 10.9742 24.4644 11 25.0095V32.2619C11.0009 32.3592 10.9882 32.4558 10.9626 32.5459C10.9371 32.636 10.8992 32.7179 10.8512 32.7867C10.8032 32.8555 10.7461 32.9098 10.6832 32.9464C10.6203 32.9831 10.553 33.0013 10.4851 32.9999ZM9.04346 31.5534H9.97022V25.0095C9.97115 24.9213 9.9597 24.8337 9.93657 24.7519C9.91344 24.6701 9.87909 24.5958 9.83556 24.5334C9.79202 24.471 9.74019 24.4218 9.68314 24.3886C9.62609 24.3554 9.56497 24.339 9.50341 24.3404C9.44153 24.3391 9.38009 24.3554 9.32266 24.3884C9.26523 24.4215 9.21295 24.4706 9.16888 24.5328C9.1248 24.5951 9.0898 24.6693 9.06591 24.7511C9.04202 24.833 9.02973 24.9208 9.02973 25.0095L9.04346 31.5534Z" fill="#1A1A1A" stroke="#1A1A1A" stroke-width="0.5"/>
<path id="Vector_5" d="M19.3135 32.9999H16.6866C16.5961 33.0013 16.5062 32.9831 16.4224 32.9464C16.3385 32.9098 16.2624 32.8555 16.1984 32.7867C16.1344 32.7179 16.0839 32.636 16.0498 32.5459C16.0157 32.4558 15.9988 32.3592 16.0001 32.2619V25.0095C16.0344 24.4644 16.26 23.9536 16.6313 23.5806C17.0026 23.2075 17.4918 23 18 23C18.5082 23 18.9975 23.2075 19.3688 23.5806C19.74 23.9536 19.9657 24.4644 20 25.0095V32.2619C20 32.4576 19.9277 32.6454 19.7989 32.7838C19.6702 32.9222 19.4956 32.9999 19.3135 32.9999ZM17.373 31.5534H18.6728V25.0095C18.6728 24.9208 18.6564 24.833 18.6246 24.7511C18.5927 24.6693 18.546 24.5951 18.4873 24.5328C18.4285 24.4706 18.3588 24.4215 18.2822 24.3884C18.2056 24.3554 18.1237 24.3391 18.0412 24.3404C17.9591 24.339 17.8777 24.3554 17.8016 24.3886C17.7255 24.4218 17.6564 24.471 17.5984 24.5334C17.5403 24.5958 17.4945 24.6701 17.4637 24.7519C17.4328 24.8337 17.4176 24.9213 17.4188 25.0095L17.373 31.5534Z" fill="#1A1A1A" stroke="#1A1A1A" stroke-width="0.5"/>
<path id="Vector_6" d="M37.1751 32.9999C37.0799 33.0015 36.9855 32.9813 36.8996 32.9408C33.7117 31.4702 31.1302 28.9788 29.5803 25.8773C28.0304 22.7758 27.6047 19.2492 28.3734 15.8788C29.1421 12.5084 31.0592 9.49522 33.8089 7.33591C36.5586 5.17661 39.9767 4 43.5 4C47.0233 4 50.4414 5.17661 53.1911 7.33591C55.9408 9.49522 57.8579 12.5084 58.6266 15.8788C59.3953 19.2492 58.9696 22.7758 57.4197 25.8773C55.8698 28.9788 53.2883 31.4702 50.1004 32.9408C49.9578 32.9872 49.8038 32.9872 49.6612 32.9408C49.5414 32.9222 49.4194 32.9222 49.2996 32.9408H37.7176C37.5949 32.9228 37.4701 32.9228 37.3474 32.9408L37.1751 32.9999ZM43.5043 5.20403C40.2858 5.20652 37.163 6.2775 34.6449 8.24242C32.1269 10.2073 30.362 12.9503 29.6379 16.0244C28.9138 19.0984 29.2732 22.3222 30.6576 25.1704C32.042 28.0185 34.3696 30.3231 37.2613 31.7085C37.4073 31.6953 37.5543 31.6953 37.7004 31.7085H49.2996C49.4457 31.6953 49.5927 31.6953 49.7387 31.7085C52.6297 30.3234 54.957 28.0196 56.3415 25.1723C57.726 22.325 58.0861 19.102 57.3631 16.0285C56.6401 12.9549 54.8767 10.2119 52.3601 8.24635C49.8435 6.28076 46.7221 5.20843 43.5043 5.20403Z" fill="#1A1A1A" stroke="#1A1A1A" stroke-width="0.5"/>
<path id="Vector_7" d="M49.1183 37H37.8817C37.1038 36.9664 36.3712 36.6884 35.8351 36.2232C35.2989 35.758 35 35.1412 35 34.5C35 33.8588 35.2989 33.242 35.8351 32.7768C36.3712 32.3116 37.1038 32.0336 37.8817 32H49.1183C49.8962 32.0336 50.6288 32.3116 51.1649 32.7768C51.7011 33.242 52 33.8588 52 34.5C52 35.1412 51.7011 35.758 51.1649 36.2232C50.6288 36.6884 49.8962 36.9664 49.1183 37ZM37.8817 33.0316C37.4297 33.0571 37.0063 33.2229 36.6971 33.4955C36.3879 33.768 36.216 34.1271 36.216 34.5C36.216 34.8729 36.3879 35.232 36.6971 35.5045C37.0063 35.7771 37.4297 35.9429 37.8817 35.9684H49.1183C49.5703 35.9429 49.9937 35.7771 50.3029 35.5045C50.6121 35.232 50.784 34.8729 50.784 34.5C50.784 34.1271 50.6121 33.768 50.3029 33.4955C49.9937 33.2229 49.5703 33.0571 49.1183 33.0316H37.8817Z" fill="#1A1A1A" stroke="#1A1A1A" stroke-width="0.5"/>
<path id="Vector_8" d="M45.1323 43H41.8677C40.5774 42.9978 39.3405 42.496 38.4282 41.6045C37.5158 40.713 37.0022 39.5044 37 38.2436V36.6119C37 36.4496 37.066 36.294 37.1834 36.1792C37.3008 36.0645 37.4601 36 37.6262 36H49.3738C49.5399 36 49.6992 36.0645 49.8166 36.1792C49.934 36.294 50 36.4496 50 36.6119V38.2436C49.9978 39.5044 49.4842 40.713 48.5718 41.6045C47.6595 42.496 46.4226 42.9978 45.1323 43ZM38.2524 37.289V38.2844C38.2524 39.2213 38.6333 40.1198 39.3113 40.7823C39.9893 41.4448 40.9089 41.817 41.8677 41.817H45.1323C45.6106 41.817 46.0842 41.7243 46.5255 41.5443C46.9669 41.3642 47.3673 41.1003 47.7036 40.768C48.0398 40.4356 48.3053 40.0413 48.4845 39.608C48.6637 39.1747 48.7531 38.7109 48.7476 38.2436V37.2483L38.2524 37.289Z" fill="#1A1A1A" stroke="#1A1A1A" stroke-width="0.5"/>
<path id="Vector_9" d="M42.3468 24.9946C42.245 24.9945 42.1448 24.967 42.0555 24.9149C41.9343 24.8482 41.8369 24.741 41.7783 24.6097C41.7197 24.4785 41.7031 24.3304 41.731 24.1881L42.3718 21.0152H40.6326C40.5104 21.017 40.3905 20.9806 40.2876 20.9104C40.1847 20.8402 40.1034 20.7395 40.0538 20.6206C40.0042 20.5017 39.9884 20.3699 40.0085 20.2415C40.0285 20.1132 40.0835 19.9939 40.1666 19.8985L45.0347 14.2175C45.1235 14.1135 45.241 14.0421 45.3703 14.0137C45.4997 13.9853 45.6341 14.0013 45.7543 14.0594C45.8746 14.1175 45.9744 14.2148 46.0395 14.3371C46.1045 14.4595 46.1315 14.6007 46.1165 14.7404L45.7337 18.0285L47.398 18.0994C47.5188 18.1039 47.6358 18.1456 47.7348 18.2195C47.8338 18.2935 47.9105 18.3965 47.9555 18.5159C48.0003 18.6337 48.0116 18.7629 47.9879 18.8874C47.9642 19.0119 47.9067 19.1262 47.8224 19.2161L42.8711 24.7819C42.8071 24.8609 42.7257 24.9216 42.6342 24.9588C42.5426 24.9959 42.4439 25.0082 42.3468 24.9946ZM42.0389 19.677H43.1457C43.2377 19.6765 43.3287 19.6977 43.4122 19.7391C43.4956 19.7804 43.5694 19.8409 43.6283 19.9163C43.6886 19.9925 43.7313 20.0827 43.753 20.1797C43.7747 20.2766 43.7747 20.3776 43.7531 20.4746L43.4203 22.1408L45.9167 19.3579L44.9847 19.3136C44.8985 19.3107 44.8138 19.2886 44.7361 19.2486C44.6584 19.2086 44.5894 19.1516 44.5337 19.0814C44.478 19.0112 44.4368 18.9294 44.4127 18.8411C44.3886 18.7528 44.3822 18.6602 44.3939 18.5691L44.6103 16.6548L42.0389 19.677Z" fill="#1A1A1A" stroke="#1A1A1A" stroke-width="0.5"/>
<path id="Vector_10" d="M43.9569 30C42.9721 30.0008 41.9919 29.8687 41.0434 29.6075C39.2089 29.1084 37.5374 28.147 36.1933 26.8177C36.1321 26.7589 36.0835 26.6886 36.0503 26.6109C36.0171 26.5333 36 26.4498 36 26.3656C36 26.2813 36.0171 26.1978 36.0503 26.1202C36.0835 26.0425 36.1321 25.9722 36.1933 25.9134C36.3149 25.7936 36.4797 25.7263 36.6515 25.7263C36.8233 25.7263 36.9881 25.7936 37.1097 25.9134C38.6678 27.4558 40.7122 28.4278 42.9056 28.6689C45.099 28.9101 47.3101 28.4059 49.1739 27.2397C51.0378 26.0735 52.4429 24.3149 53.1574 22.2544C53.8719 20.1938 53.8529 17.9544 53.1038 15.9059C53.0696 15.8244 53.0528 15.7369 53.0545 15.6487C53.0562 15.5605 53.0764 15.4737 53.1137 15.3936C53.1511 15.3135 53.2048 15.2418 53.2715 15.1832C53.3382 15.1245 53.4165 15.0801 53.5015 15.0527C53.5833 15.0175 53.6717 14.9995 53.761 15C53.8503 15.0005 53.9385 15.0194 54.02 15.0556C54.1014 15.0918 54.1742 15.1444 54.2338 15.21C54.2934 15.2756 54.3385 15.3528 54.366 15.4367C54.9554 17.0759 55.1375 18.8308 54.897 20.554C54.6565 22.2771 54.0005 23.9181 52.984 25.3392C51.9676 26.7602 50.6203 27.9197 49.0555 28.7204C47.4907 29.521 45.7541 29.9394 43.9915 29.9403L43.9569 30Z" fill="#1A1A1A" stroke="#1A1A1A" stroke-width="0.5"/>
<path id="Vector_11" d="M34.2999 23.9923C34.1668 23.9911 34.0371 23.9508 33.9275 23.8765C33.818 23.8023 33.7336 23.6976 33.6852 23.5758C32.9765 21.696 32.8137 19.6599 33.2148 17.6946C33.6159 15.7292 34.5652 13.9119 35.9568 12.4452C37.3484 10.9785 39.1277 9.92017 41.0962 9.38814C43.0646 8.8561 45.1449 8.8713 47.1051 9.43206H47.1571C48.9163 9.93784 50.5161 10.8737 51.8064 12.152C51.8677 12.2106 51.9164 12.2807 51.9496 12.358C51.9829 12.4354 52 12.5185 52 12.6025C52 12.6865 51.9829 12.7696 51.9496 12.847C51.9164 12.9243 51.8677 12.9944 51.8064 13.053C51.6847 13.1724 51.5196 13.2394 51.3476 13.2394C51.1755 13.2394 51.0104 13.1724 50.8887 13.053C49.7693 11.9451 48.3852 11.1298 46.8627 10.6815H46.8194C45.0879 10.1683 43.2449 10.1399 41.4979 10.5993C39.7508 11.0588 38.1691 11.988 36.9309 13.2822C35.6927 14.5765 34.8471 16.1844 34.4893 17.9249C34.1315 19.6654 34.2758 21.4695 34.9059 23.1338C34.9419 23.2138 34.9605 23.3001 34.9605 23.3875C34.9606 23.4749 34.9421 23.5613 34.9063 23.6413C34.8705 23.7212 34.818 23.793 34.7524 23.852C34.6867 23.9109 34.6093 23.9558 34.525 23.9838C34.4514 24.002 34.3747 24.0049 34.2999 23.9923Z" fill="#1A1A1A" stroke="#1A1A1A" stroke-width="0.5"/>
<path id="Vector_12" d="M48.6643 14.1914C48.4889 14.1891 48.3212 14.1184 48.1972 13.9943C48.0731 13.8702 48.0024 13.7026 48.0001 13.5271C47.9977 13.3524 48.0642 13.1839 48.1852 13.0579C48.3062 12.9319 48.472 12.8586 48.6466 12.854L51.6226 12.7743L50.7812 9.92227C50.7449 9.83605 50.7272 9.74312 50.7292 9.64958C50.7313 9.55604 50.7531 9.46399 50.7932 9.37946C50.8333 9.29493 50.8909 9.21983 50.962 9.15908C51.0332 9.09832 51.1164 9.05329 51.2062 9.02692C51.2959 9.00055 51.3903 8.99345 51.483 9.00607C51.5757 9.0187 51.6647 9.05076 51.7441 9.10017C51.8236 9.14958 51.8917 9.21522 51.944 9.29278C51.9964 9.37035 52.0317 9.45809 52.0478 9.55027L53.1372 13.226C53.168 13.3228 53.1752 13.4255 53.1583 13.5256C53.1413 13.6258 53.1007 13.7204 53.0398 13.8017C52.9793 13.8842 52.9007 13.9517 52.8102 13.9993C52.7196 14.0469 52.6194 14.0732 52.5172 14.0763L48.6821 14.1826L48.6643 14.1914Z" fill="#1A1A1A"/>
<path id="Vector_13" d="M36.7002 29.9963C36.5626 29.9955 36.4287 29.9506 36.3178 29.8682C36.207 29.7857 36.1248 29.6699 36.0832 29.5373L35.029 25.9265C34.9992 25.8319 34.9923 25.7315 35.0087 25.6336C35.025 25.5357 35.0644 25.4431 35.1233 25.3637C35.1818 25.2831 35.2578 25.217 35.3454 25.1705C35.433 25.124 35.53 25.0982 35.6289 25.0952L39.3399 25C39.5085 25.0018 39.6702 25.068 39.7926 25.1852C39.915 25.3024 39.989 25.4621 39.9998 25.6321C40.002 25.7174 39.9877 25.8023 39.9575 25.882C39.9272 25.9617 39.8818 26.0345 39.8237 26.0965C39.7656 26.1584 39.696 26.2081 39.6188 26.2429C39.5417 26.2776 39.4586 26.2966 39.3741 26.2989L36.4945 26.3681L37.3516 29.165C37.3764 29.2469 37.3847 29.3329 37.3761 29.4181C37.3675 29.5033 37.342 29.5858 37.3013 29.6609C37.2605 29.7359 37.2053 29.802 37.1389 29.8551C37.0724 29.9083 36.9961 29.9474 36.9145 29.9703C36.8463 29.9969 36.7727 30.0058 36.7002 29.9963Z" fill="#1A1A1A"/>
</g>
</svg>
