<svg width="605" height="261" viewBox="0 0 605 261" fill="none" xmlns="http://www.w3.org/2000/svg">
<line x1="55" y1="10.5" x2="605" y2="10.5" stroke="#EBEBEB"/>
<line x1="55" y1="70.5" x2="605" y2="70.5" stroke="#EBEBEB"/>
<line x1="55" y1="130.5" x2="605" y2="130.5" stroke="#EBEBEB"/>
<line x1="55" y1="190.5" x2="605" y2="190.5" stroke="#EBEBEB"/>
<line x1="55" y1="250.5" x2="605" y2="250.5" stroke="#EBEBEB"/>
<path d="M101.5 145C123.325 169.415 137.425 184.593 142.849 190.297C143.371 190.845 144.28 190.625 144.51 189.904L186.417 58.8852C186.725 57.9233 188.102 57.9719 188.341 58.9532L229.66 228.553C229.899 229.534 231.276 229.583 231.584 228.622L272.748 100.343C273.022 99.4889 274.196 99.4002 274.596 100.204L316.649 184.794C316.855 185.208 317.318 185.427 317.768 185.323L360.049 175.604C360.335 175.538 360.578 175.35 360.713 175.089L401.961 95.5042C402.361 94.7338 403.484 94.8026 403.786 95.6159L444.195 204.335C444.5 205.156 445.638 205.216 446.028 204.432L488.554 118.897C488.8 118.402 489.402 118.201 489.896 118.448L531.039 139.019C531.558 139.279 532.189 139.043 532.41 138.507L576 33" stroke="#353534" stroke-width="2"/>
<path d="M104 151C126.234 206.768 138.532 236.324 142.936 246.554C143.302 247.404 144.516 247.326 144.788 246.442L167.922 171.376C168.163 170.595 169.187 170.416 169.678 171.07L209.511 224.181C209.961 224.782 210.888 224.69 211.213 224.013L250.131 142.813C250.488 142.068 251.543 142.052 251.922 142.786L298.753 233.551C299.095 234.215 300.017 234.283 300.453 233.677L359.146 152.185C359.557 151.615 360.413 151.635 360.796 152.225L417.566 239.563C417.983 240.205 418.938 240.159 419.292 239.48L473.867 134.715C474.18 134.114 474.987 133.991 475.464 134.472L532.753 192.247C533.158 192.655 533.824 192.638 534.208 192.21L576.5 145" stroke="#C8C6D4" stroke-width="2" stroke-dasharray="4 4"/>
<path d="M4.216 17.232C3.64533 17.232 3.12 17.1307 2.64 16.928C2.16 16.7253 1.74667 16.4373 1.4 16.064C1.05333 15.6853 0.8 15.2347 0.64 14.712L1.76 14.376C1.952 14.9467 2.26667 15.3787 2.704 15.672C3.14667 15.9653 3.64533 16.1067 4.2 16.096C4.712 16.0853 5.152 15.9707 5.52 15.752C5.89333 15.5333 6.17867 15.2293 6.376 14.84C6.57333 14.4507 6.672 14 6.672 13.488C6.672 12.704 6.44267 12.0747 5.984 11.6C5.53067 11.12 4.93067 10.88 4.184 10.88C3.976 10.88 3.75733 10.9093 3.528 10.968C3.29867 11.0213 3.08533 11.0987 2.888 11.2L2.296 10.264L6.776 6.128L6.968 6.608H1.096V5.48H7.752V6.624L3.848 10.352L3.832 9.888C4.632 9.78667 5.336 9.87733 5.944 10.16C6.552 10.4427 7.02667 10.8747 7.368 11.456C7.71467 12.032 7.888 12.7093 7.888 13.488C7.888 14.224 7.728 14.8747 7.408 15.44C7.09333 16 6.65867 16.44 6.104 16.76C5.54933 17.0747 4.92 17.232 4.216 17.232ZM9.80375 18.672L9.87575 18.088C10.0891 18.104 10.2438 18.0613 10.3398 17.96C10.4358 17.8587 10.4944 17.7227 10.5158 17.552C10.5371 17.3813 10.5424 17.1973 10.5318 17H9.80375V15.312H11.1718V17.32C11.1718 17.8107 11.0464 18.1787 10.7958 18.424C10.5504 18.6693 10.2198 18.752 9.80375 18.672ZM17.9738 17.24C17.2644 17.24 16.6244 17.0747 16.0538 16.744C15.4884 16.4133 15.0404 15.9653 14.7098 15.4C14.3791 14.8293 14.2138 14.1893 14.2138 13.48V9C14.2138 8.29067 14.3791 7.65333 14.7098 7.088C15.0404 6.51733 15.4884 6.06667 16.0538 5.736C16.6244 5.40533 17.2644 5.24 17.9738 5.24C18.6831 5.24 19.3204 5.40533 19.8858 5.736C20.4564 6.06667 20.9071 6.51733 21.2378 7.088C21.5684 7.65333 21.7338 8.29067 21.7338 9V13.48C21.7338 14.1893 21.5684 14.8293 21.2378 15.4C20.9071 15.9653 20.4564 16.4133 19.8858 16.744C19.3204 17.0747 18.6831 17.24 17.9738 17.24ZM17.9738 16.104C18.4484 16.104 18.8804 15.9893 19.2698 15.76C19.6591 15.5253 19.9684 15.2133 20.1978 14.824C20.4271 14.4347 20.5418 14.0053 20.5418 13.536V8.944C20.5418 8.46933 20.4271 8.03733 20.1978 7.648C19.9684 7.25867 19.6591 6.94933 19.2698 6.72C18.8804 6.48533 18.4484 6.368 17.9738 6.368C17.4991 6.368 17.0671 6.48533 16.6778 6.72C16.2884 6.94933 15.9791 7.25867 15.7498 7.648C15.5204 8.03733 15.4058 8.46933 15.4058 8.944V13.536C15.4058 14.0053 15.5204 14.4347 15.7498 14.824C15.9791 15.2133 16.2884 15.5253 16.6778 15.76C17.0671 15.9893 17.4991 16.104 17.9738 16.104ZM27.7394 17.24C27.03 17.24 26.39 17.0747 25.8194 16.744C25.254 16.4133 24.806 15.9653 24.4754 15.4C24.1447 14.8293 23.9794 14.1893 23.9794 13.48V9C23.9794 8.29067 24.1447 7.65333 24.4754 7.088C24.806 6.51733 25.254 6.06667 25.8194 5.736C26.39 5.40533 27.03 5.24 27.7394 5.24C28.4487 5.24 29.086 5.40533 29.6514 5.736C30.222 6.06667 30.6727 6.51733 31.0034 7.088C31.334 7.65333 31.4994 8.29067 31.4994 9V13.48C31.4994 14.1893 31.334 14.8293 31.0034 15.4C30.6727 15.9653 30.222 16.4133 29.6514 16.744C29.086 17.0747 28.4487 17.24 27.7394 17.24ZM27.7394 16.104C28.214 16.104 28.646 15.9893 29.0354 15.76C29.4247 15.5253 29.734 15.2133 29.9634 14.824C30.1927 14.4347 30.3074 14.0053 30.3074 13.536V8.944C30.3074 8.46933 30.1927 8.03733 29.9634 7.648C29.734 7.25867 29.4247 6.94933 29.0354 6.72C28.646 6.48533 28.214 6.368 27.7394 6.368C27.2647 6.368 26.8327 6.48533 26.4434 6.72C26.054 6.94933 25.7447 7.25867 25.5154 7.648C25.286 8.03733 25.1714 8.46933 25.1714 8.944V13.536C25.1714 14.0053 25.286 14.4347 25.5154 14.824C25.7447 15.2133 26.054 15.5253 26.4434 15.76C26.8327 15.9893 27.2647 16.104 27.7394 16.104ZM37.505 17.24C36.7957 17.24 36.1557 17.0747 35.585 16.744C35.0197 16.4133 34.5717 15.9653 34.241 15.4C33.9103 14.8293 33.745 14.1893 33.745 13.48V9C33.745 8.29067 33.9103 7.65333 34.241 7.088C34.5717 6.51733 35.0197 6.06667 35.585 5.736C36.1557 5.40533 36.7957 5.24 37.505 5.24C38.2143 5.24 38.8517 5.40533 39.417 5.736C39.9877 6.06667 40.4383 6.51733 40.769 7.088C41.0997 7.65333 41.265 8.29067 41.265 9V13.48C41.265 14.1893 41.0997 14.8293 40.769 15.4C40.4383 15.9653 39.9877 16.4133 39.417 16.744C38.8517 17.0747 38.2143 17.24 37.505 17.24ZM37.505 16.104C37.9797 16.104 38.4117 15.9893 38.801 15.76C39.1903 15.5253 39.4997 15.2133 39.729 14.824C39.9583 14.4347 40.073 14.0053 40.073 13.536V8.944C40.073 8.46933 39.9583 8.03733 39.729 7.648C39.4997 7.25867 39.1903 6.94933 38.801 6.72C38.4117 6.48533 37.9797 6.368 37.505 6.368C37.0303 6.368 36.5983 6.48533 36.209 6.72C35.8197 6.94933 35.5103 7.25867 35.281 7.648C35.0517 8.03733 34.937 8.46933 34.937 8.944V13.536C34.937 14.0053 35.0517 14.4347 35.281 14.824C35.5103 15.2133 35.8197 15.5253 36.209 15.76C36.5983 15.9893 37.0303 16.104 37.505 16.104Z" fill="black"/>
<path d="M0.8 76.992L0.808 75.92L6.016 71.216C6.464 70.8107 6.76 70.4267 6.904 70.064C7.05333 69.696 7.128 69.312 7.128 68.912C7.128 68.4373 7.016 68.008 6.792 67.624C6.568 67.24 6.26667 66.936 5.888 66.712C5.50933 66.4827 5.08533 66.368 4.616 66.368C4.12533 66.368 3.688 66.4853 3.304 66.72C2.92 66.9547 2.616 67.264 2.392 67.648C2.17333 68.032 2.06667 68.4507 2.072 68.904H0.872C0.872 68.2053 1.03733 67.5787 1.368 67.024C1.69867 66.4693 2.14667 66.0347 2.712 65.72C3.27733 65.4 3.91733 65.24 4.632 65.24C5.33067 65.24 5.95733 65.4053 6.512 65.736C7.072 66.0613 7.512 66.504 7.832 67.064C8.15733 67.6187 8.32 68.2373 8.32 68.92C8.32 69.4 8.26133 69.824 8.144 70.192C8.032 70.5547 7.85333 70.8933 7.608 71.208C7.368 71.5173 7.06133 71.8373 6.688 72.168L2.064 76.344L1.88 75.864H8.32V76.992H0.8ZM10.085 78.672L10.157 78.088C10.3703 78.104 10.525 78.0613 10.621 77.96C10.717 77.8587 10.7757 77.7227 10.797 77.552C10.8183 77.3813 10.8237 77.1973 10.813 77H10.085V75.312H11.453V77.32C11.453 77.8107 11.3277 78.1787 11.077 78.424C10.8317 78.6693 10.501 78.752 10.085 78.672ZM17.895 77.24C17.2977 77.24 16.7457 77.1173 16.239 76.872C15.7323 76.6267 15.3003 76.288 14.943 75.856C14.5857 75.424 14.3297 74.928 14.175 74.368L15.303 74.064C15.4043 74.48 15.5883 74.84 15.855 75.144C16.1217 75.4427 16.4337 75.6747 16.791 75.84C17.1537 76.0053 17.5323 76.088 17.927 76.088C18.439 76.088 18.8977 75.9653 19.303 75.72C19.7137 75.4693 20.039 75.1387 20.279 74.728C20.519 74.3173 20.639 73.8667 20.639 73.376C20.639 72.8693 20.5137 72.4133 20.263 72.008C20.0123 71.5973 19.6817 71.272 19.271 71.032C18.8603 70.792 18.4123 70.672 17.927 70.672C17.383 70.672 16.9137 70.792 16.519 71.032C16.1243 71.2667 15.8097 71.5627 15.575 71.92L14.503 71.472L14.855 65.48H21.007V66.608H15.375L15.959 66.056L15.647 71.168L15.351 70.776C15.6817 70.3973 16.0817 70.1013 16.551 69.888C17.0203 69.6747 17.5137 69.568 18.031 69.568C18.7403 69.568 19.3803 69.7387 19.951 70.08C20.5217 70.416 20.975 70.872 21.311 71.448C21.647 72.024 21.815 72.6667 21.815 73.376C21.815 74.08 21.6363 74.7253 21.279 75.312C20.9217 75.8933 20.447 76.36 19.855 76.712C19.263 77.064 18.6097 77.24 17.895 77.24ZM27.4894 77.24C26.78 77.24 26.14 77.0747 25.5694 76.744C25.004 76.4133 24.556 75.9653 24.2254 75.4C23.8947 74.8293 23.7294 74.1893 23.7294 73.48V69C23.7294 68.2907 23.8947 67.6533 24.2254 67.088C24.556 66.5173 25.004 66.0667 25.5694 65.736C26.14 65.4053 26.78 65.24 27.4894 65.24C28.1987 65.24 28.836 65.4053 29.4014 65.736C29.972 66.0667 30.4227 66.5173 30.7534 67.088C31.084 67.6533 31.2494 68.2907 31.2494 69V73.48C31.2494 74.1893 31.084 74.8293 30.7534 75.4C30.4227 75.9653 29.972 76.4133 29.4014 76.744C28.836 77.0747 28.1987 77.24 27.4894 77.24ZM27.4894 76.104C27.964 76.104 28.396 75.9893 28.7854 75.76C29.1747 75.5253 29.484 75.2133 29.7134 74.824C29.9427 74.4347 30.0574 74.0053 30.0574 73.536V68.944C30.0574 68.4693 29.9427 68.0373 29.7134 67.648C29.484 67.2587 29.1747 66.9493 28.7854 66.72C28.396 66.4853 27.964 66.368 27.4894 66.368C27.0147 66.368 26.5827 66.4853 26.1934 66.72C25.804 66.9493 25.4947 67.2587 25.2654 67.648C25.036 68.0373 24.9214 68.4693 24.9214 68.944V73.536C24.9214 74.0053 25.036 74.4347 25.2654 74.824C25.4947 75.2133 25.804 75.5253 26.1934 75.76C26.5827 75.9893 27.0147 76.104 27.4894 76.104ZM37.255 77.24C36.5457 77.24 35.9057 77.0747 35.335 76.744C34.7697 76.4133 34.3217 75.9653 33.991 75.4C33.6603 74.8293 33.495 74.1893 33.495 73.48V69C33.495 68.2907 33.6603 67.6533 33.991 67.088C34.3217 66.5173 34.7697 66.0667 35.335 65.736C35.9057 65.4053 36.5457 65.24 37.255 65.24C37.9643 65.24 38.6017 65.4053 39.167 65.736C39.7377 66.0667 40.1883 66.5173 40.519 67.088C40.8497 67.6533 41.015 68.2907 41.015 69V73.48C41.015 74.1893 40.8497 74.8293 40.519 75.4C40.1883 75.9653 39.7377 76.4133 39.167 76.744C38.6017 77.0747 37.9643 77.24 37.255 77.24ZM37.255 76.104C37.7297 76.104 38.1617 75.9893 38.551 75.76C38.9403 75.5253 39.2497 75.2133 39.479 74.824C39.7083 74.4347 39.823 74.0053 39.823 73.536V68.944C39.823 68.4693 39.7083 68.0373 39.479 67.648C39.2497 67.2587 38.9403 66.9493 38.551 66.72C38.1617 66.4853 37.7297 66.368 37.255 66.368C36.7803 66.368 36.3483 66.4853 35.959 66.72C35.5697 66.9493 35.2603 67.2587 35.031 67.648C34.8017 68.0373 34.687 68.4693 34.687 68.944V73.536C34.687 74.0053 34.8017 74.4347 35.031 74.824C35.2603 75.2133 35.5697 75.5253 35.959 75.76C36.3483 75.9893 36.7803 76.104 37.255 76.104Z" fill="black"/>
<path d="M0.8 136.992L0.808 135.92L6.016 131.216C6.464 130.811 6.76 130.427 6.904 130.064C7.05333 129.696 7.128 129.312 7.128 128.912C7.128 128.437 7.016 128.008 6.792 127.624C6.568 127.24 6.26667 126.936 5.888 126.712C5.50933 126.483 5.08533 126.368 4.616 126.368C4.12533 126.368 3.688 126.485 3.304 126.72C2.92 126.955 2.616 127.264 2.392 127.648C2.17333 128.032 2.06667 128.451 2.072 128.904H0.872C0.872 128.205 1.03733 127.579 1.368 127.024C1.69867 126.469 2.14667 126.035 2.712 125.72C3.27733 125.4 3.91733 125.24 4.632 125.24C5.33067 125.24 5.95733 125.405 6.512 125.736C7.072 126.061 7.512 126.504 7.832 127.064C8.15733 127.619 8.32 128.237 8.32 128.92C8.32 129.4 8.26133 129.824 8.144 130.192C8.032 130.555 7.85333 130.893 7.608 131.208C7.368 131.517 7.06133 131.837 6.688 132.168L2.064 136.344L1.88 135.864H8.32V136.992H0.8ZM10.085 138.672L10.157 138.088C10.3703 138.104 10.525 138.061 10.621 137.96C10.717 137.859 10.7757 137.723 10.797 137.552C10.8183 137.381 10.8237 137.197 10.813 137H10.085V135.312H11.453V137.32C11.453 137.811 11.3277 138.179 11.077 138.424C10.8317 138.669 10.501 138.752 10.085 138.672ZM18.255 137.24C17.5457 137.24 16.9057 137.075 16.335 136.744C15.7697 136.413 15.3217 135.965 14.991 135.4C14.6603 134.829 14.495 134.189 14.495 133.48V129C14.495 128.291 14.6603 127.653 14.991 127.088C15.3217 126.517 15.7697 126.067 16.335 125.736C16.9057 125.405 17.5457 125.24 18.255 125.24C18.9643 125.24 19.6017 125.405 20.167 125.736C20.7377 126.067 21.1883 126.517 21.519 127.088C21.8497 127.653 22.015 128.291 22.015 129V133.48C22.015 134.189 21.8497 134.829 21.519 135.4C21.1883 135.965 20.7377 136.413 20.167 136.744C19.6017 137.075 18.9643 137.24 18.255 137.24ZM18.255 136.104C18.7297 136.104 19.1617 135.989 19.551 135.76C19.9403 135.525 20.2497 135.213 20.479 134.824C20.7083 134.435 20.823 134.005 20.823 133.536V128.944C20.823 128.469 20.7083 128.037 20.479 127.648C20.2497 127.259 19.9403 126.949 19.551 126.72C19.1617 126.485 18.7297 126.368 18.255 126.368C17.7803 126.368 17.3483 126.485 16.959 126.72C16.5697 126.949 16.2603 127.259 16.031 127.648C15.8017 128.037 15.687 128.469 15.687 128.944V133.536C15.687 134.005 15.8017 134.435 16.031 134.824C16.2603 135.213 16.5697 135.525 16.959 135.76C17.3483 135.989 17.7803 136.104 18.255 136.104ZM28.0206 137.24C27.3113 137.24 26.6713 137.075 26.1006 136.744C25.5353 136.413 25.0873 135.965 24.7566 135.4C24.426 134.829 24.2606 134.189 24.2606 133.48V129C24.2606 128.291 24.426 127.653 24.7566 127.088C25.0873 126.517 25.5353 126.067 26.1006 125.736C26.6713 125.405 27.3113 125.24 28.0206 125.24C28.73 125.24 29.3673 125.405 29.9326 125.736C30.5033 126.067 30.954 126.517 31.2846 127.088C31.6153 127.653 31.7806 128.291 31.7806 129V133.48C31.7806 134.189 31.6153 134.829 31.2846 135.4C30.954 135.965 30.5033 136.413 29.9326 136.744C29.3673 137.075 28.73 137.24 28.0206 137.24ZM28.0206 136.104C28.4953 136.104 28.9273 135.989 29.3166 135.76C29.706 135.525 30.0153 135.213 30.2446 134.824C30.474 134.435 30.5886 134.005 30.5886 133.536V128.944C30.5886 128.469 30.474 128.037 30.2446 127.648C30.0153 127.259 29.706 126.949 29.3166 126.72C28.9273 126.485 28.4953 126.368 28.0206 126.368C27.546 126.368 27.114 126.485 26.7246 126.72C26.3353 126.949 26.026 127.259 25.7966 127.648C25.5673 128.037 25.4526 128.469 25.4526 128.944V133.536C25.4526 134.005 25.5673 134.435 25.7966 134.824C26.026 135.213 26.3353 135.525 26.7246 135.76C27.114 135.989 27.546 136.104 28.0206 136.104ZM37.7863 137.24C37.0769 137.24 36.4369 137.075 35.8663 136.744C35.3009 136.413 34.8529 135.965 34.5223 135.4C34.1916 134.829 34.0263 134.189 34.0263 133.48V129C34.0263 128.291 34.1916 127.653 34.5223 127.088C34.8529 126.517 35.3009 126.067 35.8663 125.736C36.4369 125.405 37.0769 125.24 37.7863 125.24C38.4956 125.24 39.1329 125.405 39.6983 125.736C40.2689 126.067 40.7196 126.517 41.0503 127.088C41.3809 127.653 41.5463 128.291 41.5463 129V133.48C41.5463 134.189 41.3809 134.829 41.0503 135.4C40.7196 135.965 40.2689 136.413 39.6983 136.744C39.1329 137.075 38.4956 137.24 37.7863 137.24ZM37.7863 136.104C38.2609 136.104 38.6929 135.989 39.0823 135.76C39.4716 135.525 39.7809 135.213 40.0103 134.824C40.2396 134.435 40.3543 134.005 40.3543 133.536V128.944C40.3543 128.469 40.2396 128.037 40.0103 127.648C39.7809 127.259 39.4716 126.949 39.0823 126.72C38.6929 126.485 38.2609 126.368 37.7863 126.368C37.3116 126.368 36.8796 126.485 36.4903 126.72C36.1009 126.949 35.7916 127.259 35.5623 127.648C35.3329 128.037 35.2183 128.469 35.2183 128.944V133.536C35.2183 134.005 35.3329 134.435 35.5623 134.824C35.7916 135.213 36.1009 135.525 36.4903 135.76C36.8796 135.989 37.3116 136.104 37.7863 136.104Z" fill="black"/>
<path d="M3.128 197V186.792L0.96 188.096V186.776L3.128 185.48H4.32V197H3.128ZM6.55375 198.672L6.62575 198.088C6.83908 198.104 6.99375 198.061 7.08975 197.96C7.18575 197.859 7.24442 197.723 7.26575 197.552C7.28708 197.381 7.29242 197.197 7.28175 197H6.55375V195.312H7.92175V197.32C7.92175 197.811 7.79642 198.179 7.54575 198.424C7.30042 198.669 6.96975 198.752 6.55375 198.672ZM14.3637 197.24C13.7664 197.24 13.2144 197.117 12.7078 196.872C12.2011 196.627 11.7691 196.288 11.4118 195.856C11.0544 195.424 10.7984 194.928 10.6438 194.368L11.7718 194.064C11.8731 194.48 12.0571 194.84 12.3238 195.144C12.5904 195.443 12.9024 195.675 13.2598 195.84C13.6224 196.005 14.0011 196.088 14.3958 196.088C14.9078 196.088 15.3664 195.965 15.7718 195.72C16.1824 195.469 16.5078 195.139 16.7478 194.728C16.9878 194.317 17.1078 193.867 17.1078 193.376C17.1078 192.869 16.9824 192.413 16.7318 192.008C16.4811 191.597 16.1504 191.272 15.7398 191.032C15.3291 190.792 14.8811 190.672 14.3958 190.672C13.8518 190.672 13.3824 190.792 12.9878 191.032C12.5931 191.267 12.2784 191.563 12.0438 191.92L10.9718 191.472L11.3238 185.48H17.4758V186.608H11.8438L12.4278 186.056L12.1158 191.168L11.8198 190.776C12.1504 190.397 12.5504 190.101 13.0198 189.888C13.4891 189.675 13.9824 189.568 14.4998 189.568C15.2091 189.568 15.8491 189.739 16.4198 190.08C16.9904 190.416 17.4438 190.872 17.7798 191.448C18.1158 192.024 18.2838 192.667 18.2838 193.376C18.2838 194.08 18.1051 194.725 17.7478 195.312C17.3904 195.893 16.9158 196.36 16.3238 196.712C15.7318 197.064 15.0784 197.24 14.3637 197.24ZM23.9581 197.24C23.2488 197.24 22.6088 197.075 22.0381 196.744C21.4728 196.413 21.0248 195.965 20.6941 195.4C20.3635 194.829 20.1981 194.189 20.1981 193.48V189C20.1981 188.291 20.3635 187.653 20.6941 187.088C21.0248 186.517 21.4728 186.067 22.0381 185.736C22.6088 185.405 23.2488 185.24 23.9581 185.24C24.6675 185.24 25.3048 185.405 25.8701 185.736C26.4408 186.067 26.8915 186.517 27.2221 187.088C27.5528 187.653 27.7181 188.291 27.7181 189V193.48C27.7181 194.189 27.5528 194.829 27.2221 195.4C26.8915 195.965 26.4408 196.413 25.8701 196.744C25.3048 197.075 24.6675 197.24 23.9581 197.24ZM23.9581 196.104C24.4328 196.104 24.8648 195.989 25.2541 195.76C25.6435 195.525 25.9528 195.213 26.1821 194.824C26.4115 194.435 26.5261 194.005 26.5261 193.536V188.944C26.5261 188.469 26.4115 188.037 26.1821 187.648C25.9528 187.259 25.6435 186.949 25.2541 186.72C24.8648 186.485 24.4328 186.368 23.9581 186.368C23.4835 186.368 23.0515 186.485 22.6621 186.72C22.2728 186.949 21.9635 187.259 21.7341 187.648C21.5048 188.037 21.3901 188.469 21.3901 188.944V193.536C21.3901 194.005 21.5048 194.435 21.7341 194.824C21.9635 195.213 22.2728 195.525 22.6621 195.76C23.0515 195.989 23.4835 196.104 23.9581 196.104ZM33.7238 197.24C33.0144 197.24 32.3744 197.075 31.8038 196.744C31.2384 196.413 30.7904 195.965 30.4598 195.4C30.1291 194.829 29.9638 194.189 29.9638 193.48V189C29.9638 188.291 30.1291 187.653 30.4598 187.088C30.7904 186.517 31.2384 186.067 31.8038 185.736C32.3744 185.405 33.0144 185.24 33.7238 185.24C34.4331 185.24 35.0704 185.405 35.6358 185.736C36.2064 186.067 36.6571 186.517 36.9878 187.088C37.3184 187.653 37.4838 188.291 37.4838 189V193.48C37.4838 194.189 37.3184 194.829 36.9878 195.4C36.6571 195.965 36.2064 196.413 35.6358 196.744C35.0704 197.075 34.4331 197.24 33.7238 197.24ZM33.7238 196.104C34.1984 196.104 34.6304 195.989 35.0198 195.76C35.4091 195.525 35.7184 195.213 35.9478 194.824C36.1771 194.435 36.2918 194.005 36.2918 193.536V188.944C36.2918 188.469 36.1771 188.037 35.9478 187.648C35.7184 187.259 35.4091 186.949 35.0198 186.72C34.6304 186.485 34.1984 186.368 33.7238 186.368C33.2491 186.368 32.8171 186.485 32.4278 186.72C32.0384 186.949 31.7291 187.259 31.4998 187.648C31.2704 188.037 31.1558 188.469 31.1558 188.944V193.536C31.1558 194.005 31.2704 194.435 31.4998 194.824C31.7291 195.213 32.0384 195.525 32.4278 195.76C32.8171 195.989 33.2491 196.104 33.7238 196.104Z" fill="black"/>
<path d="M3.128 257V246.792L0.96 248.096V246.776L3.128 245.48H4.32V257H3.128ZM6.55375 258.672L6.62575 258.088C6.83908 258.104 6.99375 258.061 7.08975 257.96C7.18575 257.859 7.24442 257.723 7.26575 257.552C7.28708 257.381 7.29242 257.197 7.28175 257H6.55375V255.312H7.92175V257.32C7.92175 257.811 7.79642 258.179 7.54575 258.424C7.30042 258.669 6.96975 258.752 6.55375 258.672ZM14.7238 257.24C14.0144 257.24 13.3744 257.075 12.8038 256.744C12.2384 256.413 11.7904 255.965 11.4598 255.4C11.1291 254.829 10.9638 254.189 10.9638 253.48V249C10.9638 248.291 11.1291 247.653 11.4598 247.088C11.7904 246.517 12.2384 246.067 12.8038 245.736C13.3744 245.405 14.0144 245.24 14.7238 245.24C15.4331 245.24 16.0704 245.405 16.6358 245.736C17.2064 246.067 17.6571 246.517 17.9878 247.088C18.3184 247.653 18.4838 248.291 18.4838 249V253.48C18.4838 254.189 18.3184 254.829 17.9878 255.4C17.6571 255.965 17.2064 256.413 16.6358 256.744C16.0704 257.075 15.4331 257.24 14.7238 257.24ZM14.7238 256.104C15.1984 256.104 15.6304 255.989 16.0198 255.76C16.4091 255.525 16.7184 255.213 16.9478 254.824C17.1771 254.435 17.2918 254.005 17.2918 253.536V248.944C17.2918 248.469 17.1771 248.037 16.9478 247.648C16.7184 247.259 16.4091 246.949 16.0198 246.72C15.6304 246.485 15.1984 246.368 14.7238 246.368C14.2491 246.368 13.8171 246.485 13.4278 246.72C13.0384 246.949 12.7291 247.259 12.4998 247.648C12.2704 248.037 12.1558 248.469 12.1558 248.944V253.536C12.1558 254.005 12.2704 254.435 12.4998 254.824C12.7291 255.213 13.0384 255.525 13.4278 255.76C13.8171 255.989 14.2491 256.104 14.7238 256.104ZM24.4894 257.24C23.78 257.24 23.14 257.075 22.5694 256.744C22.004 256.413 21.556 255.965 21.2254 255.4C20.8947 254.829 20.7294 254.189 20.7294 253.48V249C20.7294 248.291 20.8947 247.653 21.2254 247.088C21.556 246.517 22.004 246.067 22.5694 245.736C23.14 245.405 23.78 245.24 24.4894 245.24C25.1987 245.24 25.836 245.405 26.4014 245.736C26.972 246.067 27.4227 246.517 27.7534 247.088C28.084 247.653 28.2494 248.291 28.2494 249V253.48C28.2494 254.189 28.084 254.829 27.7534 255.4C27.4227 255.965 26.972 256.413 26.4014 256.744C25.836 257.075 25.1987 257.24 24.4894 257.24ZM24.4894 256.104C24.964 256.104 25.396 255.989 25.7854 255.76C26.1747 255.525 26.484 255.213 26.7134 254.824C26.9427 254.435 27.0574 254.005 27.0574 253.536V248.944C27.0574 248.469 26.9427 248.037 26.7134 247.648C26.484 247.259 26.1747 246.949 25.7854 246.72C25.396 246.485 24.964 246.368 24.4894 246.368C24.0147 246.368 23.5827 246.485 23.1934 246.72C22.804 246.949 22.4947 247.259 22.2654 247.648C22.036 248.037 21.9214 248.469 21.9214 248.944V253.536C21.9214 254.005 22.036 254.435 22.2654 254.824C22.4947 255.213 22.804 255.525 23.1934 255.76C23.5827 255.989 24.0147 256.104 24.4894 256.104ZM34.255 257.24C33.5457 257.24 32.9057 257.075 32.335 256.744C31.7697 256.413 31.3217 255.965 30.991 255.4C30.6603 254.829 30.495 254.189 30.495 253.48V249C30.495 248.291 30.6603 247.653 30.991 247.088C31.3217 246.517 31.7697 246.067 32.335 245.736C32.9057 245.405 33.5457 245.24 34.255 245.24C34.9643 245.24 35.6017 245.405 36.167 245.736C36.7377 246.067 37.1883 246.517 37.519 247.088C37.8497 247.653 38.015 248.291 38.015 249V253.48C38.015 254.189 37.8497 254.829 37.519 255.4C37.1883 255.965 36.7377 256.413 36.167 256.744C35.6017 257.075 34.9643 257.24 34.255 257.24ZM34.255 256.104C34.7297 256.104 35.1617 255.989 35.551 255.76C35.9403 255.525 36.2497 255.213 36.479 254.824C36.7083 254.435 36.823 254.005 36.823 253.536V248.944C36.823 248.469 36.7083 248.037 36.479 247.648C36.2497 247.259 35.9403 246.949 35.551 246.72C35.1617 246.485 34.7297 246.368 34.255 246.368C33.7803 246.368 33.3483 246.485 32.959 246.72C32.5697 246.949 32.2603 247.259 32.031 247.648C31.8017 248.037 31.687 248.469 31.687 248.944V253.536C31.687 254.005 31.8017 254.435 32.031 254.824C32.2603 255.213 32.5697 255.525 32.959 255.76C33.3483 255.989 33.7803 256.104 34.255 256.104Z" fill="black"/>
</svg>
