<svg width="106" height="105" viewBox="0 0 106 105" fill="none" xmlns="http://www.w3.org/2000/svg">
<circle cx="52.7994" cy="52.5" r="52.5" fill="#FFB361"/>
<path d="M79.8626 57.7689C79.4923 56.3785 78.7136 55.1745 77.6361 54.2778C77.9505 52.6709 78.1174 51.0507 78.1174 49.4523C78.1174 35.4825 66.7622 24.1172 52.8048 24.1172C38.8475 24.1172 27.4915 35.4825 27.4915 49.4523C27.4915 51.0538 27.6569 52.6747 27.9666 54.2817C26.8852 55.1815 26.105 56.3879 25.7347 57.7798C25.2627 59.5537 25.5096 61.4013 26.4287 62.9765L31.4686 71.7341C32.6905 73.8565 34.9853 75.1755 37.4571 75.1755C38.6542 75.1755 39.8342 74.8603 40.8721 74.2625L41.5087 73.8914L42.9573 76.4028C43.8074 77.8646 45.2629 78.7031 46.9514 78.7031H48.4715C48.8177 79.9545 49.962 80.8822 51.3306 80.8822H54.2791C55.9086 80.8822 57.2345 79.5562 57.2345 77.9267C57.2345 76.2856 55.9086 74.9503 54.2791 74.9503H51.3306C49.9597 74.9503 48.8138 75.8866 48.4699 77.1504H46.9522C45.832 77.1504 44.8655 76.593 44.3019 75.6242L42.8517 73.1097L43.9261 72.4832C44.704 72.0392 45.2598 71.3187 45.492 70.457C45.7217 69.6 45.6037 68.7072 45.1605 67.9449L36.5527 53.0233C36.0706 52.1942 35.2492 51.6275 34.3231 51.442C34.2447 50.7425 34.1935 50.0772 34.1935 49.4523C34.1935 44.5964 36.0652 40.1698 39.1223 36.8526L39.9918 37.7159C40.7013 38.441 41.6337 38.8113 42.5722 38.8113C43.3105 38.8113 44.0534 38.5815 44.6931 38.1142C47.0787 36.4226 49.8836 35.529 52.8041 35.529C55.7323 35.529 58.5286 36.4218 60.8902 38.1118C62.3512 39.1591 64.3362 38.9961 65.6086 37.7245L66.4859 36.8526C69.543 40.1698 71.4147 44.5964 71.4147 49.4523C71.4147 50.0756 71.3627 50.7417 71.2827 51.442C70.3573 51.6275 69.5368 52.1942 69.0539 53.0249L60.4516 67.9433C60.0067 68.7072 59.8872 69.6023 60.1162 70.4617C60.3444 71.3187 60.8917 72.0361 61.6572 72.4824L64.7399 74.2656C65.7748 74.8618 66.9524 75.177 68.1464 75.177C70.6081 75.177 72.8967 73.8581 74.117 71.7364L79.1794 62.978C80.0924 61.392 80.3353 59.542 79.8626 57.7689ZM51.3298 76.5037H54.2783C55.0383 76.5037 55.6811 77.1559 55.6811 77.9275C55.6811 78.7007 55.0515 79.3303 54.2783 79.3303H51.3298C50.5442 79.3303 49.9061 78.7007 49.9061 77.9275C49.9053 77.1419 50.5442 76.5037 51.3298 76.5037ZM40.0935 72.9203C39.2938 73.3806 38.3817 73.6236 37.4563 73.6236C35.538 73.6236 33.7587 72.6035 32.8139 70.9601L27.7718 62.1986C27.0607 60.979 26.8705 59.5521 27.2353 58.1796C27.5521 56.9895 28.2531 55.9718 29.2305 55.2591L30.4151 54.6575L37.5044 66.9349L37.4982 66.9395L40.7331 72.5476L40.0935 72.9203ZM35.2097 53.802L43.8151 68.7243C44.0503 69.1288 44.1124 69.6015 43.9906 70.0557C43.8671 70.5153 43.5698 70.8988 43.149 71.1394L42.0847 71.7597L31.8024 53.9533L33.7983 52.9395C34.3813 52.9814 34.9162 53.2973 35.2097 53.802ZM61.7946 36.8495C59.1675 34.9701 56.0584 33.9764 52.8041 33.9764C49.5599 33.9764 46.4445 34.9693 43.7856 36.8542C42.9534 37.4621 41.8239 37.3697 41.0933 36.6221L40.22 35.7549C43.5356 32.7063 47.9552 30.8409 52.8033 30.8409C57.6514 30.8409 62.071 32.7063 65.3866 35.7542L64.5117 36.6236C63.7672 37.3705 62.6501 37.4628 61.7946 36.8495ZM52.8041 29.289C41.6857 29.289 32.6408 38.3339 32.6408 49.453C32.6408 50.1044 32.6843 50.7844 32.7619 51.5025C32.5019 51.577 32.2503 51.6811 32.0159 51.8169L29.3718 53.347C29.1567 52.0483 29.0442 50.7433 29.0442 49.4523C29.0442 36.3387 39.703 25.6698 52.8041 25.6698C65.9052 25.6698 76.564 36.3387 76.564 49.4523C76.564 50.7402 76.4499 52.0452 76.2317 53.3447L73.593 51.8177C73.3547 51.6795 73.1001 51.5739 72.8377 51.4994C72.9153 50.7844 72.9673 50.0989 72.9673 49.4523C72.9673 38.3339 63.9225 29.289 52.8041 29.289ZM61.6168 70.0619C61.4949 69.6039 61.5578 69.1288 61.7946 68.7212L70.3977 53.8043C70.7137 53.2609 71.3037 52.9232 71.9356 52.9232C72.243 52.9232 72.5473 53.0047 72.8152 53.1607L73.902 53.7895L63.5203 71.7659L62.4366 71.1394C62.0298 70.9026 61.7387 70.5199 61.6168 70.0619ZM77.8348 62.2017L72.7725 70.9601C71.8269 72.6028 70.0546 73.6236 68.1464 73.6236C67.2241 73.6236 66.3143 73.3806 65.5162 72.9211L64.8641 72.5438L75.245 54.5674L75.8964 54.9447C77.1198 55.6488 77.9955 56.7946 78.3612 58.1687C78.7268 59.5428 78.5405 60.9751 77.8348 62.2017Z" fill="black" stroke="black" stroke-width="0.5"/>
</svg>
