<svg width="106" height="105" viewBox="0 0 106 105" fill="none" xmlns="http://www.w3.org/2000/svg">
<circle cx="53.4" cy="52.5" r="52.5" fill="#69B1EA"/>
<g clip-path="url(#clip0_94_10244)">
<path d="M55.9135 46.5212C55.094 46.5212 55.094 45.2858 55.9135 45.2858H68.2936C69.1132 45.2858 69.1132 46.5212 68.2936 46.5212H55.9135ZM55.9135 41.0117C55.094 41.0117 55.094 39.7763 55.9135 39.7763H71.2862C72.1058 39.7763 72.1058 41.0117 71.2862 41.0117H55.9135ZM55.9135 35.5022C55.094 35.5022 55.094 34.2668 55.9135 34.2668H71.1372C71.9568 34.2668 71.9568 35.5022 71.1372 35.5022H55.9135ZM36.6293 35.7492C39.5598 35.7492 41.9315 38.1087 41.9315 41.024C41.9315 42.8646 40.9878 44.5076 39.5102 45.4588C40.7271 45.7923 41.857 46.3359 42.8628 47.0523C44.6509 48.3247 46.0293 50.1406 46.7619 52.253C46.9357 52.7101 46.6129 53.1054 46.1907 53.1054H27.0679C26.6582 53.1054 26.3477 52.6977 26.4843 52.2901C27.6267 48.9547 30.371 46.3976 33.7609 45.4588C30.9297 43.6305 30.4951 39.6775 32.8917 37.2934C33.8354 36.3422 35.1641 35.7492 36.6293 35.7492ZM39.4977 38.1704C37.9083 36.5892 35.3379 36.5892 33.7485 38.1704C32.1591 39.7516 32.1591 42.3087 33.7485 43.8899C35.3379 45.4711 37.9083 45.4711 39.4977 43.8899C41.0872 42.3087 41.0872 39.7393 39.4977 38.1704ZM36.6293 46.2988C32.8544 46.2988 29.4893 48.51 27.9744 51.8701H45.2842C43.7693 48.51 40.4042 46.2988 36.6293 46.2988ZM80.711 29.3009C80.711 29.1279 80.6117 28.9179 80.4627 28.9179H50.2139C50.0649 28.9179 49.9656 29.1156 49.9656 29.3009V51.4995C49.9656 51.6724 50.0649 51.8824 50.2139 51.8824H80.4627C80.6117 51.8824 80.711 51.6848 80.711 51.4995V29.3009ZM81.543 28.1891C81.7913 28.4856 81.9528 28.8685 81.9528 29.3009V51.4995C81.9528 52.3518 81.3071 53.1054 80.4627 53.1054H50.2139C49.3571 53.1054 48.7239 52.3395 48.7239 51.4995V29.3009C48.7239 28.4485 49.3696 27.6826 50.2139 27.6826H80.4627C80.8849 27.6826 81.2698 27.8803 81.543 28.1891ZM48.8729 76.0822H57.9003C58.5212 74.4516 59.4897 72.9692 60.6942 71.7463C56.4475 68.275 50.3257 68.275 46.0789 71.7463C47.2959 72.9692 48.252 74.4516 48.8729 76.0822ZM58.3473 77.3175H25.4537C25.0315 77.3175 24.7335 76.9099 24.8701 76.5022C26.2484 72.4504 29.6508 69.3498 33.7982 68.2997C30.2592 66.2368 29.6259 61.4067 32.5316 58.5284C33.6616 57.4043 35.2262 56.7125 36.9522 56.7125C40.4042 56.7125 43.1981 59.492 43.1981 62.9261C43.1981 65.1868 41.9812 67.2003 40.0938 68.2997C41.9812 68.7815 43.7072 69.6709 45.1725 70.8939C46.6377 69.6586 48.3762 68.7692 50.2512 68.2997C48.3637 67.2003 47.1468 65.1868 47.1468 62.9261C47.1468 59.492 49.9408 56.7125 53.3928 56.7125C56.8448 56.7125 59.6387 59.492 59.6387 62.9261C59.6387 65.2115 58.397 67.225 56.5344 68.2997C58.4094 68.7692 60.1478 69.6709 61.6131 70.8939C63.0783 69.6709 64.8044 68.7692 66.6918 68.2997C63.1528 66.2368 62.5196 61.4067 65.4252 58.5284C66.5552 57.4043 68.1198 56.7125 69.8458 56.7125C73.2978 56.7125 76.0918 59.492 76.0918 62.9261C76.0918 65.1868 74.8749 67.2003 72.9874 68.2997C74.5396 68.695 75.9924 69.3621 77.259 70.2762C79.3948 71.7957 81.0339 73.9575 81.9155 76.4652C82.0894 76.9099 81.7665 77.3175 81.3443 77.3175C73.6704 77.3175 66.0088 77.3175 58.3473 77.3175ZM62.0477 72.1539C62.0353 72.1663 62.0229 72.1786 62.0104 72.191C60.8308 73.2781 59.8871 74.5998 59.2414 76.0822H80.4254C77.3087 68.8433 67.9087 66.805 62.0477 72.1539ZM44.7627 72.1786C44.3033 71.7957 44.1667 71.6351 43.6327 71.2645C37.66 67.015 29.241 69.3621 26.3477 76.0699H47.5318C46.8985 74.5998 45.9424 73.2657 44.7627 72.1786ZM49.8538 66.4468C50.7603 67.3486 52.0145 67.9044 53.3928 67.9044C56.1619 67.9044 58.397 65.6809 58.397 62.9261C58.397 60.1714 56.1619 57.9355 53.3928 57.9355C50.6237 57.9355 48.3886 60.1714 48.3886 62.9138C48.3886 64.2973 48.9474 65.545 49.8538 66.4468ZM74.85 62.9261C74.85 60.1714 72.6025 57.9478 69.8458 57.9478C67.0892 57.9478 64.8416 60.1837 64.8416 62.9261C64.8416 65.6685 67.0892 67.9044 69.8458 67.9044C72.6025 67.9044 74.85 65.6809 74.85 62.9261ZM41.9564 62.9261C41.9564 60.1714 39.7088 57.9478 36.9522 57.9478C34.1955 57.9478 31.948 60.1837 31.948 62.9261C31.948 65.6685 34.1955 67.9044 36.9522 67.9044C39.7088 67.9044 41.9564 65.6809 41.9564 62.9261Z" fill="#F8F8F8" stroke="#F8F8F8" stroke-width="0.7"/>
</g>
<defs>
<clipPath id="clip0_94_10244">
<rect width="59" height="59" fill="white" transform="translate(23.9 23)"/>
</clipPath>
</defs>
</svg>
