<svg width="1347" height="133" viewBox="0 0 1347 133" fill="none" xmlns="http://www.w3.org/2000/svg">
<path d="M13 105.242C42.1702 103.127 61.617 86.2034 77.6818 74.3572C93.7465 62.511 121.648 84.088 133.908 84.5111C146.168 84.9342 152.51 84.9342 160.119 77.7418C167.729 70.5495 186.33 44.3187 198.167 46.8572C210.005 49.3956 224.801 65.896 229.029 62.5114C233.256 59.1268 235.793 47.2806 243.825 51.0883C251.857 54.896 296.247 98.8961 306.393 100.165C316.539 101.435 335.563 94.665 355.01 84.5111C370.568 76.388 407.15 46.7164 423.497 32.896C429.001 28.2421 432.713 24.519 437.448 28.2421C443.366 32.896 477.187 70.9726 484.374 74.3572C491.561 77.7418 505.089 70.9726 507.203 74.3572C509.316 77.7418 518.617 109.896 522.422 109.896C526.227 109.896 540.178 94.2425 546.096 93.3963C552.015 92.5502 568.925 93.3963 573.153 93.3963C577.38 93.3963 599.363 47.7039 606.55 47.2809C613.737 46.8578 637.412 63.7809 641.216 63.7809C645.021 63.7809 658.972 53.204 665.313 53.204C671.655 53.204 686.451 59.5501 689.833 59.127C693.215 58.704 719.426 39.2424 726.19 35.8578C732.955 32.4731 743.524 27.5334 751.979 27.5334C760.476 27.5334 766.352 29.9347 776.076 34.1655C783.854 37.5501 824.27 56.3027 844.562 71.9566C853.863 79.1313 868.321 89.9271 872.042 89.5886C876.692 89.1656 884.724 81.6884 891.066 74.9192C896.139 69.5038 926.859 34.0244 940.951 16.3962C948.983 8.35772 951.942 5.78828 957.016 5.11135C963.357 4.2652 969.698 8.35772 978.153 13.4347C984.918 17.4962 1029.45 48.9732 1050.87 64.204C1052.98 65.6143 1057.72 68.0117 1059.75 66.3194C1062.28 64.204 1074.96 52.7809 1080.04 53.204C1085.11 53.6271 1092.3 63.7809 1094.83 60.8194C1097.37 57.8579 1103.71 36.2809 1108.36 36.2809C1112.03 36.2809 1131.37 47.265 1140.96 52.9761C1141.21 53.1303 1141.45 53.3066 1141.69 53.4897C1143.02 54.5128 1145.87 56.0505 1148.95 55.7425C1153.17 55.3194 1159.52 53.204 1163.74 53.204C1167.97 53.204 1180.65 66.3194 1184.04 66.3194C1187.42 66.3194 1192.91 62.0886 1196.72 64.204C1200.52 66.3194 1215.32 89.5887 1219.12 89.5887C1222.93 89.5887 1228 89.1656 1230.54 91.7041C1233.08 94.2425 1236.88 99.3195 1239.42 97.6272C1241.95 95.9348 1245.34 86.2041 1247.87 85.781C1250.41 85.3579 1275.77 95.0887 1281.69 97.6272C1287.61 100.166 1306.21 102.704 1312.13 103.55C1316.87 104.227 1328.35 105.436 1333 106" stroke="#777777" stroke-width="2"/>
<g filter="url(#filter0_d_98_10701)">
<path d="M13.9993 110.242C43.1695 108.127 62.6163 91.2034 78.681 79.3572C94.7458 67.511 122.648 89.088 134.908 89.5111C147.168 89.9342 153.509 89.9342 161.119 82.7418C168.728 75.5495 187.329 49.3187 199.167 51.8572C211.004 54.3956 225.8 70.896 230.028 67.5114C234.255 64.1268 236.792 52.2806 244.824 56.0883C252.857 59.896 297.246 103.896 307.392 105.165C317.539 106.435 336.563 99.6649 356.009 89.5111C371.567 81.388 406.881 50.4743 423.228 36.6539C428.732 32 432.444 28.2769 437.179 32C443.097 36.6539 478.186 75.9726 485.373 79.3572C492.56 82.7418 506.088 75.9726 508.202 79.3572C510.316 82.7418 519.616 114.896 523.421 114.896C527.226 114.896 541.177 99.2425 547.095 98.3963C553.014 97.5502 569.924 98.3963 574.152 98.3963C578.379 98.3963 600.363 52.7039 607.55 52.2809C614.736 51.8578 638.411 68.7809 642.216 68.7809C646.02 68.7809 659.971 58.204 666.313 58.204C672.654 58.204 687.451 64.5501 690.833 64.127C694.215 63.704 720.426 44.2424 727.19 40.8578C733.954 37.4731 744.523 32.5334 752.978 32.5334C761.475 32.5334 767.352 34.9347 777.075 39.1655C784.854 42.5501 825.269 61.3027 845.562 76.9566C854.862 84.1313 869.321 94.9271 873.041 94.5886C877.691 94.1656 886.992 87.8194 893.333 81.0502C898.406 75.6348 927.858 39.0244 941.95 21.3962C949.982 13.3577 952.942 10.7883 958.015 10.1114C964.356 9.2652 970.698 13.3577 979.153 18.4347C985.917 22.4962 1030.45 53.9732 1051.87 69.204C1053.98 70.6143 1058.72 73.0117 1060.74 71.3194C1063.28 69.204 1075.96 57.7809 1081.04 58.204C1086.11 58.6271 1093.3 68.7809 1095.83 65.8194C1098.37 62.8579 1104.71 41.2809 1109.36 41.2809C1113.03 41.2809 1132.37 52.265 1141.95 57.9761C1142.21 58.1303 1142.45 58.3066 1142.69 58.4897C1144.02 59.5128 1146.87 61.0505 1149.95 60.7425C1154.17 60.3194 1160.52 58.204 1164.74 58.204C1168.97 58.204 1181.65 71.3194 1185.04 71.3194C1188.42 71.3194 1193.91 67.0886 1197.72 69.204C1201.52 71.3194 1216.32 94.5887 1220.12 94.5887C1223.93 94.5887 1229 94.1656 1231.54 96.7041C1234.07 99.2425 1237.88 104.319 1240.42 102.627C1242.95 100.935 1246.33 91.2041 1248.87 90.781C1251.41 90.3579 1276.77 100.089 1282.69 102.627C1288.61 105.166 1307.21 107.704 1313.13 108.55C1317.87 109.227 1328.35 110.525 1333 111.089" stroke="url(#paint0_linear_98_10701)" stroke-width="2" shape-rendering="crispEdges"/>
</g>
<defs>
<filter id="filter0_d_98_10701" x="0.92688" y="0" width="1345.19" height="132.896" filterUnits="userSpaceOnUse" color-interpolation-filters="sRGB">
<feFlood flood-opacity="0" result="BackgroundImageFix"/>
<feColorMatrix in="SourceAlpha" type="matrix" values="0 0 0 0 0 0 0 0 0 0 0 0 0 0 0 0 0 0 127 0" result="hardAlpha"/>
<feOffset dy="4"/>
<feGaussianBlur stdDeviation="6.5"/>
<feComposite in2="hardAlpha" operator="out"/>
<feColorMatrix type="matrix" values="0 0 0 0 0.164079 0 0 0 0 0.159026 0 0 0 0 0.159026 0 0 0 0.25 0"/>
<feBlend mode="normal" in2="BackgroundImageFix" result="effect1_dropShadow_98_10701"/>
<feBlend mode="normal" in="SourceGraphic" in2="effect1_dropShadow_98_10701" result="shape"/>
</filter>
<linearGradient id="paint0_linear_98_10701" x1="673.5" y1="10" x2="673.5" y2="114.896" gradientUnits="userSpaceOnUse">
<stop stop-color="#DADADA"/>
<stop offset="1" stop-color="#DADADA" stop-opacity="0"/>
</linearGradient>
</defs>
</svg>
