<svg width="450" height="274" viewBox="0 0 450 274" fill="none" xmlns="http://www.w3.org/2000/svg">
<line y1="0.5" x2="450" y2="0.5" stroke="#F2F2F2"/>
<line y1="69.1842" x2="450" y2="69.1842" stroke="#F2F2F2"/>
<line y1="135.5" x2="450" y2="135.5" stroke="#F2F2F2"/>
<line y1="207.737" x2="450" y2="207.737" stroke="#F2F2F2"/>
<line y1="272.869" x2="450" y2="272.869" stroke="#F2F2F2"/>
<path d="M33 264.184C35.7493 252.401 39.0451 240.94 40.4257 236.427C40.4753 236.264 40.5642 236.122 40.6866 236.005L52.1032 225.027C52.6888 224.464 53.6658 224.797 53.7854 225.601L59.7251 265.481C59.8877 266.573 61.439 266.635 61.6883 265.56L68.5 236.184L77 209.184L88.5531 165.86C88.7516 165.116 89.6817 164.866 90.2264 165.411L96.51 171.694C96.8047 171.989 97.2514 172.07 97.6309 171.897L102.171 169.834C102.384 169.737 102.556 169.569 102.657 169.359L110.445 153.298C110.481 153.222 110.508 153.143 110.525 153.06L117.457 118.896C117.485 118.756 117.543 118.625 117.626 118.509L123.763 110.013C123.915 109.802 124.143 109.659 124.399 109.614L131.578 108.347C132.097 108.255 132.598 108.582 132.723 109.093L138.813 133.922C138.923 134.37 139.324 134.684 139.784 134.684H144.826C145.234 134.684 145.6 134.931 145.753 135.308L152.413 151.736C152.687 152.412 153.57 152.576 154.069 152.044L167.138 138.104C167.578 137.634 168.342 137.697 168.699 138.233L173.56 145.524C173.818 145.911 174.308 146.069 174.743 145.906L185.797 141.76C185.931 141.71 186.052 141.632 186.153 141.531L194.356 133.328C194.882 132.803 195.777 133.014 196.012 133.719L201.951 151.536C202.194 152.268 203.139 152.46 203.649 151.882L209.019 145.796C209.488 145.264 210.346 145.376 210.663 146.011L215.211 155.106C215.558 155.801 216.531 155.852 216.949 155.197L237.543 122.9C237.807 122.487 238.33 122.326 238.781 122.519L244.285 124.878C244.705 125.058 245.195 124.93 245.473 124.566L251.262 116.996C251.415 116.795 251.638 116.66 251.886 116.618L265.465 114.276C265.799 114.219 266.081 113.996 266.214 113.685L272.371 99.3197C272.744 98.4491 274.005 98.5367 274.254 99.4505L279.387 118.27C279.459 118.535 279.637 118.758 279.878 118.888L285.734 122.041C285.907 122.134 286.049 122.277 286.142 122.451L293.057 135.416C293.445 136.144 294.498 136.115 294.846 135.367L307.313 108.585C307.432 108.33 307.653 108.136 307.922 108.052L315.03 105.831C315.326 105.738 315.563 105.514 315.67 105.222L322.441 86.8433C322.48 86.738 322.536 86.64 322.608 86.5533L328.899 78.9139C329.236 78.5045 329.835 78.4295 330.262 78.7432L336.075 83.0062C336.564 83.3647 337.257 83.2092 337.546 82.6761L343.216 72.2079C343.391 71.8852 343.729 71.6842 344.096 71.6842H351.417C351.777 71.6842 352.11 71.4901 352.287 71.1763L358.436 60.2981C358.478 60.2225 358.511 60.1417 358.533 60.0576L364.893 35.5957C364.961 35.3328 365.134 35.109 365.371 34.9758L372.797 30.7986C372.93 30.7233 373.045 30.6183 373.132 30.4917L378.494 22.6546C378.935 22.0104 379.911 22.0971 380.231 22.809L392.573 50.2343C392.806 50.7525 393.423 50.9725 393.932 50.7184L399.422 47.9732C399.774 47.7973 400.196 47.8439 400.501 48.0924L413.5 58.6842" stroke="#69B1EA" stroke-width="2"/>
<circle cx="413.5" cy="58.1842" r="3.5" fill="#69B1EA"/>
</svg>
