<svg width="85" height="84" viewBox="0 0 85 84" fill="none" xmlns="http://www.w3.org/2000/svg">
<g id="noun-trading-forex-4621478 1">
<path id="Vector" d="M57.8481 29.2005H59.0246V36.4569C59.0246 37.2781 59.6879 37.9434 60.5065 37.9434C61.3251 37.9434 61.9884 37.2781 61.9884 36.4569V29.2005H63.1648C63.9834 29.2005 64.6467 28.5351 64.6467 27.714V15.6484C64.6467 14.8273 63.9834 14.1619 63.1648 14.1619H61.9884V6.90545C61.9884 6.08432 61.3251 5.41895 60.5065 5.41895C59.6879 5.41895 59.0246 6.08432 59.0246 6.90545V14.1619H57.8481C57.0295 14.1619 56.3662 14.8273 56.3662 15.6484V27.714C56.3662 28.5351 57.0295 29.2005 57.8481 29.2005ZM59.3301 17.1349H61.6829V26.2275H59.3301V17.1349ZM45.8444 41.1061H47.0208V48.3625C47.0208 49.1836 47.6841 49.849 48.5027 49.849C49.3213 49.849 49.9846 49.1836 49.9846 48.3625V41.1061H51.161C51.9796 41.1061 52.6429 40.4407 52.6429 39.6196V27.554C52.6429 26.7329 51.9796 26.0675 51.161 26.0675H49.9846V18.811C49.9846 17.9899 49.3213 17.3245 48.5027 17.3245C47.6841 17.3245 47.0208 17.9899 47.0208 18.811V26.0675H45.8444C45.0258 26.0675 44.3624 26.7329 44.3624 27.554V39.6196C44.3624 40.4407 45.0258 41.1061 45.8444 41.1061ZM47.3254 29.0405H49.6782V38.1331H47.3254V29.0405ZM33.8397 29.2005H35.0161V36.4569C35.0161 37.2781 35.6795 37.9434 36.498 37.9434C37.3166 37.9434 37.9799 37.2781 37.9799 36.4569V29.2005H39.1564C39.975 29.2005 40.6383 28.5351 40.6383 27.714V15.6484C40.6383 14.8273 39.975 14.1619 39.1564 14.1619H37.9799V6.90545C37.9799 6.08432 37.3166 5.41895 36.498 5.41895C35.6795 5.41895 35.0161 6.08432 35.0161 6.90545V14.1619H33.8397C33.0211 14.1619 32.3578 14.8273 32.3578 15.6484V27.714C32.3578 28.5351 33.0211 29.2005 33.8397 29.2005ZM35.3216 17.1349H37.6745V26.2275H35.3216V17.1349ZM20.354 27.554V39.6196C20.354 40.4407 21.0173 41.1061 21.8359 41.1061H23.0123V48.3625C23.0123 49.1836 23.6757 49.849 24.4943 49.849C25.3128 49.849 25.9762 49.1836 25.9762 48.3625V41.1061H27.1526C27.9712 41.1061 28.6345 40.4407 28.6345 39.6196V27.554C28.6345 26.7329 27.9712 26.0675 27.1526 26.0675H25.9762V18.811C25.9762 17.9899 25.3128 17.3245 24.4943 17.3245C23.6757 17.3245 23.0123 17.9899 23.0123 18.811V26.0675H21.8359C21.0173 26.0675 20.354 26.7329 20.354 27.554ZM23.317 29.0405H25.6698V38.1331H23.317V29.0405ZM75.1087 12.4976H68.992C68.1734 12.4976 67.5101 13.163 67.5101 13.9841C67.5101 14.8053 68.1734 15.4706 68.992 15.4706H75.1087C76.4117 15.4706 77.4716 16.5347 77.4716 17.8418V54.5354H7.52827V19.2343C7.52827 17.1586 9.21187 15.4706 11.2803 15.4706H19.5346C20.3532 15.4706 21.0165 14.8053 21.0165 13.9841C21.0165 13.163 20.3532 12.4976 19.5346 12.4976H11.2803C7.57721 12.4976 4.56445 15.5197 4.56445 19.2343V61.2154C4.56445 64.9299 7.57721 67.952 11.2803 67.952H32.0911C32.3452 70.2267 32.1873 72.9483 31.6531 75.6064H23.3043C22.4857 75.6064 21.8224 76.2717 21.8224 77.0929C21.8224 77.914 22.4857 78.5794 23.3043 78.5794H32.8346L32.8422 78.5802C32.8456 78.5802 32.849 78.5802 32.8523 78.5794H52.0842C52.0876 78.5794 52.091 78.5802 52.0944 78.5802L52.1011 78.5794H61.6964C62.515 78.5794 63.1783 77.914 63.1783 77.0929C63.1783 76.2717 62.515 75.6064 61.6964 75.6064H53.2657C52.6843 72.9229 52.4961 70.2004 52.7442 67.952H73.7196C77.4227 67.952 80.4354 64.9299 80.4354 61.2154V17.8418C80.4354 14.895 78.0455 12.4976 75.1087 12.4976ZM50.2411 75.6064H34.6693C35.1469 72.9652 35.2912 70.2792 35.071 67.952H49.7643C49.5517 70.2597 49.7221 72.9457 50.2411 75.6064ZM73.7196 64.979H11.2803C9.21103 64.979 7.52827 63.2902 7.52827 61.2154V57.5084H77.4716V61.2154C77.4716 63.2902 75.7889 64.979 73.7196 64.979Z" fill="#1A1A1A"/>
</g>
</svg>
