<svg width="85" height="84" viewBox="0 0 85 84" fill="none" xmlns="http://www.w3.org/2000/svg">
<g id="noun-shares-5527769 1">
<g id="Group">
<g id="Group_2">
<g id="Group_3">
<path id="Vector" fill-rule="evenodd" clip-rule="evenodd" d="M78.6261 62.7683H6.51657C4.46429 62.7683 2.78516 61.0868 2.78516 59.0318V10.7843C2.78516 8.72927 4.46429 7.04785 6.51657 7.04785H78.6261C80.7251 7.04785 82.4042 8.72927 82.4042 10.7843V34.9081V59.0318C82.4042 61.0868 80.7251 62.7683 78.6261 62.7683ZM6.51657 8.9161C5.49043 8.9161 4.65086 9.75681 4.65086 10.7843V59.0318C4.65086 60.0593 5.49043 60.9 6.51657 60.9H78.6261C79.6989 60.9 80.5385 60.0593 80.5385 59.0318V10.7843C80.5385 9.75681 79.6989 8.9161 78.6261 8.9161H6.51657Z" fill="#1A1A1A" stroke="#1A1A1A" stroke-width="0.8"/>
</g>
<g id="Group_4">
<path id="Vector_2" fill-rule="evenodd" clip-rule="evenodd" d="M50.8264 72.2957H34.3616C33.8485 72.2957 33.4287 71.8754 33.4287 71.3616V61.8335C33.4287 61.3198 33.8485 60.8994 34.3616 60.8994H50.8264C51.3395 60.8994 51.7593 61.3198 51.7593 61.8335V71.3616C51.7593 71.8754 51.3395 72.2957 50.8264 72.2957ZM35.2944 70.4275H49.8936V62.7677H35.2944V70.4275Z" fill="#1A1A1A" stroke="#1A1A1A" stroke-width="0.8"/>
</g>
<g id="Group_5">
<path id="Vector_3" fill-rule="evenodd" clip-rule="evenodd" d="M60.809 76.7807H24.3811C23.868 76.7807 23.4482 76.3604 23.4482 75.8466V71.3628C23.4482 70.8491 23.868 70.4287 24.3811 70.4287H60.809C61.3221 70.4287 61.7419 70.8491 61.7419 71.3628V75.8466C61.7419 76.3604 61.3221 76.7807 60.809 76.7807ZM25.3139 74.9125H59.8762V72.297H25.3139V74.9125Z" fill="#1A1A1A" stroke="#1A1A1A" stroke-width="0.8"/>
</g>
<g id="Group_6">
<path id="Vector_4" fill-rule="evenodd" clip-rule="evenodd" d="M81.4714 55.3888H3.71801C3.20494 55.3888 2.78516 54.9684 2.78516 54.4546C2.78516 53.9409 3.20494 53.5205 3.71801 53.5205H81.4714C81.9844 53.5205 82.4042 53.9409 82.4042 54.4546C82.4042 54.9684 81.9844 55.3888 81.4714 55.3888Z" fill="#1A1A1A" stroke="#1A1A1A" stroke-width="0.8"/>
</g>
<g id="Group_7">
<path id="Vector_5" fill-rule="evenodd" clip-rule="evenodd" d="M48.3545 36.8935C45.2294 36.8935 42.6641 34.3247 42.6641 31.1954C42.6641 28.0661 45.2294 25.5439 48.3545 25.5439C51.4795 25.5439 53.9982 28.0661 53.9982 31.1954C53.9982 34.3247 51.4795 36.8935 48.3545 36.8935ZM48.3545 27.4122C46.2555 27.4122 44.5298 29.0936 44.5298 31.1954C44.5298 33.2972 46.2555 35.0253 48.3545 35.0253C50.4534 35.0253 52.1325 33.2972 52.1325 31.1954C52.1325 29.0936 50.4534 27.4122 48.3545 27.4122Z" fill="#1A1A1A" stroke="#1A1A1A" stroke-width="0.8"/>
</g>
<g id="Group_8">
<path id="Vector_6" fill-rule="evenodd" clip-rule="evenodd" d="M69.1108 26.5244C65.9857 26.5244 63.467 23.9556 63.467 20.8262C63.467 17.6969 65.9857 15.1748 69.1108 15.1748C72.2359 15.1748 74.8012 17.6969 74.8012 20.8262C74.8012 23.9556 72.2359 26.5244 69.1108 26.5244ZM69.1108 17.043C67.0119 17.043 65.3327 18.7712 65.3327 20.8262C65.3327 22.928 67.0119 24.6561 69.1108 24.6561C71.2097 24.6561 72.9355 22.928 72.9355 20.8262C72.9355 18.7712 71.2097 17.043 69.1108 17.043Z" fill="#1A1A1A" stroke="#1A1A1A" stroke-width="0.8"/>
</g>
<g id="Group_9">
<path id="Vector_7" fill-rule="evenodd" clip-rule="evenodd" d="M69.1108 47.215C65.9857 47.215 63.467 44.6929 63.467 41.5636C63.467 38.4342 65.9857 35.9121 69.1108 35.9121C72.2359 35.9121 74.8012 38.4342 74.8012 41.5636C74.8012 44.6929 72.2359 47.215 69.1108 47.215ZM69.1108 37.7804C67.0119 37.7804 65.3327 39.4618 65.3327 41.5636C65.3327 43.6653 67.0119 45.3467 69.1108 45.3467C71.2097 45.3467 72.9355 43.6653 72.9355 41.5636C72.9355 39.4618 71.2097 37.7804 69.1108 37.7804Z" fill="#1A1A1A" stroke="#1A1A1A" stroke-width="0.8"/>
</g>
<g id="Group_10">
<path id="Vector_8" fill-rule="evenodd" clip-rule="evenodd" d="M52.4123 29.6996C52.0858 29.6996 51.8059 29.5595 51.6193 29.2793C51.3395 28.8589 51.4328 28.2517 51.8992 27.9715L63.8864 20.0782C64.3061 19.7979 64.9125 19.8913 65.1924 20.3117C65.4722 20.7787 65.3323 21.3392 64.9125 21.6195L52.8787 29.5595C52.7388 29.6529 52.5522 29.6996 52.4123 29.6996Z" fill="#1A1A1A" stroke="#1A1A1A" stroke-width="0.8"/>
</g>
<g id="Group_11">
<path id="Vector_9" fill-rule="evenodd" clip-rule="evenodd" d="M64.3994 42.4978C64.2129 42.4978 64.0263 42.4511 63.8864 42.3577L51.8992 34.4177C51.4328 34.1374 51.3395 33.577 51.6193 33.1566C51.8992 32.6896 52.4589 32.5961 52.8787 32.8764L64.9125 40.7697C65.3323 41.05 65.4722 41.6571 65.1924 42.0775C65.0058 42.3577 64.6793 42.4978 64.3994 42.4978Z" fill="#1A1A1A" stroke="#1A1A1A" stroke-width="0.8"/>
</g>
<g id="Group_12">
<path id="Vector_10" fill-rule="evenodd" clip-rule="evenodd" d="M38.4676 19.1446H34.7828C34.2697 19.1446 33.8499 18.771 33.8499 18.2105C33.8499 17.6967 34.2697 17.2764 34.7828 17.2764H38.4676C38.9806 17.2764 39.4004 17.6967 39.4004 18.2105C39.4004 18.771 38.9806 19.1446 38.4676 19.1446ZM30.7249 19.1446H11.3215C10.8085 19.1446 10.3887 18.771 10.3887 18.2105C10.3887 17.6967 10.8085 17.2764 11.3215 17.2764H30.7249C31.2379 17.2764 31.6577 17.6967 31.6577 18.2105C31.6577 18.771 31.2379 19.1446 30.7249 19.1446Z" fill="#1A1A1A" stroke="#1A1A1A" stroke-width="0.8"/>
</g>
<g id="Group_13">
<path id="Vector_11" fill-rule="evenodd" clip-rule="evenodd" d="M38.4676 27.8321H25.8274C25.3143 27.8321 24.8945 27.4118 24.8945 26.898C24.8945 26.3842 25.3143 25.9639 25.8274 25.9639H38.4676C38.9806 25.9639 39.4004 26.3842 39.4004 26.898C39.4004 27.4118 38.9806 27.8321 38.4676 27.8321ZM21.3963 27.8321H11.3215C10.8085 27.8321 10.3887 27.4118 10.3887 26.898C10.3887 26.3842 10.8085 25.9639 11.3215 25.9639H21.3963C21.9094 25.9639 22.3292 26.3842 22.3292 26.898C22.3292 27.4118 21.9094 27.8321 21.3963 27.8321Z" fill="#1A1A1A" stroke="#1A1A1A" stroke-width="0.8"/>
</g>
<g id="Group_14">
<path id="Vector_12" fill-rule="evenodd" clip-rule="evenodd" d="M38.4676 36.4727H19.1575C18.6444 36.4727 18.2246 36.0524 18.2246 35.5386C18.2246 35.0248 18.6444 34.6045 19.1575 34.6045H38.4676C38.9806 34.6045 39.4004 35.0248 39.4004 35.5386C39.4004 36.0524 38.9806 36.4727 38.4676 36.4727ZM14.3999 36.4727H11.3215C10.8085 36.4727 10.3887 36.0524 10.3887 35.5386C10.3887 35.0248 10.8085 34.6045 11.3215 34.6045H14.3999C14.913 34.6045 15.3328 35.0248 15.3328 35.5386C15.3328 36.0524 14.913 36.4727 14.3999 36.4727Z" fill="#1A1A1A" stroke="#1A1A1A" stroke-width="0.8"/>
</g>
<g id="Group_15">
<path id="Vector_13" fill-rule="evenodd" clip-rule="evenodd" d="M36.0421 45.1134H32.9637C32.4507 45.1134 32.0309 44.693 32.0309 44.1792C32.0309 43.6655 32.4507 43.2451 32.9637 43.2451H36.0421C36.5552 43.2451 36.975 43.6655 36.975 44.1792C36.975 44.693 36.5552 45.1134 36.0421 45.1134ZM28.8125 45.1134H11.3215C10.8085 45.1134 10.3887 44.693 10.3887 44.1792C10.3887 43.6655 10.8085 43.2451 11.3215 43.2451H28.8125C29.3256 43.2451 29.7454 43.6655 29.7454 44.1792C29.7454 44.693 29.3256 45.1134 28.8125 45.1134Z" fill="#1A1A1A" stroke="#1A1A1A" stroke-width="0.8"/>
</g>
<g id="Group_16">
<path id="Vector_14" fill-rule="evenodd" clip-rule="evenodd" d="M46.0691 59.0782H39.1194C38.6063 59.0782 38.1865 58.6579 38.1865 58.1441C38.1865 57.6303 38.6063 57.21 39.1194 57.21H46.0691C46.5822 57.21 47.002 57.6303 47.002 58.1441C47.002 58.6579 46.5822 59.0782 46.0691 59.0782Z" fill="#1A1A1A" stroke="#1A1A1A" stroke-width="0.8"/>
</g>
</g>
</g>
</g>
</svg>
