<svg width="77" height="78" viewBox="0 0 77 78" fill="none" xmlns="http://www.w3.org/2000/svg">
<path id="Vector" fill-rule="evenodd" clip-rule="evenodd" d="M45.0993 2.33662C44.9759 1.81162 44.5428 1.41525 44.0099 1.33912C40.3559 0.803625 36.6441 0.803625 32.9901 1.33912C32.4572 1.41525 32.0241 1.81162 31.9007 2.33662L30.52 8.2035C27.6588 8.94375 24.913 10.0804 22.3641 11.5792C22.3667 11.5792 17.2401 8.40825 17.2401 8.40825C16.7834 8.12475 16.198 8.151 15.7675 8.47125C12.8039 10.6789 10.1789 13.3039 7.97125 16.2675C7.651 16.698 7.62475 17.2834 7.90825 17.7401L11.0792 22.8668C9.58037 25.413 8.44375 28.1588 7.70088 31.02C7.7035 31.02 1.83662 32.4007 1.83662 32.4007C1.31162 32.5241 0.91525 32.9572 0.839125 33.4901C0.303625 37.1441 0.303625 40.8559 0.839125 44.5099C0.91525 45.0428 1.31162 45.4759 1.83662 45.5993L7.7035 46.98C8.44375 49.8413 9.58037 52.587 11.0792 55.1359C11.0792 55.1332 7.90825 60.2599 7.90825 60.2599C7.62475 60.7166 7.651 61.302 7.97125 61.7325C10.1789 64.6961 12.8039 67.3211 15.7675 69.5287C16.198 69.849 16.7834 69.8753 17.2401 69.5918L22.3668 66.4207C24.913 67.9196 27.6588 69.0563 30.52 69.7991C30.52 69.7965 31.9007 75.6634 31.9007 75.6634C32.0241 76.1884 32.4572 76.5847 32.9901 76.6609C36.6441 77.1964 40.3559 77.1964 44.0099 76.6609C44.5428 76.5847 44.9759 76.1884 45.0993 75.6634L46.48 69.7965C49.3413 69.0563 52.087 67.9196 54.6359 66.4207C54.6332 66.4207 59.7599 69.5918 59.7599 69.5918C60.2166 69.8753 60.802 69.849 61.2325 69.5287C64.1961 67.3211 66.8211 64.6961 69.0287 61.7325C69.349 61.302 69.3753 60.7166 69.0918 60.2599L65.9207 55.1333C67.4196 52.587 68.5563 49.8413 69.2991 46.98C69.2965 46.98 75.1634 45.5993 75.1634 45.5993C75.6884 45.4759 76.0847 45.0428 76.1609 44.5099C76.6964 40.8559 76.6964 37.1441 76.1609 33.4901C76.0847 32.9572 75.6884 32.5241 75.1634 32.4007L69.2965 31.02C68.5563 28.1588 67.4196 25.413 65.9207 22.8641C65.9207 22.8667 69.0918 17.7401 69.0918 17.7401C69.3753 17.2834 69.349 16.698 69.0287 16.2675C66.8211 13.3039 64.1961 10.6789 61.2325 8.47125C60.802 8.151 60.2166 8.12475 59.7599 8.40825L54.6333 11.5792C52.087 10.0804 49.3413 8.94375 46.48 8.20088C46.48 8.2035 45.0993 2.33662 45.0993 2.33662ZM42.7499 3.81975L44.1096 9.58687C44.2251 10.0725 44.6058 10.4505 45.0914 10.5634C48.2256 11.2905 51.2181 12.5295 53.9455 14.2331C54.3708 14.4956 54.9062 14.4983 55.3315 14.2358L60.3715 11.1172C62.608 12.8734 64.6266 14.8894 66.3828 17.1285L63.2643 22.1685C63.0018 22.5938 63.0044 23.1292 63.2669 23.5545C64.9705 26.2819 66.2095 29.2744 66.9366 32.4086C67.0495 32.8943 67.4275 33.2749 67.9131 33.3904L73.6803 34.7501C74.0215 37.572 74.0215 40.428 73.6829 43.2499L67.9131 44.6096C67.4275 44.7251 67.0495 45.1058 66.9366 45.5914C66.2095 48.7256 64.9705 51.7181 63.2669 54.4455C63.0044 54.8708 63.0018 55.4062 63.2643 55.8315L66.3828 60.8715C64.6266 63.108 62.6106 65.1266 60.3715 66.8828L55.3315 63.7643C54.9062 63.5018 54.3708 63.5044 53.9455 63.7669C51.2181 65.4705 48.2256 66.7095 45.0914 67.4366C44.6058 67.5495 44.2251 67.9275 44.1096 68.4131L42.7499 74.1803C39.928 74.5215 37.072 74.5215 34.2501 74.1829L32.8904 68.4131C32.7749 67.9275 32.3943 67.5495 31.9086 67.4366C28.7744 66.7095 25.7819 65.4705 23.0545 63.7669C22.6292 63.5044 22.0938 63.5018 21.6685 63.7643L16.6285 66.8828C14.392 65.1266 12.3734 63.1106 10.6172 60.8715L13.7358 55.8315C13.9983 55.4062 13.9956 54.8708 13.7331 54.4455C12.0295 51.7181 10.7905 48.7256 10.0634 45.5914C9.9505 45.1058 9.5725 44.7251 9.08687 44.6096L3.31975 43.2499C2.9785 40.428 2.9785 37.572 3.31712 34.7501L9.08687 33.3904C9.5725 33.2749 9.9505 32.8943 10.0634 32.4086C10.7905 29.2744 12.0295 26.2819 13.7331 23.5545C13.9956 23.1292 13.9983 22.5938 13.7358 22.1685L10.6172 17.1285C12.3734 14.892 14.3894 12.8734 16.6285 11.1172L21.6685 14.2358C22.0938 14.4983 22.6292 14.4956 23.0545 14.2331C25.7819 12.5295 28.7744 11.2905 31.9086 10.5634C32.3943 10.4505 32.7749 10.0725 32.8904 9.58687L34.2501 3.81712C37.072 3.4785 39.928 3.4785 42.7499 3.81712V3.81975ZM38.5 15.27C25.4039 15.27 14.77 25.9039 14.77 39C14.77 52.0961 25.4039 62.73 38.5 62.73C51.5961 62.73 62.23 52.0961 62.23 39C62.23 25.9039 51.5961 15.27 38.5 15.27ZM38.5 17.895C50.1471 17.895 59.605 27.3529 59.605 39C59.605 50.6471 50.1471 60.105 38.5 60.105C26.8529 60.105 17.395 50.6471 17.395 39C17.395 27.3529 26.8529 17.895 38.5 17.895ZM40.9045 25.455C40.4373 25.4051 39.9621 25.3815 39.4844 25.3815C39.004 25.3815 38.5289 25.4051 38.0616 25.455V22.5911C38.0616 21.8666 37.4736 21.2786 36.7491 21.2786C36.0246 21.2786 35.4366 21.8666 35.4366 22.5911V25.9931C29.8926 27.7204 25.8632 32.8916 25.8632 39C25.8632 44.5939 29.2443 49.4029 34.069 51.4976V55.4089C34.069 56.1334 34.657 56.7214 35.3815 56.7214C36.106 56.7214 36.694 56.1334 36.694 55.4089V52.3324C37.5944 52.5214 38.5262 52.6185 39.4844 52.6185C39.5001 52.6185 39.5185 52.6185 39.5369 52.6185V55.4089C39.5369 56.1334 40.1249 56.7214 40.8494 56.7214C41.5739 56.7214 42.1619 56.1334 42.1619 55.4089V52.356C44.59 51.8704 46.7871 50.739 48.5642 49.1482C49.1024 48.6652 49.1496 47.8331 48.664 47.295C48.181 46.7542 47.3515 46.7096 46.8108 47.1926C44.8656 48.933 42.2984 49.9935 39.4844 49.9935C33.4154 49.9935 28.4882 45.069 28.4882 39C28.4882 32.931 33.4154 28.0065 39.4844 28.0065C42.2984 28.0065 44.8656 29.067 46.8108 30.8074C47.3515 31.2904 48.181 31.2458 48.664 30.705C49.1496 30.1669 49.1024 29.3347 48.5642 28.8517C47.1257 27.5655 45.4169 26.5811 43.5295 25.9931V22.5911C43.5295 21.8666 42.9415 21.2786 42.217 21.2786C41.4925 21.2786 40.9045 21.8666 40.9045 22.5911V25.455Z" fill="#1A1A1A" stroke="#1A1A1A" stroke-width="0.5"/>
</svg>
