<svg width="307" height="199" viewBox="0 0 307 199" fill="none" xmlns="http://www.w3.org/2000/svg">
<line x1="4.37114e-08" y1="0.5" x2="307" y2="0.500027" stroke="#E1E1E1"/>
<line x1="4.37114e-08" y1="26.9658" x2="307" y2="26.9658" stroke="#E1E1E1"/>
<line x1="4.37114e-08" y1="53.4307" x2="307" y2="53.4307" stroke="#E1E1E1"/>
<line x1="4.37114e-08" y1="79.8965" x2="307" y2="79.8965" stroke="#E1E1E1"/>
<line x1="4.37114e-08" y1="106.362" x2="307" y2="106.362" stroke="#E1E1E1"/>
<line x1="4.37114e-08" y1="132.827" x2="307" y2="132.827" stroke="#E1E1E1"/>
<line x1="4.37114e-08" y1="159.293" x2="307" y2="159.293" stroke="#E1E1E1"/>
<line x1="4.37114e-08" y1="185.759" x2="307" y2="185.759" stroke="#E1E1E1"/>
<path d="M1.32312 147.883C2.38174 147.883 3.52858 147.883 3.96967 147.883V146.56H8.60114V148.545H15.8792V145.898H17.8641V147.222V144.575H19.849M19.849 144.575V145.898M19.849 144.575H29.7735V146.56H31.7585V148.545H36.3899V145.898H39.0365V147.222H41.0214V145.237H43.0063V143.913H44.9912V141.267H47.6378V139.944H49.6227V138.62H51.6076V139.944H52.9309V137.959H56.9007V133.327H59.5473V98.9221H62.1938V127.373H64.1787V128.696H68.8102V126.049H71.4567V127.373H73.4417V132.004H76.0882V134.651H79.3964V133.327H85.3511V135.974H87.336V138.62H89.9826V140.605H92.6292V138.62V137.959H93.9524H96.599V139.282H99.2455V137.297H101.23V134.651H103.215V133.327H105.862H107.847V131.342H114.463V130.019H117.11V132.666H119.756V129.357H124.388V124.726H127.034V122.741H129.019H131.004V120.756H135.636V118.771H137.621V116.125H140.267V114.801H142.914V112.817H144.899V108.185H147.545V118.771H149.53V104.877H153.5V103.554H156.146V99.5837H158.793V97.5988H160.778V94.9523H166.071V98.2605H168.056V96.2756H170.702V70.4717C169.644 70.4717 172.026 70.4717 173.349 70.4717V12.9092H177.319V64.5169H179.965V71.1333H181.95V76.4264H183.935V83.0428H186.582V87.0126H188.567V90.9825H191.875V92.9674H195.845V97.5988H197.83V99.5837H201.138V102.23H203.123V104.877H205.108V102.892H207.754V99.5837H214.371V98.2605H217.017V100.907H219.002V97.5988H222.972V94.9523H226.28V97.5988H228.265V94.2906H230.25V92.9674H232.896V94.2906H235.543V97.5988H239.513V92.3057H244.144V88.9975H246.791V91.6441H249.437V88.9975H251.422V91.6441H253.407V88.9975H256.054V22.8337H257.377V47.6999H259.609V68.4868H262.67V88.9975H266.64V90.9825H269.948V65.8402H271.933V55.254H273.918V68.4868H276.564V79.7346H279.211V69.1484H283.181V73.7799H285.827V80.3962H287.812V83.0428H293.105V85.6893H295.09V87.0126H299.06V90.3208H301.707H304.353V92.9674H305.677" stroke="#95B7A9"/>
<line x1="0.5" y1="188.905" x2="0.5" y2="198.168" stroke="black"/>
<line x1="28.2889" y1="188.905" x2="28.2889" y2="198.168" stroke="black"/>
<line x1="56.0779" y1="188.905" x2="56.0779" y2="198.168" stroke="black"/>
<line x1="83.8662" y1="188.905" x2="83.8662" y2="198.168" stroke="black"/>
<line x1="111.655" y1="188.905" x2="111.655" y2="198.168" stroke="black"/>
<line x1="139.444" y1="188.905" x2="139.444" y2="198.168" stroke="black"/>
<line x1="167.232" y1="188.905" x2="167.232" y2="198.168" stroke="black"/>
<line x1="195.021" y1="188.905" x2="195.021" y2="198.168" stroke="black"/>
<line x1="222.811" y1="188.905" x2="222.811" y2="198.168" stroke="black"/>
<line x1="250.599" y1="188.905" x2="250.599" y2="198.168" stroke="black"/>
<line x1="278.388" y1="188.905" x2="278.388" y2="198.168" stroke="black"/>
<line x1="306.177" y1="188.905" x2="306.177" y2="198.168" stroke="black"/>
</svg>
