<svg width="305" height="140" viewBox="0 0 305 140" fill="none" xmlns="http://www.w3.org/2000/svg">
<path d="M1 136C3.14039 129.566 5.32309 123.272 6.42167 120.679C6.49549 120.504 6.61911 120.357 6.77603 120.251L15.601 114.3C16.1888 113.903 16.991 114.228 17.1383 114.921L21.6059 135.96C21.8179 136.959 23.2132 137.035 23.5335 136.066L28.7086 120.413L35.4396 105.417L44.4855 81.6252C44.7172 81.0158 45.4607 80.7875 45.9944 81.1618L50.8715 84.5826C51.1272 84.7619 51.452 84.8115 51.7495 84.7166L55.3077 83.5822C55.5184 83.5151 55.7009 83.38 55.8266 83.1981L61.875 74.4485C61.9364 74.3596 61.983 74.2614 62.013 74.1577L67.4372 55.4074C67.4855 55.2404 67.5765 55.089 67.7012 54.9679L72.4174 50.3877C72.5736 50.236 72.7751 50.1394 72.9913 50.1127L78.5887 49.4199C79.0558 49.3621 79.5001 49.6379 79.6555 50.0822L84.3022 63.3693C84.4425 63.7705 84.8211 64.0392 85.2461 64.0392H89.1067C89.4638 64.0392 89.7938 64.2296 89.9725 64.5388L95.0594 73.3396C95.3592 73.8583 96.0446 73.9988 96.5243 73.6399L106.789 65.9601C107.195 65.6565 107.764 65.7045 108.113 66.0719L111.845 69.9979C112.096 70.2622 112.472 70.3688 112.824 70.276L121.582 67.9727C121.696 67.9425 121.805 67.8923 121.902 67.8242L128.309 63.3305C128.816 62.975 129.52 63.1608 129.786 63.7199L134.281 73.1776C134.557 73.7589 135.303 73.9316 135.806 73.5312L139.935 70.249C140.384 69.8926 141.039 69.9849 141.372 70.4513L144.792 75.2484C145.162 75.7677 145.917 75.8125 146.346 75.3407L162.509 57.563C162.768 57.278 163.168 57.1672 163.537 57.278L167.932 58.5991C168.269 58.7006 168.635 58.6167 168.895 58.3784L173.387 54.259C173.541 54.1178 173.735 54.0283 173.943 54.0032L184.625 52.7114C184.929 52.6747 185.199 52.501 185.358 52.2401L189.992 44.6573C190.423 43.951 191.477 44.0448 191.777 44.8163L195.635 54.7371C195.737 55.0016 195.948 55.2099 196.213 55.3102L200.675 56.9951C200.85 57.0614 201.004 57.1758 201.117 57.3253L206.427 64.3081C206.844 64.8558 207.676 64.8291 208.056 64.2558L217.745 49.658C217.889 49.4417 218.111 49.2897 218.364 49.2342L223.849 48.0319C224.138 47.9688 224.383 47.7814 224.521 47.5202L229.757 37.5505C229.817 37.4375 229.897 37.3369 229.994 37.2542L234.88 33.0928C235.189 32.83 235.626 32.7795 235.986 32.9649L240.589 35.3325C241.018 35.5531 241.544 35.4362 241.838 35.0545L246.177 29.4371C246.366 29.1919 246.658 29.0483 246.968 29.0483H252.729C253.032 29.0483 253.318 28.9113 253.508 28.6758L258.253 22.788C258.321 22.7039 258.374 22.6094 258.412 22.5081L263.347 9.1945C263.446 8.92803 263.653 8.71617 263.918 8.61187L269.638 6.35502C269.77 6.3032 269.888 6.22416 269.987 6.12309L274.106 1.90032C274.556 1.43983 275.316 1.51716 275.664 2.05861L285.248 16.9971C285.498 17.3871 285.984 17.5541 286.421 17.4008L290.788 15.8695C291.061 15.7735 291.363 15.801 291.615 15.9449L301.909 21.8279" stroke="#69B1EA" stroke-width="2"/>
<circle cx="302" cy="22" r="3" fill="#69B1EA"/>
</svg>
