<svg width="73" height="74" viewBox="0 0 73 74" fill="none" xmlns="http://www.w3.org/2000/svg">
<path id="Vector" d="M71.608 0.526367H59.9054C59.726 0.526361 59.5484 0.561681 59.3827 0.630312C59.217 0.698942 59.0665 0.799537 58.9397 0.926355C58.8129 1.05317 58.7123 1.20373 58.6436 1.36942C58.575 1.53512 58.5397 1.71271 58.5397 1.89206V4.42725H53.4693V1.89206C53.4693 1.71271 53.434 1.53512 53.3654 1.36942C53.2967 1.20373 53.1961 1.05317 53.0693 0.926355C52.9425 0.799537 52.7919 0.698942 52.6262 0.630312C52.4605 0.561681 52.283 0.526361 52.1036 0.526367H40.4009C40.2216 0.526361 40.044 0.561681 39.8783 0.630312C39.7126 0.698942 39.5621 0.799537 39.4352 0.926355C39.3084 1.05317 39.2078 1.20373 39.1392 1.36942C39.0706 1.53512 39.0352 1.71271 39.0352 1.89206V4.42725H33.9649V1.89206C33.9649 1.71271 33.9295 1.53512 33.8609 1.36942C33.7923 1.20373 33.6917 1.05317 33.5649 0.926355C33.4381 0.799537 33.2875 0.698942 33.1218 0.630312C32.9561 0.561681 32.7785 0.526361 32.5992 0.526367H20.8965C20.7172 0.526361 20.5396 0.561681 20.3739 0.630312C20.2082 0.698942 20.0576 0.799537 19.9308 0.926355C19.804 1.05317 19.7034 1.20373 19.6348 1.36942C19.5661 1.53512 19.5308 1.71271 19.5308 1.89206V4.42725H14.4604V1.89206C14.4604 1.71271 14.4251 1.53512 14.3565 1.36942C14.2878 1.20373 14.1872 1.05317 14.0604 0.926355C13.9336 0.799537 13.7831 0.698942 13.6174 0.630312C13.4517 0.561681 13.2741 0.526361 13.0947 0.526367H1.39206C1.21271 0.526361 1.03512 0.561681 0.869423 0.630312C0.703727 0.698942 0.553172 0.799537 0.426355 0.926355C0.299537 1.05317 0.198942 1.20373 0.130312 1.36942C0.0616814 1.53512 0.0263612 1.71271 0.0263672 1.89206V68.2072C0.0263612 68.3865 0.0616814 68.5641 0.130312 68.7298C0.198942 68.8955 0.299537 69.0461 0.426355 69.1729C0.553172 69.2997 0.703727 69.4003 0.869423 69.4689C1.03512 69.5375 1.21271 69.5729 1.39206 69.5729H11.729V72.108C11.729 72.2874 11.7644 72.465 11.833 72.6307C11.9016 72.7964 12.0022 72.9469 12.129 73.0737C12.2558 73.2006 12.4064 73.3012 12.5721 73.3698C12.7378 73.4384 12.9154 73.4737 13.0947 73.4737H20.8965C21.0758 73.4737 21.2534 73.4384 21.4191 73.3698C21.5848 73.3012 21.7354 73.2006 21.8622 73.0737C21.989 72.9469 22.0896 72.7964 22.1582 72.6307C22.2269 72.465 22.2622 72.2874 22.2622 72.108V69.5729H31.2335V72.108C31.2335 72.2874 31.2688 72.465 31.3374 72.6307C31.4061 72.7964 31.5067 72.9469 31.6335 73.0737C31.7603 73.2006 31.9108 73.3012 32.0765 73.3698C32.2422 73.4384 32.4198 73.4737 32.5992 73.4737H40.4009C40.5803 73.4737 40.7579 73.4384 40.9236 73.3698C41.0893 73.3012 41.2398 73.2006 41.3666 73.0737C41.4935 72.9469 41.5941 72.7964 41.6627 72.6307C41.7313 72.465 41.7666 72.2874 41.7666 72.108V69.5729H50.7379V72.108C50.7379 72.2874 50.7732 72.465 50.8419 72.6307C50.9105 72.7964 51.0111 72.9469 51.1379 73.0737C51.2647 73.2006 51.4153 73.3012 51.581 73.3698C51.7467 73.4384 51.9243 73.4737 52.1036 73.4737H59.9054C60.0847 73.4737 60.2623 73.4384 60.428 73.3698C60.5937 73.3012 60.7443 73.2006 60.8711 73.0737C60.9979 72.9469 61.0985 72.7964 61.1671 72.6307C61.2358 72.465 61.2711 72.2874 61.2711 72.108V69.5729H71.608C71.7874 69.5729 71.965 69.5375 72.1307 69.4689C72.2964 69.4003 72.4469 69.2997 72.5737 69.1729C72.7006 69.0461 72.8012 68.8955 72.8698 68.7298C72.9384 68.5641 72.9737 68.3865 72.9737 68.2072V1.89206C72.9737 1.71271 72.9384 1.53512 72.8698 1.36942C72.8012 1.20373 72.7006 1.05317 72.5737 0.926355C72.4469 0.799537 72.2964 0.698942 72.1307 0.630312C71.965 0.561681 71.7874 0.526361 71.608 0.526367ZM2.75774 66.8415V3.25774H11.729V66.8415H2.75774ZM19.5308 70.7424H14.4604V7.15863H19.5308V70.7424ZM22.2622 66.8415V3.25774H31.2335V66.8415H22.2622ZM39.0352 70.7424H33.9649V7.15863H39.0352V70.7424ZM41.7666 66.8415V3.25774H50.7379V66.8415H41.7666ZM58.5397 70.7424H53.4693V7.15863H58.5397V70.7424ZM70.2424 66.8415H61.2711V3.25774H70.2424V66.8415Z" fill="#1A1A1A"/>
</svg>
