<svg width="85" height="84" viewBox="0 0 85 84" fill="none" xmlns="http://www.w3.org/2000/svg">
<g id="noun-process-capability-5716638 1">
<path id="Vector" d="M21.6966 32.0106C21.5468 31.7901 21.4905 31.5193 21.5399 31.2573C21.5893 30.9953 21.7405 30.7636 21.9604 30.6129L36.61 20.6169C36.7482 20.5228 36.9076 20.4646 37.0738 20.4474C37.2401 20.4302 37.4081 20.4547 37.5625 20.5186L51.5544 26.3297L67.4262 11.754L64.6433 11.3458C64.5062 11.3343 64.3728 11.2948 64.2516 11.2297C64.1303 11.1647 64.0236 11.0755 63.9381 10.9677C63.8526 10.8599 63.79 10.7357 63.7543 10.6028C63.7186 10.4699 63.7105 10.3311 63.7305 10.1949C63.7505 10.0588 63.7982 9.92813 63.8706 9.81109C63.943 9.69405 64.0386 9.59308 64.1515 9.51439C64.2644 9.4357 64.3922 9.38096 64.5271 9.35355C64.6619 9.32614 64.801 9.32663 64.9356 9.355L69.8026 10.069H69.8102C69.8202 10.069 69.8303 10.0732 69.8404 10.0749C69.8505 10.0766 69.8824 10.0824 69.9034 10.0875L69.9437 10.0984C69.9613 10.1043 69.9798 10.1085 69.9975 10.1152C70.0151 10.1219 70.0269 10.127 70.0411 10.1328L70.0873 10.1513C70.1033 10.1589 70.1176 10.1673 70.1335 10.1757L70.1739 10.1967C70.1907 10.2068 70.2075 10.2185 70.2234 10.2294L70.2545 10.2504C70.308 10.2891 70.3575 10.333 70.4024 10.3815L70.4166 10.3991C70.4326 10.4168 70.4485 10.4352 70.4628 10.4546C70.4771 10.4739 70.4796 10.4781 70.488 10.4907C70.4964 10.5033 70.5082 10.5192 70.5174 10.5344C70.5267 10.5495 70.5342 10.5629 70.5418 10.5772L70.5645 10.6192L70.5846 10.6646L70.6031 10.7082L70.6182 10.7528C70.6233 10.7696 70.6283 10.7855 70.6325 10.8023C70.6367 10.8191 70.6392 10.83 70.6426 10.8443C70.6459 10.8586 70.6501 10.8796 70.6535 10.8972L70.6585 10.9392C70.6585 10.9577 70.6627 10.9754 70.6644 10.9938C70.6661 11.0123 70.6644 11.0232 70.6644 11.0384C70.6644 11.0535 70.6644 11.0728 70.6644 11.0896C70.6644 11.1064 70.6644 11.124 70.6644 11.1408C70.6644 11.1576 70.6644 11.1635 70.6644 11.1744L70.0361 16.726C70.0079 16.9713 69.8906 17.1978 69.7065 17.3624C69.5224 17.527 69.2843 17.6183 69.0373 17.6189C68.9992 17.619 68.9611 17.6171 68.9231 17.613C68.6587 17.5828 68.417 17.4493 68.2507 17.2416C68.0843 17.0339 68.0069 16.7688 68.0352 16.5042L68.3611 13.6281L52.4423 28.2441C52.3009 28.3736 52.1255 28.4601 51.9367 28.4934C51.7479 28.5267 51.5535 28.5055 51.3763 28.4322L37.2912 22.5858L23.0952 32.2752C22.8746 32.425 22.6037 32.4812 22.3417 32.4316C22.0797 32.382 21.8472 32.2306 21.6966 32.0106ZM80.2992 66.4859V76.0048C80.2992 76.2721 80.193 76.5285 80.004 76.7176C79.815 76.9066 79.5586 77.0128 79.2912 77.0128H51.5191C51.2518 77.0128 50.9954 76.9066 50.8064 76.7176C50.6173 76.5285 50.5111 76.2721 50.5111 76.0048V68.9412H36.4227C36.4333 69.0364 36.4389 69.132 36.4395 69.2277C36.4408 69.5597 36.3762 69.8886 36.2494 70.1954C36.1227 70.5023 35.9363 70.7809 35.7011 71.0152L33.6288 73.0883C33.1541 73.5615 32.5112 73.8272 31.8409 73.8272C31.1706 73.8272 30.5277 73.5615 30.0529 73.0883L29.5036 72.539C28.4761 73.1186 27.3824 73.5719 26.2461 73.8888V74.6658C26.2452 75.3362 25.9785 75.9787 25.5045 76.4527C25.0306 76.9267 24.388 77.1934 23.7177 77.1943H20.7869C20.1166 77.1934 19.474 76.9267 19 76.4527C18.5261 75.9787 18.2594 75.3362 18.2585 74.6658V73.8897C17.1225 73.5726 16.029 73.1193 15.0018 72.5398L14.4525 73.0892C13.9775 73.562 13.3347 73.8274 12.6645 73.8274C11.9944 73.8274 11.3515 73.562 10.8766 73.0892L8.8043 71.0152C8.33136 70.5405 8.06581 69.8978 8.06581 69.2277C8.06581 68.5576 8.33136 67.9148 8.8043 67.4402L9.35282 66.8908C8.77377 65.8632 8.32081 64.7694 8.00378 63.6333H7.22762C6.55725 63.6326 5.91453 63.366 5.44051 62.892C4.96648 62.418 4.69989 61.7753 4.69922 61.1049V58.1741C4.69989 57.5038 4.96648 56.861 5.44051 56.387C5.91453 55.913 6.55725 55.6464 7.22762 55.6457H8.00378C8.32104 54.5095 8.77428 53.4158 9.35366 52.3882L8.8043 51.8397C8.33151 51.3648 8.06608 50.7219 8.06608 50.0517C8.06608 49.3816 8.33151 48.7387 8.8043 48.2638L10.8766 46.1898C11.1502 45.9163 11.4834 45.7099 11.8501 45.5867V8.6326C11.8412 8.49504 11.8607 8.35711 11.9072 8.22735C11.9537 8.09759 12.0264 7.97875 12.1206 7.87818C12.2149 7.77761 12.3288 7.69745 12.4553 7.64265C12.5818 7.58785 12.7182 7.55957 12.856 7.55957C12.9939 7.55957 13.1303 7.58785 13.2568 7.64265C13.3833 7.69745 13.4972 7.77761 13.5914 7.87818C13.6857 7.97875 13.7584 8.09759 13.8049 8.22735C13.8514 8.35711 13.8708 8.49504 13.8619 8.6326V45.7522C14.0783 45.8692 14.2764 46.0172 14.4499 46.1915L14.9993 46.74C16.0266 46.161 17.1201 45.708 18.256 45.391V44.6148C18.2566 44.1159 18.4046 43.6282 18.6813 43.2131C18.9581 42.7979 19.3513 42.4738 19.8117 42.2813V38.0082C19.8117 37.7409 19.9179 37.4845 20.1069 37.2955C20.2959 37.1064 20.5523 37.0002 20.8197 37.0002H29.4465C29.7138 37.0002 29.9702 37.1064 30.1592 37.2955C30.3483 37.4845 30.4545 37.7409 30.4545 38.0082V45.8664C30.8718 45.593 31.3606 45.4487 31.8595 45.4519C32.3585 45.455 32.8454 45.6054 33.2592 45.8841V30.754C33.2592 30.6216 33.2853 30.4906 33.336 30.3683C33.3866 30.246 33.4609 30.1348 33.5545 30.0412C33.6481 29.9476 33.7592 29.8734 33.8815 29.8227C34.0038 29.7721 34.1348 29.746 34.2672 29.746H42.8881C43.1555 29.746 43.4119 29.8522 43.6009 30.0412C43.7899 30.2303 43.8961 30.4867 43.8961 30.754V66.9295H46.6992V34.6583C46.6992 34.391 46.8054 34.1346 46.9945 33.9456C47.1835 33.7565 47.4399 33.6503 47.7072 33.6503H56.3298C56.5972 33.6503 56.8536 33.7565 57.0426 33.9456C57.2316 34.1346 57.3378 34.391 57.3378 34.6583V58.1178C57.9031 58.0023 58.4786 57.944 59.0556 57.944H60.1392V53.6096C58.839 52.2553 58.113 50.4507 58.113 48.5733C58.113 46.696 58.839 44.8914 60.1392 43.5371V25.3856C60.1392 25.1182 60.2454 24.8618 60.4345 24.6728C60.6235 24.4838 60.8799 24.3776 61.1472 24.3776H69.774C70.0414 24.3776 70.2978 24.4838 70.4868 24.6728C70.6758 24.8618 70.782 25.1182 70.782 25.3856V43.6488C72.0174 44.9916 72.7031 46.7496 72.7031 48.5742C72.7031 50.3988 72.0174 52.1568 70.782 53.4995V57.9448H71.7631C74.0268 57.9486 76.1965 58.8498 77.7967 60.4509C79.3968 62.052 80.2968 64.2223 80.2992 66.4859ZM62.1552 26.3919V42.0512C63.1835 41.5367 64.3191 41.2733 65.4689 41.2828C66.6186 41.2923 67.7498 41.5743 68.7694 42.1058V26.3919H62.1552ZM60.1258 48.5746C60.1258 49.6189 60.4355 50.6398 61.0157 51.5082C61.5959 52.3765 62.4205 53.0533 63.3854 53.4529C64.3502 53.8526 65.4119 53.9571 66.4361 53.7534C67.4604 53.5496 68.4013 53.0468 69.1397 52.3083C69.8782 51.5698 70.3811 50.629 70.5848 49.6047C70.7886 48.5805 70.684 47.5188 70.2843 46.5539C69.8847 45.5891 69.2079 44.7644 68.3396 44.1842C67.4712 43.604 66.4504 43.2944 65.406 43.2944C64.0061 43.2959 62.6639 43.8527 61.674 44.8426C60.6842 45.8325 60.1273 47.1747 60.1258 48.5746ZM62.1552 57.9448H68.766V55.0434C67.7466 55.5739 66.6159 55.8551 65.4667 55.8638C64.3175 55.8726 63.1826 55.6087 62.1552 55.0938V57.9448ZM59.0573 59.9608C58.2634 59.9602 57.4761 60.1054 56.7347 60.3892L56.6969 60.4043C55.4705 60.8813 54.4165 61.7173 53.6728 62.8029C52.9292 63.8886 52.5305 65.1734 52.5288 66.4893V75.0019H56.4331V70.4348C56.4242 70.2972 56.4437 70.1593 56.4902 70.0295C56.5367 69.8998 56.6094 69.7809 56.7036 69.6804C56.7979 69.5798 56.9118 69.4996 57.0383 69.4448C57.1648 69.39 57.3012 69.3617 57.439 69.3617C57.5769 69.3617 57.7133 69.39 57.8398 69.4448C57.9663 69.4996 58.0802 69.5798 58.1744 69.6804C58.2687 69.7809 58.3414 69.8998 58.3879 70.0295C58.4344 70.1593 58.4538 70.2972 58.4449 70.4348V75.0019H72.3705V70.4348C72.3616 70.2972 72.381 70.1593 72.4275 70.0295C72.474 69.8998 72.5467 69.7809 72.641 69.6804C72.7352 69.5798 72.8492 69.4996 72.9756 69.4448C73.1021 69.39 73.2385 69.3617 73.3764 69.3617C73.5142 69.3617 73.6506 69.39 73.7771 69.4448C73.9036 69.4996 74.0175 69.5798 74.1118 69.6804C74.206 69.7809 74.2787 69.8998 74.3252 70.0295C74.3717 70.1593 74.3912 70.2972 74.3823 70.4348V75.0019H78.2874V66.4859C78.2854 64.7551 77.597 63.0957 76.3731 61.8718C75.1492 60.6479 73.4898 59.9594 71.7589 59.9574L59.0573 59.9608ZM35.2685 31.7603V47.8312L35.7011 48.2638C36.1739 48.7387 36.4393 49.3816 36.4393 50.0517C36.4393 50.7219 36.1739 51.3648 35.7011 51.8397L35.1517 52.3882C35.7313 53.4157 36.1845 54.5095 36.5016 55.6457H37.2778C37.9482 55.6464 38.5909 55.913 39.0649 56.387C39.5389 56.861 39.8055 57.5038 39.8062 58.1741V61.1049C39.8055 61.7753 39.5389 62.418 39.0649 62.892C38.5909 63.366 37.9482 63.6326 37.2778 63.6333H36.5016C36.1845 64.7695 35.7313 65.8633 35.1517 66.8908L35.1904 66.9295H41.8818V31.7603H35.2685ZM21.8285 39.0146V42.0864H23.7202C24.3905 42.0871 25.0333 42.3537 25.5073 42.8277C25.9813 43.3018 26.2479 43.9445 26.2486 44.6148V45.391C27.0004 45.6009 27.7341 45.8708 28.4427 46.1982V39.0146H21.8285ZM34.4285 69.2277C34.4289 69.1601 34.4159 69.093 34.3903 69.0304C34.3646 68.9679 34.3268 68.911 34.279 68.8631L33.1752 67.7585C33.0135 67.5964 32.9119 67.384 32.887 67.1563C32.8621 66.9287 32.9155 66.6994 33.0383 66.5061C33.8402 65.2511 34.4146 63.8646 34.7351 62.4102C34.7849 62.1868 34.9093 61.987 35.0877 61.8436C35.2662 61.7003 35.4881 61.6219 35.7171 61.6215H37.2786C37.4149 61.6195 37.5451 61.5644 37.6414 61.468C37.7378 61.3715 37.7926 61.2412 37.7944 61.1049V58.1741C37.7926 58.0379 37.7377 57.9077 37.6414 57.8114C37.545 57.715 37.4149 57.6601 37.2786 57.6584H35.7162C35.4872 57.6579 35.2651 57.5794 35.0867 57.4359C34.9082 57.2924 34.7839 57.0924 34.7343 56.8688C34.4134 55.4148 33.839 54.0286 33.0375 52.7738C32.9143 52.5805 32.8607 52.3511 32.8854 52.1232C32.9101 51.8954 33.0118 51.6828 33.1735 51.5205L34.2781 50.4167C34.374 50.3194 34.4278 50.1883 34.4278 50.0517C34.4278 49.9152 34.374 49.784 34.2781 49.6868L32.2059 47.6178C32.1086 47.522 31.9775 47.4682 31.8409 47.4682C31.7043 47.4682 31.5732 47.522 31.4759 47.6178L30.3713 48.7182C30.2091 48.8799 29.9968 48.9816 29.7691 49.0065C29.5415 49.0314 29.3121 48.978 29.1189 48.8552C27.8639 48.0533 26.4774 47.4789 25.023 47.1584C24.7994 47.1085 24.5995 46.9841 24.4561 46.8054C24.3128 46.6268 24.2345 46.4046 24.2343 46.1756V44.6148C24.2325 44.4784 24.1775 44.348 24.081 44.2515C23.9845 44.155 23.8541 44.1 23.7177 44.0982H20.7869C20.6506 44.1002 20.5204 44.1553 20.4241 44.2518C20.3277 44.3483 20.2729 44.4785 20.2711 44.6148V46.1756C20.2709 46.4046 20.1926 46.6268 20.0493 46.8054C19.9059 46.9841 19.706 47.1085 19.4824 47.1584C18.0279 47.4786 16.6414 48.053 15.3865 48.8552C15.1933 48.978 14.9639 49.0314 14.7363 49.0065C14.5086 48.9816 14.2963 48.8799 14.1341 48.7182L13.0295 47.6178C12.9319 47.5226 12.8009 47.4692 12.6645 47.4692C12.5281 47.4692 12.3971 47.5226 12.2995 47.6178L10.2273 49.6901C10.1314 49.7874 10.0776 49.9185 10.0776 50.0551C10.0776 50.1917 10.1314 50.3228 10.2273 50.4201L11.3352 51.5205C11.497 51.6828 11.5986 51.8954 11.6234 52.1232C11.6481 52.3511 11.5945 52.5805 11.4713 52.7738C10.6694 54.0284 10.0951 55.4147 9.7745 56.8688C9.72484 57.0925 9.60043 57.2926 9.42177 57.4362C9.24311 57.5797 9.02088 57.6581 8.7917 57.6584H7.22762C7.09129 57.6601 6.96103 57.715 6.86454 57.8113C6.76806 57.9076 6.71298 58.0378 6.71102 58.1741V61.1049C6.71297 61.2413 6.76803 61.3716 6.86449 61.468C6.96095 61.5645 7.09122 61.6195 7.22762 61.6215H8.78834C9.0174 61.6217 9.23955 61.7 9.41819 61.8434C9.59683 61.9867 9.72132 62.1867 9.77114 62.4102C10.0919 63.8646 10.6663 65.251 11.4679 66.5061C11.5908 66.6994 11.6441 66.9287 11.6193 67.1563C11.5944 67.384 11.4927 67.5964 11.331 67.7585L10.2273 68.8631C10.1314 68.9603 10.0777 69.0912 10.0777 69.2277C10.0777 69.3641 10.1314 69.4951 10.2273 69.5923L12.2995 71.6654C12.3968 71.7612 12.5279 71.815 12.6645 71.815C12.8011 71.815 12.9322 71.7612 13.0295 71.6654L14.1341 70.5608C14.2963 70.3991 14.5086 70.2974 14.7363 70.2725C14.9639 70.2476 15.1933 70.301 15.3865 70.4238C16.6417 71.2261 18.0285 71.8007 19.4832 72.1215C19.7067 72.1713 19.9065 72.2956 20.0499 72.4741C20.1932 72.6526 20.2715 72.8745 20.272 73.1034V74.6658C20.2737 74.8021 20.3286 74.9323 20.425 75.0286C20.5213 75.125 20.6515 75.1799 20.7877 75.1816H23.7185C23.8549 75.1801 23.9853 75.1253 24.0818 75.0289C24.1783 74.9325 24.2334 74.8022 24.2351 74.6658V73.1034C24.2355 72.8745 24.3139 72.6526 24.4572 72.4741C24.6006 72.2956 24.8004 72.1713 25.0239 72.1215C26.4783 71.8008 27.8648 71.2261 29.1197 70.4238C29.313 70.301 29.5423 70.2476 29.7699 70.2725C29.9976 70.2974 30.21 70.3991 30.3721 70.5608L31.4767 71.6654C31.5745 71.7603 31.7055 71.8133 31.8417 71.8133C31.978 71.8133 32.1089 71.7603 32.2067 71.6654L34.279 69.5931C34.3266 69.545 34.3643 69.4879 34.3898 69.4252C34.4153 69.3625 34.429 69.2954 34.4285 69.2277ZM50.5128 66.9295V66.4859C50.5143 64.8832 50.9662 63.3132 51.8169 61.955C52.6676 60.5967 53.883 59.5049 55.3243 58.8041V35.6646H48.7102V66.9295H50.5128ZM31.5893 59.6399C31.5923 60.9645 31.3128 62.2744 30.7694 63.4824C30.226 64.6904 29.4313 65.7686 28.4383 66.6451C27.4452 67.5216 26.2767 68.1763 25.0106 68.5654C23.7445 68.9546 22.4099 69.0692 21.096 68.9018C20.9513 68.9438 20.7989 68.9524 20.6503 68.9269C20.5017 68.9015 20.3609 68.8426 20.2384 68.7548C18.5198 68.3749 16.9436 67.5169 15.6917 66.2798C14.4397 65.0426 13.563 63.4768 13.1626 61.7629C12.7622 60.049 12.8544 58.2568 13.4287 56.5931C14.003 54.9293 15.0358 53.4618 16.4082 52.3598C17.7806 51.2578 19.4365 50.5661 21.185 50.3647C22.9335 50.1632 24.7033 50.4602 26.2904 51.2212C27.8774 51.9823 29.2169 53.1765 30.1545 54.666C31.0921 56.1556 31.5895 57.8799 31.5893 59.6399ZM19.8142 66.5447V52.7343C18.3854 53.2383 17.1481 54.1731 16.273 55.4099C15.3978 56.6466 14.9278 58.1244 14.9278 59.6395C14.9278 61.1546 15.3978 62.6324 16.273 63.8691C17.1481 65.1059 18.3854 66.0407 19.8142 66.5447ZM29.5767 59.6399C29.5747 57.698 28.8024 55.8362 27.4294 54.463C26.0563 53.0898 24.1946 52.3173 22.2527 52.3151C22.1091 52.3151 21.9679 52.3202 21.826 52.3286V66.9504C21.9679 66.9588 22.1091 66.9639 22.2527 66.9639C24.1945 66.9619 26.0562 66.1896 27.4293 64.8165C28.8024 63.4435 29.5747 61.5817 29.5767 59.6399Z" fill="#1A1A1A" stroke="#1A1A1A" stroke-width="0.4"/>
</g>
</svg>
