<svg width="85" height="84" viewBox="0 0 85 84" fill="none" xmlns="http://www.w3.org/2000/svg">
<g id="noun-renewable-energies-3846211 1">
<path id="Vector" d="M48.5444 79.9356H29.6358C26.5845 79.9203 23.6624 78.6942 21.5048 76.5237C19.3472 74.3531 18.1283 71.4137 18.1132 68.3441V57.7727C18.1132 57.5421 18.2042 57.321 18.3663 57.1579C18.5283 56.9949 18.7482 56.9033 18.9774 56.9033C19.2066 56.9033 19.4264 56.9949 19.5884 57.1579C19.7505 57.321 19.8416 57.5421 19.8416 57.7727V68.2977C19.8446 70.9222 20.8823 73.4383 22.7271 75.2941C24.5718 77.1499 27.073 78.1938 29.6819 78.1969H48.5444C51.1533 78.1938 53.6545 77.1499 55.4992 75.2941C57.344 73.4383 58.3817 70.9222 58.3848 68.2977V58.1204C58.3848 57.8899 58.4758 57.6687 58.6379 57.5057C58.8 57.3427 59.0198 57.2511 59.249 57.2511C59.4782 57.2511 59.698 57.3427 59.8601 57.5057C60.0221 57.6687 60.1132 57.8899 60.1132 58.1204V68.2977C60.1071 71.3824 58.8863 74.339 56.718 76.5202C54.5498 78.7014 51.6108 79.9295 48.5444 79.9356Z" fill="#1A1A1A" stroke="#1A1A1A" stroke-width="0.5"/>
<path id="Vector_2" d="M21.2848 58.2587H17.6498C16.7644 58.2614 15.8872 58.0851 15.0689 57.7401C14.2507 57.3951 13.5075 56.8881 12.8823 56.2485L11.9651 55.3127C10.703 54.0206 9.99094 52.273 9.9834 50.4489V44.2219C9.98633 43.9931 10.0768 43.7744 10.2354 43.6126C10.394 43.4507 10.6084 43.3585 10.8327 43.3555H28.1018C28.3262 43.3585 28.5405 43.4507 28.6991 43.6126C28.8578 43.7744 28.9482 43.9931 28.9511 44.2219V50.4489C28.9436 52.273 28.2316 54.0206 26.9694 55.3127L26.0522 56.2485C25.427 56.8881 24.6839 57.3951 23.8656 57.7401C23.0473 58.0851 22.1702 58.2614 21.2848 58.2587ZM11.682 45.0884V50.4489C11.6879 51.8139 12.2209 53.1214 13.1654 54.0881L14.0827 55.0239C15.0314 55.9843 16.3132 56.524 17.6498 56.5257H21.2848C21.9472 56.5287 22.6036 56.3974 23.2159 56.1396C23.8282 55.8818 24.3843 55.5026 24.8518 55.0239L25.7691 54.0881C26.7136 53.1214 27.2466 51.8139 27.2525 50.4489V45.0884H11.682Z" fill="#1A1A1A" stroke="#1A1A1A" stroke-width="0.5"/>
<path id="Vector_3" d="M28.7489 44.709H10.187C9.41455 44.709 8.67372 44.4949 8.1275 44.1138C7.58128 43.7327 7.27441 43.2158 7.27441 42.6768C7.27441 42.1378 7.58128 41.6209 8.1275 41.2398C8.67372 40.8586 9.41455 40.6445 10.187 40.6445H28.7489C29.5214 40.6445 30.2622 40.8586 30.8084 41.2398C31.3546 41.6209 31.6615 42.1378 31.6615 42.6768C31.6615 43.2158 31.3546 43.7327 30.8084 44.1138C30.2622 44.4949 29.5214 44.709 28.7489 44.709ZM10.187 41.8939C9.88943 41.8939 9.60402 41.9764 9.3936 42.1232C9.18317 42.27 9.06495 42.4691 9.06495 42.6768C9.06495 42.8844 9.18317 43.0836 9.3936 43.2304C9.60402 43.3772 9.88943 43.4597 10.187 43.4597H28.7489C29.0465 43.4597 29.3319 43.3772 29.5423 43.2304C29.7528 43.0836 29.871 42.8844 29.871 42.6768C29.871 42.4691 29.7528 42.27 29.5423 42.1232C29.3319 41.9764 29.0465 41.8939 28.7489 41.8939H10.187Z" fill="#1A1A1A" stroke="#1A1A1A" stroke-width="0.5"/>
<path id="Vector_4" d="M14.7056 44.7094H12.0362C11.8512 44.7094 11.6738 44.6041 11.543 44.4166C11.4122 44.229 11.3387 43.9747 11.3387 43.7095V33.8837C11.3736 33.1452 11.6028 32.4532 11.9801 31.9477C12.3574 31.4423 12.8545 31.1611 13.3709 31.1611C13.8873 31.1611 14.3844 31.4423 14.7617 31.9477C15.139 32.4532 15.3683 33.1452 15.4031 33.8837V43.7095C15.4044 43.8413 15.3872 43.9722 15.3526 44.0943C15.318 44.2164 15.2666 44.3273 15.2016 44.4206C15.1366 44.5138 15.0592 44.5874 14.974 44.637C14.8888 44.6866 14.7975 44.7112 14.7056 44.7094ZM12.7524 42.7496H14.008V33.8837C14.0093 33.7641 13.9938 33.6454 13.9624 33.5346C13.9311 33.4238 13.8845 33.3232 13.8256 33.2386C13.7666 33.1541 13.6964 33.0874 13.6191 33.0425C13.5418 32.9975 13.459 32.9753 13.3756 32.9771C13.2917 32.9753 13.2085 32.9975 13.1307 33.0423C13.0529 33.087 12.982 33.1535 12.9223 33.2379C12.8626 33.3222 12.8152 33.4228 12.7828 33.5337C12.7505 33.6445 12.7338 33.7635 12.7338 33.8837L12.7524 42.7496Z" fill="#1A1A1A" stroke="#1A1A1A" stroke-width="0.5"/>
<path id="Vector_5" d="M26.667 44.7094H23.1079C22.9853 44.7112 22.8636 44.6866 22.75 44.637C22.6364 44.5874 22.5332 44.5138 22.4465 44.4206C22.3598 44.3273 22.2914 44.2164 22.2452 44.0943C22.1991 43.9722 22.1762 43.8413 22.1778 43.7095V33.8837C22.2243 33.1452 22.53 32.4532 23.033 31.9477C23.5361 31.4423 24.1989 31.1611 24.8875 31.1611C25.576 31.1611 26.2388 31.4423 26.7419 31.9477C27.2449 32.4532 27.5506 33.1452 27.5971 33.8837V43.7095C27.5971 43.9747 27.4991 44.229 27.3247 44.4166C27.1502 44.6041 26.9137 44.7094 26.667 44.7094ZM24.038 42.7496H25.7989V33.8837C25.7989 33.7635 25.7767 33.6445 25.7336 33.5337C25.6904 33.4228 25.6272 33.3222 25.5476 33.2379C25.468 33.1535 25.3735 33.087 25.2698 33.0423C25.166 32.9975 25.055 32.9753 24.9433 32.9771C24.8321 32.9753 24.7216 32.9975 24.6186 33.0425C24.5155 33.0874 24.4219 33.1541 24.3432 33.2386C24.2646 33.3232 24.2026 33.4238 24.1608 33.5346C24.119 33.6454 24.0983 33.7641 24.1 33.8837L24.038 42.7496Z" fill="#1A1A1A" stroke="#1A1A1A" stroke-width="0.5"/>
<path id="Vector_6" d="M50.8664 44.7091C50.7373 44.7114 50.6094 44.6839 50.4931 44.6291C46.174 42.6366 42.6764 39.2612 40.5766 35.0591C38.4767 30.8571 37.9 26.0792 38.9415 21.5128C39.9829 16.9464 42.5803 12.8641 46.3057 9.93857C50.0311 7.01306 54.6621 5.41895 59.4355 5.41895C64.209 5.41895 68.84 7.01306 72.5654 9.93857C76.2908 12.8641 78.8882 16.9464 79.9296 21.5128C80.9711 26.0792 80.3943 30.8571 78.2945 35.0591C76.1947 39.2612 72.6971 42.6366 68.378 44.6291C68.1849 44.6919 67.9762 44.6919 67.783 44.6291C67.6207 44.6038 67.4554 44.6038 67.293 44.6291H51.6014C51.4351 44.6047 51.266 44.6047 51.0997 44.6291L50.8664 44.7091ZM59.4414 7.05022C55.0808 7.05359 50.85 8.50459 47.4384 11.1667C44.0268 13.8289 41.6356 17.5452 40.6546 21.71C39.6736 25.8748 40.1606 30.2426 42.0362 34.1014C43.9118 37.9601 47.0654 41.0825 50.9831 42.9594C51.181 42.9416 51.3801 42.9416 51.5781 42.9594H67.293C67.491 42.9416 67.6901 42.9416 67.888 42.9594C71.8048 41.0829 74.9579 37.9616 76.8337 34.1039C78.7094 30.2463 79.1973 25.8797 78.2178 21.7156C77.2383 17.5514 74.8492 13.8351 71.4396 11.1721C68.03 8.50901 63.801 7.05617 59.4414 7.05022Z" fill="#1A1A1A" stroke="#1A1A1A" stroke-width="0.5"/>
<path id="Vector_7" d="M67.047 50.1297H51.8231C50.7692 50.0841 49.7768 49.7074 49.0503 49.0772C48.3239 48.447 47.9189 47.6114 47.9189 46.7426C47.9189 45.8738 48.3239 45.0381 49.0503 44.4079C49.7768 43.7777 50.7692 43.401 51.8231 43.3555H67.047C68.1009 43.401 69.0934 43.7777 69.8198 44.4079C70.5462 45.0381 70.9512 45.8738 70.9512 46.7426C70.9512 47.6114 70.5462 48.447 69.8198 49.0772C69.0934 49.7074 68.1009 50.0841 67.047 50.1297ZM51.8231 44.7532C51.2108 44.7877 50.6372 45.0123 50.2183 45.3816C49.7994 45.7509 49.5664 46.2373 49.5664 46.7426C49.5664 47.2478 49.7994 47.7343 50.2183 48.1036C50.6372 48.4728 51.2108 48.6974 51.8231 48.732H67.047C67.6593 48.6974 68.2329 48.4728 68.6518 48.1036C69.0708 47.7343 69.3038 47.2478 69.3038 46.7426C69.3038 46.2373 69.0708 45.7509 68.6518 45.3816C68.2329 45.0123 67.6593 44.7877 67.047 44.7532H51.8231Z" fill="#1A1A1A" stroke="#1A1A1A" stroke-width="0.5"/>
<path id="Vector_8" d="M61.6466 58.2583H57.2236C55.4754 58.2554 53.7997 57.5755 52.5636 56.3676C51.3274 55.1597 50.6317 53.5223 50.6287 51.8141V49.6034C50.6287 49.3836 50.718 49.1727 50.8772 49.0172C51.0363 48.8618 51.2521 48.7744 51.4771 48.7744H67.3932C67.6182 48.7744 67.834 48.8618 67.9931 49.0172C68.1522 49.1727 68.2416 49.3836 68.2416 49.6034V51.8141C68.2386 53.5223 67.5428 55.1597 66.3066 56.3676C65.0705 57.5755 63.3948 58.2554 61.6466 58.2583ZM52.3255 50.5209V51.8694C52.3255 53.1387 52.8415 54.3561 53.7601 55.2537C54.6787 56.1513 55.9245 56.6555 57.2236 56.6555H61.6466C62.2946 56.6556 62.9362 56.53 63.5342 56.286C64.1322 56.042 64.6747 55.6845 65.1303 55.2342C65.5859 54.7839 65.9455 54.2498 66.1883 53.6627C66.4311 53.0756 66.5522 52.4473 66.5448 51.8141V50.4656L52.3255 50.5209Z" fill="#1A1A1A" stroke="#1A1A1A" stroke-width="0.5"/>
<path id="Vector_9" d="M57.8729 33.8637C57.7349 33.8635 57.5992 33.8263 57.4783 33.7557C57.314 33.6653 57.1821 33.5201 57.1026 33.3423C57.0232 33.1644 57.0007 32.9638 57.0386 32.771L57.9067 28.4723H55.5504C55.3849 28.4747 55.2224 28.4253 55.083 28.3302C54.9436 28.2352 54.8335 28.0987 54.7662 27.9376C54.699 27.7765 54.6777 27.5979 54.7048 27.424C54.732 27.2502 54.8065 27.0886 54.919 26.9593L61.5145 19.2625C61.6349 19.1215 61.7941 19.0248 61.9693 18.9863C62.1445 18.9479 62.3267 18.9695 62.4896 19.0483C62.6525 19.127 62.7877 19.2588 62.8759 19.4245C62.964 19.5903 63.0006 19.7816 62.9802 19.9709L62.4616 24.4257L64.7164 24.5218C64.8801 24.5278 65.0387 24.5844 65.1728 24.6846C65.3069 24.7848 65.4108 24.9243 65.4718 25.0862C65.5325 25.2457 65.5478 25.4207 65.5157 25.5894C65.4836 25.7581 65.4056 25.913 65.2914 26.0348L58.5832 33.5755C58.4965 33.6825 58.3862 33.7648 58.2622 33.8151C58.1382 33.8655 58.0044 33.8821 57.8729 33.8637ZM57.4558 26.6592H58.9552C59.0799 26.6585 59.2032 26.6872 59.3163 26.7433C59.4293 26.7993 59.5293 26.8813 59.6092 26.9834C59.6909 27.0866 59.7487 27.2088 59.7781 27.3402C59.8074 27.4716 59.8075 27.6084 59.7783 27.7398L59.3273 29.9973L62.7096 26.2269L61.4469 26.1668C61.33 26.1629 61.2152 26.1329 61.11 26.0787C61.0047 26.0246 60.9113 25.9474 60.8358 25.8523C60.7603 25.7572 60.7045 25.6463 60.6718 25.5267C60.6392 25.4071 60.6305 25.2816 60.6464 25.1582L60.9395 22.5646L57.4558 26.6592Z" fill="#1A1A1A" stroke="#1A1A1A" stroke-width="0.5"/>
<path id="Vector_10" d="M60.0547 40.6448C58.7205 40.6459 57.3925 40.467 56.1074 40.1131C53.6219 39.4369 51.3574 38.1344 49.5363 36.3334C49.4534 36.2537 49.3875 36.1584 49.3426 36.0532C49.2976 35.948 49.2744 35.835 49.2744 35.7208C49.2744 35.6066 49.2976 35.4935 49.3426 35.3883C49.3875 35.2831 49.4534 35.1878 49.5363 35.1081C49.701 34.9458 49.9243 34.8546 50.1571 34.8546C50.3899 34.8546 50.6132 34.9458 50.7779 35.1081C52.8888 37.1979 55.6587 38.5148 58.6304 38.8414C61.602 39.1681 64.5977 38.4851 67.1229 36.9051C69.6481 35.325 71.5519 32.9425 72.5199 30.1508C73.4879 27.359 73.4623 24.325 72.4473 21.5496C72.4009 21.4392 72.3782 21.3206 72.3805 21.2011C72.3828 21.0817 72.4101 20.964 72.4607 20.8555C72.5113 20.7469 72.5841 20.6499 72.6745 20.5704C72.7649 20.491 72.871 20.4308 72.9861 20.3937C73.0969 20.3459 73.2167 20.3216 73.3377 20.3223C73.4587 20.323 73.5782 20.3486 73.6885 20.3976C73.7989 20.4466 73.8976 20.5178 73.9783 20.6068C74.0591 20.6957 74.1201 20.8003 74.1574 20.9139C74.9559 23.1348 75.2026 25.5124 74.8768 27.847C74.551 30.1816 73.6622 32.4049 72.285 34.3302C70.9079 36.2554 69.0826 37.8264 66.9626 38.9112C64.8425 39.9959 62.4896 40.5627 60.1016 40.5639L60.0547 40.6448Z" fill="#1A1A1A" stroke="#1A1A1A" stroke-width="0.5"/>
<path id="Vector_11" d="M46.9701 32.5055C46.7898 32.5039 46.6141 32.4492 46.4656 32.3486C46.3172 32.2481 46.2028 32.1062 46.1373 31.9413C45.1772 29.3944 44.9566 26.6358 45.5 23.9731C46.0434 21.3104 47.3296 18.8482 49.215 16.8611C51.1004 14.874 53.511 13.44 56.178 12.7192C58.8449 11.9984 61.6634 12.019 64.3191 12.7787H64.3895C66.7731 13.464 68.9404 14.7319 70.6887 16.4638C70.7717 16.5432 70.8376 16.6381 70.8827 16.743C70.9277 16.8478 70.9509 16.9604 70.9509 17.0742C70.9509 17.1879 70.9277 17.3006 70.8827 17.4054C70.8376 17.5102 70.7717 17.6051 70.6887 17.6845C70.5237 17.8463 70.3001 17.9371 70.067 17.9371C69.8338 17.9371 69.6102 17.8463 69.4453 17.6845C67.9287 16.1834 66.0535 15.0789 63.9907 14.4716H63.932C61.5862 13.7763 59.0892 13.7377 56.7222 14.3602C54.3553 14.9827 52.2123 16.2416 50.5347 17.9951C48.8571 19.7486 47.7114 21.9271 47.2267 24.2852C46.742 26.6433 46.9375 29.0875 47.7912 31.3424C47.8399 31.4507 47.8651 31.5678 47.8652 31.6861C47.8653 31.8045 47.8403 31.9216 47.7917 32.0299C47.7431 32.1382 47.6721 32.2355 47.5832 32.3154C47.4942 32.3953 47.3893 32.4561 47.2751 32.494C47.1754 32.5187 47.0715 32.5226 46.9701 32.5055Z" fill="#1A1A1A" stroke="#1A1A1A" stroke-width="0.5"/>
<path id="Vector_12" d="M66.4323 19.2269C66.1946 19.2238 65.9675 19.128 65.7994 18.9598C65.6312 18.7917 65.5354 18.5646 65.5323 18.3269C65.5291 18.0902 65.6192 17.8618 65.7832 17.6911C65.9471 17.5204 66.1717 17.4212 66.4083 17.4149L70.4403 17.3069L69.3003 13.4429C69.2511 13.3261 69.2271 13.2002 69.2299 13.0734C69.2327 12.9467 69.2622 12.822 69.3166 12.7075C69.371 12.5929 69.4489 12.4912 69.5453 12.4089C69.6417 12.3266 69.7544 12.2656 69.876 12.2298C69.9977 12.1941 70.1255 12.1845 70.2511 12.2016C70.3767 12.2187 70.4973 12.2621 70.6049 12.3291C70.7126 12.396 70.8049 12.4849 70.8758 12.59C70.9467 12.6951 70.9946 12.814 71.0163 12.9389L72.4923 17.9189C72.534 18.05 72.5438 18.1892 72.5208 18.3249C72.4979 18.4606 72.4428 18.5888 72.3603 18.6989C72.2783 18.8106 72.1719 18.9022 72.0493 18.9666C71.9266 19.0311 71.7908 19.0667 71.6523 19.0709L66.4563 19.2149L66.4323 19.2269Z" fill="#1A1A1A"/>
<path id="Vector_13" d="M50.2225 40.6402C50.036 40.6392 49.8546 40.5784 49.7044 40.4667C49.5542 40.355 49.4429 40.1981 49.3864 40.0185L47.9583 35.1264C47.9179 34.9982 47.9084 34.8621 47.9307 34.7295C47.9529 34.5968 48.0061 34.4715 48.086 34.3638C48.1653 34.2546 48.2682 34.1651 48.387 34.1021C48.5057 34.039 48.637 34.0042 48.771 34.0001L53.7988 33.8711C54.0272 33.8736 54.2463 33.9632 54.4121 34.122C54.5779 34.2809 54.6782 34.4971 54.6928 34.7275C54.6959 34.8431 54.6764 34.9581 54.6355 35.066C54.5946 35.174 54.533 35.2727 54.4543 35.3566C54.3756 35.4405 54.2812 35.5079 54.1767 35.555C54.0722 35.602 53.9596 35.6278 53.8452 35.6308L49.9438 35.7247L51.1049 39.514C51.1386 39.6249 51.1499 39.7415 51.1382 39.8569C51.1265 39.9723 51.092 40.0841 51.0368 40.1858C50.9816 40.2875 50.9068 40.377 50.8168 40.449C50.7268 40.521 50.6234 40.5741 50.5127 40.605C50.4204 40.6411 50.3206 40.6532 50.2225 40.6402Z" fill="#1A1A1A"/>
</g>
</svg>
