<svg width="35" height="35" viewBox="0 0 35 35" fill="none" xmlns="http://www.w3.org/2000/svg">
<circle cx="17.5" cy="17.5" r="17.5" fill="white"/>
<g clip-path="url(#clip0_413_783)">
<path d="M14.009 17.9111V22.1448C14.009 22.4789 13.7409 22.7487 13.4091 22.7487H13.0389V24.3291C13.0389 24.5861 12.8347 24.7916 12.5794 24.7916C12.3241 24.7916 12.1199 24.5861 12.1199 24.3291V22.7487H11.6859C11.354 22.7487 11.0859 22.4789 11.0859 22.1448V18.7784H12.6113L14.009 17.9111Z" fill="#252533"/>
<path d="M18.2468 18.2773V20.5707C18.2468 20.9048 17.9787 21.1747 17.6469 21.1747H17.2767V22.7551C17.2767 23.0121 17.0725 23.2176 16.8171 23.2176C16.5619 23.2176 16.3577 23.0121 16.3577 22.7551V21.1747H15.9237C15.5918 21.1747 15.3237 20.9048 15.3237 20.5707V17.1016L16.6512 16.2793L18.2468 18.2773Z" fill="#252533"/>
<path d="M24.4119 21.6758V20.8985H20.7358L16.6512 15.7847L12.6112 18.2837H9.38822C9.0372 18.2837 8.75 17.9946 8.75 17.6413C8.75 17.288 9.0372 16.9989 9.38822 16.9989H11.0859V12.9837C11.0859 12.6496 11.3539 12.3798 11.6858 12.3798H12.1198V10.7865C12.1198 10.5295 12.324 10.324 12.5793 10.324C12.8346 10.324 13.0388 10.5295 13.0388 10.7865V12.3798H13.409C13.7409 12.3798 14.0089 12.6496 14.0089 12.9837V15.9132L15.3237 15.1037V11.4097C15.3237 11.0756 15.5917 10.8058 15.9236 10.8058H16.3576V9.21255C16.3576 8.95558 16.5618 8.75 16.8171 8.75C17.0724 8.75 17.2766 8.95558 17.2766 9.21255V10.8058H17.6468C17.9786 10.8058 18.2467 11.0756 18.2467 11.4097V15.7333L19.5614 17.3779V14.442C19.5614 14.1079 19.8295 13.8381 20.1614 13.8381H20.5954V12.2449C20.5954 11.9879 20.7996 11.7823 21.0549 11.7823C21.3102 11.7823 21.5144 11.9879 21.5144 12.2449V13.8381H21.8845C22.2164 13.8381 22.4845 14.1079 22.4845 14.442V19.6136H24.4183V18.8619L26.25 20.3589L24.4119 21.6758Z" fill="#252533"/>
<path d="M22.4846 21.393V23.603C22.4846 23.9371 22.2165 24.2069 21.8846 24.2069H21.5145V25.7873C21.5145 26.0443 21.3103 26.2499 21.055 26.2499C20.7997 26.2499 20.5955 26.0443 20.5955 25.7873V24.2069H20.1615C19.8296 24.2069 19.5615 23.9371 19.5615 23.603V19.9219L20.7359 21.393H22.4846Z" fill="#252533"/>
</g>
<defs>
<clipPath id="clip0_413_783">
<rect width="21" height="21" fill="white" transform="translate(7 7)"/>
</clipPath>
</defs>
</svg>
