<svg width="24" height="24" viewBox="0 0 24 24" fill="none" xmlns="http://www.w3.org/2000/svg">
<g id="Phone">
<path id="Vector" d="M21.4221 16.8834L21.9511 17.4154L21.4211 16.8834H21.4221ZM8.81605 14.7274L9.34405 14.1954L8.81505 14.7274H8.81605ZM4.69005 4.13545L4.16205 3.60445L4.69105 4.13645L4.69005 4.13545ZM16.6281 13.8914L17.0851 13.4384L16.0261 12.3744L15.5721 12.8274L16.6281 13.8914ZM18.6141 13.2484L20.5251 14.2874L21.2401 12.9694L19.3301 11.9314L18.6141 13.2484ZM20.8921 16.3514L19.4721 17.7644L20.5291 18.8274L21.9491 17.4154L20.8921 16.3514ZM18.6061 18.2184C17.1561 18.3544 13.4061 18.2334 9.34405 14.1954L8.28605 15.2584C12.7181 19.6654 16.9371 19.8814 18.7461 19.7124L18.6051 18.2184H18.6061ZM9.34405 14.1954C5.47305 10.3454 4.83105 7.10845 4.75105 5.70345L3.25305 5.78845C3.35305 7.55645 4.14805 11.1444 8.28605 15.2584L9.34405 14.1954ZM10.7191 8.01545L11.0061 7.72945L9.95005 6.66645L9.66305 6.95145L10.7201 8.01445L10.7191 8.01545ZM11.2341 4.09445L9.97405 2.41045L8.77305 3.31045L10.0331 4.99345L11.2341 4.09445ZM5.73305 2.04345L4.16305 3.60345L5.22105 4.66745L6.79005 3.10745L5.73305 2.04345ZM10.1911 7.48345C9.66105 6.95145 9.66105 6.95145 9.66105 6.95345H9.65905L9.65605 6.95745C9.60884 7.00564 9.56631 7.05821 9.52905 7.11445C9.47505 7.19445 9.41605 7.29945 9.36605 7.43245C9.24428 7.77576 9.21395 8.14486 9.27805 8.50345C9.41205 9.36845 10.0081 10.5114 11.5341 12.0294L12.5921 10.9654C11.1631 9.54545 10.8231 8.68145 10.7601 8.27345C10.7301 8.07945 10.7611 7.98345 10.7701 7.96145C10.7751 7.94745 10.7771 7.94645 10.7701 7.95545C10.7612 7.96932 10.7512 7.98237 10.7401 7.99445L10.7301 8.00445C10.7268 8.00756 10.7235 8.01056 10.7201 8.01345L10.1901 7.48345H10.1911ZM11.5341 12.0294C13.0611 13.5474 14.2101 14.1394 15.0761 14.2714C15.5191 14.3394 15.8761 14.2854 16.1471 14.1844C16.2986 14.1284 16.4403 14.0487 16.5671 13.9484C16.5843 13.9341 16.6009 13.9191 16.6171 13.9034L16.6241 13.8974L16.6271 13.8944L16.6281 13.8924C16.6281 13.8924 16.6291 13.8914 16.1001 13.3594C15.5701 12.8274 15.5731 12.8264 15.5731 12.8264L15.5751 12.8244L15.5771 12.8224L15.5831 12.8174L15.5931 12.8074C15.6051 12.7967 15.6178 12.7866 15.6311 12.7774C15.6411 12.7704 15.6381 12.7734 15.6241 12.7794C15.5991 12.7884 15.5011 12.8194 15.3041 12.7894C14.8901 12.7254 14.0201 12.3854 12.5921 10.9654L11.5341 12.0294ZM9.97405 2.40945C8.95405 1.04945 6.95005 0.833448 5.73305 2.04345L6.79005 3.10745C7.32205 2.57845 8.26605 2.63345 8.77305 3.31045L9.97305 2.40945H9.97405ZM4.75205 5.70445C4.73205 5.35845 4.89105 4.99645 5.22105 4.66845L4.16205 3.60445C3.62505 4.13845 3.20205 4.89445 3.25305 5.78845L4.75205 5.70445ZM19.4721 17.7644C19.1981 18.0384 18.9021 18.1924 18.6071 18.2194L18.7461 19.7124C19.4811 19.6434 20.0821 19.2734 20.5301 18.8284L19.4721 17.7644ZM11.0061 7.72945C11.9911 6.75045 12.0641 5.20345 11.2351 4.09545L10.0341 4.99445C10.4371 5.53345 10.3771 6.24045 9.94905 6.66745L11.0061 7.72945ZM20.5261 14.2884C21.3431 14.7324 21.4701 15.7784 20.8931 16.3524L21.9511 17.4154C23.2911 16.0824 22.878 13.8594 21.2411 12.9704L20.5261 14.2884ZM17.0851 13.4394C17.4691 13.0574 18.0871 12.9634 18.6151 13.2494L19.3311 11.9324C18.2471 11.3424 16.9031 11.5054 16.0271 12.3754L17.0851 13.4394Z" fill="url(#paint0_linear_88_1397)"/>
</g>
<defs>
<linearGradient id="paint0_linear_88_1397" x1="3.24988" y1="10.5007" x2="22.7517" y2="10.5007" gradientUnits="userSpaceOnUse">
<stop offset="0.03125" stop-color="#A197E5"/>
</linearGradient>
</defs>
</svg>
